<svg xmlns="http://www.w3.org/2000/svg" width="12" height="13" viewBox="0 0 12 13">
  <polygon fill="#616161" points="239.25 17.75 239.25 20 236.25 20 236.25 17.75 237 17.75 237 16.25 234 16.25 234 17.75 235.5 17.75 235.5 20 231.75 20 231.75 17.75 233.25 17.75 233.25 16.25 230.25 16.25 230.25 17.75 231 17.75 231 20 230.25 20 230.25 21.5 231 21.5 231 23.75 228 23.75 228 21.5 229.5 21.5 229.5 20 228 20 228 17.75 229.5 17.75 229.5 15.5 233.25 15.5 233.25 14 231.75 14 231.75 11.75 235.5 11.75 235.5 14 234 14 234 15.5 237.75 15.5 237.75 17.75" transform="translate(-228 -11)"/>
</svg>
