<svg width="16" height="16" viewBox="0 0 16 16" fill="none" xmlns="http://www.w3.org/2000/svg">
<path d="M9 4H7V7H6V6H4V7H3V8H13V7H12V5H10V7H9V4Z" fill="#424242"/>
<path d="M4 9H6V10H4V9Z" fill="#424242"/>
<path d="M9 9H7V10H9V9Z" fill="#424242"/>
<path d="M10 9H12V10H10V9Z" fill="#424242"/>
<path d="M6 11H4V12H6V11Z" fill="#424242"/>
<path d="M7 11H9V12H7V11Z" fill="#424242"/>
<path d="M12 11H10V12H12V11Z" fill="#424242"/>
<path fill-rule="evenodd" clip-rule="evenodd" d="M13 3H3L3 13H13V3ZM3 2C2.44772 2 2 2.44772 2 3V13C2 13.5523 2.44772 14 3 14H13C13.5523 14 14 13.5523 14 13V3C14 2.44772 13.5523 2 13 2H3Z" fill="#424242"/>
</svg>
