<svg width="16" height="16" viewBox="0 0 16 16" fill="none" xmlns="http://www.w3.org/2000/svg">
<path d="M4 4H6V5H4V4Z" fill="#C5C5C5"/>
<path d="M9 4H7V5H9V4Z" fill="#C5C5C5"/>
<path d="M4 8H7V9H4V8Z" fill="#C5C5C5"/>
<path d="M10 9V8H8V9H10Z" fill="#C5C5C5"/>
<path d="M4 10H7V11H4V10Z" fill="#C5C5C5"/>
<path d="M10 11V10H8V11H10Z" fill="#C5C5C5"/>
<path d="M12 8H11V9H12V8Z" fill="#C5C5C5"/>
<path d="M11 10H12V11H11V10Z" fill="#C5C5C5"/>
<path fill-rule="evenodd" clip-rule="evenodd" d="M2 3C2 2.44772 2.44772 2 3 2H13C13.5523 2 14 2.44772 14 3V13C14 13.5523 13.5523 14 13 14H3C2.44772 14 2 13.5523 2 13V3ZM3 3H13V6H3V3ZM3 7L3 13H4V12H7V13H8V12H10V13H11V12H12V13H13V7H3Z" fill="#C5C5C5"/>
</svg>
