<svg xmlns="http://www.w3.org/2000/svg" width="16" height="16" viewBox="0 0 16 16">
    <path
        fill="#D3A702"
        fillRule="evenodd"
        d="M8.5,10.999 L8.5,11.997 L7.501,11.997 L7.501,10.999 L8.5,10.999 Z M8.5,5.995 L8.5,10.003 L7.501,10.003 L7.501,5.995 L8.5,5.995 Z M2.3394,13.0013 L8.0004,2.5493 L13.6594,13.0003 L2.3394,13.0013 Z M14.9384,13.2623 L8.4394,1.2613 C8.3524,1.1003 8.1834,1.0003 8.0004,1.0003 C7.8164,1.0003 7.6484,1.1003 7.5604,1.2613 L1.0604,13.2633 C0.9764,13.4183 0.9804,13.6053 1.0704,13.7573 C1.1604,13.9083 1.3234,14.0013 1.5004,14.0013 L14.4984,14.0003 C14.6744,14.0003 14.8384,13.9073 14.9284,13.7563 C15.0184,13.6053 15.0224,13.4173 14.9384,13.2623 L14.9384,13.2623 Z"
    />
</svg>