<svg width="24" height="24" viewBox="0 0 24 24" fill="none" xmlns="http://www.w3.org/2000/svg">
<path fill-rule="evenodd" clip-rule="evenodd" d="M11.9026 1.98795C11.9352 2.00293 11.9677 2.01822 12 2.03382V3.17515C11.9678 3.15491 11.9354 3.13508 11.9026 3.11564C11.3004 3.4733 10.7896 3.96799 10.4132 4.55652C10.1546 4.96075 9.95929 5.40923 9.84114 5.88796C10.1739 6.2894 10.4404 6.72723 10.6408 7.18697C11.0729 7.06517 11.5289 7 12 7V8C9.79086 8 8 9.79086 8 12C8 14.2091 9.79086 16 12 16V17C11.5227 17 11.061 16.9331 10.6238 16.8082C10.4254 17.2539 10.1645 17.6785 9.84111 18.0687C9.95983 18.5498 10.1564 19.0002 10.4169 19.406C10.793 19.992 11.3023 20.4846 11.9026 20.8411C11.9353 20.8216 11.9678 20.8018 12 20.7815V21.9229C11.9677 21.9385 11.9352 21.9538 11.9026 21.9688C11.7272 21.8883 11.5568 21.7988 11.392 21.7009C10.6549 21.263 10.0294 20.6569 9.56849 19.9356C9.55279 19.911 9.53728 19.8863 9.52196 19.8614C9.5061 19.8357 9.49044 19.8098 9.475 19.7838C9.3016 19.4919 9.15458 19.1825 9.03723 18.8589C8.76644 19.0756 8.47985 19.2627 8.18174 19.4204C6.79847 20.1522 5.16743 20.2494 3.71834 19.712C3.24861 18.4453 3.26374 17.0396 3.76371 15.7819C3.88697 15.4719 4.03971 15.1708 4.22191 14.883C3.90021 14.7742 3.59191 14.6364 3.30016 14.4725C3.22564 14.4307 3.1522 14.3871 3.07989 14.342C3.05924 14.3291 3.03869 14.316 3.01822 14.3029C2.30344 13.8429 1.70273 13.221 1.2679 12.489C1.16999 12.3242 1.08049 12.1538 1 11.9784C1.08049 11.803 1.16999 11.6326 1.2679 11.4678C1.70894 10.7253 2.32065 10.0961 3.04894 9.63427C3.13124 9.58208 3.21502 9.53203 3.30022 9.48419C3.59197 9.32036 3.90027 9.18251 4.22197 9.07375C4.03977 8.78597 3.88703 8.48489 3.76376 8.17481C3.26377 6.91709 3.24864 5.51138 3.71837 4.2447C5.16746 3.70733 6.7985 3.80452 8.18177 4.53627C8.47987 4.69396 8.76647 4.88113 9.03726 5.09777C9.15461 4.77414 9.30163 4.46474 9.47503 4.17284C9.50173 4.12788 9.52907 4.08334 9.55701 4.03922C10.019 3.3099 10.6488 2.69736 11.392 2.25584C11.5568 2.15794 11.7272 2.06844 11.9026 1.98795ZM9.70974 7.5542C9.54777 7.1905 9.33488 6.84421 9.07122 6.52609L8.77473 6.16837L8.41256 5.87863C7.29462 4.98426 5.84342 4.70391 4.51578 5.0421C4.21675 6.21625 4.4014 7.48776 5.06687 8.53882L5.30201 8.91022L5.60788 9.23155C5.63375 9.25874 5.66001 9.28565 5.68666 9.3123C6.15454 9.78018 6.70012 10.1228 7.28215 10.34C7.70743 9.13131 8.58406 8.13527 9.70974 7.5542ZM7.04614 11.3179C6.29133 11.0553 5.58257 10.6224 4.97955 10.0194C4.94706 9.98691 4.91506 9.95411 4.88356 9.92102C4.41596 10.0383 3.97746 10.2293 3.58117 10.4809C2.98711 10.8581 2.4879 11.3718 2.12769 11.9783C2.48789 12.5849 2.98709 13.0986 3.58113 13.4758C3.97741 13.7275 4.4159 13.9184 4.88348 14.0357C4.915 14.0026 4.94701 13.9698 4.97952 13.9373C5.58108 13.3357 6.28789 12.9035 7.04067 12.6407C7.01383 12.4309 7 12.2171 7 12C7 11.7686 7.01572 11.5409 7.04614 11.3179ZM7.26884 13.6216C6.69179 13.8391 6.15095 14.1801 5.68663 14.6444C5.65996 14.6711 5.63369 14.698 5.60781 14.7252L5.30195 15.0465L5.06681 15.4179C4.40136 16.469 4.21672 17.7405 4.51575 18.9146C5.84338 19.2528 7.29459 18.9724 8.41253 18.0781L8.7747 17.7883L9.07119 17.4306C9.32636 17.1227 9.53397 16.7885 9.69389 16.4376C8.56398 15.8492 7.687 14.8419 7.26884 13.6216Z" fill="black"/>
<path d="M9 12C9 10.3431 10.3431 9 12 9V15C10.3431 15 9 13.6569 9 12Z" fill="black"/>
<path fill-rule="evenodd" clip-rule="evenodd" d="M16.5 5C17.3284 5 18 4.32843 18 3.5C18 2.67157 17.3284 2 16.5 2C16.1385 2 15.8069 2.12786 15.5479 2.34082L15.2071 2H13V3H14.7929L15.024 3.23114C15.0082 3.31837 15 3.40822 15 3.5C15 4.32843 15.6716 5 16.5 5ZM16.5 4C16.7761 4 17 3.77614 17 3.5C17 3.22386 16.7761 3 16.5 3C16.2239 3 16 3.22386 16 3.5C16 3.77614 16.2239 4 16.5 4Z" fill="black"/>
<path fill-rule="evenodd" clip-rule="evenodd" d="M13 9H14.7071L15.8533 10.1462C16.0491 10.0525 16.2684 10 16.5 10C17.3284 10 18 10.6716 18 11.5C18 12.3284 17.3284 13 16.5 13C15.6716 13 15 12.3284 15 11.5C15 11.2684 15.0525 11.0491 15.1462 10.8533L14.2929 10H13V9ZM16.5 12C16.7761 12 17 11.7761 17 11.5C17 11.2239 16.7761 11 16.5 11C16.2239 11 16 11.2239 16 11.5C16 11.7761 16.2239 12 16.5 12Z" fill="black"/>
<path fill-rule="evenodd" clip-rule="evenodd" d="M19.5 11C20.3284 11 21 10.3284 21 9.5C21 8.67157 20.3284 8 19.5 8C19.2684 8 19.0491 8.05248 18.8533 8.14619L17.7071 7H13V8H17.2929L18.1462 8.85329C18.0525 9.04911 18 9.26843 18 9.5C18 10.3284 18.6716 11 19.5 11ZM19.5 10C19.7761 10 20 9.77614 20 9.5C20 9.22386 19.7761 9 19.5 9C19.2239 9 19 9.22386 19 9.5C19 9.77614 19.2239 10 19.5 10Z" fill="black"/>
<path fill-rule="evenodd" clip-rule="evenodd" d="M23 15.5C23 16.3284 22.3284 17 21.5 17C20.8469 17 20.2913 16.5826 20.0854 16H16.7929L15.7929 15H13V14H16.2071L17.2071 15H20.0854C20.2913 14.4174 20.8469 14 21.5 14C22.3284 14 23 14.6716 23 15.5ZM22 15.5C22 15.7761 21.7761 16 21.5 16C21.2239 16 21 15.7761 21 15.5C21 15.2239 21.2239 15 21.5 15C21.7761 15 22 15.2239 22 15.5Z" fill="black"/>
<path fill-rule="evenodd" clip-rule="evenodd" d="M16.5 20C17.3284 20 18 19.3284 18 18.5C18 17.6716 17.3284 17 16.5 17C16.2684 17 16.0491 17.0525 15.8533 17.1462L14.7071 16H13V17H14.2929L15.1462 17.8533C15.0525 18.0491 15 18.2684 15 18.5C15 19.3284 15.6716 20 16.5 20ZM16.5 19C16.7761 19 17 18.7761 17 18.5C17 18.2239 16.7761 18 16.5 18C16.2239 18 16 18.2239 16 18.5C16 18.7761 16.2239 19 16.5 19Z" fill="black"/>
<path fill-rule="evenodd" clip-rule="evenodd" d="M20.5 21C21.3284 21 22 20.3284 22 19.5C22 18.6716 21.3284 18 20.5 18C19.6716 18 19 18.6716 19 19.5C19 19.7316 19.0525 19.9509 19.1462 20.1467L18.2929 21H13V22H18.7071L19.8533 20.8538C20.0491 20.9475 20.2684 21 20.5 21ZM20.5 20C20.7761 20 21 19.7761 21 19.5C21 19.2239 20.7761 19 20.5 19C20.2239 19 20 19.2239 20 19.5C20 19.7761 20.2239 20 20.5 20Z" fill="black"/>
</svg>
