<svg id="Product_Icons" data-name="Product Icons" xmlns="http://www.w3.org/2000/svg" viewBox="0 0 36 36">
  <defs>
    <style>.cls-1{fill:#4285f4;}.cls-2{fill:#669df6;fill-rule:evenodd;}</style>
  </defs>
  <title>Cloud Translation API</title>
  <g id="Group">
    <path id="Shape" class="cls-1" d="M26.86,15.3H24.14L18,31.5h2.73l1.53-4.05h6.48l1.53,4.05H33Zm-3.58,9.45L25.5,18.9l2.22,5.85Z"/>
    <path id="Path" class="cls-2" d="M19.19,22.15l-3.47-3.39,0,0a23.45,23.45,0,0,0,5.06-8.81h4V7.2H15.27V4.5H12.55V7.2H3V9.89H18.23a21.35,21.35,0,0,1-4.32,7.23,20.87,20.87,0,0,1-3.15-4.52H8a23.78,23.78,0,0,0,4.07,6.16L5.16,25.54l1.93,1.91,6.82-6.75,4.24,4.2Z"/>
  </g>
</svg>