<svg width="20" height="20" viewBox="0 0 20 20" fill="none" xmlns="http://www.w3.org/2000/svg">
<path fill-rule="evenodd" clip-rule="evenodd" d="M15 6.66666H14.1667V4.99999C14.1667 2.69999 12.3 0.833328 9.99999 0.833328C7.69999 0.833328 5.83333 2.69999 5.83333 4.99999H7.49999C7.49999 3.61666 8.61666 2.49999 9.99999 2.49999C11.3833 2.49999 12.5 3.61666 12.5 4.99999V6.66666H4.99999C4.08333 6.66666 3.33333 7.41666 3.33333 8.33333V16.6667C3.33333 17.5833 4.08333 18.3333 4.99999 18.3333H15C15.9167 18.3333 16.6667 17.5833 16.6667 16.6667V8.33333C16.6667 7.41666 15.9167 6.66666 15 6.66666ZM4.99999 16.6667V8.33333H15V16.6667H4.99999ZM11.6667 12.5C11.6667 13.4205 10.9205 14.1667 9.99999 14.1667C9.07952 14.1667 8.33333 13.4205 8.33333 12.5C8.33333 11.5795 9.07952 10.8333 9.99999 10.8333C10.9205 10.8333 11.6667 11.5795 11.6667 12.5Z" fill="#5F6368"/>
</svg>
