<svg width="16" height="16" viewBox="0 0 16 16" fill="none" xmlns="http://www.w3.org/2000/svg">
<path d="M14 4.00001L13.06 4.94001L12 3.88668H11.9933C11.94 7.03334 10.7867 8.08001 9.86 8.91334C9.14 9.55334 8.66667 9.98001 8.66667 11.3333V14.6667H7.33333V11.3333C7.33333 10.0933 6.92667 9.63334 6.30667 9.06668L7.25333 8.12001C7.51333 8.36001 7.78 8.62668 8.00667 8.94668C8.3 8.53334 8.64 8.21334 8.97333 7.91334C9.82 7.15334 10.62 6.42668 10.6667 3.88668L9.61333 4.94001L8.66667 4.00001L11.3333 1.33334L14 4.00001ZM5.43333 5.12668C5.38 4.77334 5.34667 4.36001 5.34 3.89334L6.38667 4.94001L7.33333 4.00001L4.66667 1.33334L2 4.00001L2.94 4.94001L4 3.88668H4.00667C4.02 4.47334 4.06 5.00001 4.14 5.45334L5.43333 5.12668ZM5.67333 6.10001L4.38 6.42001C4.68 7.32668 5.12667 7.92001 5.57333 8.38001L6.52 7.43334C6.18667 7.10001 5.88667 6.69334 5.67333 6.10001Z" fill="#5F6368"/>
</svg>
