<svg width="16" height="16" viewBox="0 0 16 16" fill="none" xmlns="http://www.w3.org/2000/svg">
<path fill-rule="evenodd" clip-rule="evenodd" d="M15.1111 8.00668L12.1219 5.01744L10.4481 6.69126L11.7635 8.00668L10.4481 9.3221L12.1219 10.9959L15.1111 8.00668ZM7.99331 0.888889L10.9825 3.87813L9.30873 5.55194L7.99331 4.23652L6.67789 5.55194L5.00407 3.87813L7.99331 0.888889ZM8.00665 15.1111L5.01742 12.1219L6.69123 10.4481L8.00665 11.7635L9.32208 10.4481L10.9959 12.1219L8.00665 15.1111ZM0.888889 7.99333L3.87813 10.9826L5.55194 9.30876L4.23652 7.99333L5.55194 6.67791L3.87813 5.0041L0.888889 7.99333ZM8.00666 6.50537L9.50795 8.00666L8.00666 9.50795L6.50537 8.00666L8.00666 6.50537Z" fill="#5F6368"/>
</svg>
