<svg width="16" height="16" viewBox="0 0 16 16" fill="none" xmlns="http://www.w3.org/2000/svg">
<path d="M11.56 4.19199C10.968 4.12799 10.424 4.55999 10.272 5.13599L9.82401 6.80799L9.23201 5.18399C9.02401 4.62399 8.45601 4.23999 7.86401 4.35199C7.12001 4.49599 6.70401 5.26399 6.96001 5.94399L7.57601 7.63199L6.10401 6.60799C5.56001 6.22399 4.80801 6.35999 4.43201 6.89599C4.04801 7.43999 4.18401 8.18399 4.72801 8.56799L6.19201 9.59999H4.40001C3.73601 9.59999 3.20001 10.136 3.20001 10.8C3.20001 11.464 3.73601 12 4.40001 12H10.304C10.664 12 10.984 11.76 11.08 11.408L12.608 5.70399C12.8 4.99999 12.32 4.27199 11.56 4.19199ZM5.90401 7.92799C5.71201 8.19999 5.33601 8.26399 5.07201 8.07199C4.80801 7.87999 4.72801 7.51199 4.92001 7.23999C5.11201 6.97599 5.48801 6.90399 5.76001 7.09599C6.03201 7.28799 6.09601 7.66399 5.90401 7.92799ZM7.88001 4.97599C8.19201 4.86399 8.53601 5.02399 8.64801 5.33599C8.76001 5.64799 8.60001 5.99199 8.28801 6.10399C7.97601 6.21599 7.63201 6.05599 7.52001 5.74399C7.40801 5.43199 7.56801 5.08799 7.88001 4.97599ZM4.40001 11.4C4.07201 11.4 3.80001 11.128 3.80001 10.8C3.80001 10.472 4.07201 10.2 4.40001 10.2C4.72801 10.2 5.00001 10.472 5.00001 10.8C5.00001 11.128 4.72801 11.4 4.40001 11.4ZM12.032 5.54399C11.944 5.86399 11.616 6.05599 11.296 5.96799C10.976 5.87999 10.784 5.55199 10.872 5.23199C10.96 4.91199 11.288 4.71999 11.608 4.80799C11.928 4.89599 12.112 5.22399 12.032 5.54399Z" fill="#5F6368"/>
</svg>
