<svg width="20" height="20" viewBox="0 0 20 20" fill="none" xmlns="http://www.w3.org/2000/svg">
<path fill-rule="evenodd" clip-rule="evenodd" d="M3.32998 1.67H16.67C17.1094 1.67262 17.5301 1.84836 17.8409 2.1591C18.1516 2.46984 18.3274 2.89055 18.33 3.33V13.33C18.33 13.7712 18.1554 14.1944 17.8444 14.5073C17.5334 14.8202 17.1112 14.9974 16.67 15H4.99998L1.66998 18.33V3.33C1.67261 2.89055 1.84834 2.46984 2.15908 2.1591C2.46983 1.84836 2.89053 1.67262 3.32998 1.67ZM3.32998 13.33H16.67V3.33H3.32998V13.33Z" fill="#5F6368"/>
<path fill-rule="evenodd" clip-rule="evenodd" d="M12.35 5.2L12.8 5.65C12.8635 5.71069 12.9141 5.78363 12.9486 5.86441C12.9832 5.9452 13.001 6.03214 13.001 6.12C13.001 6.20786 12.9832 6.29481 12.9486 6.37559C12.9141 6.45637 12.8635 6.52931 12.8 6.59L8.39 11H7V9.61L11.41 5.2C11.4707 5.13647 11.5436 5.08591 11.6244 5.05136C11.7052 5.01681 11.7921 4.999 11.88 4.999C11.9679 4.999 12.0548 5.01681 12.1356 5.05136C12.2164 5.08591 12.2893 5.13647 12.35 5.2ZM7.67 10.33H8.14L11.41 7.06L10.94 6.59L7.67 9.88V10.33Z" fill="#5F6368"/>
</svg>
