<svg width="20" height="20" viewBox="0 0 20 20" fill="none" xmlns="http://www.w3.org/2000/svg">
<path d="M5.59561 16.5437L5.71202 16.5753L5.75367 16.4621L6.19179 15.2713L6.23722 15.1478L6.11375 15.1023C5.60768 14.9157 5.31192 14.387 5.28888 13.4144V11.9627C5.28888 11.4393 5.17755 10.9846 4.94833 10.6046C4.75833 10.2897 4.49083 10.0318 4.14993 9.82999C4.49074 9.62835 4.75822 9.37114 4.94823 9.05713C5.17751 8.67825 5.28888 8.22518 5.28888 7.70392V6.2455C5.31192 5.27294 5.60768 4.74419 6.11375 4.55767L6.23745 4.51208L6.1917 4.38844L5.75359 3.20431L5.71168 3.09103L5.59521 3.12304C4.76121 3.35227 4.11634 3.72475 3.67287 4.24808L3.67241 4.24863C3.23146 4.77478 3.00924 5.4588 2.99494 6.28878L2.99492 6.28878V6.29105V7.70392C2.99492 8.14439 2.90357 8.45026 2.74337 8.64448C2.58717 8.83384 2.34784 8.93804 2 8.93804H1.86833V9.0697V10.597V10.7286H2C2.34805 10.7286 2.58744 10.8324 2.74357 11.0207C2.90362 11.2138 2.99492 11.5179 2.99492 11.956V13.2881C2.99492 14.1275 3.20985 14.8274 3.64966 15.377C4.08888 15.9259 4.74211 16.3121 5.59561 16.5437ZM13.6862 15.1023L13.5628 15.1478L13.6082 15.2713L14.0463 16.4621L14.088 16.5753L14.2044 16.5437C15.0413 16.3167 15.6857 15.941 16.1247 15.4088C16.5645 14.8758 16.7883 14.1978 16.805 13.385L16.8051 13.385V13.3823V11.9493C16.8051 11.5135 16.8963 11.2112 17.0562 11.0193C17.2123 10.832 17.4517 10.7286 17.8 10.7286H17.9317V10.597V9.0697V8.93804H17.8C17.4522 8.93804 17.2128 8.83384 17.0566 8.64448C16.8964 8.45026 16.8051 8.14439 16.8051 7.70392L16.8051 6.3516L16.8051 6.35086C16.8003 5.50336 16.5833 4.80559 16.1424 4.26991C15.7031 3.73174 15.0526 3.35215 14.2042 3.12289L14.0881 3.09152L14.0464 3.20431L13.6083 4.38844L13.5625 4.51208L13.6862 4.55767C14.1923 4.74419 14.4881 5.27295 14.5111 6.24553V7.70392C14.5111 8.22742 14.6231 8.68175 14.8537 9.06077C15.0443 9.37414 15.3125 9.63011 15.654 9.82996C15.3125 10.0298 15.0443 10.2858 14.8537 10.5992C14.6231 10.9782 14.5111 11.4325 14.5111 11.956V13.4144C14.4881 14.387 14.1923 14.9157 13.6862 15.1023Z" fill="#5F6368" stroke="#5F6368" stroke-width="0.263333"/>
</svg>
