<svg width="16" height="16" viewBox="0 0 16 16" fill="none" xmlns="http://www.w3.org/2000/svg">
<path fill-rule="evenodd" clip-rule="evenodd" d="M12.1467 10.8133L14.7933 13.46L13.8533 14.4L11.0933 11.64L7.99999 14.0467L1.99999 9.38L3.07999 8.54L7.99332 12.36L10.14 10.6933L9.18666 9.74L7.99999 10.6667L3.08666 6.84667L1.99999 6L3.93999 4.49333L1.59332 2.14667L2.53999 1.20667L4.99999 3.66667L5.95332 4.62L9.29332 7.96L10.2467 8.91333L11.2 9.86666L12.1467 10.8133ZM4.17334 6L8.00001 8.98L8.24001 8.78667L4.89334 5.44L4.17334 6ZM13.2133 9.99333L14 9.37999L12.9133 8.53333L12.26 9.03999L13.2133 9.99333ZM11.8267 6L8.00002 3.02L7.01335 3.79333L6.06002 2.84L8.00002 1.33333L14 6L12.9067 6.84667L11.3067 8.09333L10.36 7.14L11.8267 6Z" fill="#5F6368"/>
</svg>
