<svg width="16" height="16" viewBox="0 0 16 16" fill="none" xmlns="http://www.w3.org/2000/svg">
<path d="M6.4 9.86402C6.98763 9.86402 7.464 9.38765 7.464 8.80002C7.464 8.21239 6.98763 7.73602 6.4 7.73602C5.81237 7.73602 5.336 8.21239 5.336 8.80002C5.336 9.38765 5.81237 9.86402 6.4 9.86402Z" fill="#5F6368"/>
<path d="M3.19999 11.464V6.136H9.59999V9.6H10.664V6.136C10.664 5.85307 10.5522 5.58161 10.3528 5.38079C10.1535 5.17998 9.88291 5.06611 9.59999 5.064H9.06399V4C9.06399 3.29346 8.78332 2.61586 8.28372 2.11627C7.78412 1.61667 7.10652 1.336 6.39999 1.336C5.69345 1.336 5.01585 1.61667 4.51625 2.11627C4.01666 2.61586 3.73599 3.29346 3.73599 4V5.064H3.19999C2.91706 5.06611 2.64645 5.17998 2.44713 5.38079C2.24782 5.58161 2.13598 5.85307 2.13599 6.136V11.464C2.13598 11.7469 2.24782 12.0184 2.44713 12.2192C2.64645 12.42 2.91706 12.5339 3.19999 12.536H7.19999V11.464H3.19999ZM4.79999 4C4.79999 3.57565 4.96856 3.16869 5.26862 2.86863C5.56867 2.56857 5.97564 2.4 6.39999 2.4C6.82433 2.4 7.2313 2.56857 7.53136 2.86863C7.83142 3.16869 7.99999 3.57565 7.99999 4V5.064H4.79999V4Z" fill="#5F6368"/>
<path fill-rule="evenodd" clip-rule="evenodd" d="M8.896 12.544L8.648 12.984L8.256 12.8L8.512 12.36H8V11.904H8.512L8.256 11.464L8.648 11.24L8.896 11.68L9.152 11.24L9.544 11.464L9.288 11.904H9.8V12.36H9.288L9.544 12.8L9.152 13.024L8.896 12.544ZM8.304 14.2V14.8H14.304V14.2H8.304ZM10.656 12.8L11.048 13.024L11.296 12.584L11.552 13.024L11.944 12.8L11.688 12.36H12.2V11.904H11.688L11.944 11.464L11.552 11.2L11.296 11.64L11.048 11.2L10.656 11.424L10.912 11.864H10.4V12.32H10.912L10.656 12.8ZM14.344 11.464L14.088 11.904H14.6V12.36H14.088L14.344 12.8L13.952 13.024L13.696 12.584L13.448 13.024L13.056 12.8L13.312 12.36H12.8V11.904H13.312L13.056 11.464L13.448 11.24L13.696 11.68L13.952 11.24L14.344 11.464Z" fill="#5F6368"/>
</svg>
