<svg width="16" height="16" viewBox="0 0 16 16" fill="none" xmlns="http://www.w3.org/2000/svg">
<path d="M10.87 8.00006C10.95 8.32006 11 8.65506 11 9.00006C11 9.34506 10.95 9.68006 10.87 10.0001H9.18C9.22 9.67006 9.25 9.34006 9.25 9.00006C9.25 8.66006 9.22 8.33006 9.18 8.00006H8.17C8.215 8.32506 8.25 8.66006 8.25 9.00006C8.25 9.34006 8.215 9.67006 8.17 10.0001H5.83C5.785 9.67006 5.75 9.34006 5.75 9.00006C5.75 8.66006 5.785 8.32506 5.83 8.00006H8V4.10006C7.675 4.03506 7.34 4.00006 6.995 4.00006C4.235 4.00006 2 6.24006 2 9.00006C2 11.7601 4.235 14.0001 6.995 14.0001C9.76 14.0001 12 11.7601 12 9.00006C12 8.66006 11.965 8.32506 11.9 8.00006H10.87ZM7 5.02006C7.415 5.62006 7.74 6.28506 7.955 7.00006H6.045C6.26 6.28506 6.585 5.62006 7 5.02006ZM3.13 10.0001C3.05 9.68006 3 9.34506 3 9.00006C3 8.65506 3.05 8.32006 3.13 8.00006H4.82C4.78 8.33006 4.75 8.66006 4.75 9.00006C4.75 9.34006 4.78 9.67006 4.82 10.0001H3.13ZM3.54 11.0001H5.015C5.175 11.6251 5.405 12.2251 5.705 12.7801C4.785 12.4651 4.02 11.8301 3.54 11.0001ZM5.015 7.00006H3.54C4.02 6.17006 4.785 5.53506 5.705 5.22006C5.405 5.77506 5.175 6.37506 5.015 7.00006ZM7 12.9801C6.585 12.3801 6.26 11.7151 6.045 11.0001H7.955C7.74 11.7151 7.415 12.3801 7 12.9801ZM8.295 12.7801C8.595 12.2251 8.825 11.6251 8.985 11.0001H10.46C9.98 11.8251 9.215 12.4651 8.295 12.7801Z" fill="#5F6368"/>
<path d="M10.3839 3.38388L13.1516 3.38388L13.1516 6.15165L12.176 6.15165L12.1725 5.05492L10.7298 6.49762L10.0379 5.80568L11.4806 4.36297L10.3839 4.35952L10.3839 3.38388Z" fill="#5F6368"/>
</svg>
