<svg width="16" height="16" viewBox="0 0 16 16" fill="none" xmlns="http://www.w3.org/2000/svg">
<path fill-rule="evenodd" clip-rule="evenodd" d="M10.6667 12H4.00002V3.99999H10.6667V4.66666H12V1.99999C12 1.26666 11.4 0.666656 10.6667 0.666656L4.00002 0.673323C3.26669 0.673323 2.66669 1.26666 2.66669 1.99999V14C2.66669 14.7333 3.26669 15.3333 4.00002 15.3333H10.6667C11.4 15.3333 12 14.7333 12 14V11.3333H10.6667V12ZM3.99994 2H10.6666V2.66667H3.99994V2ZM3.99994 13.3333V14H10.6666V13.3333H3.99994ZM13.8732 8.49333L13.3266 8.07333V7.92667L13.8599 7.50667C13.9666 7.42667 13.9932 7.28 13.9266 7.16667L13.3599 6.18C13.3132 6.09333 13.2199 6.04667 13.1266 6.04667C13.0932 6.04667 13.0599 6.05333 13.0266 6.06667L12.3932 6.32L12.3774 6.31007C12.3353 6.2837 12.3143 6.27052 12.2666 6.24667L12.1666 5.57333C12.1466 5.43333 12.0332 5.33333 11.8999 5.33333H10.7599C10.6266 5.33333 10.5132 5.43333 10.4932 5.56L10.3999 6.23333C10.3899 6.24 10.3782 6.245 10.3666 6.25L10.3666 6.25C10.3549 6.255 10.3432 6.26 10.3332 6.26667L10.2732 6.30667L9.6399 6.05333C9.60656 6.04 9.57323 6.03333 9.5399 6.03333C9.44656 6.03333 9.3599 6.08 9.30656 6.16667L8.7399 7.15333C8.67323 7.26667 8.6999 7.41333 8.80656 7.49333L9.3399 7.91333V8.06667L8.80656 8.48667C8.6999 8.56667 8.67323 8.71333 8.7399 8.82667L9.30656 9.81333C9.35323 9.9 9.44656 9.94667 9.5399 9.94667C9.57323 9.94667 9.60656 9.94 9.6399 9.92667L10.2732 9.68C10.3266 9.71333 10.3532 9.72666 10.4066 9.75333L10.4066 9.75333L10.5066 10.4267C10.5266 10.56 10.6399 10.6533 10.7732 10.6533H11.9132C12.0466 10.6533 12.1599 10.5533 12.1799 10.4267L12.2799 9.75333C12.2899 9.74667 12.3016 9.74167 12.3132 9.73667L12.3132 9.73667C12.3249 9.73167 12.3366 9.72667 12.3466 9.72L12.4066 9.68L13.0399 9.93333C13.0732 9.94667 13.1066 9.95333 13.1399 9.95333C13.2332 9.95333 13.3199 9.90667 13.3732 9.82L13.9399 8.83333C14.0066 8.72 13.9799 8.57333 13.8732 8.49333ZM10.3333 8C10.3333 8.55333 10.7799 9 11.3333 9C11.8866 9 12.3333 8.55333 12.3333 8C12.3333 7.44667 11.8866 7 11.3333 7C10.7799 7 10.3333 7.44667 10.3333 8Z" fill="#5F6368"/>
</svg>
