<svg width="20" height="20" viewBox="0 0 20 20" fill="none" xmlns="http://www.w3.org/2000/svg">
<g clip-path="url(#clip0)">
<path d="M15.33 10.67C15.2713 10.167 15.0302 9.70299 14.6525 9.36576C14.2747 9.02853 13.7864 8.84147 13.28 8.83999C13.1958 8.21736 12.9117 7.63892 12.4704 7.19169C12.0291 6.74447 11.4545 6.45266 10.833 6.36018C10.2116 6.26769 9.57689 6.37953 9.02449 6.67888C8.47208 6.97822 8.03184 7.44886 7.76999 8.01999H7.55999C7.23169 8.03772 6.91009 8.11994 6.61356 8.26196C6.31703 8.40397 6.05138 8.603 5.83177 8.84769C5.38824 9.34184 5.15919 9.99195 5.19499 10.655C5.2308 11.318 5.52853 11.9397 6.02268 12.3832C6.51684 12.8267 7.16695 13.0558 7.82999 13.02H12.33V10.67H15.33Z" fill="#5F6368"/>
<path d="M3.66 14.67V4.67H17V10.67H18.66V4.67C18.66 4.22882 18.4854 3.80555 18.1744 3.49265C17.8634 3.17975 17.4412 3.00264 17 3H3.66C3.21882 3.00264 2.79662 3.17975 2.48559 3.49265C2.17456 3.80555 1.99999 4.22882 2 4.67V14.67C1.99999 15.1112 2.17456 15.5344 2.48559 15.8473C2.79662 16.1602 3.21882 16.3374 3.66 16.34H12.33V14.67H3.66Z" fill="#5F6368"/>
<path d="M14.77 12.92H18.16V16.31H16.95V14.97L15.17 16.73L14.33 15.89L16.09 14.12H14.75L14.77 12.92Z" fill="#5F6368"/>
</g>
<defs>
<clipPath id="clip0">
<rect width="16.67" height="13.73" fill="white" transform="translate(2 3)"/>
</clipPath>
</defs>
</svg>
