<svg width="20" height="20" viewBox="0 0 20 20" fill="none" xmlns="http://www.w3.org/2000/svg">
<path d="M8 6.00001C7.18991 5.99809 6.39833 6.24219 5.73 6.70001L6.59 7.91001C7.00383 7.62237 7.49603 7.46878 8 7.47001C8.39979 7.47972 8.79158 7.58407 9.14324 7.7745C9.4949 7.96492 9.7964 8.236 10.023 8.56549C10.2497 8.89498 10.395 9.2735 10.447 9.67001C10.499 10.0665 10.4564 10.4697 10.3224 10.8465C10.1885 11.2233 9.96717 11.563 9.67657 11.8378C9.38596 12.1125 9.03437 12.3144 8.65063 12.427C8.26689 12.5395 7.86194 12.5595 7.46898 12.4853C7.07602 12.4111 6.70625 12.2448 6.39 12L5.54 13.2C6.09155 13.6412 6.75008 13.9284 7.44863 14.0326C8.14719 14.1367 8.86087 14.0541 9.51713 13.793C10.1734 13.5319 10.7488 13.1017 11.1849 12.5462C11.621 11.9906 11.9022 11.3295 12 10.63H13.31V9.37001H12C11.8488 8.42168 11.3615 7.55938 10.6271 6.94065C9.89272 6.32191 8.96023 5.98803 8 6.00001Z" fill="#5F6368"/>
<path d="M8 11.47C8.26299 11.4697 8.52108 11.3988 8.74735 11.2648C8.97362 11.1308 9.15979 10.9385 9.28645 10.708C9.4131 10.4775 9.47561 10.2173 9.46745 9.95441C9.45929 9.69154 9.38075 9.43568 9.24004 9.2135C9.09933 8.99132 8.90159 8.81096 8.66743 8.69123C8.43328 8.57149 8.1713 8.51676 7.90879 8.53275C7.64629 8.54874 7.39288 8.63485 7.17499 8.78212C6.9571 8.92939 6.78271 9.13242 6.67 9.37003H4V10.63H6.67C6.78935 10.8816 6.97773 11.0942 7.21319 11.2429C7.44865 11.3916 7.72151 11.4704 8 11.47Z" fill="#5F6368"/>
<path d="M16.67 3.33002H3.33C2.88882 3.33266 2.46662 3.50977 2.15559 3.82267C1.84456 4.13557 1.66999 4.55883 1.67 5.00002V15C1.66999 15.4412 1.84456 15.8645 2.15559 16.1774C2.46662 16.4903 2.88882 16.6674 3.33 16.67H12V15H3.33V5.00002H16.67V11H18.33V5.00002C18.33 4.55883 18.1554 4.13557 17.8444 3.82267C17.5334 3.50977 17.1112 3.33266 16.67 3.33002Z" fill="#5F6368"/>
<path d="M14.42 14.45H15.76L14 16.22L14.84 17.06L16.62 15.3V16.64H17.83V13.25H14.44L14.42 14.45Z" fill="#5F6368"/>
</svg>
