<svg width="16" height="16" viewBox="0 0 16 16" fill="none" xmlns="http://www.w3.org/2000/svg">
<path fill-rule="evenodd" clip-rule="evenodd" d="M13.3333 2H2.66665C1.93331 2 1.33331 2.6 1.33331 3.33333V12.6667C1.33331 13.4 1.93331 14 2.66665 14H13.3333C14.0666 14 14.6666 13.4 14.6666 12.6667V3.33333C14.6666 2.6 14.0666 2 13.3333 2ZM13.3333 12.6667H2.66665V3.33333H13.3333V12.6667Z" fill="#5F6368"/>
<path fill-rule="evenodd" clip-rule="evenodd" d="M12.94 6.94667L11.9933 6L9.87998 8.11333L8.93998 7.16667L7.99998 8.10667L9.87998 10L12.94 6.94667Z" fill="#5F6368"/>
<path d="M6.66665 4.66667H3.33331V6H6.66665V4.66667Z" fill="#5F6368"/>
<path d="M6.66665 7.33333H3.33331V8.66667H6.66665V7.33333Z" fill="#5F6368"/>
<path d="M6.66665 10H3.33331V11.3333H6.66665V10Z" fill="#5F6368"/>
</svg>
