<svg width="20" height="20" viewBox="0 0 20 20" fill="none" xmlns="http://www.w3.org/2000/svg">
<path d="M12 10.88L11 11.88L9.74 10.62L9.12 11.24L10.38 12.5L9.38 13.5H12V10.88ZM12 9.12V6.5H9.38L10.38 7.5L8.32 9.56H5V10.44H8.68L11 8.12L12 9.12Z" fill="#5F6368"/>
<path d="M3.32998 15V4.99999H16.67V11H18.33V4.99999C18.33 4.5588 18.1554 4.13554 17.8444 3.82264C17.5334 3.50974 17.1112 3.33263 16.67 3.32999H3.32998C2.88881 3.33263 2.4666 3.50974 2.15557 3.82264C1.84455 4.13554 1.66998 4.5588 1.66998 4.99999V15C1.66998 15.4412 1.84455 15.8644 2.15557 16.1773C2.4666 16.4902 2.88881 16.6673 3.32998 16.67H12V15H3.32998Z" fill="#5F6368"/>
<path d="M14.44 13.25H17.83V16.64H16.62V15.3L14.84 17.06L14 16.22L15.76 14.45H14.42L14.44 13.25Z" fill="#5F6368"/>
</svg>
