<svg width="16" height="16" viewBox="0 0 16 16" fill="none" xmlns="http://www.w3.org/2000/svg">
<path fill-rule="evenodd" clip-rule="evenodd" d="M12.06 10.6067L13 9.66668L15.3333 12L13 14.3333L12.06 13.3933L12.7866 12.6667H7.87998C7.59998 13.44 6.86665 14 5.99998 14C5.13331 14 4.39998 13.44 4.11998 12.6667H3.33331C2.23331 12.6667 1.33331 11.7667 1.33331 10.6667V6.66668H5.33331V4.66668H1.33331V3.33334H9.99998C10.7333 3.33334 11.3333 3.93334 11.3333 4.66668V11.3333H12.78L12.06 10.6067ZM9.99998 4.66668H6.66665V6.66668H9.99998V4.66668ZM5.99998 12.6667C5.63331 12.6667 5.33331 12.3667 5.33331 12C5.33331 11.6333 5.63331 11.3333 5.99998 11.3333C6.36665 11.3333 6.66665 11.6333 6.66665 12C6.66665 12.3667 6.36665 12.6667 5.99998 12.6667ZM4.11998 11.3333C4.39998 10.56 5.13331 10 5.99998 10C6.86665 10 7.59998 10.56 7.87998 11.3333H9.99998V8.00001H2.66665V10.6667C2.66665 11.0333 2.96665 11.3333 3.33331 11.3333H4.11998Z" fill="#5F6368"/>
</svg>
