<svg width="20" height="20" viewBox="0 0 20 20" fill="none" xmlns="http://www.w3.org/2000/svg">
<path d="M16.67 3.33002H3.33C2.88882 3.33266 2.46662 3.50977 2.15559 3.82267C1.84456 4.13557 1.66999 4.55883 1.67 5.00002V15C1.66999 15.4412 1.84456 15.8645 2.15559 16.1774C2.46662 16.4903 2.88882 16.6674 3.33 16.67H12V15H3.33V5.00002H16.67V11H18.33V5.00002C18.33 4.55883 18.1554 4.13557 17.8444 3.82267C17.5334 3.50977 17.1112 3.33266 16.67 3.33002Z" fill="#5F6368"/>
<path d="M14.42 14.45H15.76L14 16.22L14.84 17.06L16.62 15.3V16.64H17.83V13.25H14.44L14.42 14.45Z" fill="#5F6368"/>
<path d="M9.83333 10L9 10.8334L8.16666 10L9 9.16669L9.83333 10ZM9 7.50002L9.88333 8.38335L10.925 7.34169L9 5.41669L7.075 7.34169L8.11666 8.38335L9 7.50002ZM6.5 10L7.38333 9.11669L6.34166 8.07502L4.41666 10L6.34166 11.925L7.38333 10.8834L6.5 10ZM11.5 10L10.6167 10.8834L11.6583 11.925L13.5833 10L11.6583 8.07502L10.6167 9.11669L11.5 10ZM9 12.5L8.11666 11.6167L7.075 12.6584L9 14.5834L10.925 12.6584L9.88333 11.6167L9 12.5Z" fill="#5F6368"/>
</svg>
