<svg width="20" height="20" viewBox="0 0 20 20" fill="none" xmlns="http://www.w3.org/2000/svg">
<path d="M15.83 2.5H12.35C12.1794 2.01287 11.8616 1.5908 11.4406 1.29218C11.0196 0.993566 10.5162 0.833164 10 0.833164C9.48384 0.833164 8.98045 0.993566 8.55944 1.29218C8.13844 1.5908 7.82063 2.01287 7.65 2.5H4.17C4.0569 2.48968 3.9431 2.48968 3.83 2.5C3.51242 2.58671 3.22511 2.75979 3 3C2.84862 3.15698 2.72668 3.33988 2.64 3.54C2.55367 3.7423 2.50944 3.96005 2.51 4.18V15.83C2.51153 16.053 2.55565 16.2736 2.64 16.48C2.73166 16.6713 2.85318 16.8469 3 17C3.2307 17.2279 3.52243 17.3842 3.84 17.45C3.9531 17.4603 4.0669 17.4603 4.18 17.45H15.83C16.2729 17.45 16.6977 17.2741 17.0109 16.9609C17.3241 16.6477 17.5 16.2229 17.5 15.78V4.17C17.5 3.72709 17.3241 3.30232 17.0109 2.98913C16.6977 2.67595 16.2729 2.5 15.83 2.5ZM10 2.29C10.1653 2.29262 10.323 2.36016 10.439 2.47802C10.555 2.59589 10.62 2.75463 10.62 2.92C10.62 3.08443 10.5547 3.24213 10.4384 3.35841C10.3221 3.47468 10.1644 3.54 10 3.54C9.83557 3.54 9.67787 3.47468 9.56159 3.35841C9.44532 3.24213 9.38 3.08443 9.38 2.92C9.37998 2.75463 9.44498 2.59589 9.56097 2.47802C9.67697 2.36016 9.83465 2.29262 10 2.29ZM15.83 15.83H4.17V4.17H15.83V15.83Z" fill="#5F6368"/>
<path fill-rule="evenodd" clip-rule="evenodd" d="M11 10L14.27 6.73L13.27 5.73L10 9L6.73 5.73L5.73 6.73L9 10L5.73 13.27L6.73 14.27L10 11L13.27 14.27L14.27 13.27L11 10Z" fill="#5F6368"/>
</svg>
