<svg width="16" height="16" viewBox="0 0 16 16" fill="none" xmlns="http://www.w3.org/2000/svg">
<path d="M13.3333 1.33334H2.66665C1.99998 1.33334 1.33331 1.93334 1.33331 2.66668V4.67334C1.33331 5.15334 1.61998 5.56668 1.99998 5.80001V13.3333C1.99998 14.0667 2.73331 14.6667 3.33331 14.6667H12.6666C13.2666 14.6667 14 14.0667 14 13.3333V5.80001C14.38 5.56668 14.6666 5.15334 14.6666 4.67334V2.66668C14.6666 1.93334 14 1.33334 13.3333 1.33334ZM12.6666 13.3333H3.33331V6.00001H12.6666V13.3333ZM13.3333 4.66668H2.66665V2.66668H13.3333V4.66668Z" fill="#5F6368"/>
<path d="M10 8H6V9.33333H10V8Z" fill="#5F6368"/>
</svg>
