<svg width="16" height="16" viewBox="0 0 16 16" fill="none" xmlns="http://www.w3.org/2000/svg">
<path fill-rule="evenodd" clip-rule="evenodd" d="M3.33333 13.3333V3.33332H4.66667V5.33332H10V3.33332H11.3333V7.33332H12.6667V3.33332C12.6667 2.59999 12.0667 1.99999 11.3333 1.99999H9.21333C8.93333 1.22666 8.2 0.666656 7.33333 0.666656C6.46667 0.666656 5.73333 1.22666 5.45333 1.99999H3.33333C2.6 1.99999 2 2.59999 2 3.33332V13.3333C2 14.0667 2.6 14.6667 3.33333 14.6667H6.66667V13.3333H3.33333ZM7.33333 1.99999C7.7 1.99999 8 2.29999 8 2.66666C8 3.03332 7.7 3.33332 7.33333 3.33332C6.96667 3.33332 6.66667 3.03332 6.66667 2.66666C6.66667 2.29999 6.96667 1.99999 7.33333 1.99999ZM14.3333 9.33332L13.3333 8.33332L9.67333 12L7.66667 9.99999L6.66667 11L9.67333 14L14.3333 9.33332Z" fill="#5F6368"/>
</svg>
