<svg width="20" height="20" viewBox="0 0 20 20" fill="none" xmlns="http://www.w3.org/2000/svg">
<path fill-rule="evenodd" clip-rule="evenodd" d="M3.33331 2.5H16.6666C17.5916 2.5 18.3333 3.24167 18.3333 4.16667V6.66667C18.3333 7.59167 17.5916 8.33333 16.6666 8.33333H15V10.8333C15 12.675 13.5083 14.1667 11.6666 14.1667H6.66665C4.82498 14.1667 3.33331 12.675 3.33331 10.8333V2.5ZM13.3333 10.8333V4.16667H4.99998V10.8333C4.99998 11.75 5.74998 12.5 6.66665 12.5H11.6666C12.5833 12.5 13.3333 11.75 13.3333 10.8333ZM15 6.66667V4.16667H16.6666V6.66667H15ZM3.33331 15.8333H16.6666V17.5H3.33331V15.8333Z" fill="#5F6368"/>
</svg>
