<svg width="16" height="16" viewBox="0 0 16 16" fill="none" xmlns="http://www.w3.org/2000/svg">
<path fill-rule="evenodd" clip-rule="evenodd" d="M1.33331 8.00001C1.33331 4.32001 4.31331 1.33334 7.99331 1.33334C11.68 1.33334 14.6666 4.32001 14.6666 8.00001C14.6666 11.68 11.68 14.6667 7.99331 14.6667C4.31331 14.6667 1.33331 11.68 1.33331 8.00001ZM10.6466 5.33334H12.6133C11.9733 4.23334 10.9533 3.38001 9.72665 2.96001C10.1266 3.70001 10.4333 4.50001 10.6466 5.33334ZM7.99998 2.69334C8.55331 3.49334 8.98665 4.38001 9.27331 5.33334H6.72665C7.01331 4.38001 7.44665 3.49334 7.99998 2.69334ZM2.66665 8.00001C2.66665 8.46001 2.73331 8.90668 2.83998 9.33334H5.09331C5.03998 8.89334 4.99998 8.45334 4.99998 8.00001C4.99998 7.54668 5.03998 7.10668 5.09331 6.66668H2.83998C2.73331 7.09334 2.66665 7.54001 2.66665 8.00001ZM3.38665 10.6667H5.35331C5.56665 11.5 5.87331 12.3 6.27331 13.04C5.04665 12.62 4.02665 11.7733 3.38665 10.6667ZM3.38665 5.33334H5.35331C5.56665 4.50001 5.87331 3.70001 6.27331 2.96001C5.04665 3.38001 4.02665 4.22668 3.38665 5.33334ZM7.99998 13.3067C7.44665 12.5067 7.01331 11.62 6.72665 10.6667H9.27331C8.98665 11.62 8.55331 12.5067 7.99998 13.3067ZM6.33331 8.00001C6.33331 8.45334 6.37998 8.89334 6.43998 9.33334H9.55998C9.61998 8.89334 9.66665 8.45334 9.66665 8.00001C9.66665 7.54668 9.61998 7.10001 9.55998 6.66668H6.43998C6.37998 7.10001 6.33331 7.54668 6.33331 8.00001ZM9.72665 13.04C10.1266 12.3 10.4333 11.5 10.6466 10.6667H12.6133C11.9733 11.7667 10.9533 12.62 9.72665 13.04ZM11 8.00001C11 8.45334 10.96 8.89334 10.9066 9.33334H13.16C13.2666 8.90668 13.3333 8.46001 13.3333 8.00001C13.3333 7.54001 13.2666 7.09334 13.16 6.66668H10.9066C10.96 7.10668 11 7.54668 11 8.00001Z" fill="#5F6368"/>
</svg>
