<svg width="20" height="20" viewBox="0 0 20 20" fill="none" xmlns="http://www.w3.org/2000/svg">
<path d="M15.83 2.5H12.35C12.1794 2.01287 11.8616 1.5908 11.4406 1.29218C11.0196 0.993566 10.5162 0.833164 10 0.833164C9.48384 0.833164 8.98045 0.993566 8.55944 1.29218C8.13844 1.5908 7.82063 2.01287 7.65 2.5H4.17C4.0569 2.48968 3.9431 2.48968 3.83 2.5C3.51242 2.58671 3.22511 2.75979 3 3C2.84862 3.15698 2.72668 3.33988 2.64 3.54C2.55367 3.7423 2.50944 3.96005 2.51 4.18V15.83C2.51153 16.053 2.55565 16.2736 2.64 16.48C2.73166 16.6713 2.85318 16.8469 3 17C3.2307 17.2279 3.52243 17.3842 3.84 17.45C3.9531 17.4603 4.0669 17.4603 4.18 17.45H15.83C16.2729 17.45 16.6977 17.2741 17.0109 16.9609C17.3241 16.6477 17.5 16.2229 17.5 15.78V4.17C17.5 3.72709 17.3241 3.30232 17.0109 2.98913C16.6977 2.67595 16.2729 2.5 15.83 2.5ZM10 2.29C10.1653 2.29262 10.323 2.36016 10.439 2.47802C10.555 2.59589 10.62 2.75463 10.62 2.92C10.62 3.08443 10.5547 3.24213 10.4384 3.35841C10.3221 3.47468 10.1644 3.54 10 3.54C9.83557 3.54 9.67787 3.47468 9.56159 3.35841C9.44532 3.24213 9.38 3.08443 9.38 2.92C9.37998 2.75463 9.44498 2.59589 9.56097 2.47802C9.67697 2.36016 9.83465 2.29262 10 2.29ZM15.83 15.83H4.17V4.17H15.83V15.83Z" fill="#5F6368"/>
<path fill-rule="evenodd" clip-rule="evenodd" d="M11.38 10.64L14.24 13.5L13.5 14.24L10.64 11.38C9.97147 11.8625 9.14574 12.0756 8.32721 11.9767C7.50868 11.8779 6.7574 11.4744 6.22293 10.8467C5.68846 10.2189 5.41001 9.41287 5.44302 8.58905C5.47604 7.76524 5.81809 6.98407 6.40108 6.40108C6.98408 5.81809 7.76524 5.47604 8.58905 5.44302C9.41287 5.41001 10.2189 5.68846 10.8467 6.22293C11.4744 6.75739 11.8779 7.50868 11.9767 8.32721C12.0756 9.14574 11.8625 9.97147 11.38 10.64ZM8.75 6.5C8.30499 6.5 7.86998 6.63196 7.49997 6.87919C7.12996 7.12643 6.84157 7.47783 6.67127 7.88896C6.50097 8.3001 6.45642 8.7525 6.54323 9.18895C6.63005 9.62541 6.84434 10.0263 7.15901 10.341C7.47368 10.6557 7.87459 10.87 8.31105 10.9568C8.7475 11.0436 9.1999 10.999 9.61104 10.8287C10.0222 10.6584 10.3736 10.37 10.6208 10C10.868 9.63002 11 9.19501 11 8.75C11 8.15326 10.7629 7.58097 10.341 7.15901C9.91903 6.73705 9.34674 6.5 8.75 6.5Z" fill="#5F6368" stroke="#5F6368" stroke-width="0.25"/>
</svg>
