<svg width="16" height="16" viewBox="0 0 16 16" fill="none" xmlns="http://www.w3.org/2000/svg">
<path fill-rule="evenodd" clip-rule="evenodd" d="M4.00002 9.33332C4.73335 9.33332 5.33335 8.73332 5.33335 7.99999C5.33335 7.26666 4.73335 6.66666 4.00002 6.66666C3.26669 6.66666 2.66669 7.26666 2.66669 7.99999C2.66669 8.73332 3.26669 9.33332 4.00002 9.33332ZM8 6.66667C7.26667 6.66667 6.66667 7.26667 6.66667 8C6.66667 8.73333 7.26667 9.33333 8 9.33333C8.73333 9.33333 9.33333 8.73333 9.33333 8C9.33333 7.26667 8.73333 6.66667 8 6.66667ZM12 6.66667C11.2667 6.66667 10.6667 7.26667 10.6667 8C10.6667 8.73333 11.2667 9.33333 12 9.33333C12.7333 9.33333 13.3333 8.73333 13.3333 8C13.3333 7.26667 12.7333 6.66667 12 6.66667Z" fill="#5F6368"/>
</svg>
