<svg width="20" height="20" viewBox="0 0 20 20" fill="none" xmlns="http://www.w3.org/2000/svg">
<path fill-rule="evenodd" clip-rule="evenodd" d="M14.1666 6.66667H15C15.9166 6.66667 16.6666 7.41667 16.6666 8.33334V16.6667C16.6666 17.5833 15.9166 18.3333 15 18.3333H4.99998C4.08331 18.3333 3.33331 17.5833 3.33331 16.6667V8.33334C3.33331 7.41667 4.08331 6.66667 4.99998 6.66667H5.83331V5C5.83331 2.7 7.69998 0.833336 9.99998 0.833336C12.3 0.833336 14.1666 2.7 14.1666 5V6.66667ZM9.99998 2.5C8.61665 2.5 7.49998 3.61667 7.49998 5V6.66667H12.5V5C12.5 3.61667 11.3833 2.5 9.99998 2.5ZM4.99998 16.6667V8.33334H15V16.6667H4.99998ZM11.6666 12.5C11.6666 13.4167 10.9166 14.1667 9.99998 14.1667C9.08331 14.1667 8.33331 13.4167 8.33331 12.5C8.33331 11.5833 9.08331 10.8333 9.99998 10.8333C10.9166 10.8333 11.6666 11.5833 11.6666 12.5Z" fill="#5F6368"/>
</svg>
