<svg width="20" height="20" viewBox="0 0 20 20" fill="none" xmlns="http://www.w3.org/2000/svg">
<path fill-rule="evenodd" clip-rule="evenodd" d="M12.35 2.5H15.8333C16.75 2.5 17.5 3.25 17.5 4.16667V15.8333C17.5 16.75 16.75 17.5 15.8333 17.5H4.16667C4.05 17.5 3.94167 17.4917 3.83333 17.475C3.50833 17.4083 3.21667 17.2417 2.99167 17.0167C2.84167 16.8583 2.71667 16.6833 2.63333 16.4833C2.55 16.2833 2.5 16.0583 2.5 15.8333V4.16667C2.5 3.93333 2.55 3.71667 2.63333 3.525C2.71667 3.325 2.84167 3.14167 2.99167 2.99167C3.21667 2.76667 3.50833 2.6 3.83333 2.53333C3.94167 2.50833 4.05 2.5 4.16667 2.5H7.65C8 1.53333 8.91667 0.833334 10 0.833334C11.0833 0.833334 12 1.53333 12.35 2.5ZM5.83333 7.5V5.83333H14.1667V7.5H5.83333ZM14.1667 10.8333V9.16667H5.83333V10.8333H14.1667ZM11.6667 12.5H5.83333V14.1667H11.6667V12.5ZM10 2.29167C10.3417 2.29167 10.625 2.575 10.625 2.91667C10.625 3.25833 10.3417 3.54167 10 3.54167C9.65833 3.54167 9.375 3.25833 9.375 2.91667C9.375 2.575 9.65833 2.29167 10 2.29167ZM4.16667 15.8333H15.8333V4.16667H4.16667V15.8333Z" fill="#5F6368"/>
</svg>
