<svg width="20" height="20" viewBox="0 0 20 20" fill="none" xmlns="http://www.w3.org/2000/svg">
<path d="M15.8 8.61666L18.3333 5.76666L17.1583 4.59166L14.7833 7.26666C13.0667 5.33333 10.6917 4.16666 8.00833 4.16666C5.6 4.16666 3.39166 5.13333 1.66666 6.66666L2.85 7.85C4.26666 6.60833 6.05833 5.83333 8.00833 5.83333C10.2917 5.83333 12.25 6.88333 13.65 8.53333L11.25 11.2333L7.91666 7.9L1.66666 14.1583L2.91666 15.4083L7.91666 10.4L11.25 13.7333L14.625 9.94166C15.1917 10.9583 15.575 12.1083 15.7583 13.3333H17.4417C17.2167 11.575 16.6417 9.975 15.8 8.61666Z" fill="#5F6368"/>
</svg>
