<svg width="16" height="16" viewBox="0 0 16 16" fill="none" xmlns="http://www.w3.org/2000/svg">
<path fill-rule="evenodd" clip-rule="evenodd" d="M11.76 4.23332C10.7934 3.26666 9.46669 2.66666 7.99335 2.66666C5.04669 2.66666 2.66669 5.05332 2.66669 7.99999C2.66669 10.9467 5.04669 13.3333 7.99335 13.3333C10.48 13.3333 12.5534 11.6333 13.1467 9.33332H11.76C11.2134 10.8867 9.73335 12 7.99335 12C5.78669 12 3.99335 10.2067 3.99335 7.99999C3.99335 5.79332 5.78669 3.99999 7.99335 3.99999C9.10002 3.99999 10.0867 4.45999 10.8067 5.18666L8.66002 7.33332H13.3267V2.66666L11.76 4.23332V4.23332Z" fill="#5F6368"/>
</svg>
