<svg width="20" height="20" viewBox="0 0 20 20" fill="none" xmlns="http://www.w3.org/2000/svg">
<path fill-rule="evenodd" clip-rule="evenodd" d="M12.35 2.5H15.8333C16.75 2.5 17.5 3.25 17.5 4.16667V15.8333C17.5 16.75 16.75 17.5 15.8333 17.5H4.16667C4.05 17.5 3.94167 17.4917 3.83333 17.475C3.50833 17.4083 3.21667 17.2417 2.99167 17.0167C2.84167 16.8583 2.71667 16.6833 2.63333 16.4833C2.55 16.2833 2.5 16.0583 2.5 15.8333V4.16667C2.5 3.93333 2.55 3.71667 2.63333 3.525C2.71667 3.325 2.84167 3.14167 2.99167 2.99167C3.21667 2.76667 3.50833 2.6 3.83333 2.53333C3.94167 2.50833 4.05 2.5 4.16667 2.5H7.65C8 1.53333 8.91667 0.833332 10 0.833332C11.0833 0.833332 12 1.53333 12.35 2.5ZM10.625 2.91667C10.625 2.575 10.3417 2.29167 10 2.29167C9.65833 2.29167 9.375 2.575 9.375 2.91667C9.375 3.25833 9.65833 3.54167 10 3.54167C10.3417 3.54167 10.625 3.25833 10.625 2.91667ZM4.16667 15.8333V4.16667H15.8333V15.8333H4.16667ZM6.66667 10L10 13.3333L11.175 12.1583L9.85833 10.8333H13.3333V9.16667H9.85833L11.175 7.84167L10 6.66667L6.66667 10Z" fill="#5F6368"/>
</svg>
