<svg width="16" height="16" viewBox="0 0 16 16" fill="none" xmlns="http://www.w3.org/2000/svg">
<path fill-rule="evenodd" clip-rule="evenodd" d="M8.00002 3.33332C10.9467 3.33332 13.3334 5.71999 13.3334 8.66666C13.3334 11.3867 11.3 13.6267 8.66669 13.9533V12.6067C10.5534 12.2867 12 10.6467 12 8.66666C12 6.45999 10.2067 4.66666 8.00002 4.66666C7.98411 4.66666 7.96669 4.66817 7.94847 4.66976C7.92851 4.6715 7.9076 4.67332 7.88669 4.67332L8.60669 5.39332L7.66669 6.33332L5.33335 3.99999L7.66669 1.66666L8.60669 2.61332L7.88002 3.33999C7.90002 3.33999 7.92002 3.33832 7.94002 3.33666C7.96002 3.33499 7.98002 3.33332 8.00002 3.33332ZM5.17335 5.83999C4.44669 6.56666 4.00002 7.56666 4.00002 8.66666C4.00002 10.6467 5.44669 12.2867 7.33335 12.6067V13.9533C4.70002 13.6267 2.66669 11.3867 2.66669 8.66666C2.66669 7.19332 3.26669 5.85999 4.22669 4.89332L5.17335 5.83999Z" fill="#5F6368"/>
</svg>
