<svg width="16" height="16" viewBox="0 0 16 16" fill="none" xmlns="http://www.w3.org/2000/svg">
<path fill-rule="evenodd" clip-rule="evenodd" d="M12.7619 8C12.7619 7.43062 12.662 6.88458 12.4787 6.37847L13.922 4.93519C14.3978 5.85278 14.6666 6.895 14.6666 8.00001C14.6666 11.6819 11.6819 14.6667 7.99998 14.6667C4.31807 14.6667 1.33331 11.6819 1.33331 8.00001C1.33331 4.31811 4.31807 1.33334 7.99998 1.33334C9.84093 1.33334 11.5076 2.07954 12.714 3.28597L11.8095 4.19047L11.3672 4.63283L8 7.99999V3.2381C7.99999 3.2381 7.99999 3.2381 7.99998 3.2381C5.37005 3.2381 3.23808 5.37007 3.23808 8C3.23808 10.6299 5.37005 12.7619 7.99998 12.7619C10.6299 12.7619 12.7619 10.6299 12.7619 8Z" fill="#5F6368"/>
<circle cx="13" cy="13" r="3" fill="#5BCE00"/>
</svg>
