<svg width="20" height="20" viewBox="0 0 20 20" fill="none" xmlns="http://www.w3.org/2000/svg">
<path d="M10.69 9.99999V8.58999C10.9864 8.4861 11.2364 8.28068 11.3958 8.01012C11.5553 7.73956 11.6138 7.42131 11.5611 7.11172C11.5084 6.80213 11.3479 6.52117 11.1079 6.31859C10.868 6.11601 10.564 6.00488 10.25 6.00488C9.93596 6.00488 9.63204 6.11601 9.39207 6.31859C9.1521 6.52117 8.99155 6.80213 8.93886 7.11172C8.88616 7.42131 8.94472 7.73956 9.10416 8.01012C9.2636 8.28068 9.51364 8.4861 9.81 8.58999V9.99999L8 11.78H6.25V14H8.47V12.64L10.25 10.78L12 12.62V11.31L10.69 9.99999Z" fill="#5F6368"/>
<path d="M16.67 3.33H3.32998C2.88881 3.33264 2.4666 3.50976 2.15557 3.82266C1.84455 4.13556 1.66998 4.55882 1.66998 5V15C1.66998 15.4412 1.84455 15.8644 2.15557 16.1773C2.4666 16.4902 2.88881 16.6674 3.32998 16.67H12V15H3.32998V5H16.67V11H18.33V5C18.33 4.55882 18.1554 4.13556 17.8444 3.82266C17.5334 3.50976 17.1112 3.33264 16.67 3.33Z" fill="#5F6368"/>
<path d="M14.44 13.25H17.83V16.64H16.62V15.3L14.84 17.06L14 16.22L15.76 14.45H14.42L14.44 13.25Z" fill="#5F6368"/>
</svg>
