<svg width="20" height="20" viewBox="0 0 20 20" fill="none" xmlns="http://www.w3.org/2000/svg">
<path d="M8.09 8.00003L13.48 5.00003L8.58 2.16003C8.404 2.05723 8.20383 2.00305 8 2.00305C7.79618 2.00305 7.59601 2.05723 7.42 2.16003L2.48 5.00003L8.09 8.00003Z" fill="#5F6368"/>
<path d="M13.79 10V6.08002L8.11 9.27002L2.21 6.12002V11C2.21241 11.1692 2.25771 11.335 2.34165 11.4819C2.4256 11.6288 2.54546 11.752 2.69 11.84L5.35 13.39C5.4199 13.4365 5.478 13.4987 5.51966 13.5716C5.56132 13.6445 5.58541 13.7262 5.59 13.81V15.74C5.59066 15.7882 5.60332 15.8355 5.62683 15.8775C5.65035 15.9196 5.68397 15.9551 5.72466 15.9809C5.76536 16.0067 5.81184 16.022 5.85992 16.0253C5.90799 16.0287 5.95613 16.02 6 16L10 13.73V10H13.79Z" fill="#5F6368"/>
<path d="M17 14.14L15.87 15.26V12.26H14.47V15.26L13.35 14.14L12.35 15.14L15.16 18L18 15.16L17 14.14Z" fill="#5F6368"/>
</svg>
