<svg width="16" height="16" viewBox="0 0 16 16" fill="none" xmlns="http://www.w3.org/2000/svg">
<path fill-rule="evenodd" clip-rule="evenodd" d="M2.66669 0.666656C3.03335 0.666656 3.33335 0.966656 3.33335 1.33332V3.99999H4.66669V10.6667C4.66669 11.5333 4.10669 12.2667 3.33335 12.5467V15.3333H2.00002V12.5467C1.22669 12.2667 0.666687 11.5333 0.666687 10.6667V3.99999H2.00002V1.33332C2.00002 0.966656 2.30002 0.666656 2.66669 0.666656ZM2.00002 5.33332V7.99999H3.33335V5.33332H2.00002ZM8.66669 1.33332C8.66669 0.966656 8.36669 0.666656 8.00002 0.666656C7.63335 0.666656 7.33335 0.966656 7.33335 1.33332V3.99999H6.00002V10.6667C6.00002 11.5333 6.56002 12.2667 7.33335 12.5467V15.3333H8.66669V12.5467C9.44002 12.2667 10 11.5333 10 10.6667V3.99999H8.66669V1.33332ZM7.33335 5.33332V7.99999H8.66669V5.33332H7.33335ZM14 3.99999V1.33332C14 0.966656 13.7 0.666656 13.3334 0.666656C12.9667 0.666656 12.6667 0.966656 12.6667 1.33332V3.99999H11.3334V10.6667C11.3334 11.5333 11.8934 12.2667 12.6667 12.5467V15.3333H14V12.5467C14.7734 12.2667 15.3334 11.5333 15.3334 10.6667V3.99999H14ZM12.6667 5.33332V7.99999H14V5.33332H12.6667Z" fill="#5F6368"/>
</svg>
