<svg width="20" height="20" viewBox="0 0 20 20" fill="none" xmlns="http://www.w3.org/2000/svg">
<path d="M16.9833 7.14167L15.9583 8.68333C16.4526 9.66923 16.6946 10.7624 16.6626 11.8648C16.6306 12.9672 16.3256 14.0444 15.775 15H4.22499C3.50929 13.7584 3.21273 12.3193 3.37927 10.8959C3.54581 9.47251 4.16658 8.14069 5.14955 7.09786C6.13253 6.05502 7.42538 5.3567 8.83644 5.10641C10.2475 4.85613 11.7017 5.0672 12.9833 5.70833L14.525 4.68333C12.9554 3.67685 11.0936 3.22584 9.23739 3.40245C7.3812 3.57906 5.63786 4.37308 4.28623 5.65751C2.93461 6.94194 2.05279 8.64256 1.78184 10.4873C1.51088 12.3321 1.86645 14.2145 2.79166 15.8333C2.93708 16.0852 3.1459 16.2947 3.39735 16.4409C3.6488 16.5871 3.93413 16.6649 4.22499 16.6667H15.7667C16.0603 16.6678 16.3491 16.5914 16.6037 16.445C16.8584 16.2987 17.0698 16.0877 17.2167 15.8333C17.9845 14.5033 18.3698 12.9869 18.3301 11.4516C18.2904 9.91636 17.8272 8.42193 16.9917 7.13333L16.9833 7.14167ZM8.82499 12.8417C8.97978 12.9966 9.16359 13.1196 9.36592 13.2034C9.56825 13.2873 9.78513 13.3305 10.0042 13.3305C10.2232 13.3305 10.4401 13.2873 10.6424 13.2034C10.8447 13.1196 11.0285 12.9966 11.1833 12.8417L15.9 5.76667L8.82499 10.4833C8.67003 10.6381 8.5471 10.8219 8.46322 11.0243C8.37935 11.2266 8.33618 11.4435 8.33618 11.6625C8.33618 11.8815 8.37935 12.0984 8.46322 12.3007C8.5471 12.5031 8.67003 12.6869 8.82499 12.8417Z" fill="#5F6368"/>
</svg>
