<svg width="16" height="16" viewBox="0 0 16 16" fill="none" xmlns="http://www.w3.org/2000/svg">
<path fill-rule="evenodd" clip-rule="evenodd" d="M7.99998 9.33334C7.26665 9.33334 6.66665 8.73334 6.66665 8.00001C6.66665 7.26668 7.26665 6.66668 7.99998 6.66668C8.73331 6.66668 9.33331 7.26668 9.33331 8.00001C9.33331 8.73334 8.73331 9.33334 7.99998 9.33334ZM7.99998 10.6667C9.47331 10.6667 10.6666 9.47334 10.6666 8.00001C10.6666 6.52668 9.47331 5.33334 7.99998 5.33334C6.52665 5.33334 5.33331 6.52668 5.33331 8.00001C5.33331 9.47334 6.52665 10.6667 7.99998 10.6667ZM7.99998 12C5.79331 12 3.99998 10.2067 3.99998 8.00001C3.99998 5.79334 5.79331 4.00001 7.99998 4.00001C10.2066 4.00001 12 5.79334 12 8.00001C12 10.2067 10.2066 12 7.99998 12ZM7.99998 13.3333C10.9466 13.3333 13.3333 10.9467 13.3333 8.00001C13.3333 5.05334 10.9466 2.66668 7.99998 2.66668C5.05331 2.66668 2.66665 5.05334 2.66665 8.00001C2.66665 10.9467 5.05331 13.3333 7.99998 13.3333ZM7.99998 14.6667C4.31998 14.6667 1.33331 11.68 1.33331 8.00001C1.33331 4.32001 4.31998 1.33334 7.99998 1.33334C11.68 1.33334 14.6666 4.32001 14.6666 8.00001C14.6666 11.68 11.68 14.6667 7.99998 14.6667Z" fill="#5F6368"/>
</svg>
