<svg xmlns="http://www.w3.org/2000/svg" width="11" height="14" viewBox="0 0 11 14">
  <path fill="#007ACC" d="M34.2773438,22 C32.7278568,22 31.4700569,21.7994812 30.5039062,21.3984375 C30.0299455,21.2161449 29.6653659,20.9791681 29.4101562,20.6875 C29.1367174,20.3958319 29,20.0768246 29,19.7304688 L29,11.171875 C29,10.8255191 29.1367174,10.4973974 29.4101562,10.1875 C29.6653659,9.89583188 30.0299455,9.65885508 30.5039062,9.4765625 C31.4700569,9.07551883 32.7278568,8.875 34.2773438,8.875 C35.8086014,8.875 37.0572868,9.07551883 38.0234375,9.4765625 C38.5156275,9.67708434 38.8893216,9.91406113 39.1445312,10.1875 C39.3997409,10.4973974 39.5273438,10.8255191 39.5273438,11.171875 L39.5273438,19.7304688 C39.5273438,20.0585954 39.3997409,20.3776026 39.1445312,20.6875 C38.8893216,20.9609389 38.5156275,21.1979157 38.0234375,21.3984375 C37.0572868,21.7994812 35.8086014,22 34.2773438,22 Z M29.875,18.2265625 L29.875,19.7304688 C29.875,19.8763028 29.9752594,20.0266919 30.1757812,20.1816406 C30.3763031,20.3365893 30.6497379,20.4869784 30.9960938,20.6328125 C31.4153667,20.7786466 31.9075493,20.8925777 32.4726562,20.9746094 C33.0377632,21.056641 33.6393197,21.0976562 34.2773438,21.0976562 C34.9153678,21.0976562 35.5169243,21.056641 36.0820312,20.9746094 C36.6471382,20.8925777 37.1393208,20.7786466 37.5585938,20.6328125 C37.9049496,20.4869784 38.1783844,20.3365893 38.3789062,20.1816406 C38.5794281,20.0266919 38.6796875,19.8763028 38.6796875,19.7304688 L38.6796875,18.2265625 C38.2239561,18.5182306 37.6770865,18.7369784 37.0390625,18.8828125 C36.6380188,18.9739588 36.2096377,19.0423175 35.7539062,19.0878906 C35.2981748,19.1334638 34.8059922,19.15625 34.2773438,19.15625 C33.7486953,19.15625 33.2565127,19.1334638 32.8007812,19.0878906 C32.3450498,19.0423175 31.9166687,18.9739588 31.515625,18.8828125 C30.877601,18.7369784 30.3307314,18.5182306 29.875,18.2265625 Z M29.875,15.3828125 L29.875,16.859375 C29.875,17.0052091 29.9752594,17.1601554 30.1757812,17.3242188 C30.3763031,17.4882821 30.6497379,17.6432284 30.9960938,17.7890625 C31.4153667,17.9348966 31.9075493,18.0442705 32.4726562,18.1171875 C33.0377632,18.1901045 33.6393197,18.2265625 34.2773438,18.2265625 C34.9153678,18.2265625 35.5169243,18.1901045 36.0820312,18.1171875 C36.6471382,18.0442705 37.1393208,17.9348966 37.5585938,17.7890625 C37.9049496,17.6432284 38.1783844,17.4882821 38.3789062,17.3242188 C38.5794281,17.1601554 38.6796875,17.0052091 38.6796875,16.859375 L38.6796875,15.3828125 C38.2057268,15.6744806 37.5904986,15.9023429 36.8339844,16.0664062 C36.0774702,16.2304696 35.2252652,16.3125 34.2773438,16.3125 C33.7486953,16.3125 33.2565127,16.2851565 32.8007812,16.2304688 C32.3450498,16.175781 31.9166687,16.102865 31.515625,16.0117188 C31.1692691,15.9205725 30.8639336,15.8248703 30.5996094,15.7246094 C30.3352851,15.6243485 30.0937511,15.5104173 29.875,15.3828125 Z M29.875,12.5390625 L29.875,14.0429688 C29.875,14.1888028 29.9752594,14.3391919 30.1757812,14.4941406 C30.3763031,14.6490893 30.6497379,14.7994784 30.9960938,14.9453125 C31.4153667,15.0911466 31.9075493,15.2050777 32.4726562,15.2871094 C33.0377632,15.369141 33.6393197,15.4101562 34.2773438,15.4101562 C34.9153678,15.4101562 35.5169243,15.369141 36.0820312,15.2871094 C36.6471382,15.2050777 37.1393208,15.0911466 37.5585938,14.9453125 C37.9049496,14.7994784 38.1783844,14.6490893 38.3789062,14.4941406 C38.5794281,14.3391919 38.6796875,14.1888028 38.6796875,14.0429688 L38.6796875,12.5390625 C38.4609364,12.6848966 38.2194024,12.8079422 37.9550781,12.9082031 C37.6907539,13.008464 37.3854184,13.0950517 37.0390625,13.1679688 C36.2005166,13.3684906 35.2799529,13.46875 34.2773438,13.46875 C33.7486953,13.46875 33.2565127,13.4414065 32.8007812,13.3867188 C32.3450498,13.332031 31.9166687,13.259115 31.515625,13.1679688 C31.1692691,13.0950517 30.8639336,13.008464 30.5996094,12.9082031 C30.3352851,12.8079422 30.0937511,12.6848966 29.875,12.5390625 Z M34.2773438,9.8046875 C32.8372324,9.8046875 31.7434933,9.95963387 30.9960938,10.2695312 C30.2486942,10.5794286 29.875,10.8802069 29.875,11.171875 C29.875,11.3177091 29.9752594,11.4726554 30.1757812,11.6367188 C30.3763031,11.8007821 30.6497379,11.9466139 30.9960938,12.0742188 C31.4153667,12.2200528 31.9075493,12.333984 32.4726562,12.4160156 C33.0377632,12.4980473 33.6393197,12.5390625 34.2773438,12.5390625 C34.9153678,12.5390625 35.5169243,12.4980473 36.0820312,12.4160156 C36.6471382,12.333984 37.1393208,12.2200528 37.5585938,12.0742188 C37.9049496,11.9466139 38.1783844,11.8007821 38.3789062,11.6367188 C38.5794281,11.4726554 38.6796875,11.3177091 38.6796875,11.171875 C38.6796875,10.8802069 38.3059933,10.5794286 37.5585938,10.2695312 C36.8111942,9.95963387 35.7174551,9.8046875 34.2773438,9.8046875 Z" transform="translate(-29 -8)"/>
</svg>
