
<svg xmlns="http://www.w3.org/2000/svg" width="16" height="16" viewBox="0 0 16 16">
  <path fill="#CCC" d="M15.21875,1.59375 C15.4270833,1.59375 15.6145833,1.51041667 15.78125,1.34375 C15.9270833,1.19791667 16,1.01041667 16,0.78125 C16,0.552083333 15.9270833,0.364583333 15.78125,0.21875 C15.6354167,0.0729166667 15.4479167,0 15.21875,0 L15.21875,0 L6.59375,0 C6.38541667,0 6.20833333,0.0729166667 6.0625,0.21875 C5.89583333,0.385416667 5.8125,0.572916667 5.8125,0.78125 C5.8125,0.989583333 5.89583333,1.17708333 6.0625,1.34375 C6.22916667,1.51041667 6.40625,1.59375 6.59375,1.59375 L6.59375,1.59375 L15.21875,1.59375 Z M9,16 C9.29166667,16 9.53125,15.90625 9.71875,15.71875 C9.90625,15.53125 10,15.2916667 10,15 L10,15 L10,14.125 C10.1041667,14.1041667 10.2604167,14.0520833 10.46875,13.96875 L10.46875,13.96875 L10.90625,13.75 L11.53125,14.375 C11.7395833,14.5625 11.9791667,14.65625 12.25,14.65625 C12.5,14.65625 12.7395833,14.5625 12.96875,14.375 L12.96875,14.375 L14.375,12.9375 C14.5625,12.75 14.65625,12.5208333 14.65625,12.25 C14.65625,12 14.5625,11.7604167 14.375,11.53125 L14.375,11.53125 L14.21875,11.375 C14.0104167,11.6458333 13.7708333,11.8854167 13.5,12.09375 L13.5,12.09375 L13.65625,12.25 L12.25,13.65625 L11.53125,12.9375 C11.4270833,12.9583333 11.3333333,12.9739583 11.25,12.984375 C11.1666667,12.9947917 11.0833333,13 11,13 L11,13 L10.625,13 L10.28125,12.9375 L9.96875,13.0625 L9.6875,13.15625 L9,13.40625 L9,15 L7,15 L7,13.40625 L6.3125,13.15625 L5.9375,13.03125 L5.5625,12.84375 L4.90625,12.53125 L3.78125,13.65625 L2.34375,12.25 L2.96875,11.625 L3.5,11.09375 L3.15625,10.46875 L2.96875,10.09375 C2.94791667,10.0104167 2.92708333,9.9375 2.90625,9.875 C2.88541667,9.8125 2.86458333,9.75 2.84375,9.6875 L2.84375,9.6875 L2.625,9 L1,9 L1,7 L2.625,7 L2.84375,6.3125 L2.96875,5.9375 L3.15625,5.5625 L3.5,4.90625 L2.34375,3.75 L3.78125,2.34375 L4.40625,2.96875 L4.90625,3.5 L5.1875,3.34375 C5.08333333,2.88541667 5.03125,2.5 5.03125,2.1875 L5.03125,2.1875 L4.46875,1.625 C4.28125,1.4375 4.05208333,1.34375 3.78125,1.34375 C3.48958333,1.34375 3.25,1.4375 3.0625,1.625 L3.0625,1.625 L1.65625,3.0625 C1.44791667,3.25 1.34375,3.48958333 1.34375,3.78125 C1.34375,4.05208333 1.44791667,4.28125 1.65625,4.46875 L1.65625,4.46875 L2.28125,5.09375 C2.11458333,5.38541667 1.98958333,5.6875 1.90625,6 L1.90625,6 L1,6 C0.729166667,6 0.489583333,6.10416667 0.28125,6.3125 C0.09375,6.5 0,6.72916667 0,7 L0,7 L0,9 C0,9.29166667 0.09375,9.53125 0.28125,9.71875 C0.489583333,9.90625 0.729166667,10 1,10 L1,10 L1.90625,10 C1.98958333,10.3125 2.11458333,10.6145833 2.28125,10.90625 L2.28125,10.90625 L1.65625,11.53125 C1.44791667,11.7395833 1.34375,11.9791667 1.34375,12.25 C1.34375,12.5208333 1.44791667,12.75 1.65625,12.9375 L1.65625,12.9375 L3.0625,14.375 C3.25,14.5625 3.48958333,14.65625 3.78125,14.65625 C4.05208333,14.65625 4.28125,14.5625 4.46875,14.375 L4.46875,14.375 L5.09375,13.75 C5.30208333,13.8333333 5.44791667,13.90625 5.53125,13.96875 C5.73958333,14.0520833 5.89583333,14.1041667 6,14.125 L6,14.125 L6,15 C6,15.2916667 6.09375,15.53125 6.28125,15.71875 C6.48958333,15.90625 6.72916667,16 7,16 L7,16 L9,16 Z M15.21875,5.5 C15.4479167,5.5 15.6354167,5.42708333 15.78125,5.28125 C15.9270833,5.13541667 16,4.94791667 16,4.71875 C16,4.48958333 15.9270833,4.30208333 15.78125,4.15625 C15.6354167,4.01041667 15.4479167,3.9375 15.21875,3.9375 L15.21875,3.9375 L8.09375,3.9375 C7.88541667,3.9375 7.70833333,4.01041667 7.5625,4.15625 C7.39583333,4.32291667 7.3125,4.51041667 7.3125,4.71875 C7.3125,4.92708333 7.39583333,5.11458333 7.5625,5.28125 C7.70833333,5.42708333 7.88541667,5.5 8.09375,5.5 L8.09375,5.5 L15.21875,5.5 Z M15.21875,9.4375 C15.4479167,9.4375 15.6354167,9.35416667 15.78125,9.1875 C15.9270833,9.0625 16,8.88541667 16,8.65625 C16,8.40625 15.9270833,8.21875 15.78125,8.09375 C15.6145833,7.92708333 15.4270833,7.84375 15.21875,7.84375 L15.21875,7.84375 L9.59375,7.84375 C9.40625,7.84375 9.22916667,7.92708333 9.0625,8.09375 C8.89583333,8.21875 8.8125,8.40625 8.8125,8.65625 C8.8125,8.88541667 8.89583333,9.0625 9.0625,9.1875 C9.20833333,9.35416667 9.38541667,9.4375 9.59375,9.4375 L9.59375,9.4375 L15.21875,9.4375 Z"/>
</svg>
