<svg xmlns="http://www.w3.org/2000/svg" width="16" height="16" viewBox="0 0 16 16">
  <path fill="#FFF" d="M7.9375,15.2109375 C8.91145833,15.2109375 9.80598958,15.0742188 10.6210938,14.8007812 C11.4361979,14.5273438 12.1458333,14.1979167 12.75,13.8125 L12.75,13.8125 L12.2734375,12.953125 C11.7317708,13.2916667 11.0976562,13.5872396 10.3710938,13.8398438 C9.64453125,14.0924479 8.83333333,14.21875 7.9375,14.21875 C6.78125,14.21875 5.78125,13.9648438 4.9375,13.4570312 C4.09375,12.9492188 3.45182292,12.2630208 3.01171875,11.3984375 C2.57161458,10.5338542 2.3515625,9.57552083 2.3515625,8.5234375 C2.3515625,7.40364583 2.58463542,6.37890625 3.05078125,5.44921875 C3.51692708,4.51953125 4.21223958,3.77734375 5.13671875,3.22265625 C6.06119792,2.66796875 7.1796875,2.390625 8.4921875,2.390625 C9.5390625,2.390625 10.4635417,2.61588542 11.265625,3.06640625 C12.0677083,3.51692708 12.6888021,4.14973958 13.1289062,4.96484375 C13.5690104,5.77994792 13.7890625,6.71875 13.7890625,7.78125 C13.7890625,8.48958333 13.7174479,9.10677083 13.5742188,9.6328125 C13.4309896,10.1588542 13.2239583,10.5638021 12.953125,10.8476562 C12.6822917,11.1315104 12.359375,11.2734375 11.984375,11.2734375 C11.7447917,11.2734375 11.5690104,11.2096354 11.4570312,11.0820312 C11.3450521,10.9544271 11.2747396,10.7734375 11.2460938,10.5390625 C11.2174479,10.3046875 11.203125,9.95572917 11.203125,9.4921875 L11.203125,9.4921875 L11.2036806,6.2771875 C11.206088,5.32746528 11.2163194,4.75329861 11.234375,4.5546875 L11.234375,4.5546875 L10.078125,4.5546875 C10.0625,4.5859375 10.0455729,4.73177083 10.0273438,4.9921875 C10.0091146,5.25260417 10,5.48958333 10,5.703125 L10,5.703125 L9.984375,5.703125 C9.73958333,5.26041667 9.4296875,4.93098958 9.0546875,4.71484375 C8.6796875,4.49869792 8.20052083,4.390625 7.6171875,4.390625 C6.98697917,4.390625 6.42708333,4.55989583 5.9375,4.8984375 C5.44791667,5.23697917 5.06901042,5.70833333 4.80078125,6.3125 C4.53255208,6.91666667 4.3984375,7.60416667 4.3984375,8.375 C4.3984375,9.140625 4.52213542,9.82421875 4.76953125,10.4257812 C5.01692708,11.0273438 5.38020833,11.5 5.859375,11.84375 C6.33854167,12.1875 6.9140625,12.359375 7.5859375,12.359375 C8.1796875,12.359375 8.68489583,12.2434896 9.1015625,12.0117188 C9.51822917,11.7799479 9.86979167,11.421875 10.15625,10.9375 L10.15625,10.9375 L10.1796875,10.9375 C10.3098958,11.3802083 10.5091146,11.6992188 10.7773438,11.8945312 C11.0455729,12.0898438 11.3932292,12.1875 11.8203125,12.1875 C12.4401042,12.1875 12.9791667,12.0104167 13.4375,11.65625 C13.8958333,11.3020833 14.2486979,10.7929688 14.4960938,10.1289062 C14.7434896,9.46484375 14.8671875,8.67708333 14.8671875,7.765625 C14.8671875,6.5625 14.6184896,5.47916667 14.1210938,4.515625 C13.6236979,3.55208333 12.8932292,2.79166667 11.9296875,2.234375 C10.9661458,1.67708333 9.81510417,1.3984375 8.4765625,1.3984375 C6.9453125,1.3984375 5.63671875,1.70833333 4.55078125,2.328125 C3.46484375,2.94791667 2.64583333,3.796875 2.09375,4.875 C1.54166667,5.953125 1.265625,7.16927083 1.265625,8.5234375 C1.265625,9.76822917 1.52994792,10.8984375 2.05859375,11.9140625 C2.58723958,12.9296875 3.35416667,13.7330729 4.359375,14.3242188 C5.36458333,14.9153646 6.55729167,15.2109375 7.9375,15.2109375 Z M7.7578125,11.2734375 C7.07552083,11.2734375 6.56380208,11.0104167 6.22265625,10.484375 C5.88151042,9.95833333 5.7109375,9.23958333 5.7109375,8.328125 C5.7109375,7.78645833 5.79036458,7.296875 5.94921875,6.859375 C6.10807292,6.421875 6.34635417,6.07421875 6.6640625,5.81640625 C6.98177083,5.55859375 7.3671875,5.4296875 7.8203125,5.4296875 C8.21614583,5.4296875 8.57682292,5.52864583 8.90234375,5.7265625 C9.22786458,5.92447917 9.48958333,6.24088542 9.6875,6.67578125 C9.88541667,7.11067708 9.984375,7.66666667 9.984375,8.34375 C9.984375,8.96354167 9.875,9.49479167 9.65625,9.9375 C9.4375,10.3802083 9.15755208,10.7135417 8.81640625,10.9375 C8.47526042,11.1614583 8.12239583,11.2734375 7.7578125,11.2734375 Z"/>
</svg>
