<svg xmlns="http://www.w3.org/2000/svg" viewBox="-10 0 531 512">
  <path fill="currentColor"
    d="M154 509h-6q-35 0-59-27t-24-67v-53q0-21-13-37L7 271q-5-7-5-16t5-16l45-54q13-16 13-37V95q0-40 24-67.5T148 0h6q11 0 18 7.5t7 18.5-7 18-18 7h-6q-14 0-23 13t-9 31v53q0 39-25 70l-31 37 31 37q25 30 25 70v53q0 18 9 30.5t23 12.5h6q11 0 18 7.5t7 18.5-7 18-18 7zm210 0h-6q-11 0-18.5-7t-7.5-18 7.5-18.5T358 458h6q14 0 23-12.5t9-30.5v-53q0-40 25-70l31-37-31-37q-25-31-25-70V95q0-18-9-31t-23-13h-6q-11 0-18.5-7T332 26t7.5-18.5T358 0h6q18 0 33 7.5t26 20 17.5 30T447 95v53q0 19 13 37l44 54q13 16 0 32l-44 54q-13 16-13 37v53q0 40-24 67t-59 27zm-25-177q-7 0-13-6t-5.5-13.5T326 300l44-45-44-45q-5-6-5.5-13.5T326 184q5-6 13-6t14 6l58 58q5 5 5 13t-5 13l-58 58q-6 6-14 6zm-167 0q-7 0-13-6l-58-58q-14-14 0-26l58-58q6-6 14-6t13 6q5 5 5 13t-5 13l-44 45 44 45q5 5 5 13t-5 13q-6 6-14 6zm59-2q-5 0-8-2-7-3-10-10t1-15l49-112q3-8 10.5-10.5t14.5.5q8 4 10.5 11t-.5 15l-49 112q-5 11-18 11z" />
</svg>