<svg xmlns="http://www.w3.org/2000/svg" viewBox="-10 0 625 512">
  <path fill="currentColor"
    d="M290 419h-24q-28 0-51.5-10.5t-40-28.5-25.5-42.5-9-52.5v-97q0-11 7.5-19.5T168 160h215q11 0 19 8.5t8 19.5v97q0 28-8.5 52.5t-24 42.5-38 28.5T290 419zM170 191v94q0 43 25.5 73t70.5 30h24q42 0 66.5-30t24.5-73v-94H170zm-61 288l-1-2v-28h338v30H109zm182-350q-2 0-2-2V64q0-1 2-1h28q1 0 2 1v63q0 1-2 1-1 0-1 1h-27zm-63 0q-2 0-2-1V34q0-2 2-2h25q2 0 2 2v94q0 1-2 1h-25zm213 206h-25l8-31h17q5 0 8.5-3t3.5-8l6-59q0-4-3.5-7.5T447 223h-26v-31h26q17 0 29.5 12.5T489 234l-5 59q0 18-13 30t-30 12z" />
</svg>