<svg id="Product_Icons" data-name="Product Icons" xmlns="http://www.w3.org/2000/svg" viewBox="0 0 32 32"><defs><style>.cls-1{fill:#4285f4;}.cls-1,.cls-2{fill-rule:evenodd;}.cls-2{fill:#669df6;}</style></defs><title>Icon_32px_MLEngine_Color</title><g id="Shape"><polygon class="cls-1" points="22.19 20.17 23.18 18.5 27.88 18.5 29.33 16 26.42 11 22.33 11 20.91 8.53 19.33 8.53 19.33 6.83 21.92 6.83 23.33 9.33 25.45 9.33 22.54 4.33 16.83 4.33 16.83 11 19.15 11 20.12 12.67 16.83 12.67 16.83 16 19.86 16 21.26 13.5 25 13.5 25.96 15.17 22.23 15.17 20.83 17.67 16.83 17.67 16.83 23.5 21.38 23.5 20.41 25.17 16.83 25.17 16.83 27.67 22.54 27.67 26.91 20.17 24.13 20.17 23.14 21.83 19.33 21.83 19.33 20.17 22.19 20.17"/><polygon class="cls-2" points="9.81 20.17 8.82 18.5 4.12 18.5 2.67 16 5.58 11 9.67 11 11.09 8.53 12.67 8.53 12.67 6.83 10.08 6.83 8.67 9.33 6.55 9.33 9.46 4.33 15.17 4.33 15.17 11 12.85 11 11.88 12.67 15.17 12.67 15.17 16 12.14 16 10.74 13.5 7 13.5 6.04 15.17 9.77 15.17 11.17 17.67 15.17 17.67 15.17 23.5 10.62 23.5 11.59 25.17 15.17 25.17 15.17 27.67 9.46 27.67 5.09 20.17 7.87 20.17 8.86 21.83 12.67 21.83 12.67 20.17 9.81 20.17"/></g></svg>