<svg id="Artwork" xmlns="http://www.w3.org/2000/svg" viewBox="0 0 32 32"><path d="M14,15.57l-3.47-2.09a1.78,1.78,0,0,0,.07-.47,1.82,1.82,0,1,0-.58,1.33l3.47,2.09a.48.48,0,0,0,.26.07.52.52,0,0,0,.43-.24A.51.51,0,0,0,14,15.57ZM8.82,13.83A.82.82,0,1,1,9.64,13,.82.82,0,0,1,8.82,13.83Z" style="fill:#669df6"/><path d="M12.26,25.1a9.1,9.1,0,1,1,9.1-9.1A9.11,9.11,0,0,1,12.26,25.1Zm0-16.2a7.1,7.1,0,1,0,7.1,7.1A7.11,7.11,0,0,0,12.26,8.9Z" style="fill:#aecbfa"/><path d="M26.36,20.72a2.49,2.49,0,0,0-1.47.49l-7.68-4.4a3,3,0,0,0,0-1.62l7.68-4.4a2.48,2.48,0,1,0-1-2,2.29,2.29,0,0,0,0,.25L16.14,13.5A3.25,3.25,0,0,0,14,12.7a3.3,3.3,0,1,0,0,6.6,3.25,3.25,0,0,0,2.12-.8L23.9,23a2.29,2.29,0,0,0,0,.25,2.48,2.48,0,1,0,2.48-2.48Z" style="fill:#4285f4"/></svg>