<?xml version="1.0" encoding="UTF-8"?>
<svg width="32px" height="32px" viewBox="0 0 32 32" version="1.1" xmlns="http://www.w3.org/2000/svg" xmlns:xlink="http://www.w3.org/1999/xlink">
    <!-- Generator: Sketch 58 (84663) - https://sketch.com -->
    <title>32x32_color</title>
    <desc>Created with Sketch.</desc>
    <g id="32x32_color" stroke="none" stroke-width="1" fill="none" fill-rule="evenodd">
        <g id="Group" transform="translate(3.000000, 3.000000)" fill="#4285F4">
            <path d="M13.4504421,3.0908609e-13 C14.3726595,3.0908609e-13 15.1529301,0.511234481 15.7902814,1.37438986 C16.3094802,2.07753313 16.7578897,3.0475122 17.1296548,4.23786291 C17.8606185,6.57832838 18.2735849,9.70453265 18.2735849,13.0306604 C18.2735849,16.3567881 17.8606185,19.4829924 17.1296548,21.8234578 C16.7578897,23.0138086 16.3094802,23.9837876 15.7902814,24.6869309 C15.1529301,25.5500863 14.3726595,26.0613208 13.4504421,26.0613208 C11.3403288,26.0613208 10.0352077,24.2176564 9.33909536,21.0710545 C9.31788819,20.9751928 9.31256588,20.8797349 9.32145992,20.7870208 L11.440351,20.7876317 C11.7262412,22.060171 12.0850631,23.3106131 12.4842775,23.724503 C12.7503161,24.0003214 13.0204041,24.0990566 13.4504421,24.0990566 C13.4582569,24.0990566 13.4680379,24.0974691 13.4839466,24.0922961 C13.5136122,24.0826497 13.5512265,24.0642473 13.5965461,24.0345539 C13.7273271,23.948866 13.8795559,23.7972626 14.0402603,23.5796231 C14.4150429,23.0720606 14.7789813,22.2848056 15.0932758,21.2784693 C15.764697,19.1286525 16.1538094,16.1830256 16.1538094,13.0306604 C16.1538094,9.87829518 15.764697,6.93266827 15.0932758,4.7828515 C14.7789813,3.77651513 14.4150429,2.98926016 14.0402603,2.48169762 C13.8795559,2.26405813 13.7273271,2.11245475 13.5965461,2.02676687 C13.5512265,1.99707341 13.5136122,1.97867102 13.4839466,1.96902468 C13.4680379,1.96385165 13.4582569,1.96226415 13.4504421,1.96226415 C13.1052499,1.96226415 12.8004205,2.1242026 12.4673907,2.5648346 C12.0432397,3.12602919 11.6734948,4.04258489 11.3879945,5.33276482 L9.22844394,5.33388376 C9.57322688,3.6012615 10.0675543,2.31709478 10.7305092,1.43993854 C11.4432389,0.496925212 12.3786402,3.0908609e-13 13.4504421,3.0908609e-13 Z M13.7358491,16.25 L13.7358491,18.2122642 L3.43396226,18.2122642 C2.89209798,18.2122642 2.45283019,17.7729964 2.45283019,17.2311321 C2.45283019,16.6892678 2.89209798,16.25 3.43396226,16.25 L13.7358491,16.25 Z M25.0188679,14.1651469 C25.5607322,14.1651469 26,14.6044147 26,15.146279 C26,15.6881433 25.5607322,16.1274111 25.0188679,16.1274111 L20.152462,16.1279192 C20.2330344,15.4889591 20.2906378,14.8331372 20.3240967,14.1654907 L25.0188679,14.1651469 Z M13.7358491,12.0801887 L13.7358491,14.0424528 L0.981132075,14.0424528 C0.439267793,14.0424528 6.95663206e-14,13.603185 7.01660952e-14,13.0613208 C7.03217805e-14,12.5194565 0.439267793,12.0801887 0.981132075,12.0801887 L13.7358491,12.0801887 Z M20.2157544,9.99350484 L25.0188679,9.99533562 C25.5607322,9.99533562 26,10.4346034 26,10.9764677 C26,11.4796274 25.6212436,11.8943238 25.1332887,11.950999 L25.0188679,11.9575998 L20.3461678,11.9577364 C20.3262664,11.2911456 20.2824159,10.6347757 20.2157544,9.99350484 Z M13.7358491,7.91037736 L13.7358491,9.87264151 L3.43396226,9.87264151 C2.89209798,9.87264151 2.45283019,9.43337372 2.45283019,8.89150943 C2.45283019,8.38834974 2.8315866,7.97365335 3.31954154,7.91697815 L3.43396226,7.91037736 L13.7358491,7.91037736 Z" id="Combined-Shape"></path>
        </g>
    </g>
</svg>