<svg id="Product_Icons" data-name="Product Icons" xmlns="http://www.w3.org/2000/svg" viewBox="0 0 32 32"><defs><style>.cls-1{fill:#4285f4;}.cls-1,.cls-2,.cls-3{fill-rule:evenodd;}.cls-2{fill:#aecbfa;}.cls-3{fill:#669df6;}</style></defs><title>Icon_32px_AppEngine_Color</title><g id="Shape"><path class="cls-1" d="M19.07,13.28l-1.63,1.63a2.26,2.26,0,0,1,.85,1.77,2.28,2.28,0,0,1-4.06,1.44L12.6,19.75a4.58,4.58,0,1,0,6.47-6.47Z"/><path class="cls-2" d="M16,8.34a8.34,8.34,0,1,0,8.33,8.34A8.33,8.33,0,0,0,16,8.34M16,22.6a5.93,5.93,0,1,1,5.92-5.92A5.93,5.93,0,0,1,16,22.6"/><path class="cls-3" d="M28.82,15.86l-3.4-1.07a10.18,10.18,0,0,1,.11,3.48h3.29c.31-.09.51-.28.51-.56V16.42c0-.28-.2-.47-.51-.56"/><path class="cls-3" d="M16,7.35a10.2,10.2,0,0,1,2,.21L16.73,4.17a.58.58,0,0,0-.55-.51h-.52a.58.58,0,0,0-.55.51L14,7.55A9.33,9.33,0,0,1,16,7.35"/><path class="cls-3" d="M6.37,16.83a9.8,9.8,0,0,1,.21-2L3.17,15.86a.6.6,0,0,0-.5.56v1.29a.6.6,0,0,0,.5.56h3.3a9.77,9.77,0,0,1-.1-1.44"/><path class="cls-2" d="M16,13.34a3.34,3.34,0,1,0,3.33,3.34A3.34,3.34,0,0,0,16,13.34Zm0,5a1.67,1.67,0,1,1,1.67-1.66A1.66,1.66,0,0,1,16,18.34Z"/></g></svg>