<?xml version="1.0" encoding="UTF-8"?>
<svg width="32px" height="32px" viewBox="0 0 32 32" version="1.1" xmlns="http://www.w3.org/2000/svg" xmlns:xlink="http://www.w3.org/1999/xlink">
    <!-- Generator: Sketch 55.2 (78181) - https://sketchapp.com -->
    <title>colored-32/cloud-artifacts</title>
    <desc>Created with Sketch.</desc>
    <g id="colored-32/cloud-artifacts" stroke="none" stroke-width="1" fill="none" fill-rule="evenodd">
        <rect x="0" y="0" width="32" height="32"></rect>
        <polygon fill="#5C85DE" points="8.0002 3.1417 1.0002 7.1827 1.0002 25.4577 8.0002 29.4997 8.0002 25.9857 3.9992 23.6777 3.9992 8.9737 8.0002 6.6567"></polygon>
        <polygon fill="#3367D6" points="1 10.7125 1 21.9475 4 23.6775 4 8.9735"></polygon>
        <polygon fill="#3367D6" points="1 10.7125 4 10.0345 4 8.9735"></polygon>
        <polygon fill="#5C85DE" points="24.0004 3.1417 24.0004 6.6567 28.0004 8.9737 28.0004 23.6777 24.0004 25.9857 24.0004 29.4997 30.9994 25.4577 30.9994 7.1827"></polygon>
        <polygon fill="#3367D6" points="28 23.6779 31 21.9469 31 10.7129 28 8.9739"></polygon>
        <polygon fill="#3367D6" points="28 10.0348 31 10.7128 28 8.9738"></polygon>
        <polygon fill="#3367D6" points="28 22.8202 28 23.6782 31 21.9472"></polygon>
        <g transform="translate(6.860000, 6.500000)">
            <g transform="translate(4.540000, 0.000000)">
                <polygon fill="#5C85DE" transform="translate(4.600000, 3.000000) rotate(-90.000000) translate(-4.600000, -3.000000) " points="6.71663393 3 4.60016964 -1 2.48336607 3 4.60016964 7"></polygon>
                <polygon fill="#3367D6" transform="translate(7.086714, 6.897878) rotate(-90.000000) translate(-7.086714, -6.897878) " points="3.8949906 4.94996176 6.04924031 8.8457951 10.2784367 8.8457951 8.12054565 4.94996176"></polygon>
                <polygon fill="#3367D6" transform="translate(2.190880, 6.897273) rotate(-90.000000) translate(-2.190880, -6.897273) " points="3.22334669 8.84518986 5.38176068 4.94935653 1.15290353 4.94935653 -1 8.84518986"></polygon>
            </g>
            <g transform="translate(0.000000, 7.976190)">
                <polygon fill="#5C85DE" transform="translate(4.492964, 2.826771) rotate(-90.000000) translate(-4.492964, -2.826771) " points="6.6095976 2.82677083 4.49313331 -1 2.37632974 2.82677083 4.49313331 6.65354167"></polygon>
                <polygon fill="#3367D6" transform="translate(6.795047, 6.724649) rotate(-90.000000) translate(-6.795047, -6.724649) " points="3.60332393 4.7767326 5.75757365 8.67256593 9.98677008 8.67256593 7.82887898 4.7767326"></polygon>
                <polygon fill="#3367D6" transform="translate(2.190880, 6.724044) rotate(-90.000000) translate(-2.190880, -6.724044) " points="3.22334669 8.67196069 5.38176068 4.77612736 1.15290353 4.77612736 -1 8.67196069"></polygon>
            </g>
            <g transform="translate(9.360000, 7.976190)">
                <polygon fill="#5C85DE" transform="translate(4.492964, 2.826771) rotate(-90.000000) translate(-4.492964, -2.826771) " points="6.6095976 2.82677083 4.49313331 -1 2.37632974 2.82677083 4.49313331 6.65354167"></polygon>
                <polygon fill="#3367D6" transform="translate(6.795047, 6.724649) rotate(-90.000000) translate(-6.795047, -6.724649) " points="3.60332393 4.7767326 5.75757365 8.67256593 9.98677008 8.67256593 7.82887898 4.7767326"></polygon>
                <polygon fill="#3367D6" transform="translate(2.190880, 6.724044) rotate(-90.000000) translate(-2.190880, -6.724044) " points="3.22334669 8.67196069 5.38176068 4.77612736 1.15290353 4.77612736 -1 8.67196069"></polygon>
            </g>
        </g>
    </g>
</svg>