<svg viewBox="0 0 32 32" xmlns="http://www.w3.org/2000/svg">
    <g transform="scale(1.23 1.23)">
        <g transform="translate(-3 -3)">
            <path d="m10.17 24.63v-12.25h2.49v12.25zm-5 0v-12.25h2.41v12.25zm10.07 0v-12.25h2.39v12.25zm7.29-12.25v5.69l-2.31 1.07v-6.76z" fill="#4285f4"/>
            <path d="m22.9 23.41-.58.59 1.68 1.72.78-.8.25-.26v4l-.25.37h-.08a5.16 5.16 0 0 1 -1.34-.59 6.26 6.26 0 0 1 -2.75-4.67v-.11-3.4l4.23-1.94.25.5v4.65l-.25.25-.78.81z" fill="#aecbfa"/>
            <path d="m24.77 18.32v5.4l.25-.25 1.72-1.78.58.6-2.32 2.37-.25.26v4.08h.07a5.16 5.16 0 0 0 1.34-.59 6 6 0 0 0 1.88-2 6.3 6.3 0 0 0 1-2.72v-.27-3.16z" fill="#669df6"/>
            <path d="m20 26h-6.15v-2.17h5.56v.09a7.18 7.18 0 0 0 .59 2.08z" fill="#669df6"/>
            <path d="m12.36 8.69a1.51 1.51 0 0 0 1.49 1.5v2.6h-10.85v-2.17l10.85-7.62v4.19a1.51 1.51 0 0 0 -1.49 1.5z" fill="#aecbfa"/>
            <path d="m24.7 10.62v2.17h-10.85v-2.6a1.5 1.5 0 1 0 0-3v-4.19z" fill="#669df6"/>
        </g>
        <path d="m10.85 20.82v2.18h-10.85v-2.16z" fill="#aecbfa"/>
    </g>
</svg>