<svg id="Product_Icons" data-name="Product Icons" xmlns="http://www.w3.org/2000/svg" viewBox="0 0 32 32"><defs><style>.cls-1{fill:#aecbfa;}.cls-1,.cls-2,.cls-3{fill-rule:evenodd;}.cls-2{fill:#669df6;}.cls-3{fill:#4285f4;}</style></defs><title>Icon_32px_BigQuery_Color</title><g id="Shape"><path class="cls-1" d="M9,14.44V18a6.55,6.55,0,0,0,2.27,2.32V14.44Z"/><path class="cls-2" d="M13.18,11.21v10a9.9,9.9,0,0,0,1.45.11,9.53,9.53,0,0,0,1.32-.1v-10Z"/><path class="cls-1" d="M18.19,15.82V20.2a6.59,6.59,0,0,0,2.26-2.43V15.82Z"/><path class="cls-3" d="M23.65,21.75l-1.89,1.9a.57.57,0,0,0,0,.8l4.72,4.72a.56.56,0,0,0,.79,0l1.9-1.9a.56.56,0,0,0,0-.79l-4.72-4.73a.59.59,0,0,0-.8,0"/><path class="cls-2" d="M14.68,2.67a12,12,0,1,0,12,12,12,12,0,0,0-12-12m0,20.91a8.9,8.9,0,1,1,8.9-8.9,8.89,8.89,0,0,1-8.9,8.9"/></g></svg>