<svg id="Artwork" xmlns="http://www.w3.org/2000/svg" viewBox="0 0 32 32"><path d="M19.81,15.5h2.62v.07c0,7.88-4.59,10.68-6.12,11.39v2l.32-.1c.32-.11,7.7-2.77,7.7-13.32v-2H18.84Z" style="fill:#669df6"/><path d="M18.84,13.6l.93-1.69,0-8.91-1.5,1.16C15,6.54,11.63,10.93,11.84,16.08a10.59,10.59,0,0,0,4.53,8.52l.14.09,1-1.62L17.38,23a8.27,8.27,0,0,1-1.1-.94l3.53-2V15.5Zm-.93,1.9v3.41l-2.84,1.64A8.58,8.58,0,0,1,13.71,16c-.17-4.45,2.84-7.81,4.14-9v4.43L15.61,15.5h2.3" style="fill:#4285f4"/><path d="M16.31,27c-1.27-.6-6.74-3.65-6.74-11.68V13.54H7.67v1.74c0,10,7.46,13.26,8.32,13.61l.32.11" style="fill:#aecbfa"/></svg>