<svg fill="none" height="32" viewBox="0 0 32 32" width="32" xmlns="http://www.w3.org/2000/svg"><g fill="#4285f4"><path clip-rule="evenodd" d="m27.5 11.1317v13.7176c0 1.4711-1.1796 2.6507-2.6507 2.6507h-13.7176c-1.45791 0-2.65074-1.1796-2.65074-2.6507h16.36834v-16.36836c1.4711 0 2.6507 1.19283 2.6507 2.65076z" fill-rule="evenodd"/><path clip-rule="evenodd" d="m20.8683 4.5h-13.71756c-1.45791 0-2.65074 1.19283-2.65074 2.65074v13.71756c0 1.4712 1.19283 2.6508 2.65074 2.6508h13.71756c1.4712 0 2.6508-1.1796 2.6508-2.6508v-13.71756c0-1.45791-1.1796-2.65074-2.6508-2.65074zm0 16.3683h-13.71756v-13.71756h13.71756z" fill-rule="evenodd"/><path d="m17.4333 11.3102c-.0877-.4636-.2756-.877-.5261-1.2528-.3633-.55119-.8769-.98965-1.4782-1.25273-.4384-.18791-.9144-.30066-1.428-.30066-.5011 0-.9771.11275-1.4156.30066-.6013.26308-1.1149.70154-1.4781 1.25273-.3884.5512-.6013 1.2277-.6013 1.9543 0 .238.025.476.0751.7015 0 .0126 0 .0251.0126.0501.025.1128.0501.2381.0877.3508.1002.3007.238.5763.4133.8268.1629.2381.3508.4635.5763.664v4.4096l2.33-2.1923 2.3425 2.1923v-4.4096c.451-.4009.7892-.9145.9896-1.4908.0376-.1127.0626-.238.0877-.3508.0125-.025.0125-.0375.0125-.0501.0501-.2255.0752-.4635.0752-.7015s-.0251-.476-.0752-.7015zm-1.8038.7015c0 .8895-.7266 1.616-1.6285 1.616-.8894 0-1.616-.7265-1.616-1.616 0-.2505.0501-.4886.1629-.7015.2505-.5512.8142-.9271 1.4531-.9271.6514 0 1.2151.3759 1.4656.9271.1127.2129.1629.451.1629.7015z"/></g></svg>