<svg id="Product_Icons" data-name="Product Icons" xmlns="http://www.w3.org/2000/svg" viewBox="0 0 32 32"><defs><style>.cls-1{fill:#669df6;}.cls-1,.cls-2,.cls-3{fill-rule:evenodd;}.cls-2{fill:#4285f4;}.cls-3{fill:#aecbfa;}</style></defs><title>Icon_32px_CloudSpanner_Color</title><g id="shape"><polygon id="Shape-2" data-name="Shape" class="cls-1" points="17.79 17.01 17.79 11.21 14.21 11.21 14.21 17.01 9.18 19.92 10.97 23.01 16 20.11 21.03 23.01 22.82 19.92 17.79 17.01"/><polygon class="cls-2" points="17.79 17.01 17.79 11.21 16 11.21 16 18.02 10.08 21.46 10.97 23.01 16 20.11 21.03 23.01 22.82 19.92 17.79 17.01"/><polygon class="cls-3" points="14.2 3.69 11.5 5.32 11.5 10.3 16 12.73 16 8.59 14.2 7.76 14.2 3.69"/><polygon class="cls-1" points="17.8 7.76 16 8.59 16 12.73 20.5 10.3 20.5 5.32 17.8 3.69 17.8 7.76"/><path class="cls-1" d="M24.19,22.78l-.11,1.85,3.59,2.07-2.9,1.61-4.31-2.49.14-5.12L25,18l4.31,2.49.06,3.32-3.59-2.08Z"/><path class="cls-1" d="M7.81,22.78l-1.55-1L2.67,23.83l.06-3.32L7,18,11.4,20.7l.14,5.12L7.23,28.31,4.33,26.7l3.59-2.07Z"/><polygon class="cls-3" points="29.33 23.83 29.27 20.51 24.96 18.02 20.6 20.7 24.19 22.78 25.74 21.75 29.33 23.83"/><polygon class="cls-3" points="2.67 23.83 6.26 21.75 7.81 22.78 11.4 20.7 7.04 18.02 2.73 20.51 2.67 23.83"/></g></svg>