<svg id="Product_Icons" data-name="Product Icons" xmlns="http://www.w3.org/2000/svg" viewBox="0 0 32 32"><defs><style>.cls-1{fill:#4285f4;}.cls-2{fill:#669df6;fill-rule:evenodd;}</style></defs><title>Icon_32px_Translation_Color</title><g id="Group"><path id="Shape" class="cls-1" d="M23.88,13.6H21.45L16,28h2.42l1.37-3.6h5.76L26.91,28h2.42ZM20.7,22l2-5.2,2,5.2Z"/><path id="Path" class="cls-2" d="M17.05,19.69l-3.07-3,0,0a21,21,0,0,0,4.5-7.83h3.55V6.4H13.58V4H11.15V6.4H2.67V8.79H16.21a18.94,18.94,0,0,1-3.85,6.43,19.11,19.11,0,0,1-2.8-4H7.14a21,21,0,0,0,3.61,5.47l-6.16,6L6.3,24.4l6.06-6,3.77,3.73Z"/></g></svg>