<svg id="Product_Icons" data-name="Product Icons" xmlns="http://www.w3.org/2000/svg" viewBox="0 0 32 32"><defs><style>.cls-1{fill:#4285f4;}.cls-2{fill:#669df6;}.cls-3{fill:#aecbfa;}</style></defs><title>Icon_32px_CloudBuild_Color</title><g id="Container-Builder"><g id="Group"><g id="Shape"><polygon class="cls-1" points="16.2 21.66 20.9 18.95 20.9 13.53 19.32 12.62 14.62 20.75 16.2 21.66"/><polygon class="cls-2" points="11.51 13.53 11.51 18.95 13.09 19.86 17.78 11.73 16.2 10.82 11.51 13.53"/></g></g></g><polygon class="cls-3" points="15.28 23.26 9.65 20.02 9.65 13.53 4.65 10.64 4.65 22.91 15.28 29.05 15.28 23.26"/><polygon class="cls-3" points="10.57 11.93 16.2 8.68 21.83 11.93 26.84 9.04 16.2 2.9 5.57 9.04 10.57 11.93"/><polygon class="cls-3" points="22.75 20.02 17.13 23.26 17.13 29.05 27.75 22.91 27.75 10.64 22.75 13.53 22.75 20.02"/></svg>