<svg id="Product_Icons" data-name="Product Icons" xmlns="http://www.w3.org/2000/svg" viewBox="0 0 32 32"><defs><style>.cls-1{fill:#669df6;}.cls-2{fill:#4285f4;}</style></defs><title>Icon_32px_Monitoring_Color</title><rect class="cls-1" x="14.45" y="21.12" width="3.11" height="3.52"/><path class="cls-2" d="M24.64,18.5a.76.76,0,0,1-.53-.23l-5.45-5.65L15,16.48a.75.75,0,0,1-1,.06l-2.77-2.23L8.29,18.2a.73.73,0,0,1-.59.3h-5v2.28a1,1,0,0,0,1,1h24.7a1,1,0,0,0,1-1V18.5Z"/><path class="cls-1" d="M7.33,17,10.5,12.8a.76.76,0,0,1,.5-.29.8.8,0,0,1,.56.16L14.39,15,18.12,11a.72.72,0,0,1,.53-.23h0a.73.73,0,0,1,.54.23L25,17h4.37V7.94a1,1,0,0,0-1-1H3.65a1,1,0,0,0-1,1V17Z"/><rect class="cls-2" x="11.56" y="24.24" width="8.89" height="0.81" rx="0.3"/></svg>