<svg id="Product_Icons" data-name="Product Icons" xmlns="http://www.w3.org/2000/svg" viewBox="0 0 32 32"><defs><style>.cls-1{fill:#669df6;}.cls-2{fill:#4285f4;}.cls-3{fill:none;}.cls-4{fill:#aecbfa;}</style></defs><title>Icon_32px_Scheduler_Color</title><path class="cls-1" d="M26.65,28a1.33,1.33,0,0,1-.95-.39L23.06,25A1.34,1.34,0,0,1,25,23.06l2.64,2.64a1.34,1.34,0,0,1,0,1.89A1.33,1.33,0,0,1,26.65,28Z"/><path class="cls-1" d="M5.33,28a1.34,1.34,0,0,1-1-2.28l2.69-2.69A1.34,1.34,0,0,1,9,25L6.27,27.64A1.33,1.33,0,0,1,5.33,28Z"/><path class="cls-2" d="M7.3,22.84,5.67,24.46a13.43,13.43,0,0,0,1.89,1.88l1.62-1.62Z"/><path class="cls-2" d="M26.3,24.42,25,23.06a1.27,1.27,0,0,0-.31-.2l-1.78,1.78a1.27,1.27,0,0,0,.2.31l1.36,1.36A13.43,13.43,0,0,0,26.3,24.42Z"/><g id="colored-32_scheduler" data-name="colored-32/scheduler"><rect id="Container" class="cls-3" width="32" height="32"/><g id="Group-2"><g id="Group"><path id="Combined-Shape" class="cls-1" d="M16,28A12,12,0,1,1,28,16,12,12,0,0,1,16,28Zm0-2.66A9.34,9.34,0,1,0,6.64,16,9.34,9.34,0,0,0,16,25.34Z"/><path id="Oval" class="cls-2" d="M16,22.68a6.58,6.58,0,0,0,3.62-1.07A6.68,6.68,0,0,0,16,9.32V16l-5.44,3.88A6.69,6.69,0,0,0,16,22.68Z"/></g></g></g><path class="cls-4" d="M5.33,8.09a1.33,1.33,0,0,1-.94-.39,1.34,1.34,0,0,1,0-1.89L7.07,3.13A1.34,1.34,0,1,1,9,5L6.28,7.7A1.37,1.37,0,0,1,5.33,8.09Z"/><path class="cls-4" d="M26.68,8.09a1.33,1.33,0,0,1-.94-.39L23.06,5a1.33,1.33,0,1,1,1.88-1.89l2.68,2.68a1.34,1.34,0,0,1,0,1.89A1.33,1.33,0,0,1,26.68,8.09Z"/></svg>