<svg id="Artwork" xmlns="http://www.w3.org/2000/svg" viewBox="0 0 32 32"><polygon points="21.84 7.69 15.05 24.3 16.95 7.69 21.84 7.69" style="fill:#669df6;fill-rule:evenodd"/><polygon points="16.95 7.69 15.05 24.3 10.16 24.3 16.95 7.69" style="fill:#aecbfa;fill-rule:evenodd"/><path d="M5,19.53,3,24.3H6.42L7,19.53Z" style="fill:#aecbfa;fill-rule:evenodd"/><polygon points="7.78 12.65 7.22 17.43 5.8 17.43 7.78 12.65" style="fill:#aecbfa;fill-rule:evenodd"/><polygon points="12.65 12.65 12.63 12.69 10.69 17.43 7.22 17.43 7.78 12.65 12.65 12.65" style="fill:#669df6;fill-rule:evenodd"/><polygon points="28.99 7.7 22.2 24.3 24.11 7.7 28.99 7.7" style="fill:#669df6;fill-rule:evenodd"/><polygon points="24.11 7.7 22.2 24.3 17.31 24.3 24.11 7.7" style="fill:#aecbfa;fill-rule:evenodd"/><polygon points="9.84 19.53 7.88 24.3 6.42 24.3 6.98 19.53 9.84 19.53" style="fill:#669df6;fill-rule:evenodd"/></svg>