<svg id="Product_Icons" data-name="Product Icons" xmlns="http://www.w3.org/2000/svg" viewBox="0 0 32 32"><defs><style>.cls-1{fill:#aecbfa;}.cls-2{fill:#4285f4;}.cls-3{fill:#669df6;}</style></defs><title>Icon_32px_Cloudshell_Color</title><g id="Cloud-Shell_shaded_32px" data-name="Cloud-Shell shaded 32px"><path id="Shape" class="cls-1" d="M26.93,3.56H5.07A2.38,2.38,0,0,0,2.67,6v14.4a2.39,2.39,0,0,0,2.4,2.4h8.26v3H10.67v2.66H21.33V25.78H18.67v-3h8.26a2.39,2.39,0,0,0,2.4-2.4V6A2.38,2.38,0,0,0,26.93,3.56Zm-4.71,16H16.89V16.89h5.33Zm0-6L10.13,18.58V16.09l8.71-3.73L10.13,8.53V6l12.09,5Z"/><polygon id="Rectangle-path" class="cls-2" points="13.33 22.76 18.67 22.76 18.67 25.78 13.33 25.78 13.33 22.76"/><rect class="cls-3" x="10.67" y="25.78" width="10.67" height="2.67"/></g></svg>