<svg id="Product_Icons" data-name="Product Icons" xmlns="http://www.w3.org/2000/svg" viewBox="0 0 32 32"><defs><style>.cls-1{fill:#aecbfa;}.cls-2{fill:#4285f4;fill-rule:evenodd;}.cls-3{fill:#669df6;}</style></defs><title>Icon_32px_Genomic_Color</title><g id="Shape"><circle id="Oval" class="cls-1" cx="16" cy="16" r="2.13"/><polygon class="cls-2" points="10.1 12.27 18.6 12.27 19.58 11.33 18.6 10.4 10.1 10.4 10.1 12.27"/><circle class="cls-3" cx="9.07" cy="11.33" r="1.64"/><circle class="cls-1" cx="22.93" cy="11.33" r="2.13"/><polygon class="cls-2" points="12.48 20.67 13.46 21.6 21.84 21.6 21.84 19.73 13.46 19.73 12.48 20.67"/><circle class="cls-1" cx="9.07" cy="20.67" r="2.13"/><circle class="cls-3" cx="22.93" cy="20.67" r="1.64"/><polygon class="cls-2" points="5.57 6.67 22.48 6.67 23.47 5.73 22.48 4.8 5.57 4.8 5.57 6.67"/><circle class="cls-3" cx="4.8" cy="5.73" r="1.64"/><circle class="cls-1" cx="27.2" cy="5.73" r="2.13"/><polygon class="cls-2" points="8.53 26.27 9.52 27.2 26.45 27.2 26.45 25.34 9.52 25.33 8.53 26.27"/><circle class="cls-1" cx="4.8" cy="26.27" r="2.13"/><circle class="cls-3" cx="27.2" cy="26.27" r="1.64"/></g></svg>