<svg id="Product_Icons" data-name="Product Icons" xmlns="http://www.w3.org/2000/svg" viewBox="0 0 32 32"><defs><style>.cls-1{fill:#669df6;}.cls-2{fill:#4285f4;}.cls-3{fill:#aecbfa;}</style></defs><title>Icon_32px_NaturalLanguage_Color</title><polygon class="cls-1" points="26.67 6.67 22.67 6.67 22.67 9.33 26.67 9.33 26.67 25.33 22.67 25.33 22.67 28 26.67 28 29.33 28 29.33 25.33 29.33 9.33 29.33 6.67 26.67 6.67"/><g id="Shape"><polygon class="cls-2" points="26.67 10.67 29.33 9.33 26.67 9.33 26.67 10.67"/><polygon class="cls-2" points="29.33 24 26.67 25.33 29.33 25.33 29.33 24"/></g><polygon class="cls-1" points="5.33 28 9.33 28 9.33 25.33 5.33 25.33 5.33 9.33 9.33 9.33 9.33 6.67 5.33 6.67 2.67 6.67 2.67 9.33 2.67 25.33 2.67 28 5.33 28"/><g id="Shape-2" data-name="Shape"><polygon class="cls-2" points="2.67 24 5.33 25.33 2.67 25.33 2.67 24"/><polygon class="cls-2" points="5.33 10.67 2.67 9.33 5.33 9.33 5.33 10.67"/></g><rect id="Rectangle-7-Copy" class="cls-3" x="9.33" y="16" width="13.33" height="2.67"/><rect id="Rectangle-7-Copy-2" data-name="Rectangle-7-Copy" class="cls-3" x="9.33" y="20" width="13.33" height="2.67"/><rect id="Rectangle-7-Copy-3" data-name="Rectangle-7-Copy" class="cls-3" x="9.33" y="12" width="13.33" height="2.67"/></svg>