<svg id="Artwork" xmlns="http://www.w3.org/2000/svg" viewBox="0 0 32 32"><path d="M27,15a1,1,0,1,0,1,1A1,1,0,0,0,27,15Z" style="fill:none"/><path d="M5,15a1,1,0,1,0,1,1A1,1,0,0,0,5,15Z" style="fill:none"/><path d="M5,6.28a1,1,0,1,0,1,1A1,1,0,0,0,5,6.28Z" style="fill:none"/><path d="M27,6.28a1,1,0,1,0,1,1A1,1,0,0,0,27,6.28Z" style="fill:none"/><path d="M5,23.65a1,1,0,1,0,1,1A1,1,0,0,0,5,23.65Z" style="fill:none"/><path d="M27,23.65a1,1,0,1,0,1,1A1,1,0,0,0,27,23.65Z" style="fill:none"/><path d="M16,6.75v5.1a4.15,4.15,0,1,1,0,8.3v5l.22-.05A9.65,9.65,0,0,0,20,23.32a8.57,8.57,0,0,0,.79-.68,10.15,10.15,0,0,0,3.12-6.14c0-.33.06-.66.07-1v-5Z" style="fill:#4285f4"/><path d="M27,6.28a1,1,0,1,1-1,1,1,1,0,0,1,1-1m0-1a2,2,0,1,0,2,2,2,2,0,0,0-2-2Z" style="fill:#4285f4"/><path d="M5,23.65a1,1,0,1,1-1,1,1,1,0,0,1,1-1m0-1a2,2,0,1,0,2,2,2,2,0,0,0-2-2Z" style="fill:#4285f4"/><path d="M8,10.47v5s0,0,0,.05a8.26,8.26,0,0,0,.06,1,10.15,10.15,0,0,0,3.12,6.14,8.57,8.57,0,0,0,.79.68,9.72,9.72,0,0,0,3.79,1.81l.22.05v-5a4.15,4.15,0,0,1,0-8.3V6.75Z" style="fill:#aecbfa"/><path d="M27,15a1,1,0,1,1-1,1,1,1,0,0,1,1-1m0-1a2,2,0,1,0,2,2,2,2,0,0,0-2-2Z" style="fill:#aecbfa"/><path d="M5,15a1,1,0,1,1-1,1,1,1,0,0,1,1-1m0-1a2,2,0,1,0,2,2,2,2,0,0,0-2-2Z" style="fill:#aecbfa"/><path d="M16,13.85A2.15,2.15,0,1,0,18.16,16,2.15,2.15,0,0,0,16,13.85Z" style="fill:#669df6"/><path d="M25,15.5H24c0,.34,0,.67-.07,1H25a1.82,1.82,0,0,1,0-1Z" style="fill:#669df6"/><path d="M7,16.5H8.08a8.26,8.26,0,0,1-.06-1H7a1.82,1.82,0,0,1,0,1Z" style="fill:#669df6"/><path d="M9.16,6.82H7a2,2,0,0,1,.07.5,2.15,2.15,0,0,1-.07.5H8.86l2,1.32,1.06-.5Z" style="fill:#669df6"/><path d="M25,6.82H22.84L20.07,8.64l1.06.5,2-1.32H25a2.15,2.15,0,0,1-.07-.5A2,2,0,0,1,25,6.82Z" style="fill:#669df6"/><path d="M12,23.32a8.57,8.57,0,0,1-.79-.68L8.86,24.18H7a2.15,2.15,0,0,1,.07.5,2,2,0,0,1-.07.5H9.16Z" style="fill:#669df6"/><path d="M25,24.18H23.14L20.8,22.64a8.57,8.57,0,0,1-.79.68l2.83,1.86H25a2,2,0,0,1-.07-.5A2.15,2.15,0,0,1,25,24.18Z" style="fill:#669df6"/><path d="M27,23.65a1,1,0,1,1-1,1,1,1,0,0,1,1-1m0-1a2,2,0,1,0,2,2,2,2,0,0,0-2-2Z" style="fill:#669df6"/><path d="M5,6.28a1,1,0,1,1-1,1,1,1,0,0,1,1-1m0-1a2,2,0,1,0,2,2,2,2,0,0,0-2-2Z" style="fill:#669df6"/></svg>