<svg id="Product_Icons" data-name="Product Icons" xmlns="http://www.w3.org/2000/svg" viewBox="0 0 32 32"><defs><style>.cls-1{fill:#4285f4;}.cls-2{fill:none;}.cls-3{fill:#669df6;}.cls-4{fill:#aecbfa;}</style></defs><title>Icon_32px_Logging_Color</title><rect class="cls-1" x="8" y="14.67" width="5.33" height="2.67"/><rect class="cls-1" x="5.33" y="24" width="8" height="2.67"/><g id="colored-32_logs" data-name="colored-32/logs"><rect id="Container" class="cls-2" width="32" height="32"/><g id="Shape"><polygon id="Fill-3" class="cls-1" points="5.33 24 8 24 8 8 5.33 8 5.33 24"/><polygon id="Fill-4" class="cls-3" points="12 9.33 29.33 9.33 29.33 4 12 4 12 9.33"/><polygon id="Fill-4-2" data-name="Fill-4" class="cls-3" points="12 18.67 29.33 18.67 29.33 13.33 12 13.33 12 18.67"/><polygon id="Fill-4-3" data-name="Fill-4" class="cls-3" points="12 28 29.33 28 29.33 22.67 12 22.67 12 28"/><polygon id="Fill-7" class="cls-4" points="2.67 10.67 10.67 10.67 10.67 2.67 2.67 2.67 2.67 10.67"/></g></g></svg>