<svg id="Product_Icons" data-name="Product Icons" xmlns="http://www.w3.org/2000/svg" viewBox="0 0 32 32"><defs><style>.cls-1{fill:#aecbfa;}.cls-1,.cls-2,.cls-3{fill-rule:evenodd;}.cls-2{fill:#669df6;}.cls-3{fill:#4285f4;}</style></defs><title>Icon_32px_SQL_Color</title><g id="Shape"><polygon class="cls-1" points="6.22 13.92 6.22 17.94 16 23.14 16 19.12 6.22 13.92"/><polygon class="cls-1" points="6.22 20.12 6.22 24.14 16 29.33 16 25.31 6.22 20.12"/><polygon class="cls-2" points="16 23.14 25.78 17.94 25.78 13.92 16 19.12 16 23.14"/><polygon class="cls-2" points="16 29.33 25.78 24.14 25.78 20.12 16 25.31 16 29.33"/><polygon class="cls-3" points="25.78 11.88 25.78 7.86 16 2.67 16 6.69 25.78 11.88"/><polygon class="cls-2" points="16 2.67 6.22 7.86 6.22 11.88 16 6.69 16 2.67"/><polygon class="cls-1" points="6.22 7.83 6.22 11.85 16 17.05 16 13.03 6.22 7.83"/><polygon class="cls-2" points="16 17.05 25.78 11.85 25.78 7.83 16 13.03 16 17.05"/></g></svg>