<?xml version="1.0" encoding="UTF-8"?>
<svg width="32px" height="32px" viewBox="0 0 32 32" version="1.1" xmlns="http://www.w3.org/2000/svg" xmlns:xlink="http://www.w3.org/1999/xlink">
    <!-- Generator: Sketch 52.3 (67297) - http://www.bohemiancoding.com/sketch -->
    <title>colored-32/billing</title>
    <desc>Created with Sketch.</desc>
    <g id="colored-32/billing" stroke="none" stroke-width="1" fill="none" fill-rule="evenodd">
        <rect id="Container" x="0" y="0" width="32" height="32"></rect>
        <g id="Shape" transform="translate(0.000000, 5.000000)">
            <path d="M30,21.9998 L2,21.9998 C0.8954,21.9998 0,21.1044 0,19.9998 L0,2 C0,0.8954 0.8954,0 2,0 L30,0 C31.1046,0 32,0.8954 32,2 L32,19.9998 C32,21.1044 31.1046,21.9998 30,21.9998 L30,21.9998 Z" fill="#85A4E6"></path>
            <path d="M30,21.9998 L16,21.9998 L16,0 L30,0 C31.1046,0 32,0.8954 32,2 L32,19.9998 C32,21.1044 31.1046,21.9998 30,21.9998 L30,21.9998 Z" fill="#5C85DE"></path>
            <rect id="Rectangle-path" fill="#5C85DE" x="0" y="3" width="32" height="4"></rect>
            <rect id="Rectangle-path" fill="#3367D6" x="16" y="3" width="16" height="4"></rect>
            <rect id="Rectangle-path" fill="#FFFFFF" x="3" y="9" width="26" height="3"></rect>
            <rect id="Rectangle-path" fill="#5C85DE" x="3" y="15" width="6" height="4"></rect>
            <rect id="Rectangle-path" fill="#FFFFFF" x="18" y="16" width="2" height="2"></rect>
            <rect id="Rectangle-path" fill="#FFFFFF" x="22" y="16" width="2" height="2"></rect>
            <rect id="Rectangle-path" fill="#FFFFFF" x="26" y="16" width="2" height="2"></rect>
        </g>
    </g>
</svg>