<svg id="Product_Icons" data-name="Product Icons" xmlns="http://www.w3.org/2000/svg" viewBox="0 0 32 32"><defs><style>.cls-1{fill:#4285f4;}.cls-2{fill:#669df6;}</style></defs><title>Icon_32px_TPU_Color</title><g id="colored-32_TPU" data-name="colored-32/TPU"><g id="Guides"><path id="Shape" class="cls-1" d="M8.64,12.83a.5.5,0,1,1-.06-1l3.06-.41a.49.49,0,0,1,.56.43.5.5,0,0,1-.42.56l-3.07.42Z"/><rect id="Rectangle-path" class="cls-1" x="14.82" y="9.91" width="1" height="5.81" transform="matrix(0.31, -0.95, 0.95, 0.31, -1.62, 23.4)"/><path id="Shape-2" data-name="Shape" class="cls-1" d="M12.24,12.22H12.1a.5.5,0,0,1-.33-.62l1.11-3.79a.5.5,0,0,1,.62-.32.49.49,0,0,1,.34.6l-1.11,3.74A.51.51,0,0,1,12.24,12.22Z"/><path id="Shape-3" data-name="Shape" class="cls-1" d="M19.07,14.08a.5.5,0,0,1-.46-.69l2.23-5.65a.5.5,0,0,1,.93.37l-2.24,5.65A.5.5,0,0,1,19.07,14.08Z"/><rect id="Rectangle-path-2" data-name="Rectangle-path" class="cls-1" x="7.14" y="19.94" width="6.71" height="1" transform="translate(-10.46 11.01) rotate(-38.61)"/><polygon id="Rectangle-path-3" data-name="Rectangle-path" class="cls-1" points="18.82 14.28 19.22 13.36 24.06 15.47 23.66 16.39 18.82 14.28"/><polygon id="Rectangle-path-4" data-name="Rectangle-path" class="cls-1" points="18.66 19.45 19.34 18.73 23.65 22.78 22.96 23.51 18.66 19.45"/><rect id="Rectangle-path-5" data-name="Rectangle-path" class="cls-1" x="12.24" y="12" width="1" height="5.41" transform="translate(-2.67 2.83) rotate(-11.48)"/><polygon id="Rectangle-path-6" data-name="Rectangle-path" class="cls-1" points="13.29 18.13 18.75 13.33 19.41 14.08 13.95 18.89 13.29 18.13"/><polygon id="Rectangle-path-7" data-name="Rectangle-path" class="cls-1" points="18.33 18.97 18.66 13.67 19.66 13.73 19.33 19.03 18.33 18.97"/><circle id="Oval" class="cls-1" cx="13.35" cy="18.42" r="1.82"/><circle id="Oval-2" data-name="Oval" class="cls-1" cx="19.16" cy="13.82" r="2.15"/><circle id="Oval-3" data-name="Oval" class="cls-1" cx="19.14" cy="19.38" r="1.12"/><circle id="Oval-4" data-name="Oval" class="cls-1" cx="12.06" cy="11.56" r="1.32"/></g></g><polygon class="cls-2" points="17.33 4 14.67 4 14.67 9.33 17.33 9.33 17.33 4 17.33 4"/><polygon class="cls-2" points="22.67 4 20 4 20 9.33 22.67 9.33 22.67 4 22.67 4"/><polygon class="cls-2" points="12 4 9.33 4 9.33 9.33 12 9.33 12 4 12 4"/><polygon class="cls-2" points="17.33 22.67 14.67 22.67 14.67 28 17.33 28 17.33 22.67 17.33 22.67"/><polygon class="cls-2" points="22.67 22.67 20 22.67 20 28 22.67 28 22.67 22.67 22.67 22.67"/><polygon class="cls-2" points="12 22.67 9.33 22.67 9.33 28 12 28 12 22.67 12 22.67"/><polygon class="cls-2" points="9.33 14.67 4 14.67 4 17.33 9.33 17.33 9.33 14.67 9.33 14.67"/><polygon class="cls-2" points="9.33 9.33 4 9.33 4 12 9.33 12 9.33 9.33 9.33 9.33"/><polygon class="cls-2" points="9.33 20 4 20 4 22.67 9.33 22.67 9.33 20 9.33 20"/><polygon class="cls-2" points="28 14.67 22.67 14.67 22.67 17.33 28 17.33 28 14.67 28 14.67"/><polygon class="cls-2" points="28 9.33 22.67 9.33 22.67 12 28 12 28 9.33 28 9.33"/><polygon class="cls-2" points="28 20 22.67 20 22.67 22.67 28 22.67 28 20 28 20"/><path class="cls-2" d="M24,6.67H8A1.32,1.32,0,0,0,6.67,8V24A1.32,1.32,0,0,0,8,25.33H24A1.32,1.32,0,0,0,25.33,24V8A1.32,1.32,0,0,0,24,6.67ZM22.67,22a.72.72,0,0,1-.72.72H10.05A.72.72,0,0,1,9.33,22V10.05a.72.72,0,0,1,.72-.72H22a.72.72,0,0,1,.72.72Z"/></svg>