<svg id="Product_Icons" data-name="Product Icons" xmlns="http://www.w3.org/2000/svg" viewBox="0 0 32 32"><defs><style>.cls-1{fill:#aecbfa;}.cls-2{fill:#4285f4;}.cls-3{fill:#669df6;}</style></defs><title>Icon_32px_DataFusion_Color</title><path class="cls-1" d="M8,10.67h5.33V5.33H4a1.3,1.3,0,0,0-1.3,1.3V28A1.32,1.32,0,0,0,3,29l5-5Z"/><path class="cls-2" d="M21.33,24l5,5a1.33,1.33,0,0,0,.38-.92V18.67H21.33Z"/><path class="cls-3" d="M29,3,24,8h0v5.33h5.33V4A1.31,1.31,0,0,0,29,3Z"/><path class="cls-1" d="M24,8l5-5A1.32,1.32,0,0,0,28,2.67H18.67V8Z"/><polygon class="cls-3" points="2.67 29.33 8 24 21.33 24 26.67 29.33 2.67 29.33"/></svg>