<svg id="Artwork" xmlns="http://www.w3.org/2000/svg" viewBox="0 0 32 32"><rect x="14.33" y="14.15" width="3.43" height="3.43" transform="translate(-6.52 15.99) rotate(-45.01)" style="fill:#4285f4"/><polygon points="23.83 15.86 23.74 15.94 18.7 20.98 17.3 19.58 21.02 15.86 13.41 8.25 13.41 5.45 13.5 5.54 23.83 15.86" style="fill:#669df6;fill-rule:evenodd"/><polygon points="13.41 8.25 5.81 15.86 14.81 24.87 13.41 26.27 13.33 26.18 3 15.86 13.41 5.45 13.41 8.25" style="fill:#aecbfa;fill-rule:evenodd"/><polygon points="18.59 23.47 18.59 26.27 18.5 26.18 8.17 15.87 13.3 10.74 14.7 12.15 10.98 15.87 18.59 23.47" style="fill:#669df6;fill-rule:evenodd"/><polygon points="18.59 23.47 26.19 15.87 17.19 6.86 18.59 5.45 18.67 5.54 29 15.87 28.91 15.95 18.59 26.27 18.59 23.47" style="fill:#4285f4"/></svg>