<svg id="Product_Icons" data-name="Product Icons" xmlns="http://www.w3.org/2000/svg" viewBox="0 0 32 32"><defs><style>.cls-1{fill:#669df6;}.cls-2{fill:#4285f4;}.cls-3{fill:#aecbfa;}</style></defs><title>Icon_32px_Functions_Color</title><g id="colored-32_functions" data-name="colored-32/functions"><g id="Shape"><polygon class="cls-1" points="2.67 20.75 6.67 24 6.67 8 2.67 11.24 2.67 20.75"/><polygon class="cls-2" points="2.67 13.33 6.67 10.67 6.67 8 2.67 13.33"/><polygon class="cls-2" points="6.67 24 6.67 21.33 2.67 18.67 6.67 24"/><polygon class="cls-3" points="10.67 26.67 2.67 18.67 2.67 24 8 29.33 10.67 26.67"/></g></g><polygon class="cls-3" points="7.99 2.68 2.67 8 2.67 13.33 10.65 5.35 7.99 2.68"/><g id="colored-32_functions-2" data-name="colored-32/functions"><g id="Shape-2" data-name="Shape"><polygon class="cls-1" points="29.33 11.26 25.33 8.02 25.33 24.02 29.33 20.78 29.33 11.26"/><polygon class="cls-2" points="29.33 18.68 25.33 21.35 25.33 24.02 29.33 18.68"/><polygon class="cls-2" points="25.33 8.02 25.33 10.68 29.33 13.35 25.33 8.02"/><polygon class="cls-3" points="21.33 5.35 29.33 13.35 29.33 8.02 24 2.68 21.33 5.35"/></g></g><polygon class="cls-3" points="24.02 29.33 29.33 24.02 29.32 18.68 21.35 26.66 24.02 29.33"/><circle id="Oval" class="cls-3" cx="10.67" cy="16" r="1.33"/><circle id="Oval-2" data-name="Oval" class="cls-3" cx="16" cy="16" r="1.33"/><circle id="Oval-3" data-name="Oval" class="cls-3" cx="21.32" cy="16" r="1.33"/></svg>