<svg id="Product_Icons" data-name="Product Icons" xmlns="http://www.w3.org/2000/svg" viewBox="0 0 32 32"><defs><style>.cls-1{fill:#aecbfa;}.cls-2{fill:#669df6;}.cls-3{fill:#4285f4;}</style></defs><title>Icon_32px_ComputeEngine_Color</title><rect class="cls-1" x="12" y="12" width="8" height="8"/><rect class="cls-2" x="14.67" y="2.67" width="2.67" height="5.33"/><rect class="cls-2" x="9.33" y="2.67" width="2.67" height="5.33"/><rect class="cls-2" x="20" y="2.67" width="2.67" height="5.33"/><rect class="cls-3" x="14.67" y="24" width="2.67" height="5.33"/><rect class="cls-3" x="9.33" y="24" width="2.67" height="5.33"/><rect class="cls-3" x="20" y="24" width="2.67" height="5.33"/><rect class="cls-3" x="25.33" y="13.33" width="2.67" height="5.33" transform="translate(10.67 42.67) rotate(-90)"/><rect class="cls-3" x="25.33" y="18.67" width="2.67" height="5.33" transform="translate(5.33 48) rotate(-90)"/><rect class="cls-3" x="25.33" y="8" width="2.67" height="5.33" transform="translate(16 37.33) rotate(-90)"/><rect class="cls-2" x="4" y="13.33" width="2.67" height="5.33" transform="translate(-10.67 21.33) rotate(-90)"/><rect class="cls-2" x="4" y="18.67" width="2.67" height="5.33" transform="translate(-16 26.67) rotate(-90)"/><rect class="cls-2" x="4" y="8" width="2.67" height="5.33" transform="translate(-5.33 16) rotate(-90)"/><path class="cls-1" d="M6.67,6.67V25.33H25.33V6.67Zm16,16H9.33V9.33H22.67Z"/><polygon class="cls-2" points="12 20 20 20 16 16 12 20"/><polygon class="cls-3" points="16 16 20 20 20 12 16 16"/></svg>