<svg id="Product_Icons" data-name="Product Icons" xmlns="http://www.w3.org/2000/svg" viewBox="0 0 32 32"><defs><style>.cls-1{fill:none;}.cls-2{fill:#aecbfa;}.cls-2,.cls-3,.cls-4{fill-rule:evenodd;}.cls-3{fill:#4285f4;}.cls-4{fill:#669df6;}</style></defs><title>Icon_32px_DataProc_Color</title><rect id="Container" class="cls-1" x="2.67" y="2.67" width="26.67" height="26.67"/><g id="Shape"><polygon id="Rectangle-path" class="cls-2" points="23.8 18.93 10.22 26.77 8.92 24.53 22.5 16.68 23.8 18.93"/><polygon class="cls-2" points="10.17 24.22 10.17 8.54 12.66 8.54 12.67 22.33 10.17 24.22"/><polygon class="cls-2" points="12.75 12.93 12.4 9.77 25.98 17.6 24.69 19.85 12.75 12.93"/><path class="cls-3" d="M19.19,13.69,12.4,9.77l.35,3.15,2,1.15a5.36,5.36,0,0,0,4.43-.38Z"/><path class="cls-2" d="M10.84,11.05h0A5,5,0,0,1,15.2,3.5,5.08,5.08,0,0,1,19.57,6a5,5,0,0,1-8.73,5Zm6.48-3.73a2.44,2.44,0,0,0-3.85-.51,2.42,2.42,0,0,0-.71,1.73,2.45,2.45,0,0,0,4.89,0,2.44,2.44,0,0,0-.33-1.21Z"/><path class="cls-3" d="M10.17,17.25v7l2.5-1.89V20.16a4.38,4.38,0,0,0-2.5-2.91Z"/><path class="cls-3" d="M17.77,22.41l6-3.48-2.95-1.3-1.66,1a5.71,5.71,0,0,0-1.42,3.81Z"/><path class="cls-2" d="M3.34,24.93h0a5,5,0,1,1,6.88,1.84,5,5,0,0,1-6.88-1.84Zm6.48-3.74a2.44,2.44,0,0,0-1.49-1.14,2.4,2.4,0,0,0-1.85.25,2.45,2.45,0,0,0-.9,3.34h0a2.45,2.45,0,0,0,4.24-2.45Z"/><path class="cls-2" d="M19.11,24.49h0a5,5,0,0,1,3.05-7.39,5.05,5.05,0,0,1,5.67,2.34,5.09,5.09,0,0,1,0,5A5,5,0,0,1,21,26.33a5.07,5.07,0,0,1-1.84-1.84Zm6.47-3.75a2.38,2.38,0,0,0-.89-.89,2.44,2.44,0,0,0-3.34,3.34,2.38,2.38,0,0,0,.89.89,2.47,2.47,0,0,0,1.86.25,2.45,2.45,0,0,0,1.48-3.59Z"/><path class="cls-4" d="M12.66,21.53s-3.13,2.65-3.74,3l3.81-2.2a5.4,5.4,0,0,0-.07-.8Z"/><path class="cls-4" d="M13.53,13.28S12.75,9,12.75,8.54v4.38a5.51,5.51,0,0,0,.78.36Z"/><path class="cls-4" d="M20.4,18s3.68,1.54,4.29,1.89l-3.81-2.2a3,3,0,0,0-.48.31Z"/></g></svg>