<?xml version="1.0" encoding="UTF-8"?>
<svg width="32px" height="32px" viewBox="0 0 32 32" version="1.1" xmlns="http://www.w3.org/2000/svg" xmlns:xlink="http://www.w3.org/1999/xlink">
    <title>datastream-multi-32</title>
    <g id="-multi-32" stroke="none" stroke-width="1" fill="none" fill-rule="evenodd">
        <g id="aam">
            <rect id="container" x="0" y="0" width="32" height="32"></rect>
            <g id="Asset-2" transform="translate(2.750000, 3.750000)" fill-rule="nonzero">
                <ellipse id="Oval" fill="#185ABC" cx="2.1995" cy="2.2" rx="2.1995" ry="2.2"></ellipse>
                <ellipse id="Oval" fill="#185ABC" cx="2.1995" cy="12.1730155" rx="2.1995" ry="2.2"></ellipse>
                <ellipse id="Oval" fill="#185ABC" cx="2.1995" cy="22.1460309" rx="2.1995" ry="2.2"></ellipse>
                <circle id="Oval" fill="#185ABC" cx="23.59225" cy="12.1741649" r="2.75"></circle>
                <path d="M6.519,13.4936907 L11.16975,13.4936907 C11.3530191,13.1758772 11.5520214,12.8675946 11.766,12.5700155 L12.04425,12.1684175 C11.75275,11.7668196 11.4745,11.3518351 11.19625,10.8297577 L6.519,10.8297577 C6.62030071,11.1740304 6.68253363,11.5288222 6.7045,11.887299 L6.7045,12.4495361 C6.68365098,12.8037618 6.62138468,13.1542505 6.519,13.4936907 Z" id="Path" fill="#669DF6"></path>
                <path d="M15.25075,8.12566495 L14.946,7.57681443 L14.575,6.96103093 L13.992,5.79639691 C12.3225,2.44974742 10.6,0.91028866 7.1285,0.91028866 L6.519,0.91028866 C6.64418979,1.34518293 6.70666578,1.79604059 6.7045,2.24894845 C6.70703721,2.70188147 6.64455377,3.15279285 6.519,3.58760825 L7.1285,3.58760825 C9.275,3.58760825 10.21575,4.27032474 11.51425,6.63975258 L11.83225,7.21537629 L12.15025,7.85793299 C14.0715,11.7400464 15.46275,13.2125722 18.6825,13.5338505 C18.5772921,13.0955526 18.5239191,12.6461929 18.5235,12.1951907 C18.5249891,11.7425387 18.5873941,11.2921932 18.709,10.8565309 L18.7885,10.8565309 C17.225,10.7092784 16.324,10.0265619 15.25075,8.12566495 Z" id="Path" fill="#185ABC"></path>
                <path d="M12.81275,15.314268 L12.49475,15.9166649 L11.99125,16.9340464 L11.67325,17.5364433 L11.3685,18.0852938 C10.1495,20.2405361 9.1955,20.8697062 7.1285,20.8697062 L6.519,20.8697062 C6.62254288,21.2134393 6.68482275,21.5684988 6.7045,21.9272474 L6.7045,22.4225515 C6.68370642,22.7811686 6.62144977,23.1360957 6.519,23.4800928 L7.473,23.4800928 C10.66625,23.3863866 12.38875,21.8335412 14.098,18.6073711 L14.8135,17.1750052 L15.09175,16.6529278 L15.33025,16.2111701 C15.5220813,15.8767644 15.7344989,15.5548532 15.96625,15.2473351 C15.1441279,14.9367427 14.381886,14.4837427 13.71375,13.9086753 C13.3762759,14.3518102 13.0749536,14.821884 12.81275,15.314268 Z" id="Path" fill="#669DF6"></path>
            </g>
        </g>
    </g>
</svg>