<svg id="Artwork" xmlns="http://www.w3.org/2000/svg" viewBox="0 0 32 32"><polygon points="6.25 10.26 12.51 6.65 12.51 3.03 3 8.51 3.52 9.15 5.69 10.31 6.25 10.26" style="fill:#4285f4"/><path d="M12.51,23.15,3,17.66V14.21l9.51,5.49Zm0,2.36L3,20v3.46L12.51,29Zm0-11.62L6.26,10.26,3,8.51v3.34l9.51,5.5" style="fill:#aecbfa;fill-rule:evenodd"/><path d="M12.51,29l9.31-5.37V20.13l-9.31,5.38m0-5.81,9.31-5.38h2.77v3.11H22.37l-9.86,5.72Zm0-2.35,9.87-5.75h3.26l0,1.81L29,10.07,25.66,6.73V8.49H21.82l-1.65,1-1.4.81-3.64,2.11-2.62,1.52Z" style="fill:#669df6;fill-rule:evenodd"/><polygon points="12.51 6.65 16.73 9.09 19.87 7.28 12.51 3.03 12.51 6.65" style="fill:#669df6;fill-rule:evenodd"/></svg>