<svg id="Product_Icons" data-name="Product Icons" xmlns="http://www.w3.org/2000/svg" viewBox="0 0 32 32"><defs><style>.cls-1{fill:#aecbfa;}.cls-2{fill:#669df6;}.cls-3{fill:#4285f4;}.cls-4{fill:#fff;}</style></defs><title>Icon_32px_DataStore_Color</title><polygon class="cls-1" points="9.33 8 10.67 6.67 2.67 6.67 4 8 9.33 8"/><polygon class="cls-2" points="9.33 8 9.33 13.33 10.67 14.67 10.67 6.67 9.33 8"/><polygon class="cls-1" points="4 8 2.67 6.67 2.67 14.67 4 13.33 4 8"/><polygon class="cls-3" points="4 13.33 2.67 14.67 10.67 14.67 9.33 13.33 4 13.33"/><rect class="cls-1" x="4" y="8" width="5.33" height="5.33"/><polygon class="cls-3" points="18.67 8 20 6.67 12 6.67 13.33 8 18.67 8"/><polygon class="cls-2" points="18.67 8 18.67 13.33 20 14.67 20 6.67 18.67 8"/><polygon class="cls-3" points="13.33 8 12 6.67 12 14.67 13.33 13.33 13.33 8"/><polygon class="cls-2" points="13.33 13.33 12 14.67 20 14.67 18.67 13.33 13.33 13.33"/><rect class="cls-4" x="13.33" y="8" width="5.33" height="5.33"/><polygon class="cls-3" points="28 8 29.33 6.67 21.33 6.67 22.67 8 28 8"/><polygon class="cls-2" points="28 8 28 13.33 29.33 14.67 29.33 6.67 28 8"/><polygon class="cls-3" points="22.67 8 21.33 6.67 21.33 14.67 22.67 13.33 22.67 8"/><polygon class="cls-2" points="22.67 13.33 21.33 14.67 29.33 14.67 28 13.33 22.67 13.33"/><rect class="cls-4" x="22.67" y="8" width="5.33" height="5.33"/><polygon class="cls-3" points="9.33 18.67 10.67 17.33 2.67 17.33 4 18.67 9.33 18.67"/><polygon class="cls-2" points="9.33 18.67 9.33 24 10.67 25.33 10.67 17.33 9.33 18.67"/><polygon class="cls-3" points="4 18.67 2.67 17.33 2.67 25.33 4 24 4 18.67"/><polygon class="cls-2" points="4 24 2.67 25.33 10.67 25.33 9.33 24 4 24"/><rect class="cls-4" x="4" y="18.67" width="5.33" height="5.33"/><polygon class="cls-1" points="18.67 18.67 20 17.33 12 17.33 13.33 18.67 18.67 18.67"/><polygon class="cls-2" points="18.67 18.67 18.67 24 20 25.33 20 17.33 18.67 18.67"/><polygon class="cls-1" points="13.33 18.67 12 17.33 12 25.33 13.33 24 13.33 18.67"/><polygon class="cls-3" points="13.33 24 12 25.33 20 25.33 18.67 24 13.33 24"/><rect class="cls-1" x="13.33" y="18.67" width="5.33" height="5.33"/><polygon class="cls-1" points="28 18.67 29.33 17.33 21.33 17.33 22.67 18.67 28 18.67"/><polygon class="cls-2" points="28 18.67 28 24 29.33 25.33 29.33 17.33 28 18.67"/><polygon class="cls-1" points="22.67 18.67 21.33 17.33 21.33 25.33 22.67 24 22.67 18.67"/><polygon class="cls-3" points="22.67 24 21.33 25.33 29.33 25.33 28 24 22.67 24"/><rect class="cls-1" x="22.67" y="18.67" width="5.33" height="5.33"/></svg>