<?xml version="1.0" encoding="UTF-8"?>
<svg width="32px" height="32px" viewBox="0 0 32 32" version="1.1" xmlns="http://www.w3.org/2000/svg" xmlns:xlink="http://www.w3.org/1999/xlink">
    <!-- Generator: Sketch 63.1 (92452) - https://sketch.com -->
    <title>dataplex-color-32</title>
    <desc>Created with Sketch.</desc>
    <g id="-color-32" stroke="none" stroke-width="1" fill="none" fill-rule="evenodd">
        <g id="dataplex-color">
            <rect id="container" x="0" y="0" width="32" height="32"></rect>
            <path d="M7.451125,14.45625 L7.451125,20.432 L11.6552986,17.5962828 C11.9220612,18.3217025 12.3640645,18.9624374 12.9299895,19.4671684 L8.59125,22.393625 L14.9324375,26.2915625 L14.9324159,20.5182441 C15.2847071,20.6033698 15.6526153,20.6484739 16.0310581,20.6484739 C16.4334256,20.6484739 16.8238844,20.5974867 17.196326,20.5016209 L17.19625,26.2890625 L20.5511875,24.22675 L21.5964375,26.0013125 L16.0625,29.25 L5.1875,22.8659091 L5.1875,14.45625 L7.451125,14.45625 Z M20.3980371,17.6199603 L24.1694359,20.1637561 C24.5810562,19.9017703 25.0696792,19.75 25.59375,19.75 C27.0607564,19.75 28.25,20.9392436 28.25,22.40625 C28.25,23.8732564 27.0607564,25.0625 25.59375,25.0625 C24.1267436,25.0625 22.9375,23.8732564 22.9375,22.40625 C22.9375,22.2947833 22.9443659,22.1849203 22.9576978,22.0770607 L19.1132074,19.4839504 C19.682008,18.9821377 20.1274022,18.34369 20.3980371,17.6199603 Z M25.59375,21.34375 C25.0069475,21.34375 24.53125,21.8194475 24.53125,22.40625 C24.53125,22.9930525 25.0069475,23.46875 25.59375,23.46875 C26.1805525,23.46875 26.65625,22.9930525 26.65625,22.40625 C26.65625,21.8194475 26.1805525,21.34375 25.59375,21.34375 Z M16.0310581,13.3243532 C17.5019672,13.3243532 18.6943747,14.5167607 18.6943747,15.9876698 C18.6943747,17.458579 17.5019672,18.6509864 16.0310581,18.6509864 C14.5601489,18.6509864 13.3677415,17.458579 13.3677415,15.9876698 C13.3677415,14.5167607 14.5601489,13.3243532 16.0310581,13.3243532 Z M16.0625,2.75 L26.9375,9.13409091 L26.9375,17.585625 L24.6735,17.585625 L24.6735,11.546 L20.4199195,14.4151472 C20.1590576,13.6871769 19.7222211,13.0429872 19.1606783,12.5338463 L23.516375,9.595875 L17.19625,5.710875 L17.196326,11.4737187 C16.8238844,11.377853 16.4334256,11.3268658 16.0310581,11.3268658 C15.6526153,11.3268658 15.2847071,11.3719699 14.9324159,11.4570955 L14.9324375,5.708375 L11.3600625,7.9043125 L10.29675,6.1346875 L16.0625,2.75 Z M6.34375,6.9375 C7.81075637,6.9375 9,8.12674363 9,9.59375 C9,9.70371095 8.99331835,9.81211131 8.9803389,9.91856723 L12.8828249,12.5508136 C12.3241578,13.0628418 11.8907169,13.7092996 11.6337411,14.4389481 L7.77161865,11.8339776 C7.35925804,12.0973542 6.86933019,12.25 6.34375,12.25 C4.87674363,12.25 3.6875,11.0607564 3.6875,9.59375 C3.6875,8.12674363 4.87674363,6.9375 6.34375,6.9375 Z M6.34375,8.53125 C5.75694745,8.53125 5.28125,9.00694745 5.28125,9.59375 C5.28125,10.1805525 5.75694745,10.65625 6.34375,10.65625 C6.93055255,10.65625 7.40625,10.1805525 7.40625,9.59375 C7.40625,9.00694745 6.93055255,8.53125 6.34375,8.53125 Z" id="Shape" fill="#4285F4" fill-rule="evenodd"></path>
        </g>
    </g>
</svg>