<svg id="Product_Icons" data-name="Product Icons" xmlns="http://www.w3.org/2000/svg" viewBox="0 0 32 32"><defs><style>.cls-1{fill:#4285f4;}.cls-2{fill:#aecbfa;}</style></defs><title>Icon_32px_CloudDataCatalog_Color</title><polygon class="cls-1" points="3.74 12.49 6.92 6.83 11 6.83 11 9.33 8.35 9.33 6.59 12.46 7.67 14.27 5.54 15.5 3.74 12.49"/><polygon class="cls-2" points="19.33 17.43 22.67 15.51 26 17.43 26 21.28 22.67 23.2 19.33 21.28 19.33 17.43"/><polygon class="cls-2" points="6 17.43 9.33 15.51 12.67 17.43 12.67 21.28 9.33 23.2 6 21.28 6 17.43"/><polygon class="cls-2" points="12.67 6.12 16 4.19 19.33 6.12 19.33 9.97 16 11.89 12.67 9.97 12.67 6.12"/><polygon class="cls-1" points="22.67 15.51 26 17.43 26 21.28 22.67 23.2 22.67 15.51"/><polygon class="cls-1" points="9.33 15.51 12.67 17.43 12.67 21.28 9.33 23.2 9.33 15.51"/><polygon class="cls-1" points="16 4.19 19.33 6.12 19.33 9.97 16 11.89 16 4.19"/><polygon class="cls-1" points="24.33 14.27 25.41 12.46 23.65 9.33 21 9.33 21 6.83 25.09 6.83 28.26 12.5 26.45 15.5 24.33 14.27"/><polygon class="cls-1" points="12.81 27.67 10.85 24.38 12.97 23.15 14.21 25.17 17.75 25.17 19 23.14 21.13 24.37 19.14 27.67 12.81 27.67"/></svg>