<svg height="32" viewBox="0 0 32 32" width="32" xmlns="http://www.w3.org/2000/svg"><g fill="none" fill-rule="evenodd" transform="translate(6 3)"><g fill="#4285f4"><path d="m10 0v3h-7v20h7v3h-7.636875c-1.254 0-2.278176-1.078272-2.35810368-2.4297062l-.00502132-.1702938v-20.8c0-1.43 1.06875-2.6 2.375-2.6z" fill-rule="nonzero"/><path d="m5 18h5v3h-5z" fill-rule="nonzero"/><path d="m5 13h5v3h-5z" fill-rule="nonzero"/><path d="m5 8h5v3h-5z" fill-rule="nonzero"/><circle cx="16.5" cy="23.5" r="1.5" transform="matrix(1 0 0 -1 0 47)"/><circle cx="18.5" cy="10.5" r="1.5" transform="matrix(1 0 0 -1 0 21)"/><circle cx="14.5" cy="2.5" r="1.5"/></g><path d="m12 9.5h.8141762c1.9157089 0 1.6762453-1.05494505 1.6762453-6" stroke="#4285f4" stroke-width=".866667"/><path d="m12 14.4907692h.9605754c4.4638504 0 5.5939391.3323077 5.5374347-2.9907692" stroke="#4285f4" stroke-width=".866667"/><path d="m12 22.4875461h.6647758c3.5750857.0092209 3.8713411.3319496 3.8322367-2.9875461" stroke="#4285f4" stroke-width=".866667" transform="matrix(1 0 0 -1 0 42)"/></g></svg>