<svg id="Product_Icons" data-name="Product Icons" xmlns="http://www.w3.org/2000/svg" viewBox="0 0 32 32"><defs><style>.cls-1{fill:#669df6;}.cls-1,.cls-2{fill-rule:evenodd;}.cls-2{fill:#4285f4;}</style></defs><title>Icon_32px_ErrorReporting_Color</title><g id="Shape"><polygon id="Fill-1" class="cls-1" points="9.33 2.67 2.67 9.33 2.67 22.67 9.33 29.33 16 29.33 12.67 25.52 11 25.52 6.47 21 6.47 11 11 6.48 12.67 6.48 16 2.67 9.33 2.67"/><polygon id="Fill-2" class="cls-1" points="19.33 2.67 16 6.48 21 6.48 25.52 11 25.52 21 21 25.52 16 25.52 19.33 29.33 22.67 29.33 29.33 22.67 29.33 9.33 22.67 2.67 19.33 2.67"/><polygon id="Fill-3" class="cls-2" points="16 22.67 12.67 19.33 16 16 12.67 12.66 16 9.33 12.67 9.33 9.33 12.67 9.33 19.33 12.67 22.67 16 22.67"/><polygon id="Fill-4" class="cls-2" points="19.33 9.33 16 12.67 19.34 16 16 19.34 19.33 22.67 22.67 19.33 22.67 12.67 19.33 9.33"/></g></svg>