<svg id="Artwork" xmlns="http://www.w3.org/2000/svg" viewBox="0 0 32 32"><polygon points="23.98 9.41 9.69 23.67 8.46 22.45 22.75 8.19 23.98 9.41" style="fill:#4285f4"/><circle cx="16" cy="16.08" r="3.76" transform="translate(-6.68 15.61) rotate(-43.97)" style="fill:#669df6"/><path d="M29,16a13,13,0,0,1-2.54,7.73,2.07,2.07,0,0,0-1.39-1.05,11.26,11.26,0,0,0,1.71-10,5.84,5.84,0,0,0,1.53-.89A12.86,12.86,0,0,1,29,16ZM23.72,26.46a13,13,0,0,1-11.9,1.85,5.84,5.84,0,0,0,.89-1.53,11.26,11.26,0,0,0,10-1.71A2.09,2.09,0,0,0,23.72,26.46ZM20.18,3.69a5.84,5.84,0,0,0-.89,1.53l-.06,0A11.52,11.52,0,0,0,16,4.73a11.21,11.21,0,0,0-6.68,2.2,2.09,2.09,0,0,0-1-1.39,13,13,0,0,1,11.9-1.85ZM6.93,9.32a11.26,11.26,0,0,0-1.71,10,5.84,5.84,0,0,0-1.53.89A12.86,12.86,0,0,1,3,16,13,13,0,0,1,5.54,8.27,2.07,2.07,0,0,0,6.93,9.32Z" style="fill:#4285f4"/><path d="M26,7.35a1.36,1.36,0,1,0-1.35,1.36A1.36,1.36,0,0,0,26,7.35Zm1.81,0a3.17,3.17,0,1,1-3.16-3.18A3.16,3.16,0,0,1,27.83,7.35Z" style="fill:#aecbfa;fill-rule:evenodd"/><path d="M26,24.73a1.36,1.36,0,1,0-1.35,1.36A1.35,1.35,0,0,0,26,24.73Zm1.81,0a3.17,3.17,0,1,1-3.16-3.18A3.16,3.16,0,0,1,27.83,24.73Z" style="fill:#aecbfa;fill-rule:evenodd"/><path d="M8.62,24.73a1.36,1.36,0,1,0-1.36,1.36A1.36,1.36,0,0,0,8.62,24.73Zm1.81,0a3.17,3.17,0,1,1-3.17-3.18A3.17,3.17,0,0,1,10.43,24.73Z" style="fill:#aecbfa;fill-rule:evenodd"/><path d="M8.62,7.35A1.36,1.36,0,1,0,7.26,8.71,1.36,1.36,0,0,0,8.62,7.35Zm1.81,0A3.17,3.17,0,1,1,7.26,4.17,3.17,3.17,0,0,1,10.43,7.35Z" style="fill:#aecbfa;fill-rule:evenodd"/></svg>