<svg width="32" height="32" viewBox="0 0 32 32" fill="none" xmlns="http://www.w3.org/2000/svg">
<path fill-rule="evenodd" clip-rule="evenodd" d="M27.49 16.27C27.49 15.48 27.42 14.73 27.3 14H16V18.51H22.47C22.18 19.99 21.33 21.24 20.07 22.09V25.09H23.93C26.19 23 27.49 19.92 27.49 16.27Z" fill="#4285F4"/>
<path fill-rule="evenodd" clip-rule="evenodd" d="M16 28C19.24 28 21.95 26.92 23.93 25.09L20.07 22.09C18.99 22.81 17.62 23.25 16 23.25C12.87 23.25 10.22 21.14 9.27004 18.29H5.29004V21.38C7.26004 25.3 11.31 28 16 28Z" fill="#34A853"/>
<path fill-rule="evenodd" clip-rule="evenodd" d="M9.27 18.2901C9.02 17.5701 8.89 16.8001 8.89 16.0001C8.89 15.2001 9.03 14.4301 9.27 13.7101V10.6201H5.29C4.47 12.2401 4 14.0601 4 16.0001C4 17.9401 4.47 19.7601 5.29 21.3801L9.27 18.2901Z" fill="#FBBC05"/>
<path fill-rule="evenodd" clip-rule="evenodd" d="M16 8.75C17.77 8.75 19.35 9.36 20.6 10.55L24.02 7.13C21.95 5.19 19.24 4 16 4C11.31 4 7.26004 6.7 5.29004 10.62L9.27004 13.71C10.22 10.86 12.87 8.75 16 8.75Z" fill="#EA4335"/>
</svg>
