<svg id="Product_Icons" data-name="Product Icons" xmlns="http://www.w3.org/2000/svg" viewBox="0 0 32 32"><defs><style>.cls-1{fill:#4285f4;}.cls-2{fill:#669df6;}.cls-3{fill:#aecbfa;}</style></defs><title>Icon_32px_IdentityAwareProxy_Color</title><path class="cls-1" d="M15.8,9.34a6.8,6.8,0,1,0,6.8,6.8h0a6.8,6.8,0,0,0-6.8-6.8Zm0,12.11a5.32,5.32,0,1,1,5.32-5.32h0A5.32,5.32,0,0,1,15.8,21.45Z"/><path class="cls-2" d="M18.36,17a1.82,1.82,0,0,0-.38-.29,4.08,4.08,0,0,0-3.47-.38,3.61,3.61,0,0,0-1.2.62,1.23,1.23,0,0,0-.49.88v1.35h6V18A1.28,1.28,0,0,0,18.36,17Z"/><path class="cls-2" d="M15.79,15.37a1.54,1.54,0,1,0-1.55-1.53h0A1.53,1.53,0,0,0,15.79,15.37Z"/><polygon class="cls-3" points="27.7 14.3 26.32 14.3 27.35 15.33 24.39 15.33 24.39 16.53 27.35 16.53 26.32 17.56 27.7 17.56 29.33 15.93 27.7 14.3"/><polygon class="cls-2" points="23.39 11.34 24.24 12.19 25.54 10.89 25.54 12.34 26.52 11.36 26.52 9.06 24.22 9.06 23.24 10.04 24.69 10.04 23.39 11.34"/><polygon class="cls-2" points="25.54 21.11 24.24 19.81 23.39 20.66 24.69 21.96 23.24 21.96 24.22 22.94 26.52 22.94 26.52 20.63 25.54 19.65 25.54 21.11"/><path class="cls-2" d="M4.47,14.19A1.81,1.81,0,1,0,6.28,16a1.8,1.8,0,0,0-1.81-1.81Zm0,2.81a1,1,0,1,1,1-1h0a1,1,0,0,1-1,1Z"/></svg>