<svg id="Product_Icons" data-name="Product Icons" xmlns="http://www.w3.org/2000/svg" viewBox="0 0 32 32"><defs><style>.cls-1{fill:#4285f4;}.cls-1,.cls-2{fill-rule:evenodd;}.cls-2{fill:#669df6;}</style></defs><title>Icon_32px_IoTCore_Color</title><g id="Group"><path id="Combined-Shape" class="cls-1" d="M16.72,16.58v-5.9h0A1.52,1.52,0,1,0,14.53,9a1.54,1.54,0,0,0,.78,1.71v5.9H9.69V12.8A1.52,1.52,0,0,0,9,9.94a1.51,1.51,0,0,0-.7,2.86v3.78H8A5.1,5.1,0,1,1,9.83,6.73a7,7,0,0,1,12.63-.09,5.25,5.25,0,0,1,1.63-.26v0a5.11,5.11,0,0,1,0,10.21h-.34V12.8a1.51,1.51,0,0,0-.7-2.86,1.52,1.52,0,0,0-.7,2.86v3.78Z"/><path class="cls-2" d="M9.7,20.52a2.66,2.66,0,0,1,2,2.62,2.75,2.75,0,1,1-3.45-2.67V16.58H9.7Zm-.71,4a1.35,1.35,0,1,0-1.34-1.34A1.34,1.34,0,0,0,9,24.48Zm14.76-4a2.75,2.75,0,1,1-1.4,0V16.58h1.4Zm-.7,4a1.35,1.35,0,1,0-.95-2.29,1.34,1.34,0,0,0,.95,2.29Zm-6.33-.57h0a2.75,2.75,0,1,1-1.4,0V16.57h1.41Zm-.72,4a1.35,1.35,0,0,0,.51-2.59A1.34,1.34,0,1,0,16,27.92Z"/></g></svg>