<svg id="Product_Icons" data-name="Product Icons" xmlns="http://www.w3.org/2000/svg" viewBox="0 0 32 32"><defs><style>.cls-1,.cls-4{fill:#669df6;}.cls-2{fill:#4285f4;}.cls-2,.cls-3,.cls-4{fill-rule:evenodd;}.cls-3{fill:#aecbfa;}</style></defs><title>Icon_32px_MemoryStore_Color</title><g id="Shape"><rect id="Rectangle-path" class="cls-1" x="2.67" y="5.25" width="4.44" height="3.44"/><rect class="cls-1" x="2.67" y="11.27" width="4.44" height="3.44"/><rect class="cls-1" x="2.67" y="17.29" width="4.44" height="3.44"/><rect class="cls-1" x="2.67" y="23.31" width="4.44" height="3.44"/><rect class="cls-1" x="24.89" y="5.25" width="4.44" height="3.44"/><rect class="cls-1" x="24.89" y="11.27" width="4.44" height="3.44"/><rect class="cls-1" x="24.89" y="17.29" width="4.44" height="3.44"/><rect class="cls-1" x="24.89" y="23.31" width="4.44" height="3.44"/><polygon class="cls-2" points="28.44 8.69 24.89 8.69 24.89 5.25 28.44 8.69"/><polygon class="cls-2" points="28.44 14.71 24.89 14.71 24.89 11.27 28.44 14.71"/><polygon class="cls-2" points="28.44 20.73 24.89 20.73 24.89 17.29 28.44 20.73"/><polygon class="cls-2" points="28.44 26.75 24.89 26.75 24.89 23.31 28.44 26.75"/><path class="cls-3" d="M7.11,29.33H24.89V2.67H7.11Zm8-12H10.67L16.89,7v7.74h4.44L15.11,25Z"/><polygon class="cls-4" points="15.11 29.33 15.11 25.03 21.33 14.71 16.89 14.71 16.89 2.67 24.89 2.67 24.89 29.33 15.11 29.33"/></g></svg>