<svg id="Product_Icons" data-name="Product Icons" xmlns="http://www.w3.org/2000/svg" viewBox="0 0 32 32"><defs><style>.cls-1{fill:none;}.cls-2{fill:#669df6;}.cls-3{fill:#4285f4;}</style></defs><title>Icon_32px_NetworkSecurity_Color</title><path class="cls-1" d="M15.33,17.33v2.38l-3.51-3.55.06-.16H16V14.67H11.88A2,2,0,1,0,10,17.33a2,2,0,0,0,.89-.21L14.73,21a1.28,1.28,0,0,0-.06.33A1.33,1.33,0,0,0,16,22.67V17.33Z"/><path class="cls-1" d="M14.67,9.33a1.31,1.31,0,0,0,.66,1.13v2.87H16V8A1.33,1.33,0,0,0,14.67,9.33Z"/><path class="cls-2" d="M16,22.67a1.33,1.33,0,0,1-1.33-1.34,1.28,1.28,0,0,1,.06-.33l-3.84-3.88a2,2,0,0,1-.89.21,2,2,0,1,1,1.88-2.66H16V13.33h-.67V10.46a1.31,1.31,0,0,1-.66-1.13A1.33,1.33,0,0,1,16,8V2.67l-10.67,4v8.06c0,6.76,4.55,13.07,10.67,14.6h0Z"/><path class="cls-2" d="M11.82,16.16l3.51,3.55V17.33H16V16H11.88Z"/><path class="cls-2" d="M20.2,14.48l-3.53-3.54v2.39H16v1.34h4.12C20.15,14.6,20.17,14.54,20.2,14.48Z"/><path class="cls-3" d="M17.33,9.33a1.2,1.2,0,0,1-.06.33l3.87,3.87a2.05,2.05,0,0,1,.86-.2A2,2,0,1,1,20.12,16H16v1.33h.67V20.2A1.32,1.32,0,0,1,16,22.67v6.66c6.12-1.53,10.67-7.84,10.67-14.6V6.67L16,2.67V8A1.33,1.33,0,0,1,17.33,9.33Z"/></svg>