<svg id="Artwork" xmlns="http://www.w3.org/2000/svg" viewBox="0 0 32 32"><path d="M11.14,10.4a5.86,5.86,0,0,0-.71.7l-.31-.31L8.94,9.61l.71-.7,1.17,1.17Z" style="fill:#4285f4"/><path d="M23.09,22.35l-.71.7-1.45-1.46a5.87,5.87,0,0,0,.71-.7Z" style="fill:#4285f4"/><path d="M8.77,15.47a4.58,4.58,0,0,0,0,.53,3.59,3.59,0,0,0,0,.47H6.49v-1Z" style="fill:#4285f4"/><path d="M25.5,15.47v1H23.29a3.59,3.59,0,0,0,0-.47,4.58,4.58,0,0,0,0-.53Z" style="fill:#4285f4"/><path d="M10.39,20.86a5.21,5.21,0,0,0,.7.71L9.61,23.05l-.71-.7Z" style="fill:#4285f4"/><path d="M21.19,10.06l1.15-1.15.71.7L21.6,11.07a5.22,5.22,0,0,0-.71-.7Z" style="fill:#4285f4"/><path d="M16,23.29a4.36,4.36,0,0,0,.51,0V25.5h-1V23.26A3.91,3.91,0,0,0,16,23.29Z" style="fill:#4285f4"/><path d="M16.53,6.5V8.75a3.55,3.55,0,0,0-.46,0h0a4.71,4.71,0,0,0-.53,0V6.5Z" style="fill:#4285f4"/><path d="M23.89,15.47a7.93,7.93,0,0,0-7.36-7.34H16l-.49,0a7.85,7.85,0,0,0-4.71,1.94,6.7,6.7,0,0,0-.7.71,7.82,7.82,0,0,0-2,4.68c0,.17,0,.35,0,.53a3.62,3.62,0,0,0,0,.47,7.9,7.9,0,0,0,2.62,5.41,7.93,7.93,0,0,0,4.75,2l.54,0h.46a7.83,7.83,0,0,0,4.7-2,6.7,6.7,0,0,0,.71-.7,7.75,7.75,0,0,0,1.95-4.73,3.62,3.62,0,0,0,0-.47C23.91,15.82,23.9,15.64,23.89,15.47ZM16,22.88A6.88,6.88,0,1,1,22.88,16,6.88,6.88,0,0,1,16,22.88Zm0-12.12A5.24,5.24,0,1,0,21.26,16,5.25,5.25,0,0,0,16,10.76Z" style="fill:#669df6;fill-rule:evenodd"/><path d="M16,6.72A1.86,1.86,0,1,1,16,3V4a.86.86,0,0,0,0,1.72Z" style="fill:#aecbfa;fill-rule:evenodd"/><path d="M16,6.72v-1A.86.86,0,0,0,16,4V3a1.86,1.86,0,0,1,0,3.72Z" style="fill:#669df6;fill-rule:evenodd"/><path d="M16,29a1.86,1.86,0,0,1,0-3.72v1A.86.86,0,0,0,16,28Z" style="fill:#aecbfa;fill-rule:evenodd"/><path d="M16,29V28a.86.86,0,0,0,0-1.72v-1A1.86,1.86,0,0,1,16,29Z" style="fill:#669df6;fill-rule:evenodd"/><path d="M8.12,10a1.86,1.86,0,0,1,0-3.72v1A.86.86,0,0,0,8.12,9Z" style="fill:#aecbfa;fill-rule:evenodd"/><path d="M8.12,10V9a.86.86,0,1,0,0-1.72v-1a1.86,1.86,0,1,1,0,3.72Z" style="fill:#669df6;fill-rule:evenodd"/><path d="M23.88,25.73a1.86,1.86,0,1,1,0-3.71v1a.86.86,0,1,0,0,1.71Z" style="fill:#aecbfa;fill-rule:evenodd"/><path d="M23.88,25.73v-1a.85.85,0,0,0,.85-.85.86.86,0,0,0-.85-.86V22a1.86,1.86,0,0,1,0,3.71Z" style="fill:#669df6;fill-rule:evenodd"/><path d="M4.86,17.86a1.86,1.86,0,0,1,0-3.72v1a.86.86,0,0,0,0,1.72Z" style="fill:#aecbfa;fill-rule:evenodd"/><path d="M4.86,17.86v-1a.86.86,0,0,0,0-1.72v-1a1.86,1.86,0,0,1,0,3.72Z" style="fill:#669df6;fill-rule:evenodd"/><path d="M27.14,17.86A1.88,1.88,0,0,1,25.28,16a1.87,1.87,0,0,1,1.86-1.86v1a.87.87,0,0,0-.86.86.85.85,0,0,0,.26.61.84.84,0,0,0,.6.25Z" style="fill:#aecbfa;fill-rule:evenodd"/><path d="M27.14,17.86v-1a.86.86,0,0,0,0-1.72v-1a1.86,1.86,0,0,1,0,3.72Z" style="fill:#669df6;fill-rule:evenodd"/><path d="M8.08,25.73a1.88,1.88,0,0,1-1.35-.56,1.77,1.77,0,0,1-.5-1.31A1.92,1.92,0,0,1,8.16,22h0v1h0a.92.92,0,0,0-.93.87.77.77,0,0,0,.22.58.86.86,0,0,0,.63.26Z" style="fill:#aecbfa;fill-rule:evenodd"/><path d="M8.08,25.73h0v-1h0A.93.93,0,0,0,9,23.86.84.84,0,0,0,8.16,23V22a1.86,1.86,0,0,1,1.35.56A1.83,1.83,0,0,1,10,23.89,1.93,1.93,0,0,1,8.08,25.73Z" style="fill:#669df6;fill-rule:evenodd"/><path d="M23.88,10a1.86,1.86,0,1,1,0-3.71v1a.86.86,0,1,0,0,1.71Z" style="fill:#aecbfa;fill-rule:evenodd"/><path d="M23.88,10V9a.86.86,0,0,0,0-1.71v-1a1.86,1.86,0,0,1,0,3.71Z" style="fill:#669df6;fill-rule:evenodd"/><path d="M16,10.76V21.23a5.24,5.24,0,1,1,0-10.47Z" style="fill:#aecbfa;fill-rule:evenodd"/><path d="M21.26,16A5.23,5.23,0,0,1,16,21.23V10.76A5.24,5.24,0,0,1,21.26,16Z" style="fill:#669df6;fill-rule:evenodd"/><rect x="16.03" y="17.38" width="2.82" height="1" style="fill:#aecbfa"/><rect x="16.03" y="15.56" width="2.82" height="1" style="fill:#aecbfa"/><rect x="16.03" y="13.75" width="2.82" height="1" style="fill:#aecbfa"/><rect x="13.21" y="17.38" width="2.82" height="1" style="fill:#fff"/><rect x="13.21" y="15.56" width="2.82" height="1" style="fill:#fff"/><rect x="13.21" y="13.75" width="2.82" height="1" style="fill:#fff"/></svg>