<svg id="Product_Icons" data-name="Product Icons" xmlns="http://www.w3.org/2000/svg" viewBox="0 0 32 32"><defs><style>.cls-1{fill:#669df6;}.cls-2{fill:#4285f4;}.cls-3{fill:#aecbfa;}</style></defs><title>Icon_32px_Profiler_Color</title><g id="colored-32_profiler" data-name="colored-32/profiler"><g id="Group"><rect class="cls-1" x="10.67" y="2.67" width="10.67" height="2.67"/><path class="cls-1" d="M22.05,9.9l-.17.18L24,12.21l.15-.15A10.54,10.54,0,0,0,22.05,9.9Z"/><polygon class="cls-1" points="27.48 8.74 25.35 6.61 22.14 9.82 25.48 10.74 27.48 8.74"/><path class="cls-2" d="M22.14,9.82l-.09.08a10.54,10.54,0,0,1,2.11,2.16l1.32-1.32Z"/><circle id="Oval" class="cls-1" cx="16" cy="18.67" r="5.33"/><path id="Oval-2" data-name="Oval" class="cls-3" d="M16,24a5.34,5.34,0,0,0,0-10.67v5.34l-4.35,3.09A5.33,5.33,0,0,0,16,24Z"/><path id="Combined-Shape" class="cls-1" d="M16,29.33A10.67,10.67,0,1,1,26.67,18.67,10.67,10.67,0,0,1,16,29.33Zm0-2.66a8,8,0,1,0-8-8A8,8,0,0,0,16,26.67Z"/></g></g></svg>