<svg id="Artwork" xmlns="http://www.w3.org/2000/svg" viewBox="0 0 32 32"><path d="M16,14V8.07a.49.49,0,0,0-.5-.49h-2a.49.49,0,0,0-.5.49v2.85l1.39,3Z" style="fill:#aecbfa"/><path d="M11.79,23.33a2.5,2.5,0,1,0,2.5,2.5A2.5,2.5,0,0,0,11.79,23.33Zm12.39,0a2.5,2.5,0,1,0,2.5,2.5A2.5,2.5,0,0,0,24.18,23.33ZM19.89,6.74a.5.5,0,0,0-.5-.5h-2a.5.5,0,0,0-.5.5V14h3Z" style="fill:#669df6"/><path d="M13.72,17l-1.47,3H26.67a1,1,0,0,1,0,2H12.25a2,2,0,0,1-1.8-2.86L12,16,7.26,5.64H4.37a1,1,0,0,1,0-2H7.9a1,1,0,0,1,.91.59L13.73,15h8.71l4.32-7.7a1,1,0,1,1,1.74,1l-4.32,7.7a2,2,0,0,1-1.74,1ZM23.8,10.5V4.17a.51.51,0,0,0-.5-.5h-2a.5.5,0,0,0-.49.5V14h1.05Z" style="fill:#4285f4"/></svg>