<?xml version="1.0" encoding="UTF-8"?>
<svg width="32px" height="32px" viewBox="0 0 32 32" version="1.1" xmlns="http://www.w3.org/2000/svg" xmlns:xlink="http://www.w3.org/1999/xlink">
    <!-- Generator: Sketch 52.3 (67297) - http://www.bohemiancoding.com/sketch -->
    <title>colored-32/security</title>
    <desc>Created with Sketch.</desc>
    <g id="colored-32/security" stroke="none" stroke-width="1" fill="none" fill-rule="evenodd">
        <g transform="translate(4.000000, 1.000000)">
            <path d="M12,0.333333333 L0,5.66666667 L0,13.6666667 C0,21.0666667 5.12,27.9866667 12,29.6666667 C18.88,27.9866667 24,21.0666667 24,13.6666667 L24,5.66666667 L12,0.333333333 Z M12,14.9866667 L21.3333333,14.9866667 C20.6266667,20.48 16.96,25.3733333 12,26.9066667 L12,15 L2.66666667,15 L2.66666667,7.4 L12,3.25333333 L12,14.9866667 Z" fill="#85A4E6" fill-rule="nonzero"></path>
            <path d="M12,0.333333333 L12,29.6666667 C18.88,27.9866667 24,21.0666667 24,13.6666667 L24,5.66666667 L12,0.333333333 Z M21.3333333,14.9866667 C20.6266667,20.48 16.96,25.3733333 12,26.9066667 L12,15 L21.3333333,14.9866667 Z" fill="#5C85DE" fill-rule="nonzero"></path>
            <path d="M23.9478607,15 L21.3403625,15 C21.3403625,15 21.2857819,15.3869629 21.2146149,15.7739258 L23.9478607,15 Z" fill="#3367D6"></path>
            <polygon fill="#3367D6" transform="translate(1.361678, 14.500000) scale(-1, -1) translate(-1.361678, -14.500000) " points="2.65979004 14 0.0635656778 14 0.0635656778 14.7595367"></polygon>
        </g>
    </g>
</svg>