<svg id="Product_Icons" data-name="Product Icons" xmlns="http://www.w3.org/2000/svg" viewBox="0 0 32 32"><defs><style>.cls-1{fill:#4285f4;}.cls-2{fill:#669df6;}</style></defs><title>Icon_32px_SecurityCommandCenter_Color</title><path id="Shape" class="cls-1" d="M17.75,9.13a7,7,0,0,1,5,5h4.7V7l-9.7-4.31Z"/><path class="cls-1" d="M9.24,14.14a7,7,0,0,1,5-5V2.67L4.54,7v7.16Z"/><path class="cls-1" d="M14.25,22.67a7,7,0,0,1-5-5H4.84a16,16,0,0,0,9.41,11.66Z"/><path class="cls-1" d="M22.76,17.67a7,7,0,0,1-5,5v6.66a15.93,15.93,0,0,0,9.4-11.66Z"/><circle id="Oval" class="cls-2" cx="16" cy="15.89" r="3.5"/></svg>