<svg id="Product_Icons" data-name="Product Icons" xmlns="http://www.w3.org/2000/svg" viewBox="0 0 32 32"><defs><style>.cls-1,.cls-2{fill:#4285f4;}.cls-1,.cls-4{fill-rule:evenodd;}.cls-3,.cls-4{fill:#669df6;}</style></defs><title>Icon_32px_ServiceDiscovery_Color</title><path class="cls-1" d="M24.24,23a11.24,11.24,0,0,1-2,1.75l3.92,3.92a1.34,1.34,0,0,0,1.89,0h0a1.34,1.34,0,0,0,0-1.89Z"/><polygon class="cls-2" points="18.67 20.67 12.26 20.67 17.59 10 13.33 10 13.33 8.67 19.75 8.67 14.41 19.33 18.67 19.33 18.67 20.67"/><circle class="cls-3" cx="18.67" cy="20" r="1.67"/><circle class="cls-3" cx="13.33" cy="20" r="1.67"/><rect class="cls-2" x="10.67" y="14" width="10.67" height="1.33"/><path class="cls-4" d="M16,5.35a9.32,9.32,0,1,1-9.32,9.32A9.33,9.33,0,0,1,16,5.35m0-2.68a12,12,0,1,0,12,12,12,12,0,0,0-12-12"/><circle class="cls-3" cx="16" cy="14.67" r="1.67"/><circle class="cls-3" cx="10.67" cy="14.67" r="1.67"/><circle class="cls-3" cx="21.33" cy="14.67" r="1.67"/><circle class="cls-3" cx="18.67" cy="9.33" r="1.67"/><circle class="cls-3" cx="13.33" cy="9.33" r="1.67"/></svg>