<svg id="Product_Icons" data-name="Product Icons" xmlns="http://www.w3.org/2000/svg" viewBox="0 0 32 32"><defs><style>.cls-1{fill:#669df6;}.cls-2{fill:#4285f4;}</style></defs><title>Icon_32px_TexttoSpeech_Color</title><rect id="Rectangle-path" class="cls-1" x="2.68" y="9.32" width="8.85" height="2.22"/><polygon id="Shape" class="cls-1" points="14.89 20.43 2.67 20.43 2.67 22.65 2.67 22.65 14.89 22.65 14.89 20.43"/><polygon class="cls-1" points="6.02 14.88 2.67 14.88 2.67 17.09 8.24 17.09 16 17.09 13.78 14.88 6.02 14.88"/><path class="cls-2" d="M16,12.1a.55.55,0,0,1,.55-.49.56.56,0,0,1,.56.49V24.33a2.79,2.79,0,0,0,1.08,2.2,2.74,2.74,0,0,0,2.39.49,2.88,2.88,0,0,0,2.09-2.83V7.67a.55.55,0,0,1,.85-.54.57.57,0,0,1,.26.54v12.2a2.78,2.78,0,0,0,3.47,2.7,2.88,2.88,0,0,0,2.08-2.84V16H27.11v3.89a.55.55,0,0,1-.26.54.56.56,0,0,1-.85-.54V7.67a2.79,2.79,0,0,0-1.08-2.2A2.74,2.74,0,0,0,22.53,5a2.88,2.88,0,0,0-2.09,2.83V24.33a.55.55,0,0,1-.85.54.57.57,0,0,1-.26-.54V12.11a2.76,2.76,0,0,0-5.48-.48,4.07,4.07,0,0,0-.07.61v2.63L16,17.09v-5Z"/></svg>