<svg id="Product_Icons" data-name="Product Icons" xmlns="http://www.w3.org/2000/svg" viewBox="0 0 32 32"><defs><style>.cls-1{fill:#669df6;}.cls-2{fill:#4285f4;}</style></defs><title>Icon_32px_VideoIntelligence_Color</title><g id="Cloud-Video-Intelligence-API"><polygon id="Shape" class="cls-1" points="21.78 6.44 14.41 6.44 16.37 9.55 19.11 9.55 19.11 11.32 15.21 11.32 12.11 6.44 2.68 6.44 2.68 12.21 5.33 12.21 7.01 9.1 10.44 9.1 11.58 10.88 8.16 10.88 6.48 13.99 2.68 13.99 2.68 17.44 6.48 17.44 8.16 20.66 11.58 20.66 10.44 22.44 7.01 22.44 5.33 19.32 2.68 19.32 2.68 25.1 12.11 25.1 15.21 20.21 19.11 20.21 19.11 21.99 16.37 21.99 14.41 25.1 21.78 25.1 21.78 16.66 13.22 16.66 12.12 18.44 9.67 18.44 11.35 15.77 9.67 13.1 12.12 13.1 13.19 14.88 21.78 14.88 21.78 6.44"/><polygon class="cls-2" points="29.33 7.91 24 11.78 24 19.92 29.33 23.85 29.33 7.91"/></g></svg>