<svg id="Product_Icons" data-name="Product Icons" xmlns="http://www.w3.org/2000/svg" viewBox="0 0 32 32"><defs><style>.cls-1{fill:#4285f4;}.cls-2{fill:#669df6;}</style></defs><title>Icon_32px_SecurityScanner_Color</title><circle class="cls-1" cx="15.25" cy="15.33" r="3.96"/><circle class="cls-2" cx="5.36" cy="14.38" r="2.69"/><circle class="cls-2" cx="19.36" cy="24.83" r="2.69"/><path class="cls-2" d="M26.09,5.6a3.25,3.25,0,1,0,3.24,3.24A3.25,3.25,0,0,0,26.09,5.6Zm0,5.06a1.82,1.82,0,1,1,1.82-1.82h0A1.82,1.82,0,0,1,26.09,10.66Z"/><path class="cls-2" d="M24.27,8.9a11.14,11.14,0,0,0-6.75-4.42l-.38,1.79A9.25,9.25,0,1,1,8.68,8.81L7.39,7.53a11.07,11.07,0,1,0,17.79,2.89A1.84,1.84,0,0,1,24.27,8.9Z"/></svg>