<svg id="Product_Icons" data-name="Product Icons" xmlns="http://www.w3.org/2000/svg" viewBox="0 0 32 32"><defs><style>.cls-1{fill:none;}.cls-2{fill:#4285f4;}.cls-3{fill:#669df6;}.cls-4{fill:#aecbfa;}</style></defs><title>Icon_32px_WebRisk_Color</title><rect class="cls-1" width="32" height="32"/><rect class="cls-1" width="32" height="32"/><g id="colored-32_web-risk" data-name="colored-32/web-risk"><g id="Group"><g id="Group-12"><g id="Group-11"><path id="Fill-1" class="cls-2" d="M5.33,24V8H16V5.33H4A1.33,1.33,0,0,0,2.67,6.67V25.33A1.33,1.33,0,0,0,4,26.67H16V24Z"/><path id="Fill-3" class="cls-3" d="M28,5.33H16V8H26.67V24H16v2.67H28a1.33,1.33,0,0,0,1.33-1.34V6.67A1.33,1.33,0,0,0,28,5.33"/><path id="Fill-7" class="cls-3" d="M12,16l0-2.65L16,12V9.33L9.35,12v4c0,3.18,4,6.67,6.65,6.67V20c-1.19,0-4-1.85-4-4"/><path id="Fill-7-2" data-name="Fill-7" class="cls-4" d="M20,16c0,2.15-2.8,4-4,4v2.67c2.67,0,6.65-3.49,6.65-6.67V12L16,9.33V12l4,1.33L20,16"/><path id="Fill-9" class="cls-2" d="M16.78,17.06a1.11,1.11,0,0,1-1.58,0l-1.33-1.62.79-.79L16,16.11l4-4,.79.79Z"/></g></g></g></g></svg>