<svg xmlns="http://www.w3.org/2000/svg" viewBox="0 0 32 32"><path fill="#4285f4" d="M26,26.75h-.93v-2H26a1,1,0,0,0,1-1V18a1,1,0,0,0-1-1H21.19V15H26a3,3,0,0,1,3,3v5.75A3,3,0,0,1,26,26.75Z"/><path fill="#4285f4" d="M15.4,26.75H8.87v-2H15.4Z"/><path fill="#669df6" fill-rule="evenodd" d="M10.83,17H6a3,3,0,0,1-3-3V8.25a3,3,0,0,1,3-3H7.3v2H6a1,1,0,0,0-1,1V14a1,1,0,0,0,1,1h4.83Z"/><path fill="#4285f4" d="M23.06,7.25h-7.3v-2h7.3Z"/><path fill="#aecbfa" d="M11.5,5.25v-2h-4A1.5,1.5,0,0,0,6,4.75v3a1.5,1.5,0,0,0,1.5,1.5h4v-2H8v-2Z"/><path fill="#669df6" fill-rule="evenodd" d="M17,4.75v3a1.5,1.5,0,0,1-1.5,1.5h-4v-2H15v-2H11.5v-2h4A1.5,1.5,0,0,1,17,4.75Z"/><path fill="#aecbfa" d="M25.75,9.5A3.25,3.25,0,1,1,29,6.25,3.25,3.25,0,0,1,25.75,9.5Zm0-4.5A1.25,1.25,0,1,0,27,6.25,1.25,1.25,0,0,0,25.75,5Z"/><path fill="#9aa0a6" d="M6.25,29A3.25,3.25,0,1,1,9.5,25.75,3.26,3.26,0,0,1,6.25,29Zm0-4.5A1.25,1.25,0,1,0,7.5,25.75,1.25,1.25,0,0,0,6.25,24.5Z"/><path fill="#aecbfa" d="M6.25,29A3.25,3.25,0,1,1,9.5,25.75,3.26,3.26,0,0,1,6.25,29Zm0-4.5A1.25,1.25,0,1,0,7.5,25.75,1.25,1.25,0,0,0,6.25,24.5Z"/><path fill="#aecbfa" d="M20.49,24.76v-2h-4a1.5,1.5,0,0,0-1.5,1.5v3a1.5,1.5,0,0,0,1.5,1.5h4v-2H17v-2Z"/><path fill="#669df6" fill-rule="evenodd" d="M26,24.26v3a1.5,1.5,0,0,1-1.5,1.5h-4v-2H24v-2h-3.5v-2h4A1.5,1.5,0,0,1,26,24.26Z"/><path fill="#aecbfa" d="M16,15V13H12a1.5,1.5,0,0,0-1.5,1.5v3A1.5,1.5,0,0,0,12,19h4V17H12.5V15Z"/><path fill="#669df6" fill-rule="evenodd" d="M21.5,14.5v3A1.5,1.5,0,0,1,20,19H16V17h3.5V15H16V13h4A1.5,1.5,0,0,1,21.5,14.5Z"/></svg>
