<svg width="32" height="32" viewBox="0 0 32 32" fill="none" xmlns="http://www.w3.org/2000/svg">
<g clip-path="url(#clip0_390_8229)">
<path fill-rule="evenodd" clip-rule="evenodd" d="M5.80328 16L7.78422 14.0191L5.09219 11.3275C4.29437 10.5297 3.80125 9.42766 3.80125 8.21031C3.80125 5.77562 5.77516 3.80172 8.21031 3.80172C9.42719 3.80172 10.5297 4.29484 11.3275 5.09219L14.0191 7.78422L16 5.80328L13.3084 3.11172C11.9462 1.75 10.1359 1 8.21031 1C4.23437 1 1 4.23437 1 8.21031C1 10.1355 1.74953 11.9462 3.11219 13.3089L5.80328 16Z" fill="#85A4E6"/>
<path fill-rule="evenodd" clip-rule="evenodd" d="M26.1967 16L24.2158 17.9809L26.9078 20.6725C28.6291 22.3942 28.6291 25.1861 26.9078 26.9078C25.1861 28.6291 22.3942 28.6291 20.6725 26.9078L17.9809 24.2153L16 26.1962L18.6916 28.8878C20.0538 30.25 21.8641 31 23.7897 31C25.7158 31 27.5261 30.25 28.8878 28.8883C30.2495 27.527 31 25.7163 31 23.7902C31 21.8641 30.2495 20.0533 28.8878 18.6916L26.1967 16Z" fill="#85A4E6"/>
<path fill-rule="evenodd" clip-rule="evenodd" d="M11.3276 26.9076C9.60543 28.6293 6.81403 28.6293 5.09231 26.9076C3.37059 25.1859 3.37059 22.3945 5.09231 20.6723L7.78387 17.9807L14.0192 24.216L11.3276 26.9076ZM20.6726 5.09289C21.4704 4.29508 22.5725 3.80148 23.7898 3.80148C26.2245 3.80148 28.1984 5.77539 28.1984 8.21008C28.1984 9.42742 27.7048 10.5299 26.907 11.3277L24.2159 14.0193L17.9806 7.78398L20.6726 5.09289ZM15.9997 20.7777C13.3615 20.7777 11.2226 18.6393 11.2222 16.0012V15.9988C11.2226 13.3616 13.3606 11.2232 15.9978 11.2223H16.0025C18.6397 11.2232 20.7772 13.3616 20.7776 15.9993V16.0007C20.7772 18.6388 18.6387 20.7777 16.0006 20.7777H15.9997ZM26.1968 15.9998L28.8884 13.3082C30.2501 11.9465 31.0001 10.1362 31.0001 8.21008C31.0001 4.23461 27.7653 0.999763 23.7898 0.999763C21.8647 0.999763 20.0534 1.74976 18.6912 3.11195L16.0001 5.80351L5.8034 15.9998L3.11231 18.6918C1.74965 20.0535 1.00012 21.8638 1.00012 23.7899C1.00012 25.7155 1.74965 27.5259 3.11184 28.888C4.47309 30.2498 6.28387 30.9998 8.20997 30.9998C10.1356 30.9998 11.9464 30.2498 13.3086 28.888L16.0001 26.1965L26.1968 15.9998Z" fill="#3367D6"/>
</g>
<defs>
<clipPath id="clip0_390_8229">
<rect width="32" height="32" fill="white"/>
</clipPath>
</defs>
</svg>
