<svg width="32" height="32" viewBox="0 0 32 32" fill="none" xmlns="http://www.w3.org/2000/svg">
<g clip-path="url(#clip0_390_8771)">
<path fill-rule="evenodd" clip-rule="evenodd" d="M22.9218 7.12194L15.9589 3.10194C14.9209 2.50294 14.2257 1.49735 13.9037 0.368445C13.8851 0.303145 14.1652 -0.141355 14.5188 0.045545C14.7792 0.183243 20.2605 3.34957 23.1326 5.00961C24.161 5.60398 23.5288 8.17264 23.5288 8.17264C23.5285 7.73914 23.2972 7.33875 22.9218 7.12194Z" fill="#5C85DE"/>
<path fill-rule="evenodd" clip-rule="evenodd" d="M25.0069 17.1049C25.0071 17.322 24.9335 17.5226 24.7455 17.6312L23.0161 18.723V6.0052C23.0158 5.5717 23.2972 5.1034 22.9218 4.8866L24.4317 5.96374C24.8073 6.18034 25.0065 6.58074 25.0069 7.01424V17.1049Z" fill="#85A4E6"/>
<path fill-rule="evenodd" clip-rule="evenodd" d="M15.9998 18.5576C15.8864 18.5576 15.7725 18.5278 15.6708 18.4685L10 15.1628V16.6048L15.9998 20.1026L16.4791 19.1874C16.4792 19.1874 16.1132 18.5576 15.9998 18.5576Z" fill="#5C85DE"/>
<path fill-rule="evenodd" clip-rule="evenodd" d="M16.3288 21.4455C16.2271 21.5048 16.1132 21.5346 15.9998 21.5346C15.8864 21.5346 15.7725 21.5048 15.6708 21.4455L10 18.1395V19.2062C10 19.4351 10.121 19.6466 10.3173 19.761L15.6828 22.8889C15.8791 23.0033 16.121 23.0033 16.3173 22.8889C16.3173 22.8889 16.6459 22.2914 16.6459 22.0625L16.3288 21.4455Z" fill="#5C85DE"/>
<path fill-rule="evenodd" clip-rule="evenodd" d="M15.9998 17.1748L22 13.6771V12.9996C22 12.7707 21.8791 12.5592 21.6828 12.4448L16.3172 9.31695C16.1209 9.20245 15.879 9.20245 15.6827 9.31695L10.3172 12.4449C10.121 12.5592 10 12.7707 10 12.9996V13.6772L15.9998 17.1748Z" fill="#85A4E6"/>
<path fill-rule="evenodd" clip-rule="evenodd" d="M15.9998 15.7277L10.3172 12.4448C10.121 12.5591 10 12.7706 10 12.9995V13.6772L15.9998 17.1747L16.4583 16.2708L15.9998 15.7277Z" fill="#5C85DE"/>
<path fill-rule="evenodd" clip-rule="evenodd" d="M15.9998 18.5576V20.1026L22 16.6046V15.1626L16.3288 18.4685C16.2271 18.5278 15.9998 18.5576 15.9998 18.5576Z" fill="#3367D6"/>
<path fill-rule="evenodd" clip-rule="evenodd" d="M16.3288 21.4456C16.2271 21.5049 16.1132 21.5347 15.9998 21.5347C15.9998 21.9844 15.9335 22.9723 15.9683 22.974C16.0883 22.9801 16.2096 22.9517 16.3172 22.889L21.6827 19.7611C21.8791 19.6466 22 19.4352 22 19.2063V18.1394L16.3288 21.4456Z" fill="#3367D6"/>
<path fill-rule="evenodd" clip-rule="evenodd" d="M21.6828 12.4447L15.9999 15.7276V17.1746L22 13.677V12.9995C22 12.7706 21.8791 12.5591 21.6828 12.4447Z" fill="#3367D6"/>
<path fill-rule="evenodd" clip-rule="evenodd" d="M9.07882 24.8483L15.8904 28.781C16.975 29.4069 17.7306 30.4666 17.9884 31.6669C18.0306 31.8633 17.818 32.1017 17.5323 31.9537C17.3144 31.8408 11.3848 28.4152 8.58452 26.7967C7.71388 26.2934 8.47342 23.7976 8.47342 23.7976C8.47372 24.2311 8.70342 24.6315 9.07882 24.8483Z" fill="#5C85DE"/>
<path fill-rule="evenodd" clip-rule="evenodd" d="M7 25.1634L6.98822 14.6756C6.98802 14.4585 7.10372 14.2579 7.29172 14.1493L8.98693 13.1987L9 25.8527C9.01613 26.2862 8.96664 26.9611 9.34204 27.1779L7.59582 26.1343C6.98822 25.7358 7 25.1634 7 25.1634Z" fill="#85A4E6"/>
<path fill-rule="evenodd" clip-rule="evenodd" d="M12.9881 5.54072C12.6126 5.32422 12.1501 5.32432 11.7747 5.54112L4.87962 9.52192C3.83722 10.1241 2.59952 10.2624 1.46732 9.93732C1.22902 9.86902 1.13142 9.44612 1.41212 9.29902C1.69282 9.15192 11.7742 3.30852 11.7742 3.30852C12.1496 3.09162 12.9881 5.54072 12.9881 5.54072Z" fill="#5C85DE"/>
<path fill-rule="evenodd" clip-rule="evenodd" d="M12.9716 3.33578L21.6892 8.36888C21.8773 8.47728 22.0143 8.64128 22.0143 8.85838V10.7446L11.0524 4.42318C10.6769 4.20668 10.2144 4.20678 9.83899 4.42358L11.7743 3.30868C12.1496 3.09168 12.5959 3.11938 12.9716 3.33578Z" fill="#85A4E6"/>
<path fill-rule="evenodd" clip-rule="evenodd" d="M18.9921 26.3916C19.3676 26.6081 19.8293 26.6094 20.2047 26.3927L27.0841 22.4209C28.1389 21.8116 29.3935 21.6772 30.5365 22.0172C30.7608 22.0839 30.8768 22.4516 30.5848 22.6245C30.2929 22.7974 20.2052 28.6251 20.2052 28.6251C19.8299 28.8421 18.9921 26.3916 18.9921 26.3916Z" fill="#5C85DE"/>
<path fill-rule="evenodd" clip-rule="evenodd" d="M10.2692 23.6015C10.1534 23.5347 9.98665 23.1589 10 23.0755V21.2089L20.9279 27.5094C21.3026 27.7273 21.7651 27.7272 22.1405 27.5105L20.2052 28.6254C19.8299 28.8422 19.3673 28.8426 18.9917 28.6262L10.2692 23.6015Z" fill="#85A4E6"/>
<path fill-rule="evenodd" clip-rule="evenodd" d="M6.59467 12.4889C6.21937 12.7059 5.98827 13.1065 5.98827 13.5399V21.5075C5.98857 22.7498 5.45717 23.9251 4.55967 24.7477C4.40447 24.89 4.06157 24.8349 4.06157 24.5472C4.06157 24.2595 4.05457 12.4241 4.05457 12.4241C4.05437 11.9906 6.59467 12.4889 6.59467 12.4889Z" fill="#5C85DE"/>
<path fill-rule="evenodd" clip-rule="evenodd" d="M12.3419 7.23531C12.5298 7.12661 12.7404 7.09001 12.9284 7.19851L14.5619 8.14161L4.6042 13.8792C4.2289 14.0962 3.9978 14.4968 3.9978 14.9302L3.9999 12.6968C3.9997 12.2633 4.2469 11.8905 4.6221 11.6734L12.3419 7.23531Z" fill="#85A4E6"/>
<path fill-rule="evenodd" clip-rule="evenodd" d="M26.1111 18.3071V10.3693C26.1108 9.14897 26.6235 7.99337 27.4923 7.17317C27.5187 7.14817 28.0377 6.99747 28 7.50777C28.0377 8.01807 28.0377 19.295 28 19.295C27.4923 19.8832 25.3585 19.295 25.3585 19.295C25.7338 19.078 26.1111 18.7406 26.1111 18.3071Z" fill="#5C85DE"/>
<path fill-rule="evenodd" clip-rule="evenodd" d="M27.4417 20.1804L19.6792 24.7415C19.4913 24.8502 19.2597 24.8503 19.0717 24.7418L17.4495 23.8183L27.4427 17.9451C27.8187 17.7296 28.0498 17.3291 28.0498 16.8956L28.0477 19.129C28.0479 19.5626 27.4417 20.1804 27.4417 20.1804Z" fill="#85A4E6"/>
</g>
<defs>
<clipPath id="clip0_390_8771">
<rect width="32" height="32" fill="white"/>
</clipPath>
</defs>
</svg>
