<svg width="32" height="32" viewBox="0 0 32 32" fill="none" xmlns="http://www.w3.org/2000/svg">
<g clip-path="url(#clip0_390_8267)">
<path fill-rule="evenodd" clip-rule="evenodd" d="M4.70831 18.719L15.2411 29.1581L16.9857 27.3094L6.88121 17.4926L4.70831 18.719Z" fill="#5C85DE"/>
<path fill-rule="evenodd" clip-rule="evenodd" d="M16.9102 3.30121L15.1656 5.14951L25.1003 15.1044L27.9558 14.4895L16.9102 3.30121Z" fill="#5C85DE"/>
<rect x="15" y="5" width="2" height="8" fill="#3367D6"/>
<rect x="15" y="20" width="2" height="8" fill="#3367D6"/>
<path fill-rule="evenodd" clip-rule="evenodd" d="M15.9999 7C17.6567 7 18.9999 5.65685 18.9999 4C18.9999 2.34315 17.6567 1 15.9999 1C14.343 1 12.9999 2.34315 12.9999 4C12.9999 5.65685 14.343 7 15.9999 7Z" fill="#85A4E6"/>
<path fill-rule="evenodd" clip-rule="evenodd" d="M15.9999 31C17.6567 31 18.9999 29.6569 18.9999 28C18.9999 26.3431 17.6567 25 15.9999 25C14.343 25 12.9999 26.3431 12.9999 28C12.9999 29.6569 14.343 31 15.9999 31Z" fill="#85A4E6"/>
<path fill-rule="evenodd" clip-rule="evenodd" d="M1.06158 15H25.1761L30.9964 18H6.88148L1.06158 15Z" fill="#5C85DE"/>
<path fill-rule="evenodd" clip-rule="evenodd" d="M4 20.5C6.20914 20.5 8 18.7091 8 16.5C8 14.2909 6.20914 12.5 4 12.5C1.79086 12.5 0 14.2909 0 16.5C0 18.7091 1.79086 20.5 4 20.5Z" fill="#85A4E6"/>
<path fill-rule="evenodd" clip-rule="evenodd" d="M28 20.5C30.2091 20.5 32 18.7091 32 16.5C32 14.2909 30.2091 12.5 28 12.5C25.7909 12.5 24 14.2909 24 16.5C24 18.7091 25.7909 20.5 28 20.5Z" fill="#85A4E6"/>
</g>
<defs>
<clipPath id="clip0_390_8267">
<rect width="32" height="32" fill="white"/>
</clipPath>
</defs>
</svg>
