<svg width="385" height="227" viewBox="0 0 385 227" fill="none" xmlns="http://www.w3.org/2000/svg">
  <g>
    <g>
      <g filter="url(#filter0_d_43_153)">
        <rect x="7" y="5" width="366" height="212" rx="4" fill="var(--vscode-editor-background, #FFFFFF)" shape-rendering="crispEdges" />
        <rect x="6.5" y="4.5" width="367" height="213" rx="4.5" stroke="#DDDDDD" stroke-opacity="0.2" shape-rendering="crispEdges" />
      </g>
      <line x1="7" y1="23.5" x2="373" y2="23.5" stroke="#DDDDDD" stroke-opacity="0.2" />
      <line x1="7" y1="204.5" x2="373" y2="204.5" stroke="#DDDDDD" stroke-opacity="0.2" />
      <path d="M7 205H373V213C373 215.209 371.209 217 369 217H11C8.79087 217 7 215.209 7 213V205Z" fill="var(--vscode-statusBar-background, #007ACC)" />
      <path d="M7 9C7 6.79086 8.79086 5 11 5H369C371.209 5 373 6.79086 373 9V23H7V9Z" fill="var(--vscode-keybindingLabel-background, #DDDDDD)" fill-opacity="0.5" />
      <rect x="238" y="195" width="146" height="31" rx="3" stroke="#6FC3DF" stroke-width="2" stroke-dasharray="6 6" />
      <g>
        <rect x="12" y="160" width="83" height="41" rx="4" fill="var(--vscode-statusBarItem-warningBackground, #007ACC)" />
        <rect x="11.5" y="159.5" width="84" height="42" rx="4.5" stroke="var(--vscode-statusBarItem-warningBackground, #DDDDDD)" stroke-opacity="0.2" />
      </g>
      <g>
        <g>
          <path fill-rule="evenodd" clip-rule="evenodd" d="M20.8775 178.878C20.9547 178.8 21.0341 178.728 21.1156 178.661L23.0913 180.637C22.5142 180.879 21.8838 181 21.2 181C22.54 181 23.675 181.465 24.605 182.395C25.535 183.325 26 184.46 26 185.8C26 185.116 26.1211 184.486 26.3633 183.909L28.3389 185.884C28.2719 185.966 28.1997 186.045 28.1225 186.122C27.5375 186.707 26.83 187 26 187C25.17 187 24.4625 186.707 23.8775 186.122C23.2925 185.537 23 184.83 23 184C22.17 184 21.4625 183.707 20.8775 183.122C20.2925 182.537 20 181.83 20 181C20 180.17 20.2925 179.462 20.8775 178.878ZM30.8 181C29.8865 181 29.0683 181.216 28.3454 181.648L30.3746 183.677C30.6429 183.538 30.8922 183.353 31.1225 183.122C31.7075 182.537 32 181.83 32 181C32 180.17 31.7075 179.462 31.1225 178.878C30.5375 178.293 29.83 178 29 178C29 177.17 28.7075 176.463 28.1225 175.877C27.5375 175.292 26.83 175 26 175C25.17 175 24.4625 175.292 23.8775 175.877C23.6472 176.108 23.4622 176.357 23.3226 176.625L25.3518 178.655C25.7839 177.932 26 177.113 26 176.2C26 177.54 26.465 178.675 27.395 179.605C28.325 180.535 29.46 181 30.8 181ZM31.7275 186.303L20.6967 175.272L20.0603 175.909L31.0911 186.94L31.7275 186.303Z" fill="var(--vscode-statusBarItem-warningForeground, #FFFFFF)" />
          <path d="M37.0605 176.545H40.1133C42.6211 176.545 44.0918 178.092 44.0918 180.752C44.0918 183.441 42.6328 185 40.1133 185H37.0605V176.545ZM38.373 177.676V183.869H39.9668C41.7363 183.869 42.7559 182.738 42.7559 180.77C42.7559 178.818 41.7188 177.676 39.9668 177.676H38.373ZM51.1055 178.637V185H49.8926V183.992H49.793C49.4824 184.713 48.832 185.123 47.8652 185.123C46.4531 185.123 45.668 184.262 45.668 182.768V178.637H46.9277V182.457C46.9277 183.512 47.3438 184.016 48.2695 184.016C49.2891 184.016 49.8457 183.395 49.8457 182.369V178.637H51.1055ZM57.1172 183.295H58.3301C58.0547 184.42 57.0234 185.123 55.5645 185.123C53.7363 185.123 52.6172 183.863 52.6172 181.83C52.6172 179.809 53.7598 178.514 55.5586 178.514C57.334 178.514 58.4062 179.727 58.4062 181.719V182.152H53.9004V182.211C53.9414 183.365 54.5918 184.092 55.5996 184.092C56.3613 184.092 56.8828 183.811 57.1172 183.295ZM55.5527 179.539C54.6211 179.539 53.9707 180.219 53.9004 181.244H57.123C57.0938 180.213 56.4844 179.539 55.5527 179.539ZM60.3633 177.031H61.623V178.654H63.0059V179.662H61.623V183.02C61.623 183.705 61.8984 184.004 62.5254 184.004C62.7188 184.004 62.8301 183.992 63.0059 183.975V184.977C62.8008 185.012 62.5664 185.041 62.3203 185.041C60.9199 185.041 60.3633 184.549 60.3633 183.324V179.662H59.3496V178.654H60.3633V177.031ZM73.3887 185L72.6152 182.715H69.3926L68.6133 185H67.2656L70.3184 176.545H71.7305L74.7832 185H73.3887ZM70.957 178.039L69.7266 181.66H72.2812L71.0566 178.039H70.957ZM77.5723 185H76.2598V176.545H77.5723V185Z" fill="var(--vscode-statusBarItem-warningForeground, #FFFFFF)" />
        </g>
      </g>
      <rect x="45" y="66" width="121" height="5" rx="2.5" fill="var(--vscode-editorHint-foreground, #B9B9B9)" />
      <rect x="45" y="80" width="238" height="5" rx="2.5" fill="var(--vscode-editorHint-foreground, #B9B9B9)" />
      <rect x="45" y="94" width="133" height="5" rx="2.5" fill="var(--vscode-editorHint-foreground, #B9B9B9)" />
      <rect x="45" y="121" width="238" height="5" rx="2.5" fill="var(--vscode-editorHint-foreground, #B9B9B9)" />
      <rect x="45" y="135" width="133" height="5" rx="2.5" fill="var(--vscode-editorHint-foreground, #B9B9B9)" />
      <rect x="229" y="66" width="54" height="5" rx="2.5" fill="var(--vscode-editorHint-foreground, #B9B9B9)" />
      <rect x="179" y="66" width="42" height="5" rx="2.5" fill="var(--vscode-banner-iconForeground, #1A85FF)" />
      <path d="M46.04 40.692H48.848C49.8013 40.692 50.6333 40.8913 51.344 41.29C52.0547 41.68 52.6007 42.226 52.982 42.928C53.3633 43.63 53.554 44.436 53.554 45.346C53.554 46.256 53.3633 47.062 52.982 47.764C52.6007 48.466 52.0547 49.0163 51.344 49.415C50.6333 49.805 49.8013 50 48.848 50H46.04V40.692ZM48.848 48.947C49.9487 48.947 50.8197 48.6307 51.461 47.998C52.111 47.3653 52.436 46.4813 52.436 45.346C52.436 44.2107 52.111 43.3267 51.461 42.694C50.8197 42.0613 49.9487 41.745 48.848 41.745H47.145V48.947H48.848ZM57.3646 50.208C56.5673 50.208 55.9563 49.974 55.5316 49.506C55.1156 49.038 54.9076 48.3837 54.9076 47.543V43.37H56.0126V47.374C56.0126 48.0067 56.1556 48.4703 56.4416 48.765C56.7276 49.0597 57.1133 49.207 57.5986 49.207C57.9713 49.207 58.3006 49.1073 58.5866 48.908C58.8813 48.7087 59.1066 48.4487 59.2626 48.128C59.4273 47.8073 59.5096 47.4693 59.5096 47.114V43.37H60.6146V50H59.5616V49.038H59.5096C59.3276 49.3673 59.0373 49.6447 58.6386 49.87C58.24 50.0953 57.8153 50.208 57.3646 50.208ZM65.1343 50.208C64.5016 50.208 63.9339 50.0563 63.4313 49.753C62.9286 49.4497 62.5343 49.0337 62.2483 48.505C61.9709 47.9677 61.8323 47.3653 61.8323 46.698C61.8323 46.0653 61.9623 45.4803 62.2223 44.943C62.4909 44.397 62.8679 43.9637 63.3533 43.643C63.8473 43.3223 64.4106 43.162 65.0433 43.162C65.6933 43.162 66.2566 43.3093 66.7333 43.604C67.2099 43.89 67.5739 44.2887 67.8253 44.8C68.0853 45.3113 68.2153 45.8963 68.2153 46.555C68.2153 46.659 68.2066 46.7717 68.1893 46.893H62.9373C62.9633 47.3957 63.0846 47.8203 63.3013 48.167C63.5179 48.5137 63.7909 48.7737 64.1203 48.947C64.4583 49.1203 64.8093 49.207 65.1733 49.207C66.0399 49.207 66.6943 48.8083 67.1363 48.011L68.0723 48.466C67.7949 48.9947 67.4093 49.4193 66.9153 49.74C66.4213 50.052 65.8276 50.208 65.1343 50.208ZM67.0453 45.983C67.0279 45.7057 66.9499 45.4283 66.8113 45.151C66.6726 44.8737 66.4559 44.6397 66.1613 44.449C65.8666 44.2583 65.4939 44.163 65.0433 44.163C64.5233 44.163 64.0813 44.332 63.7173 44.67C63.3533 44.9993 63.1149 45.437 63.0023 45.983H67.0453ZM71.866 50.104C71.5974 50.104 71.346 50.0607 71.112 49.974C70.8867 49.8873 70.696 49.7703 70.54 49.623C70.1934 49.2937 70.02 48.8387 70.02 48.258V44.371H68.863V43.37H70.02V41.498H71.125V43.37H72.75V44.371H71.125V47.985C71.125 48.349 71.1944 48.6177 71.333 48.791C71.4977 48.9817 71.736 49.077 72.048 49.077C72.3167 49.077 72.5594 49.0033 72.776 48.856V49.935C72.646 49.9957 72.5117 50.039 72.373 50.065C72.243 50.091 72.074 50.104 71.866 50.104ZM79.6187 40.692H80.8667L84.4027 50H83.1937L82.2577 47.439H78.2277L77.2917 50H76.0827L79.6187 40.692ZM81.8807 46.399L80.6327 43.045L80.2687 42.044H80.2167L79.8527 43.045L78.6047 46.399H81.8807ZM85.6367 40.692H86.7417V50H85.6367V40.692ZM92.2737 42.148C92.057 42.148 91.8707 42.07 91.7147 41.914C91.5587 41.758 91.4807 41.5717 91.4807 41.355C91.4807 41.1297 91.5587 40.9433 91.7147 40.796C91.8707 40.64 92.057 40.562 92.2737 40.562C92.499 40.562 92.6854 40.64 92.8327 40.796C92.9887 40.9433 93.0667 41.1297 93.0667 41.355C93.0667 41.5717 92.9887 41.758 92.8327 41.914C92.6854 42.07 92.499 42.148 92.2737 42.148ZM91.7277 43.37H92.8327V50H91.7277V43.37ZM94.5563 43.37H95.6093V44.345H95.6613C95.8433 44.0157 96.1336 43.7383 96.5323 43.513C96.931 43.279 97.3556 43.162 97.8063 43.162C98.6036 43.162 99.2103 43.396 99.6263 43.864C100.051 44.3233 100.263 44.9517 100.263 45.749V50H99.1583V45.918C99.1583 45.3027 99.011 44.8563 98.7163 44.579C98.4216 44.3017 98.0186 44.163 97.5073 44.163C97.152 44.163 96.8313 44.2627 96.5453 44.462C96.268 44.6613 96.0513 44.9257 95.8953 45.255C95.7393 45.5757 95.6613 45.9137 95.6613 46.269V50H94.5563V43.37ZM109.2 50.208C108.299 50.208 107.48 49.9957 106.743 49.571C106.006 49.1463 105.426 48.5657 105.001 47.829C104.585 47.0837 104.377 46.256 104.377 45.346C104.377 44.436 104.585 43.6127 105.001 42.876C105.426 42.1307 106.006 41.5457 106.743 41.121C107.48 40.6963 108.299 40.484 109.2 40.484C109.893 40.484 110.526 40.614 111.098 40.874C111.679 41.134 112.181 41.511 112.606 42.005L111.813 42.772C111.458 42.3473 111.068 42.0353 110.643 41.836C110.227 41.6367 109.746 41.537 109.2 41.537C108.524 41.537 107.904 41.6973 107.341 42.018C106.778 42.33 106.327 42.7763 105.989 43.357C105.66 43.929 105.495 44.592 105.495 45.346C105.495 46.1 105.66 46.7673 105.989 47.348C106.327 47.92 106.778 48.3663 107.341 48.687C107.904 48.999 108.524 49.155 109.2 49.155C110.327 49.155 111.284 48.6913 112.073 47.764L112.879 48.544C112.454 49.0553 111.921 49.4627 111.28 49.766C110.647 50.0607 109.954 50.208 109.2 50.208ZM114.12 40.692H115.225V50H114.12V40.692ZM119.853 50.208C119.203 50.208 118.618 50.052 118.098 49.74C117.578 49.428 117.171 49.0033 116.876 48.466C116.59 47.9287 116.447 47.335 116.447 46.685C116.447 46.035 116.59 45.4413 116.876 44.904C117.171 44.3667 117.578 43.942 118.098 43.63C118.618 43.318 119.203 43.162 119.853 43.162C120.503 43.162 121.088 43.318 121.608 43.63C122.128 43.942 122.531 44.3667 122.817 44.904C123.112 45.4413 123.259 46.035 123.259 46.685C123.259 47.335 123.112 47.9287 122.817 48.466C122.531 49.0033 122.128 49.428 121.608 49.74C121.088 50.052 120.503 50.208 119.853 50.208ZM119.853 49.207C120.261 49.207 120.638 49.1073 120.984 48.908C121.34 48.7 121.621 48.4053 121.829 48.024C122.046 47.6427 122.154 47.1963 122.154 46.685C122.154 46.1737 122.046 45.7273 121.829 45.346C121.621 44.9647 121.34 44.6743 120.984 44.475C120.638 44.267 120.261 44.163 119.853 44.163C119.446 44.163 119.065 44.267 118.709 44.475C118.354 44.6743 118.068 44.9647 117.851 45.346C117.643 45.7273 117.539 46.1737 117.539 46.685C117.539 47.1963 117.643 47.6427 117.851 48.024C118.068 48.4053 118.354 48.7 118.709 48.908C119.065 49.1073 119.446 49.207 119.853 49.207ZM126.884 50.208C126.087 50.208 125.476 49.974 125.051 49.506C124.635 49.038 124.427 48.3837 124.427 47.543V43.37H125.532V47.374C125.532 48.0067 125.675 48.4703 125.961 48.765C126.247 49.0597 126.633 49.207 127.118 49.207C127.491 49.207 127.82 49.1073 128.106 48.908C128.401 48.7087 128.626 48.4487 128.782 48.128C128.947 47.8073 129.029 47.4693 129.029 47.114V43.37H130.134V50H129.081V49.038H129.029C128.847 49.3673 128.557 49.6447 128.158 49.87C127.759 50.0953 127.335 50.208 126.884 50.208ZM134.524 50.208C133.926 50.208 133.384 50.0563 132.899 49.753C132.422 49.4497 132.045 49.0337 131.768 48.505C131.49 47.9677 131.352 47.361 131.352 46.685C131.352 46.0177 131.49 45.4153 131.768 44.878C132.045 44.3407 132.422 43.9203 132.899 43.617C133.384 43.3137 133.926 43.162 134.524 43.162C135.026 43.162 135.477 43.279 135.876 43.513C136.274 43.7383 136.578 44.02 136.786 44.358H136.838L136.786 43.435V40.692H137.891V50H136.838V49.025H136.786C136.578 49.3543 136.274 49.636 135.876 49.87C135.477 50.0953 135.026 50.208 134.524 50.208ZM134.641 49.207C135.031 49.207 135.39 49.103 135.72 48.895C136.058 48.687 136.326 48.3923 136.526 48.011C136.734 47.6297 136.838 47.1877 136.838 46.685C136.838 46.1823 136.734 45.7403 136.526 45.359C136.326 44.9777 136.058 44.683 135.72 44.475C135.39 44.267 135.031 44.163 134.641 44.163C134.259 44.163 133.9 44.267 133.562 44.475C133.224 44.683 132.951 44.982 132.743 45.372C132.543 45.7533 132.444 46.191 132.444 46.685C132.444 47.179 132.543 47.621 132.743 48.011C132.951 48.3923 133.224 48.687 133.562 48.895C133.9 49.103 134.259 49.207 134.641 49.207ZM146.88 50.208C145.978 50.208 145.159 49.9957 144.423 49.571C143.686 49.1463 143.105 48.5657 142.681 47.829C142.265 47.0837 142.057 46.256 142.057 45.346C142.057 44.436 142.265 43.6127 142.681 42.876C143.105 42.1307 143.686 41.5457 144.423 41.121C145.159 40.6963 145.978 40.484 146.88 40.484C147.573 40.484 148.206 40.614 148.778 40.874C149.358 41.134 149.861 41.511 150.286 42.005L149.493 42.772C149.137 42.3473 148.747 42.0353 148.323 41.836C147.907 41.6367 147.426 41.537 146.88 41.537C146.204 41.537 145.584 41.6973 145.021 42.018C144.457 42.33 144.007 42.7763 143.669 43.357C143.339 43.929 143.175 44.592 143.175 45.346C143.175 46.1 143.339 46.7673 143.669 47.348C144.007 47.92 144.457 48.3663 145.021 48.687C145.584 48.999 146.204 49.155 146.88 49.155C148.006 49.155 148.964 48.6913 149.753 47.764L150.559 48.544C150.134 49.0553 149.601 49.4627 148.96 49.766C148.327 50.0607 147.634 50.208 146.88 50.208ZM154.728 50.208C154.078 50.208 153.493 50.052 152.973 49.74C152.453 49.428 152.045 49.0033 151.751 48.466C151.465 47.9287 151.322 47.335 151.322 46.685C151.322 46.035 151.465 45.4413 151.751 44.904C152.045 44.3667 152.453 43.942 152.973 43.63C153.493 43.318 154.078 43.162 154.728 43.162C155.378 43.162 155.963 43.318 156.483 43.63C157.003 43.942 157.406 44.3667 157.692 44.904C157.986 45.4413 158.134 46.035 158.134 46.685C158.134 47.335 157.986 47.9287 157.692 48.466C157.406 49.0033 157.003 49.428 156.483 49.74C155.963 50.052 155.378 50.208 154.728 50.208ZM154.728 49.207C155.135 49.207 155.512 49.1073 155.859 48.908C156.214 48.7 156.496 48.4053 156.704 48.024C156.92 47.6427 157.029 47.1963 157.029 46.685C157.029 46.1737 156.92 45.7273 156.704 45.346C156.496 44.9647 156.214 44.6743 155.859 44.475C155.512 44.267 155.135 44.163 154.728 44.163C154.32 44.163 153.939 44.267 153.584 44.475C153.228 44.6743 152.942 44.9647 152.726 45.346C152.518 45.7273 152.414 46.1737 152.414 46.685C152.414 47.1963 152.518 47.6427 152.726 48.024C152.942 48.4053 153.228 48.7 153.584 48.908C153.939 49.1073 154.32 49.207 154.728 49.207ZM162.238 50.208C161.64 50.208 161.098 50.0563 160.613 49.753C160.136 49.4497 159.759 49.0337 159.482 48.505C159.204 47.9677 159.066 47.361 159.066 46.685C159.066 46.0177 159.204 45.4153 159.482 44.878C159.759 44.3407 160.136 43.9203 160.613 43.617C161.098 43.3137 161.64 43.162 162.238 43.162C162.74 43.162 163.191 43.279 163.59 43.513C163.988 43.7383 164.292 44.02 164.5 44.358H164.552L164.5 43.435V40.692H165.605V50H164.552V49.025H164.5C164.292 49.3543 163.988 49.636 163.59 49.87C163.191 50.0953 162.74 50.208 162.238 50.208ZM162.355 49.207C162.745 49.207 163.104 49.103 163.434 48.895C163.772 48.687 164.04 48.3923 164.24 48.011C164.448 47.6297 164.552 47.1877 164.552 46.685C164.552 46.1823 164.448 45.7403 164.24 45.359C164.04 44.9777 163.772 44.683 163.434 44.475C163.104 44.267 162.745 44.163 162.355 44.163C161.973 44.163 161.614 44.267 161.276 44.475C160.938 44.683 160.665 44.982 160.457 45.372C160.257 45.7533 160.158 46.191 160.158 46.685C160.158 47.179 160.257 47.621 160.457 48.011C160.665 48.3923 160.938 48.687 161.276 48.895C161.614 49.103 161.973 49.207 162.355 49.207ZM170.124 50.208C169.492 50.208 168.924 50.0563 168.421 49.753C167.919 49.4497 167.524 49.0337 167.238 48.505C166.961 47.9677 166.822 47.3653 166.822 46.698C166.822 46.0653 166.952 45.4803 167.212 44.943C167.481 44.397 167.858 43.9637 168.343 43.643C168.837 43.3223 169.401 43.162 170.033 43.162C170.683 43.162 171.247 43.3093 171.723 43.604C172.2 43.89 172.564 44.2887 172.815 44.8C173.075 45.3113 173.205 45.8963 173.205 46.555C173.205 46.659 173.197 46.7717 173.179 46.893H167.927C167.953 47.3957 168.075 47.8203 168.291 48.167C168.508 48.5137 168.781 48.7737 169.11 48.947C169.448 49.1203 169.799 49.207 170.163 49.207C171.03 49.207 171.684 48.8083 172.126 48.011L173.062 48.466C172.785 48.9947 172.399 49.4193 171.905 49.74C171.411 50.052 170.818 50.208 170.124 50.208ZM172.035 45.983C172.018 45.7057 171.94 45.4283 171.801 45.151C171.663 44.8737 171.446 44.6397 171.151 44.449C170.857 44.2583 170.484 44.163 170.033 44.163C169.513 44.163 169.071 44.332 168.707 44.67C168.343 44.9993 168.105 45.437 167.992 45.983H172.035Z" fill="var(--vscode-editor-foreground, #616161)" />
      <path d="M72.6017 206.312L72.1963 192L83.3504 200.977L76.1977 200.062L72.6017 206.312Z" fill="#000000" stroke="white" stroke-linejoin="round" />
      <rect x="244" y="210" width="29" height="2" rx="1" fill="var(--vscode-statusBar-foreground, #FFFFFF)" />
      <rect x="280" y="210" width="60" height="2" rx="1" fill="var(--vscode-statusBar-foreground, #FFFFFF)" />
      <rect width="16" height="2" rx="1" transform="matrix(-1 0 0 1 364 210)" fill="var(--vscode-statusBar-foreground, #FFFFFF)" />
      <circle cx="17.5" cy="14.5" r="3.5" fill="#ED6A5F" />
      <circle cx="29.5" cy="14.5" r="3.5" fill="#F8D949" />
      <circle cx="41.5" cy="14.5" r="3.5" fill="#61C454" />
    </g>
  </g>
  <defs>
    <filter id="filter0_d_43_153" x="0" y="0" width="380" height="226" filterUnits="userSpaceOnUse" color-interpolation-filters="sRGB">
      <feFlood flood-opacity="0" result="BackgroundImageFix" />
      <feColorMatrix in="SourceAlpha" type="matrix" values="0 0 0 0 0 0 0 0 0 0 0 0 0 0 0 0 0 0 127 0" result="hardAlpha" />
      <feMorphology radius="2" operator="dilate" in="SourceAlpha" result="effect1_dropShadow_43_153" />
      <feOffset dy="2" />
      <feGaussianBlur stdDeviation="2" />
      <feComposite in2="hardAlpha" operator="out" />
      <feColorMatrix type="matrix" values="0 0 0 0 0.608333 0 0 0 0 0.608333 0 0 0 0 0.608333 0 0 0 0.05 0" />
      <feBlend mode="normal" in2="BackgroundImageFix" result="effect1_dropShadow_43_153" />
      <feBlend mode="normal" in="SourceGraphic" in2="effect1_dropShadow_43_153" result="shape" />
    </filter>
  </defs>
</svg>