<svg width="392" height="227" viewBox="0 0 392 227" fill="none" xmlns="http://www.w3.org/2000/svg">
  <g>
    <g filter="url(#filter0_d_43_95)">
      <rect x="19" y="5" width="366" height="212" rx="4" fill="var(--vscode-editor-background, #FFFFFF)" shape-rendering="crispEdges" />
      <rect x="18.5" y="4.5" width="367" height="213" rx="4.5" stroke="#DDDDDD" stroke-opacity="0.2" shape-rendering="crispEdges" />
    </g>
    <line x1="19" y1="23.5" x2="385" y2="23.5" stroke="#DDDDDD" stroke-opacity="0.2" />
    <line x1="19" y1="204.5" x2="385" y2="204.5" stroke="#DDDDDD" stroke-opacity="0.2" />
    <path d="M19 205H385V213C385 215.209 383.209 217 381 217H23C20.7909 217 19 215.209 19 213V205Z" fill="var(--vscode-statusBar-background, #007ACC)" />
    <path d="M19 9C19 6.79086 20.7909 5 23 5H381C383.209 5 385 6.79086 385 9V23H19V9Z" fill="var(--vscode-keybindingLabel-background, #DDDDDD)" fill-opacity="0.5" />
    <rect x="1" y="195" width="213" height="31" rx="3" stroke="#6FC3DF" stroke-width="2" stroke-dasharray="6 6" />
    <g>
      <rect x="228" y="160" width="151" height="41" rx="4" fill="var(--vscode-statusBar-background, #007ACC)" />
      <rect x="228.5" y="160.5" width="150" height="40" rx="3.5" stroke="#DDDDDD" stroke-opacity="0.2" />
    </g>
    <g>
      <g>
        <path d="M246.453 179.227H246.5C247.216 179.258 247.822 179.522 248.32 180.02C248.849 180.518 249.113 181.14 249.113 181.887C249.113 182.602 248.849 183.224 248.32 183.753C247.822 184.251 247.216 184.5 246.5 184.5H239.967C239.531 184.5 239.111 184.422 238.707 184.267C238.302 184.08 237.96 183.816 237.68 183.473C237.307 183.069 237.058 182.602 236.933 182.073C236.84 181.513 236.871 180.969 237.027 180.44C237.213 179.911 237.509 179.476 237.913 179.133C238.349 178.76 238.831 178.527 239.36 178.433C239.796 178.34 240.231 178.356 240.667 178.48C240.947 177.858 241.382 177.376 241.973 177.033C242.564 176.691 243.187 176.567 243.84 176.66C244.524 176.753 245.1 177.049 245.567 177.547C246.064 178.013 246.36 178.573 246.453 179.227ZM240.387 183.613H246.5C246.998 183.613 247.418 183.442 247.76 183.1C248.102 182.758 248.273 182.353 248.273 181.887C248.273 181.389 248.102 180.969 247.76 180.627C247.418 180.284 246.998 180.113 246.5 180.113H245.707L245.613 179.367C245.551 178.9 245.333 178.496 244.96 178.153C244.618 177.811 244.198 177.609 243.7 177.547C243.233 177.453 242.782 177.531 242.347 177.78C241.942 178.029 241.647 178.371 241.46 178.807L241.18 179.46L240.433 179.32C240.278 179.289 240.122 179.258 239.967 179.227C239.344 179.227 238.831 179.444 238.427 179.88C238.116 180.191 237.913 180.564 237.82 181C237.727 181.436 237.758 181.856 237.913 182.26C238.1 182.664 238.38 182.991 238.753 183.24C239.127 183.489 239.531 183.613 239.967 183.613H240.387Z" fill="var(--vscode-statusBar-foreground, #FFFFFF)" />
        <path d="M258.529 185.205C256.18 185.205 254.715 183.506 254.715 180.775C254.715 178.039 256.174 176.34 258.523 176.34C260.387 176.34 261.828 177.529 262.039 179.223H260.732C260.486 178.174 259.637 177.506 258.523 177.506C257.006 177.506 256.057 178.766 256.057 180.775C256.057 182.785 257.006 184.039 258.529 184.039C259.648 184.039 260.498 183.436 260.732 182.475H262.039C261.805 184.121 260.416 185.205 258.529 185.205ZM263.68 185V176.141H264.939V185H263.68ZM269.527 185.123C267.658 185.123 266.516 183.875 266.516 181.818C266.516 179.768 267.664 178.514 269.527 178.514C271.385 178.514 272.533 179.762 272.533 181.818C272.533 183.875 271.391 185.123 269.527 185.123ZM269.527 184.051C270.617 184.051 271.238 183.23 271.238 181.818C271.238 180.4 270.617 179.58 269.527 179.58C268.432 179.58 267.816 180.4 267.816 181.818C267.816 183.236 268.432 184.051 269.527 184.051ZM279.43 178.637V185H278.217V183.992H278.117C277.807 184.713 277.156 185.123 276.189 185.123C274.777 185.123 273.992 184.262 273.992 182.768V178.637H275.252V182.457C275.252 183.512 275.668 184.016 276.594 184.016C277.613 184.016 278.17 183.395 278.17 182.369V178.637H279.43ZM283.59 185.105C281.967 185.105 280.941 183.828 280.941 181.812C280.941 179.809 281.979 178.525 283.59 178.525C284.463 178.525 285.201 178.947 285.547 179.645H285.641V176.141H286.9V185H285.693V183.992H285.594C285.213 184.689 284.469 185.105 283.59 185.105ZM283.947 179.604C282.887 179.604 282.242 180.441 282.242 181.818C282.242 183.201 282.881 184.027 283.947 184.027C285.008 184.027 285.664 183.189 285.664 181.818C285.664 180.459 285.002 179.604 283.947 179.604ZM295.689 185.205C293.34 185.205 291.875 183.506 291.875 180.775C291.875 178.039 293.334 176.34 295.684 176.34C297.547 176.34 298.988 177.529 299.199 179.223H297.893C297.646 178.174 296.797 177.506 295.684 177.506C294.166 177.506 293.217 178.766 293.217 180.775C293.217 182.785 294.166 184.039 295.689 184.039C296.809 184.039 297.658 183.436 297.893 182.475H299.199C298.965 184.121 297.576 185.205 295.689 185.205ZM303.477 185.123C301.607 185.123 300.465 183.875 300.465 181.818C300.465 179.768 301.613 178.514 303.477 178.514C305.334 178.514 306.482 179.762 306.482 181.818C306.482 183.875 305.34 185.123 303.477 185.123ZM303.477 184.051C304.566 184.051 305.188 183.23 305.188 181.818C305.188 180.4 304.566 179.58 303.477 179.58C302.381 179.58 301.766 180.4 301.766 181.818C301.766 183.236 302.381 184.051 303.477 184.051ZM310.332 185.105C308.709 185.105 307.684 183.828 307.684 181.812C307.684 179.809 308.721 178.525 310.332 178.525C311.205 178.525 311.943 178.947 312.289 179.645H312.383V176.141H313.643V185H312.436V183.992H312.336C311.955 184.689 311.211 185.105 310.332 185.105ZM310.689 179.604C309.629 179.604 308.984 180.441 308.984 181.818C308.984 183.201 309.623 184.027 310.689 184.027C311.75 184.027 312.406 183.189 312.406 181.818C312.406 180.459 311.744 179.604 310.689 179.604ZM319.719 183.295H320.932C320.656 184.42 319.625 185.123 318.166 185.123C316.338 185.123 315.219 183.863 315.219 181.83C315.219 179.809 316.361 178.514 318.16 178.514C319.936 178.514 321.008 179.727 321.008 181.719V182.152H316.502V182.211C316.543 183.365 317.193 184.092 318.201 184.092C318.963 184.092 319.484 183.811 319.719 183.295ZM318.154 179.539C317.223 179.539 316.572 180.219 316.502 181.244H319.725C319.695 180.213 319.086 179.539 318.154 179.539ZM329.668 182.176H325.824V181.01H329.668V182.176ZM331.268 182.744H332.568C332.68 183.564 333.465 184.086 334.596 184.086C335.65 184.086 336.424 183.529 336.424 182.756C336.424 182.094 335.932 181.684 334.812 181.414L333.723 181.15C332.193 180.781 331.496 180.055 331.496 178.824C331.496 177.336 332.727 176.34 334.572 176.34C336.289 176.34 337.543 177.336 337.619 178.748H336.342C336.219 177.945 335.539 177.453 334.555 177.453C333.518 177.453 332.826 177.963 332.826 178.754C332.826 179.369 333.271 179.721 334.373 179.99L335.305 180.219C337.039 180.635 337.754 181.332 337.754 182.598C337.754 184.197 336.5 185.205 334.496 185.205C332.621 185.205 331.361 184.244 331.268 182.744ZM339.986 177.5C339.547 177.5 339.189 177.143 339.189 176.709C339.189 176.27 339.547 175.912 339.986 175.912C340.426 175.912 340.783 176.27 340.783 176.709C340.783 177.143 340.426 177.5 339.986 177.5ZM339.359 185V178.637H340.613V185H339.359ZM345.154 187.432C343.561 187.432 342.529 186.723 342.395 185.65H343.684C343.789 186.131 344.322 186.436 345.172 186.436C346.221 186.436 346.842 185.92 346.842 185.059V183.834H346.748C346.361 184.525 345.658 184.906 344.779 184.906C343.15 184.906 342.143 183.646 342.143 181.736C342.143 179.809 343.162 178.525 344.791 178.525C345.67 178.525 346.438 178.959 346.795 179.65H346.895V178.637H348.102V185.064C348.102 186.512 346.959 187.432 345.154 187.432ZM345.137 183.863C346.215 183.863 346.865 183.037 346.865 181.736C346.865 180.436 346.209 179.604 345.137 179.604C344.053 179.604 343.443 180.436 343.443 181.736C343.443 183.037 344.053 183.863 345.137 183.863ZM349.93 185V178.637H351.143V179.645H351.236C351.547 178.941 352.18 178.514 353.141 178.514C354.564 178.514 355.35 179.363 355.35 180.881V185H354.09V181.18C354.09 180.125 353.645 179.609 352.713 179.609C351.781 179.609 351.189 180.242 351.189 181.268V185H349.93ZM361.057 177.5C360.617 177.5 360.26 177.143 360.26 176.709C360.26 176.27 360.617 175.912 361.057 175.912C361.496 175.912 361.854 176.27 361.854 176.709C361.854 177.143 361.496 177.5 361.057 177.5ZM360.43 185V178.637H361.684V185H360.43ZM363.535 185V178.637H364.748V179.645H364.842C365.152 178.941 365.785 178.514 366.746 178.514C368.17 178.514 368.955 179.363 368.955 180.881V185H367.695V181.18C367.695 180.125 367.25 179.609 366.318 179.609C365.387 179.609 364.795 180.242 364.795 181.268V185H363.535Z" fill="var(--vscode-statusBar-foreground, #FFFFFF)" />
      </g>
    </g>
    <rect x="57" y="66" width="121" height="5" rx="2.5" fill="var(--vscode-editorHint-foreground, #B9B9B9)" />
    <rect x="57" y="80" width="238" height="5" rx="2.5" fill="var(--vscode-editorHint-foreground, #B9B9B9)" />
    <rect x="57" y="94" width="133" height="5" rx="2.5" fill="var(--vscode-editorHint-foreground, #B9B9B9)" />
    <rect x="57" y="121" width="238" height="5" rx="2.5" fill="var(--vscode-editorHint-foreground, #B9B9B9)" />
    <rect x="57" y="135" width="133" height="5" rx="2.5" fill="var(--vscode-editorHint-foreground, #B9B9B9)" />
    <rect x="241" y="66" width="54" height="5" rx="2.5" fill="var(--vscode-editorHint-foreground, #B9B9B9)" />
    <rect x="191" y="66" width="42" height="5" rx="2.5" fill="var(--vscode-banner-iconForeground, #1A85FF)" />
    <path d="M58.04 40.692H60.848C61.8013 40.692 62.6333 40.8913 63.344 41.29C64.0547 41.68 64.6007 42.226 64.982 42.928C65.3633 43.63 65.554 44.436 65.554 45.346C65.554 46.256 65.3633 47.062 64.982 47.764C64.6007 48.466 64.0547 49.0163 63.344 49.415C62.6333 49.805 61.8013 50 60.848 50H58.04V40.692ZM60.848 48.947C61.9487 48.947 62.8197 48.6307 63.461 47.998C64.111 47.3653 64.436 46.4813 64.436 45.346C64.436 44.2107 64.111 43.3267 63.461 42.694C62.8197 42.0613 61.9487 41.745 60.848 41.745H59.145V48.947H60.848ZM69.3646 50.208C68.5673 50.208 67.9563 49.974 67.5316 49.506C67.1156 49.038 66.9076 48.3837 66.9076 47.543V43.37H68.0126V47.374C68.0126 48.0067 68.1556 48.4703 68.4416 48.765C68.7276 49.0597 69.1133 49.207 69.5986 49.207C69.9713 49.207 70.3006 49.1073 70.5866 48.908C70.8813 48.7087 71.1066 48.4487 71.2626 48.128C71.4273 47.8073 71.5096 47.4693 71.5096 47.114V43.37H72.6146V50H71.5616V49.038H71.5096C71.3276 49.3673 71.0373 49.6447 70.6386 49.87C70.24 50.0953 69.8153 50.208 69.3646 50.208ZM77.1343 50.208C76.5016 50.208 75.9339 50.0563 75.4313 49.753C74.9286 49.4497 74.5343 49.0337 74.2483 48.505C73.9709 47.9677 73.8323 47.3653 73.8323 46.698C73.8323 46.0653 73.9623 45.4803 74.2223 44.943C74.4909 44.397 74.8679 43.9637 75.3533 43.643C75.8473 43.3223 76.4106 43.162 77.0433 43.162C77.6933 43.162 78.2566 43.3093 78.7333 43.604C79.2099 43.89 79.5739 44.2887 79.8253 44.8C80.0853 45.3113 80.2153 45.8963 80.2153 46.555C80.2153 46.659 80.2066 46.7717 80.1893 46.893H74.9373C74.9633 47.3957 75.0846 47.8203 75.3013 48.167C75.5179 48.5137 75.7909 48.7737 76.1203 48.947C76.4583 49.1203 76.8093 49.207 77.1733 49.207C78.0399 49.207 78.6943 48.8083 79.1363 48.011L80.0723 48.466C79.7949 48.9947 79.4093 49.4193 78.9153 49.74C78.4213 50.052 77.8276 50.208 77.1343 50.208ZM79.0453 45.983C79.0279 45.7057 78.9499 45.4283 78.8113 45.151C78.6726 44.8737 78.4559 44.6397 78.1613 44.449C77.8666 44.2583 77.4939 44.163 77.0433 44.163C76.5233 44.163 76.0813 44.332 75.7173 44.67C75.3533 44.9993 75.1149 45.437 75.0023 45.983H79.0453ZM83.866 50.104C83.5974 50.104 83.346 50.0607 83.112 49.974C82.8867 49.8873 82.696 49.7703 82.54 49.623C82.1934 49.2937 82.02 48.8387 82.02 48.258V44.371H80.863V43.37H82.02V41.498H83.125V43.37H84.75V44.371H83.125V47.985C83.125 48.349 83.1944 48.6177 83.333 48.791C83.4977 48.9817 83.736 49.077 84.048 49.077C84.3167 49.077 84.5594 49.0033 84.776 48.856V49.935C84.646 49.9957 84.5117 50.039 84.373 50.065C84.243 50.091 84.074 50.104 83.866 50.104ZM91.6187 40.692H92.8667L96.4027 50H95.1937L94.2577 47.439H90.2277L89.2917 50H88.0827L91.6187 40.692ZM93.8807 46.399L92.6327 43.045L92.2687 42.044H92.2167L91.8527 43.045L90.6047 46.399H93.8807ZM97.6367 40.692H98.7417V50H97.6367V40.692ZM104.274 42.148C104.057 42.148 103.871 42.07 103.715 41.914C103.559 41.758 103.481 41.5717 103.481 41.355C103.481 41.1297 103.559 40.9433 103.715 40.796C103.871 40.64 104.057 40.562 104.274 40.562C104.499 40.562 104.685 40.64 104.833 40.796C104.989 40.9433 105.067 41.1297 105.067 41.355C105.067 41.5717 104.989 41.758 104.833 41.914C104.685 42.07 104.499 42.148 104.274 42.148ZM103.728 43.37H104.833V50H103.728V43.37ZM106.556 43.37H107.609V44.345H107.661C107.843 44.0157 108.134 43.7383 108.532 43.513C108.931 43.279 109.356 43.162 109.806 43.162C110.604 43.162 111.21 43.396 111.626 43.864C112.051 44.3233 112.263 44.9517 112.263 45.749V50H111.158V45.918C111.158 45.3027 111.011 44.8563 110.716 44.579C110.422 44.3017 110.019 44.163 109.507 44.163C109.152 44.163 108.831 44.2627 108.545 44.462C108.268 44.6613 108.051 44.9257 107.895 45.255C107.739 45.5757 107.661 45.9137 107.661 46.269V50H106.556V43.37ZM121.2 50.208C120.299 50.208 119.48 49.9957 118.743 49.571C118.006 49.1463 117.426 48.5657 117.001 47.829C116.585 47.0837 116.377 46.256 116.377 45.346C116.377 44.436 116.585 43.6127 117.001 42.876C117.426 42.1307 118.006 41.5457 118.743 41.121C119.48 40.6963 120.299 40.484 121.2 40.484C121.893 40.484 122.526 40.614 123.098 40.874C123.679 41.134 124.181 41.511 124.606 42.005L123.813 42.772C123.458 42.3473 123.068 42.0353 122.643 41.836C122.227 41.6367 121.746 41.537 121.2 41.537C120.524 41.537 119.904 41.6973 119.341 42.018C118.778 42.33 118.327 42.7763 117.989 43.357C117.66 43.929 117.495 44.592 117.495 45.346C117.495 46.1 117.66 46.7673 117.989 47.348C118.327 47.92 118.778 48.3663 119.341 48.687C119.904 48.999 120.524 49.155 121.2 49.155C122.327 49.155 123.284 48.6913 124.073 47.764L124.879 48.544C124.454 49.0553 123.921 49.4627 123.28 49.766C122.647 50.0607 121.954 50.208 121.2 50.208ZM126.12 40.692H127.225V50H126.12V40.692ZM131.853 50.208C131.203 50.208 130.618 50.052 130.098 49.74C129.578 49.428 129.171 49.0033 128.876 48.466C128.59 47.9287 128.447 47.335 128.447 46.685C128.447 46.035 128.59 45.4413 128.876 44.904C129.171 44.3667 129.578 43.942 130.098 43.63C130.618 43.318 131.203 43.162 131.853 43.162C132.503 43.162 133.088 43.318 133.608 43.63C134.128 43.942 134.531 44.3667 134.817 44.904C135.112 45.4413 135.259 46.035 135.259 46.685C135.259 47.335 135.112 47.9287 134.817 48.466C134.531 49.0033 134.128 49.428 133.608 49.74C133.088 50.052 132.503 50.208 131.853 50.208ZM131.853 49.207C132.261 49.207 132.638 49.1073 132.984 48.908C133.34 48.7 133.621 48.4053 133.829 48.024C134.046 47.6427 134.154 47.1963 134.154 46.685C134.154 46.1737 134.046 45.7273 133.829 45.346C133.621 44.9647 133.34 44.6743 132.984 44.475C132.638 44.267 132.261 44.163 131.853 44.163C131.446 44.163 131.065 44.267 130.709 44.475C130.354 44.6743 130.068 44.9647 129.851 45.346C129.643 45.7273 129.539 46.1737 129.539 46.685C129.539 47.1963 129.643 47.6427 129.851 48.024C130.068 48.4053 130.354 48.7 130.709 48.908C131.065 49.1073 131.446 49.207 131.853 49.207ZM138.884 50.208C138.087 50.208 137.476 49.974 137.051 49.506C136.635 49.038 136.427 48.3837 136.427 47.543V43.37H137.532V47.374C137.532 48.0067 137.675 48.4703 137.961 48.765C138.247 49.0597 138.633 49.207 139.118 49.207C139.491 49.207 139.82 49.1073 140.106 48.908C140.401 48.7087 140.626 48.4487 140.782 48.128C140.947 47.8073 141.029 47.4693 141.029 47.114V43.37H142.134V50H141.081V49.038H141.029C140.847 49.3673 140.557 49.6447 140.158 49.87C139.759 50.0953 139.335 50.208 138.884 50.208ZM146.524 50.208C145.926 50.208 145.384 50.0563 144.899 49.753C144.422 49.4497 144.045 49.0337 143.768 48.505C143.49 47.9677 143.352 47.361 143.352 46.685C143.352 46.0177 143.49 45.4153 143.768 44.878C144.045 44.3407 144.422 43.9203 144.899 43.617C145.384 43.3137 145.926 43.162 146.524 43.162C147.026 43.162 147.477 43.279 147.876 43.513C148.274 43.7383 148.578 44.02 148.786 44.358H148.838L148.786 43.435V40.692H149.891V50H148.838V49.025H148.786C148.578 49.3543 148.274 49.636 147.876 49.87C147.477 50.0953 147.026 50.208 146.524 50.208ZM146.641 49.207C147.031 49.207 147.39 49.103 147.72 48.895C148.058 48.687 148.326 48.3923 148.526 48.011C148.734 47.6297 148.838 47.1877 148.838 46.685C148.838 46.1823 148.734 45.7403 148.526 45.359C148.326 44.9777 148.058 44.683 147.72 44.475C147.39 44.267 147.031 44.163 146.641 44.163C146.259 44.163 145.9 44.267 145.562 44.475C145.224 44.683 144.951 44.982 144.743 45.372C144.543 45.7533 144.444 46.191 144.444 46.685C144.444 47.179 144.543 47.621 144.743 48.011C144.951 48.3923 145.224 48.687 145.562 48.895C145.9 49.103 146.259 49.207 146.641 49.207ZM158.88 50.208C157.978 50.208 157.159 49.9957 156.423 49.571C155.686 49.1463 155.105 48.5657 154.681 47.829C154.265 47.0837 154.057 46.256 154.057 45.346C154.057 44.436 154.265 43.6127 154.681 42.876C155.105 42.1307 155.686 41.5457 156.423 41.121C157.159 40.6963 157.978 40.484 158.88 40.484C159.573 40.484 160.206 40.614 160.778 40.874C161.358 41.134 161.861 41.511 162.286 42.005L161.493 42.772C161.137 42.3473 160.747 42.0353 160.323 41.836C159.907 41.6367 159.426 41.537 158.88 41.537C158.204 41.537 157.584 41.6973 157.021 42.018C156.457 42.33 156.007 42.7763 155.669 43.357C155.339 43.929 155.175 44.592 155.175 45.346C155.175 46.1 155.339 46.7673 155.669 47.348C156.007 47.92 156.457 48.3663 157.021 48.687C157.584 48.999 158.204 49.155 158.88 49.155C160.006 49.155 160.964 48.6913 161.753 47.764L162.559 48.544C162.134 49.0553 161.601 49.4627 160.96 49.766C160.327 50.0607 159.634 50.208 158.88 50.208ZM166.728 50.208C166.078 50.208 165.493 50.052 164.973 49.74C164.453 49.428 164.045 49.0033 163.751 48.466C163.465 47.9287 163.322 47.335 163.322 46.685C163.322 46.035 163.465 45.4413 163.751 44.904C164.045 44.3667 164.453 43.942 164.973 43.63C165.493 43.318 166.078 43.162 166.728 43.162C167.378 43.162 167.963 43.318 168.483 43.63C169.003 43.942 169.406 44.3667 169.692 44.904C169.986 45.4413 170.134 46.035 170.134 46.685C170.134 47.335 169.986 47.9287 169.692 48.466C169.406 49.0033 169.003 49.428 168.483 49.74C167.963 50.052 167.378 50.208 166.728 50.208ZM166.728 49.207C167.135 49.207 167.512 49.1073 167.859 48.908C168.214 48.7 168.496 48.4053 168.704 48.024C168.92 47.6427 169.029 47.1963 169.029 46.685C169.029 46.1737 168.92 45.7273 168.704 45.346C168.496 44.9647 168.214 44.6743 167.859 44.475C167.512 44.267 167.135 44.163 166.728 44.163C166.32 44.163 165.939 44.267 165.584 44.475C165.228 44.6743 164.942 44.9647 164.726 45.346C164.518 45.7273 164.414 46.1737 164.414 46.685C164.414 47.1963 164.518 47.6427 164.726 48.024C164.942 48.4053 165.228 48.7 165.584 48.908C165.939 49.1073 166.32 49.207 166.728 49.207ZM174.238 50.208C173.64 50.208 173.098 50.0563 172.613 49.753C172.136 49.4497 171.759 49.0337 171.482 48.505C171.204 47.9677 171.066 47.361 171.066 46.685C171.066 46.0177 171.204 45.4153 171.482 44.878C171.759 44.3407 172.136 43.9203 172.613 43.617C173.098 43.3137 173.64 43.162 174.238 43.162C174.74 43.162 175.191 43.279 175.59 43.513C175.988 43.7383 176.292 44.02 176.5 44.358H176.552L176.5 43.435V40.692H177.605V50H176.552V49.025H176.5C176.292 49.3543 175.988 49.636 175.59 49.87C175.191 50.0953 174.74 50.208 174.238 50.208ZM174.355 49.207C174.745 49.207 175.104 49.103 175.434 48.895C175.772 48.687 176.04 48.3923 176.24 48.011C176.448 47.6297 176.552 47.1877 176.552 46.685C176.552 46.1823 176.448 45.7403 176.24 45.359C176.04 44.9777 175.772 44.683 175.434 44.475C175.104 44.267 174.745 44.163 174.355 44.163C173.973 44.163 173.614 44.267 173.276 44.475C172.938 44.683 172.665 44.982 172.457 45.372C172.257 45.7533 172.158 46.191 172.158 46.685C172.158 47.179 172.257 47.621 172.457 48.011C172.665 48.3923 172.938 48.687 173.276 48.895C173.614 49.103 173.973 49.207 174.355 49.207ZM182.124 50.208C181.492 50.208 180.924 50.0563 180.421 49.753C179.919 49.4497 179.524 49.0337 179.238 48.505C178.961 47.9677 178.822 47.3653 178.822 46.698C178.822 46.0653 178.952 45.4803 179.212 44.943C179.481 44.397 179.858 43.9637 180.343 43.643C180.837 43.3223 181.401 43.162 182.033 43.162C182.683 43.162 183.247 43.3093 183.723 43.604C184.2 43.89 184.564 44.2887 184.815 44.8C185.075 45.3113 185.205 45.8963 185.205 46.555C185.205 46.659 185.197 46.7717 185.179 46.893H179.927C179.953 47.3957 180.075 47.8203 180.291 48.167C180.508 48.5137 180.781 48.7737 181.11 48.947C181.448 49.1203 181.799 49.207 182.163 49.207C183.03 49.207 183.684 48.8083 184.126 48.011L185.062 48.466C184.785 48.9947 184.399 49.4193 183.905 49.74C183.411 50.052 182.818 50.208 182.124 50.208ZM184.035 45.983C184.018 45.7057 183.94 45.4283 183.801 45.151C183.663 44.8737 183.446 44.6397 183.151 44.449C182.857 44.2583 182.484 44.163 182.033 44.163C181.513 44.163 181.071 44.332 180.707 44.67C180.343 44.9993 180.105 45.437 179.992 45.983H184.035Z" fill="var(--vscode-editor-foreground, #616161)" />
    <path d="M266.602 207.312L266.196 193L277.35 201.977L270.198 201.062L266.602 207.312Z" fill="#000000" stroke="white" stroke-linejoin="round" />
    <rect x="29" y="210" width="29" height="2" rx="1" fill="var(--vscode-statusBar-foreground, #FFFFFF)" />
    <rect x="65" y="210" width="60" height="2" rx="1" fill="var(--vscode-statusBar-foreground, #FFFFFF)" />
    <rect width="16" height="2" rx="1" transform="matrix(-1 0 0 1 149 210)" fill="var(--vscode-statusBar-foreground, #FFFFFF)" />
    <circle cx="29.5" cy="14.5" r="3.5" fill="#ED6A5F" />
    <circle cx="41.5" cy="14.5" r="3.5" fill="#F8D949" />
    <circle cx="53.5" cy="14.5" r="3.5" fill="#61C454" />
  </g>
  <defs>
    <filter id="filter0_d_43_95" x="12" y="0" width="380" height="226" filterUnits="userSpaceOnUse" color-interpolation-filters="sRGB">
      <feFlood flood-opacity="0" result="BackgroundImageFix" />
      <feColorMatrix in="SourceAlpha" type="matrix" values="0 0 0 0 0 0 0 0 0 0 0 0 0 0 0 0 0 0 127 0" result="hardAlpha" />
      <feMorphology radius="2" operator="dilate" in="SourceAlpha" result="effect1_dropShadow_43_95" />
      <feOffset dy="2" />
      <feGaussianBlur stdDeviation="2" />
      <feComposite in2="hardAlpha" operator="out" />
      <feColorMatrix type="matrix" values="0 0 0 0 0.608333 0 0 0 0 0.608333 0 0 0 0 0.608333 0 0 0 0.05 0" />
      <feBlend mode="normal" in2="BackgroundImageFix" result="effect1_dropShadow_43_95" />
      <feBlend mode="normal" in="SourceGraphic" in2="effect1_dropShadow_43_95" result="shape" />
    </filter>
  </defs>
</svg>