<svg width="16" height="16" viewBox="0 0 16 16" fill="none" xmlns="http://www.w3.org/2000/svg">
<path fill="#424242" fill-rule="evenodd" clip-rule="evenodd" d="M8.5 5.996H7.501V4.997H8.5V5.996ZM8.5 11.002H7.501V6.994H8.5V11.002ZM8.001 14.002C4.692 14.002 2 11.31 2 8.001C2 4.692 4.692 2 8.001 2C11.31 2 14.002 4.692 14.002 8.001C14.002 11.31 11.31 14.002 8.001 14.002ZM8.001 1C4.141 1 1 4.141 1 8.001C1 11.861 4.141 15.002 8.001 15.002C11.861 15.002 15.002 11.861 15.002 8.001C15.002 4.141 11.861 1 8.001 1Z"/>
</svg>
