<svg xmlns="http://www.w3.org/2000/svg" width="16" height="16" viewBox="0 0 16 16">
  <path fill="#FFF" d="M14,16 C14.0833333,16 14.2864583,15.96875 14.609375,15.90625 C14.9322917,15.84375 15.2291667,15.6666667 15.5,15.375 C15.6041667,15.25 15.7135417,15.078125 15.828125,14.859375 C15.9427083,14.640625 15.9791667,14.3645833 15.9375,14.03125 C15.9166667,13.5729167 15.7395833,13.1458333 15.40625,12.75 L15.40625,12.75 L9.5625,6.6875 L9.59375,6.65625 C9.67708333,6.46875 9.765625,6.234375 9.859375,5.953125 C9.953125,5.671875 10,5.35416667 10,5 C10,4.3125 9.86458333,3.66666667 9.59375,3.0625 C9.32291667,2.45833333 8.96354167,1.93229167 8.515625,1.484375 C8.06770833,1.03645833 7.54166667,0.677083333 6.9375,0.40625 C6.33333333,0.135416667 5.6875,0 5,0 C4.33333333,0 3.69791667,0.135416667 3.09375,0.40625 C2.48958333,0.677083333 1.95833333,1.04166667 1.5,1.5 C1.04166667,1.95833333 0.677083333,2.48958333 0.40625,3.09375 C0.135416667,3.69791667 0,4.33333333 0,5 C0,5.66666667 0.135416667,6.30208333 0.40625,6.90625 C0.677083333,7.51041667 1.04166667,8.04166667 1.5,8.5 C1.95833333,8.95833333 2.48958333,9.32291667 3.09375,9.59375 C3.69791667,9.86458333 4.33333333,10 5,10 L5,10 L7,10 L7,12 L9,12 L9,14 L11,14 L11,16 L14,16 Z M4.5,6 C4.08333333,6 3.72916667,5.85416667 3.4375,5.5625 C3.14583333,5.27083333 3,4.91666667 3,4.5 C3,4.08333333 3.14583333,3.72916667 3.4375,3.4375 C3.72916667,3.14583333 4.08333333,3 4.5,3 C4.91666667,3 5.27083333,3.14583333 5.5625,3.4375 C5.85416667,3.72916667 6,4.08333333 6,4.5 C6,4.91666667 5.85416667,5.27083333 5.5625,5.5625 C5.27083333,5.85416667 4.91666667,6 4.5,6 Z"/>
</svg>
