<svg xmlns="http://www.w3.org/2000/svg" width="16" height="16" viewBox="0 0 16 16">
    <path
        fill="#fff"
        d="M8,7 C8.55228475,7 9,7.44771525 9,8 L9,8 L9,12 C9,12.5522847 8.55228475,13 8,13 C7.44771525,13 7,12.5522847 7,12 L7,12 L7,8 C7,7.44771525 7.44771525,7 8,7 Z M8,4 C8.55228475,4 9,4.44771525 9,5 C9,5.55228475 8.55228475,6 8,6 C7.44771525,6 7,5.55228475 7,5 C7,4.44771525 7.44771525,4 8,4 Z M8,1 C11.86,1 15,4.14 15,8 C15,11.86 11.86,15 8,15 C4.14,15 1,11.86 1,8 C1,4.14 4.14,1 8,1 M8,0 C3.582,0 0,3.582 0,8 C0,12.418 3.582,16 8,16 C12.418,16 16,12.418 16,8 C16,3.582 12.418,0 8,0"
    />
</svg>
