<svg xmlns="http://www.w3.org/2000/svg" width="16" height="16" viewBox="0 0 16 16">
  <path fill="#FFF" d="M15,2 L15,1 L10.5,1 C10.5,1 10.4166667,0.833333333 10.25,0.5 C10.0833333,0.166666667 9.67708333,0 9.03125,0 L9.03125,0 L7,0 C6.33333333,0 5.91666667,0.166666667 5.75,0.5 C5.58333333,0.833333333 5.51041667,1 5.53125,1 L5.53125,1 L1,1 L1,2 L15,2 Z M12,16 C12.6666667,16 13,15.6666667 13,15 L13,15 L14,4.03125 L15,4.03125 L15,3 L1,3 L1,4.03125 L2,4.03125 L3,15 C3,15.6666667 3.33333333,16 4,16 L4,16 L12,16 Z M12,15 L4,15 L3,4.03125 L13,4.03125 L12,15 Z M5.3125,13.03125 L6.28125,12.9375 L5.65625,5.9375 L4.6875,6.03125 L5.3125,13.03125 Z M10.6875,13.03125 L11.3125,6.03125 L10.28125,5.9375 L9.65625,12.9375 L10.6875,13.03125 Z M8.5,13 L8.5,5.96875 L7.4375,5.96875 L7.4375,13 L8.5,13 Z"/>
</svg>
