<svg xmlns="http://www.w3.org/2000/svg" width="16" height="16" viewBox="0 0 16 16">
  <path fill="#FFF" d="M3,7 L3,6 L2,6 C2,5.5625 1.95833333,5.21354167 1.875,4.953125 C1.79166667,4.69270833 1.69791667,4.49479167 1.59375,4.359375 C1.48958333,4.22395833 1.38020833,4.13020833 1.265625,4.078125 C1.15104167,4.02604167 1.0625,4 1,4 C1.0625,4 1.15104167,3.97916667 1.265625,3.9375 C1.38020833,3.89583333 1.48958333,3.80208333 1.59375,3.65625 C1.69791667,3.51041667 1.79166667,3.30729167 1.875,3.046875 C1.95833333,2.78645833 2,2.4375 2,2 L2,2 L3,2 L3,1 L2.28125,1 C2.17708333,1.02083333 2.078125,1.04166667 1.984375,1.0625 C1.890625,1.08333333 1.80208333,1.11458333 1.71875,1.15625 C1.57291667,1.23958333 1.44270833,1.34895833 1.328125,1.484375 C1.21354167,1.61979167 1.15625,1.83333333 1.15625,2.125 C1.15625,2.41666667 1.125,2.640625 1.0625,2.796875 C1,2.953125 0.911458333,3.06770833 0.796875,3.140625 C0.682291667,3.21354167 0.557291667,3.25520833 0.421875,3.265625 C0.286458333,3.27604167 0.145833333,3.28125 0,3.28125 L0,3.28125 L0,4.75 C0.291666667,4.75 0.557291667,4.796875 0.796875,4.890625 C1.03645833,4.984375 1.15625,5.3125 1.15625,5.875 C1.15625,6.16666667 1.21354167,6.38020833 1.328125,6.515625 C1.44270833,6.65104167 1.57291667,6.76041667 1.71875,6.84375 C1.80208333,6.88541667 1.890625,6.91666667 1.984375,6.9375 C2.078125,6.95833333 2.17708333,6.97916667 2.28125,7 L2.28125,7 L3,7 Z M11.46875,5 C11.6145833,5 11.734375,4.94791667 11.828125,4.84375 C11.921875,4.73958333 11.96875,4.625 11.96875,4.5 C11.96875,4.16666667 11.8020833,4 11.46875,4 L11.46875,4 L4.46875,4 C4.34375,4 4.22916667,4.046875 4.125,4.140625 C4.02083333,4.234375 3.96875,4.35416667 3.96875,4.5 C3.96875,4.625 4.02083333,4.73958333 4.125,4.84375 C4.22916667,4.94791667 4.34375,5 4.46875,5 L4.46875,5 L11.46875,5 Z M11.46875,8 C11.6145833,8 11.734375,7.94791667 11.828125,7.84375 C11.921875,7.73958333 11.96875,7.625 11.96875,7.5 C11.96875,7.16666667 11.8020833,7 11.46875,7 L11.46875,7 L4.46875,7 C4.34375,7 4.22916667,7.046875 4.125,7.140625 C4.02083333,7.234375 3.96875,7.35416667 3.96875,7.5 C3.96875,7.625 4.02083333,7.73958333 4.125,7.84375 C4.22916667,7.94791667 4.34375,8 4.46875,8 L4.46875,8 L11.46875,8 Z M13.6875,15 C13.7916667,14.9791667 13.890625,14.9583333 13.984375,14.9375 C14.078125,14.9166667 14.1666667,14.8854167 14.25,14.84375 C14.3958333,14.7604167 14.5260417,14.6510417 14.640625,14.515625 C14.7552083,14.3802083 14.8125,14.1666667 14.8125,13.875 C14.8125,13.3125 14.9375,12.984375 15.1875,12.890625 C15.4375,12.796875 15.7083333,12.75 16,12.75 L16,12.75 L16,11.28125 C15.8541667,11.28125 15.7083333,11.2760417 15.5625,11.265625 C15.4166667,11.2552083 15.2916667,11.2135417 15.1875,11.140625 C15.0833333,11.0677083 14.9947917,10.953125 14.921875,10.796875 C14.8489583,10.640625 14.8125,10.4166667 14.8125,10.125 C14.8125,9.83333333 14.7552083,9.61979167 14.640625,9.484375 C14.5260417,9.34895833 14.3958333,9.23958333 14.25,9.15625 C14.1666667,9.11458333 14.078125,9.08333333 13.984375,9.0625 C13.890625,9.04166667 13.7916667,9.02083333 13.6875,9 L13.6875,9 L13,9 L13,10 L14,10 C14,10.4375 14.0416667,10.7864583 14.125,11.046875 C14.2083333,11.3072917 14.3020833,11.5104167 14.40625,11.65625 C14.5104167,11.8020833 14.6197917,11.8958333 14.734375,11.9375 C14.8489583,11.9791667 14.9375,12 15,12 C14.9375,12 14.8489583,12.0260417 14.734375,12.078125 C14.6197917,12.1302083 14.5104167,12.2239583 14.40625,12.359375 C14.3020833,12.4947917 14.2083333,12.6927083 14.125,12.953125 C14.0416667,13.2135417 14,13.5625 14,14 L14,14 L13,14 L13,15 L13.6875,15 Z M11.46875,11 C11.6145833,11 11.734375,10.9479167 11.828125,10.84375 C11.921875,10.7395833 11.96875,10.625 11.96875,10.5 C11.96875,10.1666667 11.8020833,10 11.46875,10 L11.46875,10 L4.46875,10 C4.34375,10 4.22916667,10.046875 4.125,10.140625 C4.02083333,10.234375 3.96875,10.3541667 3.96875,10.5 C3.96875,10.625 4.02083333,10.7395833 4.125,10.84375 C4.22916667,10.9479167 4.34375,11 4.46875,11 L4.46875,11 L11.46875,11 Z"/>
</svg>
