<svg xmlns="http://www.w3.org/2000/svg" width="14" height="15" viewBox="0 0 14 15">
  <path fill="#252526" d="M38.125,13.25 C38.3802096,13.25 38.5898429,13.3365877 38.7539062,13.5097656 C38.9179696,13.6829436 39,13.8880196 39,14.125 L39,22 C39,22.2552096 38.9179696,22.4648429 38.7539062,22.6289062 C38.5898429,22.7929696 38.3802096,22.875 38.125,22.875 L30.25,22.875 C30.0130196,22.875 29.8079436,22.7929696 29.6347656,22.6289062 C29.4615877,22.4648429 29.375,22.2552096 29.375,22 L29.375,14.125 C29.375,13.8880196 29.4615877,13.6829436 29.6347656,13.5097656 C29.8079436,13.3365877 30.0130196,13.25 30.25,13.25 L38.125,13.25 Z M38.125,16.75 L30.25,16.75 L30.25,22 L38.125,22 L38.125,16.75 Z M38.125,14.125 L30.25,14.125 L30.25,15.875 L38.125,15.875 L38.125,14.125 Z M35.9375,15.4375 C35.6458319,15.4375 35.5,15.2916681 35.5,15 C35.5,14.7083319 35.6458319,14.5625 35.9375,14.5625 L36.8125,14.5625 C37.1041681,14.5625 37.25,14.7083319 37.25,15 C37.25,15.2916681 37.1041681,15.4375 36.8125,15.4375 L35.9375,15.4375 Z M34.7070312,20.25 L31.125,20.25 L31.125,17.625 L34.7070312,17.625 L34.7070312,20.25 Z M33.8320312,18.5 L32,18.5 L32,19.375 L33.8320312,19.375 L33.8320312,18.5 Z M30.5234375,11.3632812 C30.414062,11.3997398 30.3001308,11.440755 30.1816406,11.4863281 C30.0631504,11.5319013 29.9492193,11.582031 29.8398438,11.6367188 L29.2929688,11.9101562 L28.28125,10.9257812 L27.0507812,12.15625 L28.0351562,13.1679688 L27.7617188,13.7148438 C27.707031,13.8242193 27.6569013,13.9381504 27.6113281,14.0566406 C27.565755,14.1751308 27.5247398,14.289062 27.4882812,14.3984375 L27.2695312,15 L25.875,15 L25.875,16.75 L27.2695312,16.75 L27.4882812,17.3515625 C27.5247398,17.460938 27.5703122,17.570312 27.625,17.6796875 C27.6796878,17.789063 27.7252602,17.898437 27.7617188,18.0078125 L28.0351562,18.5820312 L27.0507812,19.59375 L28.28125,20.8242188 L28.5,20.6054688 L28.5,21.671875 C28.4635415,21.6901043 28.3906255,21.6992188 28.28125,21.6992188 C28.0442696,21.6992188 27.8437508,21.6171883 27.6796875,21.453125 L26.421875,20.1953125 C26.2578117,20.0312492 26.1757812,19.8307304 26.1757812,19.59375 C26.1757812,19.3567696 26.2578117,19.1471363 26.421875,18.9648438 L26.96875,18.4179688 C26.9140622,18.2721347 26.854818,18.1399746 26.7910156,18.0214844 C26.7272132,17.9029942 26.6770835,17.7708341 26.640625,17.625 L25.875,17.625 C25.6197904,17.625 25.4101571,17.5429696 25.2460938,17.3789062 C25.0820304,17.2148429 25,17.0052096 25,16.75 L25,15 C25,14.7447904 25.0820304,14.5351571 25.2460938,14.3710938 C25.4101571,14.2070304 25.6197904,14.125 25.875,14.125 L26.640625,14.125 C26.6770835,13.9791659 26.7272132,13.8470058 26.7910156,13.7285156 C26.854818,13.6100254 26.9140622,13.4778653 26.96875,13.3320312 L26.421875,12.7851562 C26.2578117,12.5846344 26.1757812,12.375 26.1757812,12.15625 C26.1757812,11.9192696 26.2578117,11.7187508 26.421875,11.5546875 L27.6796875,10.296875 C27.8437508,10.1328117 28.0442696,10.0507812 28.28125,10.0507812 C28.5364596,10.0507812 28.7460929,10.1328117 28.9101562,10.296875 L29.4570312,10.84375 C29.6028653,10.7890622 29.7350254,10.729818 29.8535156,10.6660156 C29.9720058,10.6022132 30.1041659,10.5520835 30.25,10.515625 L30.25,9.75 C30.25,9.49479039 30.3320304,9.28515707 30.4960938,9.12109375 C30.6601571,8.95703043 30.8697904,8.875 31.125,8.875 L32.875,8.875 C33.1302096,8.875 33.3398429,8.95703043 33.5039062,9.12109375 C33.5950525,9.21224004 33.6634112,9.31249945 33.7089844,9.421875 C33.7545575,9.53125055 33.7682293,9.64062445 33.75,9.75 L33.75,10.515625 C33.8958341,10.5520835 34.0325514,10.6022132 34.1601562,10.6660156 C34.2877611,10.729818 34.4153639,10.7890622 34.5429688,10.84375 L35.0898438,10.296875 C35.2539071,10.1328117 35.4635404,10.0507812 35.71875,10.0507812 C35.9921889,10.0507812 36.1927077,10.1328117 36.3203125,10.296875 L37.578125,11.5546875 C37.7421883,11.7187508 37.8242188,11.9192696 37.8242188,12.15625 C37.8242188,12.2473963 37.8151043,12.3203122 37.796875,12.375 L37.1679688,12.375 L35.71875,10.9257812 L34.7070312,11.9101562 L34.1328125,11.6367188 C33.9869784,11.5455725 33.7682306,11.4544275 33.4765625,11.3632812 L32.875,11.1445312 L32.875,9.75 L31.125,9.75 L31.125,11.1445312 L30.5234375,11.3632812 Z" transform="translate(-25 -8)"/>
</svg>
