<svg width="16" height="16" viewBox="0 0 16 16" fill="none" xmlns="http://www.w3.org/2000/svg">
<path d="M14 4L13.06 4.94L12 3.88667H11.9933C11.94 7.03334 10.7867 8.08 9.86 8.91334C9.14 9.55334 8.66667 9.98 8.66667 11.3333V14.6667H7.33333V11.3333C7.33333 10.0933 6.92667 9.63334 6.30667 9.06667L7.25333 8.12C7.51333 8.36 7.78 8.62667 8.00667 8.94667C8.3 8.53334 8.64 8.21334 8.97333 7.91334C9.82 7.15334 10.62 6.42667 10.6667 3.88667L9.61333 4.94L8.66667 4L11.3333 1.33334L14 4ZM5.43333 5.12667C5.38 4.77334 5.34667 4.36 5.34 3.89334L6.38667 4.94L7.33333 4L4.66667 1.33334L2 4L2.94 4.94L4 3.88667H4.00667C4.02 4.47334 4.06 5 4.14 5.45334L5.43333 5.12667ZM5.67333 6.1L4.38 6.42C4.68 7.32667 5.12667 7.92 5.57333 8.38L6.52 7.43334C6.18667 7.1 5.88667 6.69334 5.67333 6.1Z" fill="#E8EAED"/>
</svg>
