<svg width="16" height="16" viewBox="0 0 16 16" fill="none" xmlns="http://www.w3.org/2000/svg">
<path fill-rule="evenodd" clip-rule="evenodd" d="M15.1111 8.00669L12.1219 5.01745L10.448 6.69126L11.7635 8.00669L10.448 9.32211L12.1219 10.9959L15.1111 8.00669V8.00669ZM7.99328 0.888893L10.9825 3.87813L9.3087 5.55195L7.99328 4.23653L6.67785 5.55195L5.00404 3.87813L7.99328 0.888893V0.888893ZM8.00662 15.1111L5.01739 12.1219L6.6912 10.4481L8.00662 11.7635L9.32205 10.4481L10.9959 12.1219L8.00662 15.1111V15.1111ZM0.888858 7.99334L3.8781 10.9826L5.55191 9.30876L4.23649 7.99334L5.55191 6.67792L3.8781 5.0041L0.888858 7.99334V7.99334ZM8.00663 6.50537L9.50792 8.00666L8.00663 9.50795L6.50534 8.00666L8.00663 6.50537V6.50537Z" fill="#E8EAED"/>
</svg>
