<svg width="16" height="16" viewBox="0 0 16 16" fill="none" xmlns="http://www.w3.org/2000/svg">
<path d="M11.56 4.192C10.968 4.128 10.424 4.56 10.272 5.136L9.82401 6.808L9.23201 5.184C9.02401 4.624 8.45601 4.24 7.86401 4.352C7.12001 4.496 6.70401 5.264 6.96001 5.944L7.57601 7.632L6.10401 6.608C5.56001 6.224 4.80801 6.36 4.43201 6.896C4.04801 7.44 4.18401 8.184 4.72801 8.568L6.19201 9.6H4.40001C3.73601 9.6 3.20001 10.136 3.20001 10.8C3.20001 11.464 3.73601 12 4.40001 12H10.304C10.664 12 10.984 11.76 11.08 11.408L12.608 5.704C12.8 5 12.32 4.272 11.56 4.192ZM5.90401 7.928C5.71201 8.2 5.33601 8.264 5.07201 8.072C4.80801 7.88 4.72801 7.512 4.92001 7.24C5.11201 6.976 5.48801 6.904 5.76001 7.096C6.03201 7.288 6.09601 7.664 5.90401 7.928ZM7.88001 4.976C8.19201 4.864 8.53601 5.024 8.64801 5.336C8.76001 5.648 8.60001 5.992 8.28801 6.104C7.97601 6.216 7.63201 6.056 7.52001 5.744C7.40801 5.432 7.56801 5.088 7.88001 4.976ZM4.40001 11.4C4.07201 11.4 3.80001 11.128 3.80001 10.8C3.80001 10.472 4.07201 10.2 4.40001 10.2C4.72801 10.2 5.00001 10.472 5.00001 10.8C5.00001 11.128 4.72801 11.4 4.40001 11.4ZM12.032 5.544C11.944 5.864 11.616 6.056 11.296 5.968C10.976 5.88 10.784 5.552 10.872 5.232C10.96 4.912 11.288 4.72 11.608 4.808C11.928 4.896 12.112 5.224 12.032 5.544Z" fill="#E8EAED"/>
</svg>
