<svg width="16" height="16" viewBox="0 0 16 16" fill="none" xmlns="http://www.w3.org/2000/svg">
<path fill-rule="evenodd" clip-rule="evenodd" d="M12.1467 10.8133L14.7934 13.46L13.8534 14.4L11.0934 11.64L8.00002 14.0467L2.00002 9.38L3.08002 8.54L7.99335 12.36L10.14 10.6933L9.18669 9.74L8.00002 10.6667L3.08669 6.84667L2.00002 6L3.94002 4.49333L1.59335 2.14667L2.54002 1.20667L5.00002 3.66667L5.95335 4.62L9.29335 7.96L10.2467 8.91333L11.2 9.86666L12.1467 10.8133ZM4.17337 6L8.00004 8.98L8.24004 8.78667L4.89337 5.44L4.17337 6ZM13.2134 9.99333L14 9.37999L12.9134 8.53333L12.26 9.03999L13.2134 9.99333ZM11.8267 6L8.00005 3.02L7.01338 3.79333L6.06005 2.84L8.00005 1.33333L14 6L12.9067 6.84667L11.3067 8.09333L10.36 7.14L11.8267 6Z" fill="#E8EAED"/>
</svg>
