<svg width="16" height="16" viewBox="0 0 16 16" fill="none" xmlns="http://www.w3.org/2000/svg">
<path d="M6.4 9.864C6.98763 9.864 7.464 9.38763 7.464 8.8C7.464 8.21237 6.98763 7.736 6.4 7.736C5.81237 7.736 5.336 8.21237 5.336 8.8C5.336 9.38763 5.81237 9.864 6.4 9.864Z" fill="#E8EAED"/>
<path d="M3.20002 11.464V6.136H9.60002V9.6H10.664V6.136C10.664 5.85307 10.5522 5.58161 10.3529 5.38079C10.1536 5.17998 9.88294 5.06611 9.60002 5.064H9.06402V4C9.06402 3.29346 8.78335 2.61586 8.28375 2.11627C7.78415 1.61667 7.10655 1.336 6.40002 1.336C5.69348 1.336 5.01588 1.61667 4.51628 2.11627C4.01669 2.61586 3.73602 3.29346 3.73602 4V5.064H3.20002C2.91709 5.06611 2.64648 5.17998 2.44716 5.38079C2.24785 5.58161 2.13601 5.85307 2.13602 6.136V11.464C2.13601 11.7469 2.24785 12.0184 2.44716 12.2192C2.64648 12.42 2.91709 12.5339 3.20002 12.536H7.20002V11.464H3.20002ZM4.80002 4C4.80002 3.57565 4.96859 3.16869 5.26865 2.86863C5.5687 2.56857 5.97567 2.4 6.40002 2.4C6.82436 2.4 7.23133 2.56857 7.53139 2.86863C7.83145 3.16869 8.00002 3.57565 8.00002 4V5.064H4.80002V4Z" fill="#E8EAED"/>
<path fill-rule="evenodd" clip-rule="evenodd" d="M8.896 12.544L8.648 12.984L8.256 12.8L8.512 12.36H8V11.904H8.512L8.256 11.464L8.648 11.24L8.896 11.68L9.152 11.24L9.544 11.464L9.288 11.904H9.8V12.36H9.288L9.544 12.8L9.152 13.024L8.896 12.544ZM8.304 14.2V14.8H14.304V14.2H8.304ZM10.656 12.8L11.048 13.024L11.296 12.584L11.552 13.024L11.944 12.8L11.688 12.36H12.2V11.904H11.688L11.944 11.464L11.552 11.2L11.296 11.64L11.048 11.2L10.656 11.424L10.912 11.864H10.4V12.32H10.912L10.656 12.8ZM14.344 11.464L14.088 11.904H14.6V12.36H14.088L14.344 12.8L13.952 13.024L13.696 12.584L13.448 13.024L13.056 12.8L13.312 12.36H12.8V11.904H13.312L13.056 11.464L13.448 11.24L13.696 11.68L13.952 11.24L14.344 11.464Z" fill="#E8EAED"/>
</svg>
