<svg width="16" height="16" viewBox="0 0 16 16" fill="none" xmlns="http://www.w3.org/2000/svg">
<path fill-rule="evenodd" clip-rule="evenodd" d="M10.6667 12H3.99999V4H10.6667V4.66667H12V2C12 1.26667 11.4 0.666666 10.6667 0.666666L3.99999 0.673333C3.26666 0.673333 2.66666 1.26667 2.66666 2V14C2.66666 14.7333 3.26666 15.3333 3.99999 15.3333H10.6667C11.4 15.3333 12 14.7333 12 14V11.3333H10.6667V12ZM3.99991 2.00001H10.6666V2.66668H3.99991V2.00001ZM3.99991 13.3333V14H10.6666V13.3333H3.99991ZM13.8732 8.49334L13.3265 8.07334V7.92668L13.8599 7.50668C13.9665 7.42668 13.9932 7.28001 13.9265 7.16668L13.3599 6.18001C13.3132 6.09334 13.2199 6.04668 13.1265 6.04668C13.0932 6.04668 13.0599 6.05334 13.0265 6.06668L12.3932 6.32001L12.3773 6.31008C12.3353 6.28371 12.3142 6.27053 12.2665 6.24668L12.1665 5.57334C12.1465 5.43334 12.0332 5.33334 11.8999 5.33334H10.7599C10.6265 5.33334 10.5132 5.43334 10.4932 5.56001L10.3999 6.23334C10.3899 6.24001 10.3782 6.24501 10.3665 6.25001L10.3665 6.25001C10.3549 6.25501 10.3432 6.26001 10.3332 6.26668L10.2732 6.30668L9.63987 6.05334C9.60653 6.04001 9.5732 6.03334 9.53987 6.03334C9.44653 6.03334 9.35987 6.08001 9.30653 6.16668L8.73987 7.15334C8.6732 7.26668 8.69987 7.41334 8.80653 7.49334L9.33987 7.91334V8.06668L8.80653 8.48668C8.69987 8.56668 8.6732 8.71334 8.73987 8.82668L9.30653 9.81334C9.3532 9.90001 9.44653 9.94668 9.53987 9.94668C9.5732 9.94668 9.60653 9.94001 9.63987 9.92668L10.2732 9.68001C10.3265 9.71334 10.3532 9.72668 10.4065 9.75334L10.5065 10.4267C10.5265 10.56 10.6399 10.6533 10.7732 10.6533H11.9132C12.0465 10.6533 12.1599 10.5533 12.1799 10.4267L12.2799 9.75334C12.2899 9.74668 12.3015 9.74168 12.3132 9.73668C12.3249 9.73168 12.3365 9.72668 12.3465 9.72001L12.4065 9.68001L13.0399 9.93334C13.0732 9.94668 13.1065 9.95334 13.1399 9.95334C13.2332 9.95334 13.3199 9.90668 13.3732 9.82001L13.9399 8.83334C14.0065 8.72001 13.9799 8.57334 13.8732 8.49334ZM10.3332 8.00001C10.3332 8.55334 10.7799 9.00001 11.3332 9.00001C11.8866 9.00001 12.3332 8.55334 12.3332 8.00001C12.3332 7.44668 11.8866 7.00001 11.3332 7.00001C10.7799 7.00001 10.3332 7.44668 10.3332 8.00001Z" fill="#E8EAED"/>
</svg>
