<svg width="16" height="16" viewBox="0 0 16 16" fill="none" xmlns="http://www.w3.org/2000/svg">
<path fill-rule="evenodd" clip-rule="evenodd" d="M13.3333 2H2.66668C1.93334 2 1.33334 2.6 1.33334 3.33333V12.6667C1.33334 13.4 1.93334 14 2.66668 14H13.3333C14.0667 14 14.6667 13.4 14.6667 12.6667V3.33333C14.6667 2.6 14.0667 2 13.3333 2ZM13.3333 12.6667H2.66668V3.33333H13.3333V12.6667Z" fill="#E8EAED"/>
<path fill-rule="evenodd" clip-rule="evenodd" d="M12.94 6.94667L11.9933 6L9.88001 8.11333L8.94001 7.16667L8.00001 8.10667L9.88001 10L12.94 6.94667Z" fill="#E8EAED"/>
<path d="M6.66668 4.66667H3.33334V6H6.66668V4.66667Z" fill="#E8EAED"/>
<path d="M6.66668 7.33333H3.33334V8.66667H6.66668V7.33333Z" fill="#E8EAED"/>
<path d="M6.66668 10H3.33334V11.3333H6.66668V10Z" fill="#E8EAED"/>
</svg>
