<svg width="16" height="16" viewBox="0 0 16 16" fill="none" xmlns="http://www.w3.org/2000/svg">
<path fill-rule="evenodd" clip-rule="evenodd" d="M12.06 10.6067L13 9.66667L15.3333 12L13 14.3333L12.06 13.3933L12.7867 12.6667H7.88001C7.60001 13.44 6.86668 14 6.00001 14C5.13334 14 4.40001 13.44 4.12001 12.6667H3.33334C2.23334 12.6667 1.33334 11.7667 1.33334 10.6667V6.66667H5.33334V4.66667H1.33334V3.33334H10C10.7333 3.33334 11.3333 3.93334 11.3333 4.66667V11.3333H12.78L12.06 10.6067ZM10 4.66667H6.66668V6.66667H10V4.66667ZM6.00001 12.6667C5.63334 12.6667 5.33334 12.3667 5.33334 12C5.33334 11.6333 5.63334 11.3333 6.00001 11.3333C6.36668 11.3333 6.66668 11.6333 6.66668 12C6.66668 12.3667 6.36668 12.6667 6.00001 12.6667ZM4.12001 11.3333C4.40001 10.56 5.13334 10 6.00001 10C6.86668 10 7.60001 10.56 7.88001 11.3333H10V8H2.66668V10.6667C2.66668 11.0333 2.96668 11.3333 3.33334 11.3333H4.12001Z" fill="#E8EAED"/>
</svg>
