<svg width="20" height="20" viewBox="0 0 20 20" fill="none" xmlns="http://www.w3.org/2000/svg">
<path d="M12 10.88L11 11.88L9.74 10.62L9.12 11.24L10.38 12.5L9.38 13.5H12V10.88ZM12 9.12V6.5H9.38L10.38 7.5L8.32 9.56H5V10.44H8.68L11 8.12L12 9.12Z" fill="#E8EAED"/>
<path d="M3.33 15V5H16.67V11H18.33V5C18.33 4.55882 18.1554 4.13555 17.8444 3.82265C17.5334 3.50975 17.1112 3.33264 16.67 3.33H3.33C2.88882 3.33264 2.46662 3.50975 2.15559 3.82265C1.84456 4.13555 1.66999 4.55882 1.67 5V15C1.66999 15.4412 1.84456 15.8644 2.15559 16.1773C2.46662 16.4902 2.88882 16.6674 3.33 16.67H12V15H3.33Z" fill="#E8EAED"/>
<path d="M14.44 13.25H17.83V16.64H16.62V15.3L14.84 17.06L14 16.22L15.76 14.45H14.42L14.44 13.25Z" fill="#E8EAED"/>
</svg>
