<?xml version="1.0" encoding="UTF-8"?>
<svg width="40px" height="40px" viewBox="0 0 40 40" version="1.1" xmlns="http://www.w3.org/2000/svg" xmlns:xlink="http://www.w3.org/1999/xlink">
    <title>Github</title>
    <g id="Github" stroke="none" stroke-width="1" fill="none" fill-rule="evenodd">
        <path d="M8,20.0003683 C8,25.3021885 11.4380429,29.7995641 16.2065134,31.3863532 C16.8069002,31.4968538 17.0256914,31.1263084 17.0256914,30.8080665 C17.0256914,30.5237116 17.015378,29.768624 17.0094846,28.7674883 C13.671629,29.4923724 12.9673716,27.1585991 12.9673716,27.1585991 C12.4214985,25.7721845 11.634734,25.4031124 11.634734,25.4031124 C10.5451978,24.6590749 11.7172412,24.6738083 11.7172412,24.6738083 C12.921698,24.7585254 13.555235,25.9106787 13.555235,25.9106787 C14.6256177,27.7442524 16.364161,27.2145861 17.0477915,26.9073943 C17.1568188,26.1324166 17.4669572,25.6034869 17.8095092,25.3036619 C15.1449707,25.0008901 12.3434114,23.9710243 12.3434114,19.3727248 C12.3434114,18.062924 12.8111974,16.9910679 13.5788084,16.1527364 C13.4550477,15.849228 13.0432487,14.6285644 13.6966758,12.9769483 C13.6966758,12.9769483 14.7037048,12.6542865 16.9962246,14.2071887 C17.95316,13.9405138 18.9800792,13.8079131 20.0003683,13.8027564 C21.0199208,13.8079131 22.0461033,13.9405138 23.0045121,14.2071887 C25.2955585,12.6542865 26.3011142,12.9769483 26.3011142,12.9769483 C26.9560146,14.6285644 26.5442156,15.849228 26.4211916,16.1527364 C27.1902759,16.9910679 27.6543786,18.062924 27.6543786,19.3727248 C27.6543786,23.982811 24.8483993,24.9972068 22.1757574,25.2940851 C22.6059732,25.6646306 22.9897787,26.3968814 22.9897787,27.5166211 C22.9897787,29.1203536 22.9750453,30.4146843 22.9750453,30.8080665 C22.9750453,31.129255 23.1916265,31.5027472 23.8001166,31.3856165 C28.5649038,29.7951441 32,25.3007152 32,20.0003683 C32,13.3725406 26.6267227,8 19.998895,8 C13.3732773,8 8,13.3725406 8,20.0003683 Z" id="Fill-4" fill="#ffffff"></path>
    </g>
</svg>