<svg width="20" height="20" viewBox="0 0 20 20" fill="none" xmlns="http://www.w3.org/2000/svg">
<path d="M3.70202 13.7619L3.68952 13.7835L3.71117 13.796L4.28619 14.128L4.30784 14.1405L4.32034 14.1189L4.54776 13.725H4.59909L10.2414 16.9827L10.2631 16.9952L10.2756 16.9735L10.5722 16.4598L15.3089 13.725H15.4536L15.6811 14.119L15.6936 14.1407L15.7153 14.1282L16.2903 13.7962L16.3119 13.7837L16.2994 13.762L16.1926 13.577H16.404H16.429V13.552V12.888V12.863H16.404H15.925V7.18761L16.1746 6.75535L16.1871 6.7337L16.1654 6.7212L15.925 6.58239V6.3V6.275H15.9H15.3926L10.5318 3.46854L10.5007 3.41456L10.7263 3.0237L10.7388 3.00205L10.7172 2.98955L10.1422 2.65755L10.1205 2.64505L10.108 2.6667L10.0007 2.8526L9.89343 2.66683L9.88093 2.64517L9.85928 2.65767L9.28426 2.98967L9.26261 3.00217L9.27511 3.02383L9.50088 3.41487L9.47282 3.46347L4.60326 6.275H4.1H4.075V6.3V6.57999L3.83483 6.71866L3.81318 6.73116L3.82568 6.75281L4.075 7.18464V12.8136L4.04647 12.863H3.592H3.567V12.888V13.552V13.577H3.592H3.80877L3.70202 13.7619ZM10.038 16.0408L5.7707 13.577H14.3053L10.038 16.0408ZM15.211 6.99459V11.8769L10.9826 4.55323L15.211 6.99459ZM4.789 6.9922L9.02155 4.54847L4.789 11.8792V6.9922ZM14.9559 12.863H5.04545L10.0007 4.28053L14.9559 12.863Z" fill="#E8EAED" stroke="#E8EAED" stroke-width="0.05"/>
<path d="M16.78 13.916C16.396 14.584 15.54 14.812 14.872 14.428C14.204 14.044 13.976 13.188 14.36 12.52C14.744 11.852 15.6 11.624 16.268 12.008C16.94 12.396 17.168 13.248 16.78 13.916Z" fill="#E8EAED"/>
<path d="M5.63604 7.48002C5.25204 8.14802 4.39604 8.37602 3.72804 7.99202C3.06004 7.60802 2.83204 6.75202 3.21604 6.08402C3.60004 5.41602 4.45604 5.18802 5.12404 5.57202C5.79204 5.96002 6.02004 6.81202 5.63604 7.48002Z" fill="#E8EAED"/>
<path d="M3.22005 13.916C2.83605 13.248 3.06405 12.396 3.73205 12.008C4.40005 11.624 5.25205 11.852 5.64005 12.52C6.02405 13.188 5.79605 14.04 5.12805 14.428C4.45605 14.812 3.60405 14.584 3.22005 13.916Z" fill="#E8EAED"/>
<path d="M14.364 7.48002C13.98 6.81202 14.208 5.96002 14.876 5.57202C15.544 5.18802 16.396 5.41602 16.784 6.08402C17.168 6.75202 16.94 7.60402 16.272 7.99202C15.604 8.37602 14.748 8.14802 14.364 7.48002Z" fill="#E8EAED"/>
<path d="M10 17.832C9.228 17.832 8.604 17.208 8.604 16.436C8.604 15.664 9.228 15.04 10 15.04C10.772 15.04 11.396 15.664 11.396 16.436C11.396 17.204 10.772 17.832 10 17.832Z" fill="#E8EAED"/>
<path d="M10 4.96003C9.228 4.96003 8.604 4.33603 8.604 3.56403C8.604 2.79203 9.228 2.16803 10 2.16803C10.772 2.16803 11.396 2.79203 11.396 3.56403C11.396 4.33603 10.772 4.96003 10 4.96003Z" fill="#E8EAED"/>
</svg>
