<svg width="20" height="20" viewBox="0 0 20 20" fill="none" xmlns="http://www.w3.org/2000/svg">
<path d="M16.67 3.33H3.33C2.88882 3.33264 2.46662 3.50976 2.15559 3.82266C1.84456 4.13556 1.66999 4.55882 1.67 5V15C1.66999 15.4412 1.84456 15.8644 2.15559 16.1773C2.46662 16.4902 2.88882 16.6674 3.33 16.67H12V15H3.33V5H16.67V11H18.33V5C18.33 4.55882 18.1554 4.13556 17.8444 3.82266C17.5334 3.50976 17.1112 3.33264 16.67 3.33V3.33Z" fill="#E8EAED"/>
<path d="M14.42 14.45H15.76L14 16.22L14.84 17.06L16.62 15.3V16.64H17.83V13.25H14.44L14.42 14.45Z" fill="#E8EAED"/>
<path d="M9.83333 10L9 10.8333L8.16666 10L9 9.16667L9.83333 10ZM9 7.5L9.88333 8.38333L10.925 7.34167L9 5.41667L7.075 7.34167L8.11666 8.38333L9 7.5ZM6.5 10L7.38333 9.11667L6.34166 8.075L4.41666 10L6.34166 11.925L7.38333 10.8833L6.5 10ZM11.5 10L10.6167 10.8833L11.6583 11.925L13.5833 10L11.6583 8.075L10.6167 9.11667L11.5 10ZM9 12.5L8.11666 11.6167L7.075 12.6583L9 14.5833L10.925 12.6583L9.88333 11.6167L9 12.5Z" fill="#E8EAED"/>
</svg>
