<svg width="16" height="16" viewBox="0 0 16 16" fill="none" xmlns="http://www.w3.org/2000/svg">
<path fill-rule="evenodd" clip-rule="evenodd" d="M3.33333 13.3333V3.33333H4.66667V5.33333H10V3.33333H11.3333V7.33333H12.6667V3.33333C12.6667 2.6 12.0667 2 11.3333 2H9.21333C8.93333 1.22666 8.2 0.666664 7.33333 0.666664C6.46667 0.666664 5.73333 1.22666 5.45333 2H3.33333C2.6 2 2 2.6 2 3.33333V13.3333C2 14.0667 2.6 14.6667 3.33333 14.6667H6.66667V13.3333H3.33333ZM7.33333 2C7.7 2 8 2.3 8 2.66666C8 3.03333 7.7 3.33333 7.33333 3.33333C6.96667 3.33333 6.66667 3.03333 6.66667 2.66666C6.66667 2.3 6.96667 2 7.33333 2ZM14.3333 9.33333L13.3333 8.33333L9.67333 12L7.66667 10L6.66667 11L9.67333 14L14.3333 9.33333Z" fill="#E8EAED"/>
</svg>
