<svg width="16" height="16" viewBox="0 0 16 16" fill="none" xmlns="http://www.w3.org/2000/svg">
<path d="M13.3333 1.33334H2.66668C2.00001 1.33334 1.33334 1.93334 1.33334 2.66667V4.67334C1.33334 5.15334 1.62001 5.56667 2.00001 5.8V13.3333C2.00001 14.0667 2.73334 14.6667 3.33334 14.6667H12.6667C13.2667 14.6667 14 14.0667 14 13.3333V5.8C14.38 5.56667 14.6667 5.15334 14.6667 4.67334V2.66667C14.6667 1.93334 14 1.33334 13.3333 1.33334ZM12.6667 13.3333H3.33334V6H12.6667V13.3333ZM13.3333 4.66667H2.66668V2.66667H13.3333V4.66667Z" fill="#E8EAED"/>
<path d="M10 7.99999H6.00003V9.33333H10V7.99999Z" fill="#E8EAED"/>
</svg>
