<svg width="20" height="20" viewBox="0 0 20 20" fill="none" xmlns="http://www.w3.org/2000/svg">
<path d="M16.9806 13.2444C17.1769 12.8874 17.2738 12.4655 17.2738 11.981C17.2738 11.3923 17.1464 10.9072 16.8866 10.5306C16.6388 10.1503 16.3157 9.84503 15.918 9.6152C15.5334 9.38794 15.1397 9.20853 14.7369 9.07714C14.7367 9.07708 14.7366 9.07702 14.7364 9.07696L14.1395 8.86933L14.1393 8.86927C13.6134 8.68822 13.217 8.49567 12.9468 8.293C12.6841 8.09599 12.5548 7.84055 12.5548 7.522C12.5548 7.1864 12.6925 6.91809 12.9723 6.71234L12.9725 6.71216C13.2645 6.4953 13.6113 6.386 14.0158 6.386C14.3291 6.386 14.587 6.44529 14.7924 6.56035L14.7924 6.56041L14.7949 6.56167C15.0126 6.67052 15.1823 6.8118 15.3059 6.98487L15.3059 6.98493L15.3079 6.98748C15.4428 7.15613 15.5339 7.32274 15.5833 7.48724L15.6025 7.55139L15.6642 7.52523L16.9512 6.97923L17.0022 6.95759L16.9847 6.90503C16.8952 6.63664 16.7309 6.35341 16.4943 6.05544C16.2626 5.74381 15.9389 5.48301 15.5257 5.27192C15.116 5.04944 14.6074 4.94 14.0028 4.94C13.414 4.94 12.8928 5.05867 12.4409 5.29787C11.9989 5.52774 11.6486 5.84232 11.3913 6.2415L11.3911 6.24179C11.1422 6.63291 11.0178 7.06445 11.0178 7.535C11.0178 8.02983 11.1327 8.45364 11.3658 8.80328L11.3662 8.80388C11.5961 9.13989 11.8837 9.41853 12.2284 9.63951L12.2284 9.63954L12.2299 9.64045C12.5795 9.85022 12.9254 10.0167 13.2675 10.1395L13.2677 10.1395L13.8523 10.3474C13.8523 10.3474 13.8524 10.3474 13.8525 10.3475C14.5176 10.5893 14.9951 10.8335 15.2905 11.0782L15.2913 11.0789C15.5796 11.3095 15.7238 11.6169 15.7238 12.007C15.7238 12.2903 15.6491 12.5283 15.5021 12.7245C15.3534 12.9144 15.1545 13.0599 14.9035 13.1603L14.9028 13.1606C14.6594 13.2613 14.3942 13.312 14.1068 13.312C13.6011 13.312 13.1832 13.1483 12.8487 12.822C12.5102 12.492 12.2727 12.0813 12.1366 11.588L12.1187 11.5232L12.0563 11.5484L10.7043 12.0944L10.6539 12.1147L10.6692 12.1668C10.8359 12.7374 11.0912 13.2179 11.4359 13.6068L11.4364 13.6074C11.7884 13.9946 12.1938 14.29 12.6525 14.4929L12.6534 14.4933C13.1115 14.6871 13.5918 14.784 14.0938 14.784C14.4553 14.784 14.8206 14.7267 15.1897 14.6126C15.5685 14.5068 15.9126 14.3435 16.2216 14.1228L16.2219 14.1226C16.5414 13.8919 16.7944 13.5989 16.9806 13.2444ZM16.9806 13.2444C16.9807 13.2443 16.9808 13.2441 16.9809 13.2439L16.9278 13.216L16.9803 13.2449C16.9804 13.2448 16.9805 13.2446 16.9806 13.2444ZM3.58238 14.2003L3.58328 14.2009C4.13144 14.5899 4.76342 14.784 5.477 14.784C6.04037 14.784 6.54851 14.6651 7.00007 14.426L7.00008 14.426L7.00088 14.4256C7.45326 14.1772 7.80797 13.8178 8.06456 13.3489C8.33058 12.87 8.462 12.2875 8.462 11.604V5.208V5.148H8.402H6.972H6.912V5.208V11.656C6.912 12.1655 6.78056 12.5664 6.52353 12.8648C6.26766 13.162 5.92113 13.312 5.477 13.312C5.11701 13.312 4.79596 13.2077 4.51189 12.9989C4.2398 12.7926 4.02866 12.4506 3.8835 11.9639L3.86453 11.9002L3.80316 11.9255L2.47716 12.4715L2.42634 12.4924L2.44273 12.5449C2.66278 13.2491 3.04237 13.8019 3.58238 14.2003Z" fill="#E8EAED" stroke="#E8EAED" stroke-width="0.12"/>
</svg>
