<svg width="20" height="20" viewBox="0 0 20 20" fill="none" xmlns="http://www.w3.org/2000/svg">
<path fill-rule="evenodd" clip-rule="evenodd" d="M3.33334 2.5H16.6667C17.5917 2.5 18.3333 3.24167 18.3333 4.16667V6.66667C18.3333 7.59167 17.5917 8.33333 16.6667 8.33333H15V10.8333C15 12.675 13.5083 14.1667 11.6667 14.1667H6.66667C4.825 14.1667 3.33334 12.675 3.33334 10.8333V2.5ZM13.3333 10.8333V4.16667H5V10.8333C5 11.75 5.75 12.5 6.66667 12.5H11.6667C12.5833 12.5 13.3333 11.75 13.3333 10.8333ZM15 6.66667V4.16667H16.6667V6.66667H15ZM3.33334 15.8333H16.6667V17.5H3.33334V15.8333Z" fill="#E8EAED"/>
</svg>
