<svg width="16" height="16" viewBox="0 0 16 16" fill="none" xmlns="http://www.w3.org/2000/svg">
<path fill-rule="evenodd" clip-rule="evenodd" d="M1.33334 8C1.33334 4.32 4.31334 1.33334 7.99334 1.33334C11.68 1.33334 14.6667 4.32 14.6667 8C14.6667 11.68 11.68 14.6667 7.99334 14.6667C4.31334 14.6667 1.33334 11.68 1.33334 8ZM10.6467 5.33334H12.6133C11.9733 4.23334 10.9533 3.38 9.72668 2.96C10.1267 3.7 10.4333 4.5 10.6467 5.33334ZM8.00001 2.69334C8.55334 3.49334 8.98668 4.38 9.27334 5.33334H6.72668C7.01334 4.38 7.44668 3.49334 8.00001 2.69334ZM2.66668 8C2.66668 8.46 2.73334 8.90667 2.84001 9.33334H5.09334C5.04001 8.89334 5.00001 8.45334 5.00001 8C5.00001 7.54667 5.04001 7.10667 5.09334 6.66667H2.84001C2.73334 7.09334 2.66668 7.54 2.66668 8ZM3.38668 10.6667H5.35334C5.56668 11.5 5.87334 12.3 6.27334 13.04C5.04668 12.62 4.02668 11.7733 3.38668 10.6667ZM3.38668 5.33334H5.35334C5.56668 4.5 5.87334 3.7 6.27334 2.96C5.04668 3.38 4.02668 4.22667 3.38668 5.33334ZM8.00001 13.3067C7.44668 12.5067 7.01334 11.62 6.72668 10.6667H9.27334C8.98668 11.62 8.55334 12.5067 8.00001 13.3067ZM6.33334 8C6.33334 8.45334 6.38001 8.89334 6.44001 9.33334H9.56001C9.62001 8.89334 9.66668 8.45334 9.66668 8C9.66668 7.54667 9.62001 7.1 9.56001 6.66667H6.44001C6.38001 7.1 6.33334 7.54667 6.33334 8ZM9.72668 13.04C10.1267 12.3 10.4333 11.5 10.6467 10.6667H12.6133C11.9733 11.7667 10.9533 12.62 9.72668 13.04ZM11 8C11 8.45334 10.96 8.89334 10.9067 9.33334H13.16C13.2667 8.90667 13.3333 8.46 13.3333 8C13.3333 7.54 13.2667 7.09334 13.16 6.66667H10.9067C10.96 7.10667 11 7.54667 11 8Z" fill="#E8EAED"/>
</svg>
