<svg width="20" height="20" viewBox="0 0 20 20" fill="none" xmlns="http://www.w3.org/2000/svg">
<path fill-rule="evenodd" clip-rule="evenodd" d="M1.66667 10C1.66667 5.4 5.40001 1.66666 10 1.66666C14.6 1.66666 18.3333 5.4 18.3333 10V11.1917C18.3333 12.8333 17.0583 14.1667 15.4167 14.1667C14.425 14.1667 13.4917 13.6833 12.95 12.9417C12.2 13.7 11.15 14.1667 10 14.1667C7.7 14.1667 5.83334 12.3 5.83334 10C5.83334 7.7 7.7 5.83333 10 5.83333C12.3 5.83333 14.1667 7.7 14.1667 10V11.1917C14.1667 11.85 14.7583 12.5 15.4167 12.5C16.075 12.5 16.6667 11.85 16.6667 11.1917V10C16.6667 6.38333 13.6167 3.33333 10 3.33333C6.38334 3.33333 3.33334 6.38333 3.33334 10C3.33334 13.6167 6.38334 16.6667 10 16.6667H14.1667V18.3333H10C5.40001 18.3333 1.66667 14.6 1.66667 10ZM7.5 10C7.5 11.3833 8.61667 12.5 10 12.5C11.3833 12.5 12.5 11.3833 12.5 10C12.5 8.61666 11.3833 7.5 10 7.5C8.61667 7.5 7.5 8.61666 7.5 10Z" fill="#E8EAED"/>
</svg>
