<svg width="16" height="16" viewBox="0 0 16 16" fill="none" xmlns="http://www.w3.org/2000/svg">
<path fill-rule="evenodd" clip-rule="evenodd" d="M2 4C2 3.44667 2.44667 3 3 3C3.55333 3 4 3.44667 4 4C4 4.55333 3.55333 5 3 5C2.44667 5 2 4.55333 2 4ZM2 8C2 7.44667 2.44667 7 3 7C3.55333 7 4 7.44667 4 8C4 8.55333 3.55333 9 3 9C2.44667 9 2 8.55333 2 8ZM3 11C2.44667 11 2 11.4533 2 12C2 12.5467 2.45333 13 3 13C3.54667 13 4 12.5467 4 12C4 11.4533 3.55333 11 3 11ZM14 12.6667H5.33333V11.3333H14V12.6667ZM5.33333 8.66667H14V7.33333H5.33333V8.66667ZM5.33333 4.66667V3.33333H14V4.66667H5.33333Z" fill="#E8EAED"/>
</svg>
