<svg width="16" height="16" viewBox="0 0 16 16" fill="none" xmlns="http://www.w3.org/2000/svg">
<path fill-rule="evenodd" clip-rule="evenodd" d="M3.99999 9.33333C4.73332 9.33333 5.33332 8.73333 5.33332 8C5.33332 7.26667 4.73332 6.66667 3.99999 6.66667C3.26666 6.66667 2.66666 7.26667 2.66666 8C2.66666 8.73333 3.26666 9.33333 3.99999 9.33333V9.33333ZM7.99997 6.66668C7.26664 6.66668 6.66664 7.26668 6.66664 8.00001C6.66664 8.73334 7.26664 9.33334 7.99997 9.33334C8.7333 9.33334 9.3333 8.73334 9.3333 8.00001C9.3333 7.26668 8.7333 6.66668 7.99997 6.66668V6.66668ZM12 6.66668C11.2666 6.66668 10.6666 7.26668 10.6666 8.00001C10.6666 8.73334 11.2666 9.33334 12 9.33334C12.7333 9.33334 13.3333 8.73334 13.3333 8.00001C13.3333 7.26668 12.7333 6.66668 12 6.66668V6.66668Z" fill="#E8EAED"/>
</svg>
