<svg width="20" height="20" viewBox="0 0 20 20" fill="none" xmlns="http://www.w3.org/2000/svg">
<path fill-rule="evenodd" clip-rule="evenodd" d="M14.1667 6.66667H15C15.9167 6.66667 16.6667 7.41667 16.6667 8.33334V16.6667C16.6667 17.5833 15.9167 18.3333 15 18.3333H4.99999C4.08333 18.3333 3.33333 17.5833 3.33333 16.6667V8.33334C3.33333 7.41667 4.08333 6.66667 4.99999 6.66667H5.83333V5C5.83333 2.7 7.69999 0.833336 9.99999 0.833336C12.3 0.833336 14.1667 2.7 14.1667 5V6.66667ZM9.99999 2.5C8.61666 2.5 7.49999 3.61667 7.49999 5V6.66667H12.5V5C12.5 3.61667 11.3833 2.5 9.99999 2.5ZM4.99999 16.6667V8.33334H15V16.6667H4.99999ZM11.6667 12.5C11.6667 13.4167 10.9167 14.1667 9.99999 14.1667C9.08333 14.1667 8.33333 13.4167 8.33333 12.5C8.33333 11.5833 9.08333 10.8333 9.99999 10.8333C10.9167 10.8333 11.6667 11.5833 11.6667 12.5Z" fill="#E8EAED"/>
</svg>
