<?xml version="1.0" encoding="utf-8"?>
<!-- Generator: Adobe Illustrator 27.4.1, SVG Export Plug-In . SVG Version: 6.00 Build 0)  -->
<svg version="1.1" xmlns="http://www.w3.org/2000/svg" xmlns:xlink="http://www.w3.org/1999/xlink" x="0px" y="0px" width="20px"
	 height="20px" viewBox="0 0 20 20" enable-background="new 0 0 20 20" xml:space="preserve">
<g id="Bounding_Box">
	<rect fill="none" width="20" height="20"/>
</g>
<g id="Source">
	<g>
		<path d="M17.56,4.5L16.5,3.44c-0.59-0.59-1.54-0.59-2.12,0L4,13.82V17h3.18L17.56,6.62C18.15,6.04,18.15,5.09,17.56,4.5z
			 M6.56,15.5H5.5v-1.06l7.82-7.82l1.06,1.06L6.56,15.5z" fill="#E8EAED" />
		<path d="M10,5.5C7.51,5.5,5.5,3.49,5.5,1c0,2.49-2.01,4.5-4.5,4.5c2.49,0,4.5,2.01,4.5,4.5C5.5,7.51,7.51,5.5,10,5.5z" fill="#E8EAED" />
	</g>
</g>
</svg>
