<svg width="19" height="18" viewBox="0 0 19 18" fill="none" xmlns="http://www.w3.org/2000/svg">
<g clip-path="url(#clip0)">
<path fill-rule="evenodd" clip-rule="evenodd" d="M0.281769 2.88417L9.06199 0.386749L17.8422 2.88417L9.06199 5.38159L0.281769 2.88417Z" fill="#C5C5C5"/>
<path fill-rule="evenodd" clip-rule="evenodd" d="M0.281769 3.84053V13.0043L8.46248 17.4492L8.50298 6.23885L0.281769 3.84053Z" fill="#C5C5C5"/>
<path fill-rule="evenodd" clip-rule="evenodd" d="M17.8422 3.84053V13.0043L9.66148 17.4492L9.62099 6.23885L17.8422 3.84053Z" fill="#C5C5C5"/>
<circle cx="13.85" cy="13.25" r="3.75" fill="#C4C4C4" stroke="#C5C5C5" stroke-width="0.5"/>
<path d="M11.7451 10.1405C12.306 9.76061 12.9219 9.55069 13.593 9.51071C14.264 9.46073 14.9 9.58567 15.501 9.88555C16.112 10.1754 16.6027 10.6003 16.9733 11.1601C17.3439 11.7198 17.5492 12.3346 17.5893 13.0043C17.6394 13.674 17.5142 14.3138 17.2137 14.9235C16.9132 15.5233 16.4775 16.0081 15.9066 16.378C15.3457 16.7478 14.7348 16.9527 14.0738 16.9927C13.4127 17.0327 12.7817 16.9078 12.1808 16.6179C11.5898 16.318 11.1041 15.8882 10.7235 15.3284C10.3529 14.7686 10.1476 14.1589 10.1075 13.4991C10.0675 12.8394 10.1876 12.2096 10.4681 11.6099C10.7585 11.0101 11.1842 10.5203 11.7451 10.1405ZM13.7432 14.8186L15.9818 11.8348L15.2306 11.28L13.2925 13.874L12.0606 12.8994L11.4747 13.6191L13.0822 14.9086L13.7432 14.8186Z" fill="#32CD32"/>
</g>
<defs>
<clipPath id="clip0">
<rect width="18.0353" height="17.5004" fill="white"/>
</clipPath>
</defs>
</svg>
