<svg width="20" height="20" viewBox="0 0 20 20" fill="none" xmlns="http://www.w3.org/2000/svg">
<path d="M2.94 15.308V15.368H3H4.43H4.49V15.308V11.754H6.198C6.76991 11.754 7.2907 11.6351 7.75924 11.3965L7.75924 11.3965L7.76003 11.3961C8.22827 11.1487 8.6002 10.8079 8.87466 10.3742C9.15867 9.9303 9.3 9.42059 9.3 8.847C9.3 8.27351 9.15871 7.76796 8.87447 7.33256C8.60004 6.89891 8.22816 6.55826 7.76003 6.31095C7.29134 6.06334 6.77026 5.94 6.198 5.94H3H2.94V6V15.308ZM7.57555 9.54586L7.57517 9.54655C7.45926 9.76182 7.28934 9.94059 7.06372 10.0828C6.8411 10.2145 6.56649 10.282 6.237 10.282H4.49V7.412H6.237C6.56621 7.412 6.84054 7.48368 7.06303 7.62377C7.28899 7.76605 7.45914 7.94496 7.57517 8.16045L7.57515 8.16046L7.57603 8.16198C7.70096 8.37853 7.763 8.60657 7.763 8.847C7.763 9.08747 7.70093 9.32018 7.57555 9.54586ZM13.5805 15.308V15.368H13.6405H15.0575H15.1175V15.308V11.0091L18.2025 6.03161L18.2593 5.94H18.1515H16.4485H16.4142L16.3968 5.96955L14.3472 9.45H14.3374L12.2359 5.96899L12.2184 5.94H12.1845H10.4945H10.3858L10.4437 6.03199L13.5805 11.0093V15.308Z" fill="#E8EAED" stroke="#E8EAED" stroke-width="0.12"/>
</svg>
