<svg width="16" height="16" viewBox="0 0 16 16" fill="none" xmlns="http://www.w3.org/2000/svg">
<path fill-rule="evenodd" clip-rule="evenodd" d="M11.76 4.23333C10.7933 3.26666 9.46666 2.66666 7.99332 2.66666C5.04666 2.66666 2.66666 5.05333 2.66666 8C2.66666 10.9467 5.04666 13.3333 7.99332 13.3333C10.48 13.3333 12.5533 11.6333 13.1467 9.33333H11.76C11.2133 10.8867 9.73332 12 7.99332 12C5.78666 12 3.99332 10.2067 3.99332 8C3.99332 5.79333 5.78666 4 7.99332 4C9.09999 4 10.0867 4.46 10.8067 5.18666L8.65999 7.33333H13.3267V2.66666L11.76 4.23333V4.23333Z" fill="#E8EAED"/>
</svg>
