<svg width="20" height="20" viewBox="0 0 20 20" fill="none" xmlns="http://www.w3.org/2000/svg">
<path fill-rule="evenodd" clip-rule="evenodd" d="M10 4.16667C13.6833 4.16667 16.6667 7.15 16.6667 10.8333C16.6667 14.2333 14.125 17.0333 10.8333 17.4417V15.7583C13.1917 15.3583 15 13.3083 15 10.8333C15 8.075 12.7583 5.83333 10 5.83333C9.98012 5.83333 9.95834 5.83523 9.93556 5.83721C9.91061 5.83939 9.88447 5.84167 9.85834 5.84167L10.7583 6.74167L9.58334 7.91667L6.66667 5L9.58334 2.08333L10.7583 3.26667L9.85 4.175C9.875 4.175 9.9 4.17292 9.925 4.17083C9.95 4.16875 9.975 4.16667 10 4.16667ZM6.46667 7.3C5.55834 8.20833 5 9.45833 5 10.8333C5 13.3083 6.80834 15.3583 9.16667 15.7583V17.4417C5.875 17.0333 3.33334 14.2333 3.33334 10.8333C3.33334 8.99167 4.08334 7.325 5.28334 6.11667L6.46667 7.3Z" fill="#E8EAED"/>
</svg>
