<svg width="20" height="20" viewBox="0 0 20 20" fill="none" xmlns="http://www.w3.org/2000/svg">
<path fill-rule="evenodd" clip-rule="evenodd" d="M12.35 2.49999H15.8333C16.75 2.49999 17.5 3.24999 17.5 4.16666V15.8333C17.5 16.75 16.75 17.5 15.8333 17.5H4.16667C4.05 17.5 3.94167 17.4917 3.83333 17.475C3.50833 17.4083 3.21667 17.2417 2.99167 17.0167C2.84167 16.8583 2.71667 16.6833 2.63333 16.4833C2.55 16.2833 2.5 16.0583 2.5 15.8333V4.16666C2.5 3.93333 2.55 3.71666 2.63333 3.52499C2.71667 3.32499 2.84167 3.14166 2.99167 2.99166C3.21667 2.76666 3.50833 2.59999 3.83333 2.53333C3.94167 2.50833 4.05 2.49999 4.16667 2.49999H7.65C8 1.53333 8.91667 0.833328 10 0.833328C11.0833 0.833328 12 1.53333 12.35 2.49999ZM10.625 2.91666C10.625 2.57499 10.3417 2.29166 10 2.29166C9.65833 2.29166 9.375 2.57499 9.375 2.91666C9.375 3.25833 9.65833 3.54166 10 3.54166C10.3417 3.54166 10.625 3.25833 10.625 2.91666ZM4.16667 15.8333V4.16666H15.8333V15.8333H4.16667ZM6.66667 9.99999L10 13.3333L11.175 12.1583L9.85833 10.8333H13.3333V9.16666H9.85833L11.175 7.84166L10 6.66666L6.66667 9.99999Z" fill="#E8EAED"/>
</svg>
