<svg width="16" height="16" viewBox="0 0 16 16" fill="none" xmlns="http://www.w3.org/2000/svg">
<path fill-rule="evenodd" clip-rule="evenodd" d="M7.99999 3.33333C10.9467 3.33333 13.3333 5.72 13.3333 8.66667C13.3333 11.3867 11.3 13.6267 8.66666 13.9533V12.6067C10.5533 12.2867 12 10.6467 12 8.66667C12 6.46 10.2067 4.66667 7.99999 4.66667C7.98408 4.66667 7.96666 4.66818 7.94844 4.66977C7.92848 4.67151 7.90757 4.67333 7.88666 4.67333L8.60666 5.39333L7.66666 6.33333L5.33332 4L7.66666 1.66667L8.60666 2.61333L7.87999 3.34C7.89999 3.34 7.91999 3.33833 7.93999 3.33667C7.95999 3.335 7.97999 3.33333 7.99999 3.33333ZM5.17332 5.84C4.44666 6.56667 3.99999 7.56667 3.99999 8.66667C3.99999 10.6467 5.44666 12.2867 7.33332 12.6067V13.9533C4.69999 13.6267 2.66666 11.3867 2.66666 8.66667C2.66666 7.19333 3.26666 5.86 4.22666 4.89333L5.17332 5.84Z" fill="#E8EAED"/>
</svg>
