<svg width="16" height="16" viewBox="0 0 16 16" fill="none" xmlns="http://www.w3.org/2000/svg">
<path fill-rule="evenodd" clip-rule="evenodd" d="M12.7619 7.99999C12.7619 7.43061 12.662 6.88457 12.4787 6.37845L13.922 4.93518C14.3978 5.85276 14.6667 6.89499 14.6667 8C14.6667 11.6819 11.6819 14.6667 8.00001 14.6667C4.31811 14.6667 1.33334 11.6819 1.33334 8C1.33334 4.31809 4.31811 1.33333 8.00001 1.33333C9.84097 1.33333 11.5076 2.07952 12.7141 3.28596L11.8096 4.19046L11.3672 4.63282L8.00003 7.99998V3.23809C8.00002 3.23809 8.00002 3.23809 8.00001 3.23809C5.37008 3.23809 3.23811 5.37006 3.23811 7.99999C3.23811 10.6299 5.37008 12.7619 8.00001 12.7619C10.6299 12.7619 12.7619 10.6299 12.7619 7.99999Z" fill="#E8EAED"/>
<circle cx="13" cy="13" r="3" fill="#5BCE00"/>
</svg>
