<svg xmlns="http://www.w3.org/2000/svg" enable-background="new 0 0 24 24" height="24px" viewBox="0 0 24 24" width="24px" fill="#FFFFFF"><g><rect fill="none" height="24" width="24"/><path d="M11.99,2C6.47,2,2,6.48,2,12c0,5.52,4.47,10,9.99,10C17.52,22,22,17.52,22,12C22,6.48,17.52,2,11.99,2z M12,20 c-4.42,0-8-3.58-8-8c0-4.42,3.58-8,8-8s8,3.58,8,8C20,16.42,16.42,20,12,20z M17,10.5c0,0.83-0.67,1.5-1.5,1.5 c-0.8,0-1.44-0.62-1.49-1.41l-0.51,0.29L13,10l3.5-2L17,8.87l-0.67,0.39C16.73,9.52,17,9.98,17,10.5z M7.5,8l3.5,2l-0.5,0.89 l-0.51-0.29C9.94,11.38,9.3,12,8.5,12C7.67,12,7,11.33,7,10.5c0-0.52,0.27-0.98,0.67-1.25L7,8.87L7.5,8z M17,17H7c0.5-2,2.58-4,5-4 S16.5,15,17,17z"/></g></svg>