<svg width="20" height="20" viewBox="0 0 20 20" fill="none" xmlns="http://www.w3.org/2000/svg">
<path d="M8.09 8L13.48 5L8.58 2.16C8.40399 2.0572 8.20382 2.00302 8 2.00302C7.79617 2.00302 7.596 2.0572 7.42 2.16L2.48 5L8.09 8Z" fill="#E8EAED"/>
<path d="M13.79 10V6.08L8.11001 9.27L2.21001 6.12V11C2.21241 11.1692 2.25771 11.335 2.34166 11.4819C2.42561 11.6288 2.54547 11.752 2.69001 11.84L5.35001 13.39C5.41991 13.4365 5.478 13.4987 5.51967 13.5716C5.56133 13.6445 5.58541 13.7262 5.59001 13.81V15.74C5.59067 15.7882 5.60333 15.8354 5.62684 15.8775C5.65035 15.9196 5.68398 15.9551 5.72467 15.9809C5.76537 16.0067 5.81185 16.022 5.85992 16.0253C5.908 16.0286 5.95614 16.0199 6.00001 16L10 13.73V10H13.79Z" fill="#E8EAED"/>
<path d="M17 14.14L15.87 15.26V12.26H14.47V15.26L13.35 14.14L12.35 15.14L15.16 18L18 15.16L17 14.14Z" fill="#E8EAED"/>
</svg>
