<svg width="20" height="20" viewBox="0 0 20 20" fill="none" xmlns="http://www.w3.org/2000/svg">
<path d="M12.77 5.25H5.25999V6.75H12.77V5.25Z" fill="#E8EAED"/>
<path d="M3.75999 3.75H14.26V8H15.76V3.75C15.76 3.35218 15.602 2.97064 15.3207 2.68934C15.0394 2.40804 14.6578 2.25 14.26 2.25H3.75999C3.36217 2.25 2.98064 2.40804 2.69933 2.68934C2.41803 2.97064 2.25999 3.35218 2.25999 3.75V14.25C2.25999 14.6478 2.41803 15.0294 2.69933 15.3107C2.98064 15.592 3.36217 15.75 3.75999 15.75H7.99999V14.25H3.75999V3.75Z" fill="#E8EAED"/>
<path d="M7.99999 8.25H5.25999V9.75H7.99999V8.25Z" fill="#E8EAED"/>
<path d="M7.99999 11.25H5.25999V12.75H7.99999V11.25Z" fill="#E8EAED"/>
<path d="M17.33 9.33H10.67C10.317 9.33765 9.9806 9.48128 9.73094 9.73094C9.48128 9.9806 9.33765 10.317 9.33 10.67V17.33C9.33 17.6854 9.47118 18.0262 9.72248 18.2775C9.97378 18.5288 10.3146 18.67 10.67 18.67H17.33C17.6854 18.67 18.0262 18.5288 18.2775 18.2775C18.5288 18.0262 18.67 17.6854 18.67 17.33V10.67C18.67 10.3146 18.5288 9.97378 18.2775 9.72248C18.0262 9.47118 17.6854 9.33 17.33 9.33ZM16.8 12.59L12.39 17H11V15.61L15.41 11.2C15.4707 11.1365 15.5436 11.0859 15.6244 11.0514C15.7052 11.0168 15.7921 10.999 15.88 10.999C15.9679 10.999 16.0548 11.0168 16.1356 11.0514C16.2164 11.0859 16.2893 11.1365 16.35 11.2L16.8 11.65C16.8635 11.7107 16.9141 11.7836 16.9486 11.8644C16.9832 11.9452 17.001 12.0321 17.001 12.12C17.001 12.2079 16.9832 12.2948 16.9486 12.3756C16.9141 12.4564 16.8635 12.5293 16.8 12.59V12.59Z" fill="#E8EAED"/>
<path d="M11.67 15.88V16.33L12.14 16.35L15.41 13.08L14.94 12.61L11.67 15.88Z" fill="#E8EAED"/>
</svg>
