<svg width="16" height="16" viewBox="0 0 16 16" fill="none" xmlns="http://www.w3.org/2000/svg">
<path fill-rule="evenodd" clip-rule="evenodd" d="M10.2067 14.02C10.14 14.4733 9.72666 14.8333 9.23333 14.8333H6.76666C6.27333 14.8333 5.85999 14.4733 5.79999 13.9867L5.61999 12.7267C5.43999 12.6333 5.26666 12.5333 5.09333 12.42L3.89333 12.9C3.42666 13.0733 2.91333 12.88 2.68666 12.4667L1.46666 10.3533C1.23333 9.91334 1.33333 9.39334 1.70666 9.10001L2.72666 8.30667C2.71999 8.20667 2.71333 8.10667 2.71333 8.00001C2.71333 7.90001 2.71999 7.79334 2.72666 7.69334L1.71333 6.90001C1.31999 6.60001 1.21999 6.06001 1.46666 5.64667L2.69999 3.52001C2.92666 3.10667 3.43999 2.92001 3.89333 3.10001L5.09999 3.58667C5.27333 3.47334 5.44666 3.37334 5.61999 3.28001L5.79999 2.00667C5.85999 1.54001 6.27333 1.17334 6.75999 1.17334H9.22666C9.71999 1.17334 10.1333 1.53334 10.1933 2.02001L10.3733 3.28001C10.5533 3.37334 10.7267 3.47334 10.9 3.58667L12.1 3.10667C12.5733 2.93334 13.0867 3.12667 13.3133 3.54001L14.54 5.66001C14.78 6.10001 14.6733 6.62001 14.3 6.91334L13.2867 7.70667C13.2933 7.80667 13.3 7.90667 13.3 8.01334C13.3 8.12001 13.2933 8.22001 13.2867 8.32001L14.3 9.11334C14.6733 9.41334 14.78 9.93334 14.5467 10.3533L13.3067 12.5C13.08 12.9133 12.5667 13.1 12.1067 12.92L10.9067 12.44C10.7333 12.5533 10.56 12.6533 10.3867 12.7467L10.2067 14.02ZM7.07999 13.5H8.91999L9.16666 11.8L9.51999 11.6533C9.81333 11.5333 10.1067 11.36 10.4133 11.1333L10.7133 10.9067L12.3 11.5467L13.22 9.94667L11.8667 8.89334L11.9133 8.52001L11.9154 8.50206C11.9347 8.33514 11.9533 8.17378 11.9533 8.00001C11.9533 7.82001 11.9333 7.64667 11.9133 7.48001L11.8667 7.10667L13.22 6.05334L12.2933 4.45334L10.7 5.09334L10.4 4.86001C10.12 4.64667 9.81999 4.47334 9.51333 4.34667L9.16666 4.20001L8.91999 2.50001H7.07999L6.83333 4.20001L6.47999 4.34001C6.18666 4.46667 5.89333 4.63334 5.58666 4.86667L5.28666 5.08667L3.69999 4.45334L2.77333 6.04667L4.12666 7.10001L4.07999 7.47334C4.05999 7.64667 4.03999 7.82667 4.03999 8.00001C4.03999 8.17334 4.05333 8.35334 4.07999 8.52001L4.12666 8.89334L2.77333 9.94667L3.69333 11.5467L5.28666 10.9067L5.58666 11.14C5.87333 11.36 6.15999 11.5267 6.47333 11.6533L6.82666 11.8L7.07999 13.5ZM10.3333 8.00001C10.3333 9.28867 9.28866 10.3333 7.99999 10.3333C6.71133 10.3333 5.66666 9.28867 5.66666 8.00001C5.66666 6.71134 6.71133 5.66667 7.99999 5.66667C9.28866 5.66667 10.3333 6.71134 10.3333 8.00001Z" fill="#E8EAED"/>
</svg>
