<svg width="16" height="16" viewBox="0 0 16 16" fill="none" xmlns="http://www.w3.org/2000/svg">
<path fill-rule="evenodd" clip-rule="evenodd" d="M2.66666 0.666668C3.03332 0.666668 3.33332 0.966668 3.33332 1.33333V4H4.66666V10.6667C4.66666 11.5333 4.10666 12.2667 3.33332 12.5467V15.3333H1.99999V12.5467C1.22666 12.2667 0.666656 11.5333 0.666656 10.6667V4H1.99999V1.33333C1.99999 0.966668 2.29999 0.666668 2.66666 0.666668ZM1.99999 5.33333V8H3.33332V5.33333H1.99999ZM8.66666 1.33333C8.66666 0.966668 8.36666 0.666668 7.99999 0.666668C7.63332 0.666668 7.33332 0.966668 7.33332 1.33333V4H5.99999V10.6667C5.99999 11.5333 6.55999 12.2667 7.33332 12.5467V15.3333H8.66666V12.5467C9.43999 12.2667 9.99999 11.5333 9.99999 10.6667V4H8.66666V1.33333ZM7.33332 5.33333V8H8.66666V5.33333H7.33332ZM14 4V1.33333C14 0.966668 13.7 0.666668 13.3333 0.666668C12.9667 0.666668 12.6667 0.966668 12.6667 1.33333V4H11.3333V10.6667C11.3333 11.5333 11.8933 12.2667 12.6667 12.5467V15.3333H14V12.5467C14.7733 12.2667 15.3333 11.5333 15.3333 10.6667V4H14ZM12.6667 5.33333V8H14V5.33333H12.6667Z" fill="#E8EAED"/>
</svg>
