<svg width="40" height="40" viewBox="0 0 40 40" fill="none" xmlns="http://www.w3.org/2000/svg">
  <path d="M20 40C20 37.2333 19.475 34.6333 18.425 32.2C17.375 29.7667 15.95 27.65 14.15 25.85C12.35 24.05 10.2333 22.625 7.8 21.575C5.36667 20.525 2.76667 20 0 20C2.76667 20 5.36667 19.475 7.8 18.425C10.2333 17.375 12.35 15.95 14.15 14.15C15.95 12.35 17.375 10.2333 18.425 7.8C19.475 5.36667 20 2.76667 20 0C20 2.76667 20.525 5.36667 21.575 7.8C22.625 10.2333 24.05 12.35 25.85 14.15C27.65 15.95 29.7667 17.375 32.2 18.425C34.6333 19.475 37.2333 20 40 20C37.2333 20 34.6333 20.525 32.2 21.575C29.7667 22.625 27.65 24.05 25.85 25.85C24.05 27.65 22.625 29.7667 21.575 32.2C20.525 34.6333 20 37.2333 20 40Z" fill="var(--vscode-icon-foreground, #c5c5c5)" />
</svg>