<svg width="20" height="20" viewBox="0 0 20 20" fill="none" xmlns="http://www.w3.org/2000/svg">
<path d="M16.9833 7.14167L15.9583 8.68334C16.4526 9.66923 16.6946 10.7624 16.6626 11.8648C16.6307 12.9672 16.3257 14.0444 15.775 15H4.225C3.5093 13.7584 3.21274 12.3193 3.37928 10.8959C3.54582 9.47252 4.16659 8.14069 5.14956 7.09786C6.13254 6.05503 7.42538 5.35671 8.83645 5.10642C10.2475 4.85613 11.7017 5.0672 12.9833 5.70834L14.525 4.68334C12.9554 3.67685 11.0936 3.22584 9.2374 3.40245C7.38121 3.57906 5.63787 4.37309 4.28624 5.65751C2.93461 6.94194 2.0528 8.64256 1.78184 10.4873C1.51089 12.3321 1.86645 14.2145 2.79166 15.8333C2.93709 16.0852 3.1459 16.2947 3.39736 16.4409C3.64881 16.5871 3.93414 16.6649 4.225 16.6667H15.7667C16.0603 16.6678 16.3491 16.5914 16.6038 16.445C16.8584 16.2987 17.0698 16.0877 17.2167 15.8333C17.9845 14.5033 18.3698 12.9869 18.3301 11.4516C18.2904 9.91637 17.8272 8.42194 16.9917 7.13334L16.9833 7.14167ZM8.825 12.8417C8.97978 12.9966 9.1636 13.1196 9.36593 13.2034C9.56826 13.2873 9.78514 13.3305 10.0042 13.3305C10.2232 13.3305 10.4401 13.2873 10.6424 13.2034C10.8447 13.1196 11.0285 12.9966 11.1833 12.8417L15.9 5.76667L8.825 10.4833C8.67004 10.6381 8.5471 10.8219 8.46323 11.0243C8.37936 11.2266 8.33618 11.4435 8.33618 11.6625C8.33618 11.8815 8.37936 12.0984 8.46323 12.3007C8.5471 12.5031 8.67004 12.6869 8.825 12.8417V12.8417Z" fill="#E8EAED"/>
</svg>
