<svg width="16" height="16" viewBox="0 0 16 16" fill="none" xmlns="http://www.w3.org/2000/svg">
<path d="M10.6667 5.33332H5.33337V10.6667H10.6667V5.33332Z" fill="#E8EAED"/>
<path d="M8.00001 1.33333C4.32001 1.33333 1.33334 4.32 1.33334 8C1.33334 11.68 4.32001 14.6667 8.00001 14.6667C11.68 14.6667 14.6667 11.68 14.6667 8C14.6667 4.32 11.68 1.33333 8.00001 1.33333ZM8.00001 13.3333C5.06001 13.3333 2.66668 10.94 2.66668 8C2.66668 5.06 5.06001 2.66667 8.00001 2.66667C10.94 2.66667 13.3333 5.06 13.3333 8C13.3333 10.94 10.94 13.3333 8.00001 13.3333Z" fill="#E8EAED"/>
</svg>
