<svg width="16" height="16" viewBox="0 0 16 16" fill="none" xmlns="http://www.w3.org/2000/svg">
<path fill-rule="evenodd" clip-rule="evenodd" d="M8.00001 9.33333C7.26668 9.33333 6.66668 8.73333 6.66668 8C6.66668 7.26667 7.26668 6.66667 8.00001 6.66667C8.73334 6.66667 9.33334 7.26667 9.33334 8C9.33334 8.73333 8.73334 9.33333 8.00001 9.33333ZM8.00001 10.6667C9.47334 10.6667 10.6667 9.47333 10.6667 8C10.6667 6.52667 9.47334 5.33333 8.00001 5.33333C6.52668 5.33333 5.33334 6.52667 5.33334 8C5.33334 9.47333 6.52668 10.6667 8.00001 10.6667ZM8.00001 12C5.79334 12 4.00001 10.2067 4.00001 8C4.00001 5.79333 5.79334 4 8.00001 4C10.2067 4 12 5.79333 12 8C12 10.2067 10.2067 12 8.00001 12ZM8.00001 13.3333C10.9467 13.3333 13.3333 10.9467 13.3333 8C13.3333 5.05333 10.9467 2.66667 8.00001 2.66667C5.05334 2.66667 2.66668 5.05333 2.66668 8C2.66668 10.9467 5.05334 13.3333 8.00001 13.3333ZM8.00001 14.6667C4.32001 14.6667 1.33334 11.68 1.33334 8C1.33334 4.32 4.32001 1.33333 8.00001 1.33333C11.68 1.33333 14.6667 4.32 14.6667 8C14.6667 11.68 11.68 14.6667 8.00001 14.6667Z" fill="#E8EAED"/>
</svg>
