<svg width="20" height="20" viewBox="0 0 20 20" fill="none" xmlns="http://www.w3.org/2000/svg">
<path fill-rule="evenodd" clip-rule="evenodd" d="M10.075 7.5C9.25834 6.25 7.85834 5.41667 6.25001 5.41667C3.71667 5.41667 1.66667 7.46667 1.66667 10C1.66667 12.5333 3.71667 14.5833 6.25001 14.5833C7.85834 14.5833 9.25834 13.75 10.075 12.5H11.6667V15H16.6667V12.5H18.3333V7.5H10.075ZM16.6667 10.8333H15V13.3333H13.3333V10.8333H9.03334C8.675 12.0333 7.56667 12.9167 6.25 12.9167C4.64167 12.9167 3.33334 11.6083 3.33334 10C3.33334 8.39167 4.64167 7.08333 6.25 7.08333C7.56667 7.08333 8.66667 7.96667 9.03334 9.16667H16.6667V10.8333ZM7.5 10C7.5 10.6904 6.94036 11.25 6.25 11.25C5.55965 11.25 5.00001 10.6904 5.00001 10C5.00001 9.30964 5.55965 8.75 6.25 8.75C6.94036 8.75 7.5 9.30964 7.5 10Z" fill="#E8EAED"/>
</svg>
