<svg width="16" height="16" viewBox="0 0 16 16" fill="none" xmlns="http://www.w3.org/2000/svg">
<path fill-rule="evenodd" clip-rule="evenodd" d="M7 5.5C7 4.67157 6.32843 4 5.5 4C4.67157 4 4 4.67157 4 5.5C4 6.32843 4.67157 7 5.5 7C6.32843 7 7 6.32843 7 5.5ZM5 5.5C5 5.22386 5.22386 5 5.5 5C5.77614 5 6 5.22386 6 5.5C6 5.77614 5.77614 6 5.5 6C5.22386 6 5 5.77614 5 5.5ZM10 4H8V5H10V4ZM12 7V6H8V7H12ZM13 9V8H3V9H13ZM6 10V11H4V10H6ZM12 10H10V11H12V10ZM9 10V11H7V10H9ZM9 13V12H7V13H9Z" fill="#424242"/>
<path fill-rule="evenodd" clip-rule="evenodd" d="M13 3H3L3 13H13V3ZM3 2C2.44772 2 2 2.44772 2 3V13C2 13.5523 2.44772 14 3 14H13C13.5523 14 14 13.5523 14 13V3C14 2.44772 13.5523 2 13 2H3Z" fill="#424242"/>
</svg>
