<svg width="16" height="16" viewBox="0 0 16 16" fill="none" xmlns="http://www.w3.org/2000/svg">
<path d="M2 8V13C2 13.5523 2.44772 14 3 14H13C13.5523 14 14 13.5523 14 13V3C14 2.44771 13.5523 2 13 2H8V3H13V13H3V8H2Z" fill="#424242"/>
<path fill-rule="evenodd" clip-rule="evenodd" d="M4 8V8.60693C4 8.7476 4.08865 8.8736 4.22134 8.92027L5.07266 9.2236L4.686 10.0376C4.62534 10.1649 4.65134 10.3169 4.75067 10.4163L5.59467 11.2616C5.69467 11.3609 5.84601 11.3876 5.974 11.3269L6.78732 10.9403L7.08466 11.7776C7.13199 11.9116 7.258 11.9996 7.39868 11.9996H8.60001C8.74066 11.9996 8.86667 11.9116 8.914 11.7783L9.21201 10.9409L10.0127 11.3216C10.14 11.3836 10.292 11.3563 10.3913 11.2563L11.2413 10.4056C11.3413 10.3056 11.3673 10.1543 11.3067 10.0263L10.926 9.22427L11.778 8.92093C11.9113 8.87427 12 8.74826 12 8.6076V7.41493C12 7.27426 11.9113 7.14827 11.778 7.10159L10.9267 6.79826L11.312 5.98694C11.3727 5.85893 11.346 5.7076 11.2467 5.60826L10.4013 4.7616C10.3013 4.66226 10.15 4.6356 10.022 4.69627L9.21268 5.08093L8.90735 4.2216C8.85999 4.08827 8.73401 3.9996 8.59332 3.9996H7.73267C7.53641 4.33907 7.24326 4.61549 6.89099 4.79106L6.78799 5.08093L6.49017 4.9395C6.33331 4.97902 6.16913 5 6 5V6C6 7.10457 5.10458 8 4 8ZM10 8C10 9.10457 9.10458 10 8 10C6.89542 10 6 9.10457 6 8C6 6.89543 6.89542 6 8 6C9.10458 6 10 6.89543 10 8Z" fill="#424242"/>
<path d="M2 3C2 2.44771 2.44772 2 3 2H6C6.55228 2 7 2.44771 7 3C7 3.55229 6.55228 4 6 4H3C2.44772 4 2 3.55229 2 3Z" fill="#424242"/>
<path d="M3 5C2.44772 5 2 5.44771 2 6C2 6.55229 2.44772 7 3 7H4C4.55228 7 5 6.55229 5 6C5 5.44771 4.55228 5 4 5H3Z" fill="#424242"/>
</svg>
