<svg width="16" height="16" viewBox="0 0 16 16" fill="none" xmlns="http://www.w3.org/2000/svg">
<path fill-rule="evenodd" clip-rule="evenodd" d="M8 4.5C8 4.22386 7.77614 4 7.5 4H4.5C4.22386 4 4 4.22386 4 4.5V7.5C4 7.77614 4.22386 8 4.5 8H7.5C7.77614 8 8 7.77614 8 7.5V4.5ZM5 5H7V7H5V5Z" fill="#424242"/>
<path fill-rule="evenodd" clip-rule="evenodd" d="M8 9.5C8 9.22386 7.77614 9 7.5 9H4.5C4.22386 9 4 9.22386 4 9.5V11.5C4 11.7761 4.22386 12 4.5 12H7.5C7.77614 12 8 11.7761 8 11.5V9.5ZM5 10H7V11H5V10Z" fill="#424242"/>
<path fill-rule="evenodd" clip-rule="evenodd" d="M11.5 9C11.7761 9 12 9.22386 12 9.5V11.5C12 11.7761 11.7761 12 11.5 12H9.5C9.22386 12 9 11.7761 9 11.5V9.5C9 9.22386 9.22386 9 9.5 9H11.5ZM11 10H10V11H11V10Z" fill="#424242"/>
<path fill-rule="evenodd" clip-rule="evenodd" d="M12 4.5C12 4.22386 11.7761 4 11.5 4H9.5C9.22386 4 9 4.22386 9 4.5V7.5C9 7.77614 9.22386 8 9.5 8H11.5C11.7761 8 12 7.77614 12 7.5V4.5ZM10 5H11V7H10V5Z" fill="#424242"/>
<path fill-rule="evenodd" clip-rule="evenodd" d="M2 3C2 2.44772 2.44772 2 3 2H13C13.5523 2 14 2.44772 14 3V13C14 13.5523 13.5523 14 13 14H3C2.44772 14 2 13.5523 2 13V3ZM3 3H13V13H3L3 3Z" fill="#424242"/>
</svg>
