<svg xmlns="http://www.w3.org/2000/svg" width="26" height="26" viewBox="0 0 26 26">
  <g fill="none" fill-rule="evenodd" transform="translate(.817 .832)">
    <path stroke="#FFF" stroke-width="1.5" d="M1.45098598,1.47324094 C-1.03847383,3.86963383 0.174680298,11.246886 7.36994563,9.48239734 C13.6664673,16.3903387 14.6846335,17.1923286 19.5148588,22.5776213 C21.7627504,25.1563135 25.5605074,21.4396345 22.9120666,19.0593466 C17.2024015,13.8809145 16.965324,13.6844696 9.73614827,6.62704206 C10.553818,5.16176979 10.329911,1.2484323 6.95165428,0.396914302 C7.10027424,1.30157696 7.23970469,2.04142863 7.36994563,2.6164693 L4.98819438,4.60702746 L2.07447579,3.55059169 C1.91908769,3.04975799 1.71125775,2.35730775 1.45098598,1.47324094 Z"/>
    <path stroke="#FFF" stroke-width="1.5" d="M9.04449614,11.5660875 C5.35966498,15.1410068 2.58454267,17.849378 0.719129211,19.691201 C-1.36660498,21.8629917 1.52736214,24.7931618 3.77221983,22.94528 C5.99443427,20.8168507 8.79804729,18.057852 12.1830589,14.668284"/>
    <line x1="2.033" x2="4.696" y1="19.013" y2="21.742" stroke="#FFF" stroke-linecap="square" stroke-width="1.5"/>
    <path stroke="#FFF" stroke-width="1.5" d="M12.1830589,8.67906823 L19.2069644,1.57666729 C22.1224822,0.417438382 23.6586991,-0.102556904 23.8156151,0.016681439 C23.972531,0.135919781 23.416069,1.71054736 22.1462291,4.74056419 L15.3084679,11.7340278"/>
    <line x1="18.998" x2="21.683" y1="1.976" y2="4.668" stroke="#FFF" stroke-linecap="square" stroke-width="1.5"/>
    <circle cx="21.261" cy="20.887" r="1" fill="#FFF"/>
  </g>
</svg>
