<?xml version="1.0" encoding="UTF-8"?>
<svg width="24px" height="24px" viewBox="0 0 24 24" version="1.1" xmlns="http://www.w3.org/2000/svg" xmlns:xlink="http://www.w3.org/1999/xlink">
    <title>Apigee</title>
    <g id="Apigee" stroke="none" stroke-width="1" fill="none" fill-rule="evenodd">
        <g id="CC" transform="translate(2.000000, 0.000000)" fill="#858585" fill-rule="nonzero">
            <polygon id="Path" points="3.79414063 3.42890625 7.20585938 0 10.6167188 3.42890625 7.20585938 6.85867188"></polygon>
            <polygon id="Path" points="0 7.24367188 3.41085937 3.81476562 6.82257812 7.24367188 3.41085937 10.6725781"></polygon>
            <path d="M7.20585938,7.62953125 L10.6167188,11.0584375 L8.26499768,13.4220803 C7.86573903,13.0710038 7.38406428,12.8109951 6.85112512,12.6732061 C6.3519638,12.5441502 5.84017123,12.5306738 5.35054197,12.6227947 L3.795,11.0584375 L7.20585938,7.62953125 Z" id="Path-2"></path>
            <polygon id="Path" points="11.3832812 3.42890625 14.7941406 0 18.2058594 3.42890625 14.7941406 6.85867188"></polygon>
            <polygon id="Path" points="15.1774219 7.24367188 18.5891406 3.81476562 22 7.24367188 18.5891406 10.6734375"></polygon>
            <polygon id="Path" points="11.3832812 11.0584375 14.7941406 7.62953125 18.205 11.0584375 14.7941406 14.4882031"></polygon>
        </g>
        <g transform="translate(0.163351, 13.563351)" fill="#858585" fill-rule="nonzero">
            <path d="M1.67483073,5.13664892 L2.34683073,4.46464892 L1.43555801,3.55337619 C1.01423767,3.12438359 0.890539957,2.48490798 1.12148861,1.92974295 C1.35243725,1.37457793 1.89319131,1.01151426 2.4944671,1.00792164 C2.88999725,1.00785293 3.26924689,1.16541558 3.54828528,1.44573983 L4.46464892,2.35701255 L5.13664892,1.67483073 L4.22537619,0.763558008 C3.61269847,0.117668249 2.69774825,-0.144823317 1.83583839,0.0780195981 C0.973928531,0.300862513 0.300862513,0.973928531 0.0780195981,1.83583839 C-0.144823317,2.69774825 0.117668249,3.61269847 0.763558008,4.22537619 L1.67483073,5.13664892 Z" id="Fill-1"></path>
            <path d="M8.5984671,5.13664892 L7.9264671,5.80864892 L8.83773983,6.72501255 C9.38524694,7.31556547 9.36734136,8.23346777 8.79721962,8.80221902 C8.22709788,9.37097028 7.30915515,9.38666666 6.71992164,8.83773983 L5.80864892,7.9264671 L5.13664892,8.5984671 L6.04792164,9.50973983 C6.66059936,10.1556296 7.57554959,10.4181212 8.43745944,10.1952782 C9.2993693,9.97243532 9.97243532,9.2993693 10.1952782,8.43745944 C10.4181212,7.57554959 10.1556296,6.66059936 9.50973983,6.04792164 L8.5984671,5.13664892 Z" id="Fill-3"></path>
            <path d="M3.55337619,8.83773983 C2.96855684,9.42255915 2.02037736,9.42255915 1.43555802,8.83773981 C0.850738687,8.25292047 0.85073868,7.30474099 1.43555801,6.71992164 L2.34683073,5.80864892 L4.46464892,7.9264671 L3.55337619,8.83773983 Z M6.72501255,1.43555801 C7.15224008,1.00907844 7.79439955,0.882145856 8.35175813,1.11400702 C8.9091167,1.34586819 9.27177801,1.89080621 9.27047064,2.4944671 C9.26748584,2.89088103 9.11048494,3.27060413 8.83264892,3.55337619 L7.92137619,4.46464892 L5.80864892,2.34683073 L6.72501255,1.43555801 Z M5.13664892,6.76064892 C4.24089871,6.75785404 3.51544379,6.03239912 3.51264892,5.13664892 L3.51264892,5.13664892 C3.51820559,4.24205024 4.24205024,3.51820559 5.13664892,3.51264892 L5.13664892,3.51264892 C6.03124759,3.51820559 6.75509224,4.24205024 6.76064892,5.13664892 L6.76064892,5.13664892 C6.75785404,6.03239912 6.03239912,6.75785404 5.13664892,6.76064892 L5.13664892,6.76064892 Z M8.5984671,5.13664892 L9.50973983,4.22537619 C10.1556296,3.61269847 10.4181212,2.69774825 10.1952782,1.83583839 C9.97243532,0.973928531 9.2993693,0.300862513 8.43745944,0.0780195981 C7.57554959,-0.144823317 6.66059936,0.117668249 6.04792164,0.763558008 L5.13664892,1.67483073 L1.67483073,5.13664892 L0.763558008,6.04792164 C0.117668249,6.66059936 -0.144823317,7.57554959 0.0780195981,8.43745944 C0.300862513,9.2993693 0.973928531,9.97243532 1.83583839,10.1952782 C2.69774825,10.4181212 3.61269847,10.1556296 4.22537619,9.50973983 L5.13664892,8.5984671 L8.5984671,5.13664892 Z" id="Fill-5"></path>
        </g>
    </g>
</svg>