<?xml version="1.0" encoding="utf-8"?>
<!-- Generator: Adobe Illustrator 27.3.1, SVG Export Plug-In . SVG Version: 6.00 Build 0)  -->
<svg version="1.1" xmlns="http://www.w3.org/2000/svg" xmlns:xlink="http://www.w3.org/1999/xlink" x="0px" y="0px" width="20px"
	 height="20px" viewBox="0 0 20 20" enable-background="new 0 0 20 20" xml:space="preserve">
<g id="Bounding_Box">
	<rect fill="none" width="20" height="20"/>
</g>
<g id="Source">
	<g>
		<rect x="5" y="5" width="4" height="1.5"/>
		<rect x="5" y="10.5" width="8" height="1.5"/>
		<path d="M16.5,13.5h-13v-10H11V2H3.5C2.67,2,2,2.67,2,3.5V18l3-3h11.5c0.83,0,1.5-0.67,1.5-1.5V9h-1.5V13.5z" fill="#858585" />
		<path d="M14.5,10c0-2.49,2.01-4.5,4.5-4.5c-2.49,0-4.5-2.01-4.5-4.5c0,2.49-2.01,4.5-4.5,4.5C12.49,5.5,14.5,7.51,14.5,10z" fill="#858585" />
		<rect x="5" y="7.75" width="7" height="1.5"/>
	</g>
</g>
</svg>
