<?xml version="1.0" encoding="UTF-8"?>
<svg width="24px" height="24px" viewBox="0 0 24 24" version="1.1" xmlns="http://www.w3.org/2000/svg" xmlns:xlink="http://www.w3.org/1999/xlink">
    <!-- Generator: Sketch 62 (91390) - https://sketch.com -->
    <title>APIs</title>
    <desc>Created with Sketch.</desc>
    <g id="APIs" stroke="none" stroke-width="1" fill="none" fill-rule="evenodd">
        <rect id="BG" fill-opacity="0" fill="#FFFFFF" x="0" y="0" width="24" height="24"></rect>
        <g id="cloud-code-white" transform="translate(2.000000, 0.000000)" fill="#858585" fill-rule="nonzero">
            <polygon id="Path" points="3.79414062 3.42890625 7.20585937 0 10.6167188 3.42890625 7.20585937 6.85867188"></polygon>
            <polygon id="Path" points="0 7.24367188 3.41085937 3.81476562 6.82257812 7.24367188 3.41085937 10.6725781"></polygon>
            <polygon id="Path" points="3.795 11.0584375 7.20585937 7.62953125 10.6167187 11.0584375 7.20585937 14.4882031"></polygon>
            <polygon id="Path" points="11.3832813 3.42890625 14.7941406 0 18.2058594 3.42890625 14.7941406 6.85867188"></polygon>
            <polygon id="Path" points="15.1774219 7.24367188 18.5891406 3.81476563 22 7.24367188 18.5891406 10.6734375"></polygon>
            <polygon id="Path" points="11.3832813 11.0584375 14.7941406 7.62953125 18.205 11.0584375 14.7941406 14.4882031"></polygon>
        </g>
        <path d="M1.37279302,23.5641597 L1.80313566,22.2116543 L4.06673794,22.2116543 L4.501384,23.5641597 L5.87417702,23.5641597 L3.52880964,17 L2.3324571,17 L-1.77635684e-15,23.5641597 L1.37279302,23.5641597 Z M3.7181604,21.1161249 L2.15171319,21.1161249 L2.93063337,18.6590733 L3.7181604,21.1161249 Z M7.80555478,23.5641597 L7.80555478,21.2513754 L8.93735592,21.2513754 C9.68041421,21.2513754 10.262094,21.0657816 10.6823953,20.694594 C11.1026966,20.3234064 11.3128473,19.8162169 11.3128473,19.1730254 C11.3128473,18.7492404 11.2167374,18.3712902 11.0245177,18.039175 C10.832298,17.7070598 10.557596,17.4508351 10.2004116,17.2705011 C9.84322718,17.090167 9.42938101,17 8.95887305,17 L8.95887305,17 L6.51452687,17 L6.51452687,23.5641597 L7.80555478,23.5641597 Z M8.95887305,20.155846 L7.80555478,20.155846 L7.80555478,18.0955294 L8.98899704,18.0955294 C9.30745059,18.1015405 9.55704932,18.2037298 9.73779323,18.4020973 C9.91853714,18.6004648 10.0089091,18.8604464 10.0089091,19.1820421 C10.0089091,19.4946211 9.91925438,19.7350665 9.73994494,19.9033783 C9.56063551,20.0716901 9.30027821,20.155846 8.95887305,20.155846 L8.95887305,20.155846 Z M13.62723,23.5641597 L13.62723,17 L12.3362021,17 L12.3362021,23.5641597 L13.62723,23.5641597 Z" id="API" fill="#858585" fill-rule="nonzero"></path>
    </g>
</svg>