<svg width="16" height="16" viewBox="0 0 16 16" fill="none" xmlns="http://www.w3.org/2000/svg">
<path d="M3.43481 5.56022L5.56552 3.43005L7.69568 5.56022L5.56552 7.69092L3.43481 5.56022Z" fill="white"/>
<path d="M1 7.9953L3.13017 5.86487L5.26087 7.9953L3.13017 10.1257L1 7.9953Z" fill="white"/>
<path d="M3.43481 10.4297L5.56525 8.29956L7.69568 10.4297L5.56525 12.5604L3.43481 10.4297Z" fill="white"/>
<path d="M8.30432 5.56022L10.4345 3.43005L12.5652 5.56022L10.4345 7.69092L8.30432 5.56022Z" fill="white"/>
<path d="M10.7391 7.99504L12.8698 5.86487L15 7.99504L12.8698 10.1257L10.7391 7.99504Z" fill="white"/>
<path d="M8.30432 10.4297L10.4348 8.29956L12.5652 10.4297L10.4348 12.5604L8.30432 10.4297Z" fill="white"/>
<g clip-path="url(#clip0_5610_168825)">
<path fill-rule="evenodd" clip-rule="evenodd" d="M3.83337 13.2949L3.33453 13.5444V13.7939L3.83337 13.2949V13.2949Z" fill="white"/>
<path fill-rule="evenodd" clip-rule="evenodd" d="M3.33453 12.2076V12.4571L3.83337 12.7066L3.33453 12.2076V12.2076Z" fill="white"/>
<path fill-rule="evenodd" clip-rule="evenodd" d="M2.77319 14.3541L3.83219 13.2949V14.0004L3.12586 14.7069L2.77319 14.3541V14.3541Z" fill="white"/>
<path fill-rule="evenodd" clip-rule="evenodd" d="M2.77319 11.6463L3.83336 12.7066V12L3.12636 11.293L2.77319 11.6463V11.6463Z" fill="white"/>
<path opacity="0.8" fill-rule="evenodd" clip-rule="evenodd" d="M3.83337 12.7067L3.33453 12.4572V13.5445L3.83337 13.295V12.7067V12.7067Z" fill="white"/>
<path fill-rule="evenodd" clip-rule="evenodd" d="M0.166687 12.7049L0.66552 12.4554V12.2059L0.166687 12.7049V12.7049Z" fill="white"/>
<path fill-rule="evenodd" clip-rule="evenodd" d="M0.66552 13.7923V13.5428L0.166687 13.2933L0.66552 13.7923V13.7923Z" fill="white"/>
<path fill-rule="evenodd" clip-rule="evenodd" d="M1.22685 11.6458L0.167847 12.705V11.9995L0.87418 11.293L1.22685 11.6458V11.6458Z" fill="white"/>
<path fill-rule="evenodd" clip-rule="evenodd" d="M1.22685 14.3537L0.166687 13.2933V14L0.873687 14.707L1.22685 14.3537V14.3537Z" fill="white"/>
<path fill-rule="evenodd" clip-rule="evenodd" d="M1.25021 13.2503C1.38863 13.2503 1.50084 13.1381 1.50084 12.9997C1.50084 12.8612 1.38863 12.749 1.25021 12.749C1.11179 12.749 0.999573 12.8612 0.999573 12.9997C0.999573 13.1381 1.11179 13.2503 1.25021 13.2503Z" fill="white"/>
<path fill-rule="evenodd" clip-rule="evenodd" d="M1.99984 13.2503C2.13826 13.2503 2.25047 13.1381 2.25047 12.9997C2.25047 12.8612 2.13826 12.749 1.99984 12.749C1.86142 12.749 1.74921 12.8612 1.74921 12.9997C1.74921 13.1381 1.86142 13.2503 1.99984 13.2503Z" fill="white"/>
<path fill-rule="evenodd" clip-rule="evenodd" d="M2.74947 13.2503C2.88789 13.2503 3.00011 13.1381 3.00011 12.9997C3.00011 12.8612 2.88789 12.749 2.74947 12.749C2.61105 12.749 2.49884 12.8612 2.49884 12.9997C2.49884 13.1381 2.61105 13.2503 2.74947 13.2503Z" fill="white"/>
<path opacity="0.8" fill-rule="evenodd" clip-rule="evenodd" d="M0.166687 13.2933L0.66552 13.5428V12.4554L0.166687 12.7049V13.2933V13.2933Z" fill="white"/>
</g>
<defs>
<clipPath id="clip0_5610_168825">
<rect width="4" height="4" fill="white" transform="translate(0 11)"/>
</clipPath>
</defs>
</svg>
