<svg width="372" height="232" viewBox="0 0 372 232" fill="none" xmlns="http://www.w3.org/2000/svg">
<g opacity="0.1">
<path fill-rule="evenodd" clip-rule="evenodd" d="M211.602 232H95.7344L87.0293 223.295L153.668 156.656L220.307 223.295L211.602 232ZM368.262 232H252.395L243.689 223.295L310.328 156.656L372 218.328V228.262L368.262 232ZM372 112.394V194.949L330.723 153.672L372 112.394ZM372 61.6717V71.6058L310.328 133.278L243.689 66.6388L310.328 0L372 61.6717ZM220.307 66.6388L153.668 133.278L87.0293 66.6388L153.668 0L220.307 66.6388ZM133.278 153.672L66.6388 220.31L0 153.672L66.6388 87.0328L133.278 153.672Z" fill="#C4C4C4"/>
</g>
</svg>
