<svg width="12" height="12" viewBox="0 0 12 12" fill="none" xmlns="http://www.w3.org/2000/svg">
<g clip-path="url(#clip0_1925_160389)">
<path d="M3.25 7.37988C3.25 6.64806 2.99545 6.02761 2.48636 5.51852C1.97727 5.00943 1.35682 4.75488 0.625 4.75488C1.35682 4.75488 1.97727 4.50033 2.48636 3.99124C2.99545 3.48215 3.25 2.8617 3.25 2.12988C3.25 2.8617 3.50455 3.48215 4.01364 3.99124C4.52273 4.50033 5.14318 4.75488 5.875 4.75488C5.14318 4.75488 4.52273 5.00943 4.01364 5.51852C3.50455 6.02761 3.25 6.64806 3.25 7.37988ZM2.75 11.2549H3.3L9.1875 5.36738L8.9125 5.09238L8.6375 4.81738L2.75 10.7049V11.2549ZM2 12.0049V10.4049L9.175 3.22988C9.31612 3.08821 9.49098 3.01738 9.69959 3.01738C9.9082 3.01738 10.0833 3.08821 10.225 3.22988L10.775 3.77988C10.9167 3.92256 10.9875 4.09782 10.9875 4.30564C10.9875 4.51347 10.9167 4.68821 10.775 4.82988L3.6 12.0049H2ZM9.1875 5.36738L8.9125 5.09238L8.6375 4.81738L9.1875 5.36738Z" fill="#000007" fill-opacity="0.466667"/>
</g>
<defs>
<clipPath id="clip0_1925_160389">
<rect width="12" height="12" fill="white"/>
</clipPath>
</defs>
</svg>
