<svg width="14" height="14" viewBox="1 1 14 14" fill="none" xmlns="http://www.w3.org/2000/svg">
<path d="M3.43479 5.56017L5.56549 3.43L7.69566 5.56017L5.56549 7.69087L3.43479 5.56017Z" fill="#858585"/>
<path d="M1 7.99523L3.13017 5.86479L5.26087 7.99523L3.13017 10.1257L1 7.99523Z" fill="#858585"/>
<path d="M3.43479 10.4297L5.56523 8.29956L7.69566 10.4297L5.56523 12.5604L3.43479 10.4297Z" fill="#858585"/>
<path d="M8.30433 5.56017L10.4345 3.43L12.5652 5.56017L10.4345 7.69087L8.30433 5.56017Z" fill="#858585"/>
<path d="M10.7391 7.99496L12.8698 5.86479L15 7.99496L12.8698 10.1257L10.7391 7.99496Z" fill="#858585"/>
<path d="M8.30433 10.4297L10.4348 8.29956L12.5652 10.4297L10.4348 12.5604L8.30433 10.4297Z" fill="#858585"/>
</svg>
