<?xml version="1.0" encoding="UTF-8" standalone="no"?>
<svg
   width="24"
   height="24"
   viewBox="0 0 24 24"
   version="1.1"
   id="svg6350"
   sodipodi:docname="cloud_api_logo.svg"
   xmlns:inkscape="http://www.inkscape.org/namespaces/inkscape"
   xmlns:sodipodi="http://sodipodi.sourceforge.net/DTD/sodipodi-0.dtd"
   xmlns="http://www.w3.org/2000/svg"
   xmlns:svg="http://www.w3.org/2000/svg">
  <defs
     id="defs6354" />
  <sodipodi:namedview
     id="namedview6352"
     pagecolor="#ffffff"
     bordercolor="#666666"
     borderopacity="1.0"
     inkscape:showpageshadow="2"
     inkscape:pageopacity="0.0"
     inkscape:pagecheckerboard="0"
     inkscape:deskcolor="#d1d1d1"
     showgrid="false" />
  <!-- Generator: Sketch 62 (91390) - https://sketch.com -->
  <title
     id="title6331">APIs</title>
  <desc
     id="desc6333">Created with Sketch.</desc>
  <rect
     id="BG"
     fill-opacity="0"
     fill="#ffffff"
     x="0"
     y="0"
     width="24"
     height="24"
     style="fill-rule:evenodd;stroke:none;stroke-width:1" />
  <g
     id="cloud-code-white"
     transform="translate(2)"
     fill="#858585"
     fill-rule="nonzero"
     style="stroke:none;stroke-width:1">
    <polygon
       id="Path"
       points="10.616719,3.4289062 7.2058594,6.8586719 3.7941406,3.4289062 7.2058594,0 " />
    <polygon
       id="polygon6337"
       points="6.8225781,7.2436719 3.4108594,10.672578 0,7.2436719 3.4108594,3.8147656 " />
    <polygon
       id="polygon6339"
       points="10.616719,11.058438 7.2058594,14.488203 3.795,11.058438 7.2058594,7.6295313 " />
    <polygon
       id="polygon6341"
       points="18.205859,3.4289062 14.794141,6.8586719 11.383281,3.4289062 14.794141,0 " />
    <polygon
       id="polygon6343"
       points="22,7.2436719 18.589141,10.673438 15.177422,7.2436719 18.589141,3.8147656 " />
    <polygon
       id="polygon6345"
       points="18.205,11.058438 14.794141,14.488203 11.383281,11.058438 14.794141,7.6295313 " />
  </g>
  <g
     style="fill:#858585;fill-opacity:1"
     id="g2688"
     transform="matrix(0.6420625,0,0,0.6420625,0.163,13.563)">
    <path
       d="M 16,11.269226 V 4.3076788 L 9.8461538,7.0769127 v 7.0769313 z"
       fill="#000000"
       id="path48"
       style="fill:#858585;fill-opacity:1;stroke-width:0.615384" />
    <path
       fill-rule="evenodd"
       clip-rule="evenodd"
       d="m 2.4615323,9.8461465 c 1.7402708,0 3.1599446,1.3084315 3.2356985,2.9398195 l 2.9181538,1.367878 V 7.0769127 L 2.4615385,4.3076788 Z"
       fill="#000000"
       id="path50"
       style="fill:#858585;fill-opacity:1;stroke-width:0.615384" />
    <path
       fill-rule="evenodd"
       clip-rule="evenodd"
       d="M 3.1993785,3.289813 9.2307692,0 15.260431,3.2889269 9.2306462,6.0035577 Z"
       fill="#000000"
       id="path52"
       style="fill:#858585;fill-opacity:1;stroke-width:0.615384" />
    <path
       fill-rule="evenodd"
       clip-rule="evenodd"
       d="M 6.7692308,12.615381 C 6.7692308,14.479445 5.2539077,16 3.3846154,16 1.5153415,16 0,14.479445 0,12.615381 0,10.751378 1.5153415,9.2307618 3.3846154,9.2307618 c 1.8692923,0 3.3846154,1.5206162 3.3846154,3.3846192 z M 4.3010831,12.923073 H 1.2307692 v -0.615384 h 3.0703262 l -1.1214031,-1.001294 0.4098585,-0.459017 1.7230646,1.538464 0.2570461,0.229539 -0.2570461,0.229538 -1.7230646,1.538402 -0.4098523,-0.459016 z"
       fill="#000000"
       id="path54"
       style="fill:#858585;fill-opacity:1;stroke-width:0.615384" />
  </g>
</svg>
