<?xml version="1.0" encoding="UTF-8"?>
<svg width="40px" height="40px" viewBox="0 0 40 40" version="1.1" xmlns="http://www.w3.org/2000/svg" xmlns:xlink="http://www.w3.org/1999/xlink">
    <title>Minikube</title>
    <defs>
        <polygon id="path-1" points="23.9678733 23.974142 23.9678733 0.0207884418 0 0.0207884418 0 23.974142"></polygon>
    </defs>
    <g id="Minikube" stroke="none" stroke-width="1" fill="none" fill-rule="evenodd">
        <g id="miinikube" transform="translate(20.000000, 20.209402) rotate(-360.000000) translate(-20.000000, -20.209402) translate(8.000000, 7.709402)">
            <g id="Fill-1-Clipped" transform="translate(0.000000, 0.290598)">
                <mask id="mask-2" fill="white">
                    <use xlink:href="#path-1"></use>
                </mask>
                <g id="path-1"></g>
                <path d="M12.0072027,0.0207302372 L12.0072027,0.0207302372 C11.6818181,0.0207302372 11.3562917,0.100324665 11.0463611,0.243361816 L3.20466275,4.09255996 C2.58465973,4.39464046 2.15081358,4.95136491 1.99584827,5.63526582 L0.0585692308,14.271916 C-0.0963960783,14.9558169 0.0585692308,15.655724 0.492557166,16.2124485 L5.91662653,23.1311977 C6.33516048,23.6720615 6.97047573,23.974142 7.63684072,23.974142 L16.3310609,23.974142 C16.9974259,23.974142 17.6327412,23.6720615 18.0512751,23.1311977 L23.4753445,16.2124485 C23.9093324,15.6715847 24.0642977,14.9558169 23.9093324,14.271916 L21.9720534,5.63526582 C21.8170881,4.95136491 21.3832419,4.39464046 20.7632389,4.09255996 L12.9525904,0.243361816 C12.6581137,0.100324665 12.3325873,0.0207302372 12.0072027,0.0207302372 M12.0072027,0.7682194 C12.2241258,0.7682194 12.4411906,0.815946954 12.6426597,0.911402063 L20.4843581,4.744594 C20.8872962,4.95136491 21.1972268,5.33318533 21.2902344,5.77844849 L23.2273717,14.4150987 C23.3358332,14.876368 23.2273717,15.353498 22.932895,15.7193123 L17.5088256,22.638207 C17.229803,23.0040213 16.7959569,23.2107921 16.3465149,23.2107921 L7.65243651,23.2107921 C7.20299456,23.2107921 6.76900663,23.0040213 6.49012578,22.638207 L1.06591463,15.7193123 C0.787033785,15.353498 0.678572246,14.876368 0.77143801,14.4150987 L2.70871704,5.77844849 C2.81717858,5.31717916 3.1116552,4.93550425 3.51459337,4.744594 L11.3562917,0.895541382 C11.5577608,0.815946954 11.7902796,0.7682194 12.0072027,0.7682194" id="Fill-1" fill="#326DE6" fill-rule="nonzero" mask="url(#mask-2)"></path>
            </g>
            <path d="M7.5533165,20.7432723 C7.83345245,21.095933 8.25358496,21.2905983 8.69214561,21.2905983 L15.5666907,21.2784228 C16.0053942,21.2784228 16.4210982,21.0715819 16.7012342,20.7310968 L20.8919881,15.4404699 C21.0129852,15.2753124 20.999557,14.9514432 20.999557,14.678568 L20.999557,7.29059829 L11.9954929,12.4889776 L11.9954929,12.4888344 L3,7.2954685 L3,14.678568 C3,14.9558837 3.09771188,15.2263237 3.27742174,15.4526454 L7.5533165,20.7432723 Z" id="kube-bottom" fill="#1FBFCF" fill-rule="nonzero"></path>
            <polygon id="kube-top" fill="#C9E9EC" fill-rule="nonzero" points="11.9957143 13.2905983 21 7.78900648 11.9872857 2.29059829 3 7.79370611"></polygon>
            <path d="M14.0190837,17.3660194 C13.7638557,17.5355326 13.4156891,17.4871844 13.2067892,17.2206803 C13.1371559,17.1480107 13.1139918,17.0511671 13.0908278,16.9543235 L12.8819279,13.0064352 C14.4832117,13.2002699 15.9453702,13.9509922 17.059362,15.1135577 L14.0190837,17.3660194 Z M10.8628441,16.8573324 C10.8395388,17.1965062 10.5843109,17.4871844 10.2361443,17.4871844 C10.1433469,17.4871844 10.0273855,17.462863 9.95775223,17.4145149 L6.87100467,15.1135577 C7.82256588,14.1205053 9.00619105,13.4424526 10.3290829,13.1276003 C10.5843109,13.0791048 10.8163748,13.0306093 11.0717441,12.9822612 L10.8628441,16.8573324 Z M19.5425737,15.2347228 L19.7746377,15.0167142 L19.7746377,14.9682186 C19.7746377,14.847201 19.7978017,14.7260359 19.8907403,14.6050182 C20.1691323,14.338514 20.5172989,14.1205053 20.9349576,13.8541486 C21.0045909,13.805653 21.0742242,13.781479 21.1438575,13.7329835 C21.2831242,13.6604613 21.3992268,13.5877917 21.5384934,13.4908007 C21.5616575,13.4666267 21.6079855,13.4424526 21.6544548,13.3939571 C21.6776188,13.3697831 21.7009241,13.3697831 21.7009241,13.3454616 C22.0257854,13.0549308 22.0954187,12.5705653 21.8633547,12.255713 C21.7472521,12.0860524 21.5384934,11.9892088 21.3295935,11.9892088 C21.1438575,11.9892088 20.9814269,12.0618783 20.8189962,12.1830434 L20.7725269,12.2313915 C20.7261989,12.255713 20.7028936,12.3040611 20.6565656,12.3282352 C20.5404629,12.4494002 20.4476656,12.5462438 20.3548682,12.6674089 C20.308399,12.715757 20.2620709,12.7884266 20.1924376,12.8369221 C19.867435,13.2002699 19.5657377,13.4908007 19.2640404,13.7088094 C19.1944071,13.7573049 19.1247738,13.781479 19.0551405,13.781479 C19.0088124,13.781479 18.9623431,13.781479 18.9158738,13.7573049 L18.8695458,13.7573049 L18.5910125,13.9509922 C18.2893152,13.6119658 17.9644539,13.3212876 17.6394513,13.0306093 C16.2470674,11.8923652 14.552845,11.189991 12.7891305,11.0204778 L12.7658252,10.7056255 L12.7194972,10.65713 C12.6498639,10.5844605 12.5569253,10.5117909 12.5337613,10.3422777 C12.5105972,9.95475583 12.5569253,9.51873845 12.6033946,9.03437298 L12.6033946,9.01019895 C12.6033946,8.93752939 12.6265586,8.84068576 12.6498639,8.7680162 C12.6730279,8.62267708 12.6961919,8.47733795 12.7194972,8.30782476 L12.7194972,8.16248564 L12.7194972,8.08981608 C12.7194972,7.6539461 12.3944946,7.29059829 12,7.29059829 C11.8144053,7.29059829 11.6286694,7.38744192 11.4894028,7.53278104 C11.3501361,7.67812017 11.2805028,7.87180739 11.2805028,8.08981608 L11.2805028,8.13831161 L11.2805028,8.28365073 C11.2805028,8.45316389 11.3038081,8.59850301 11.3501361,8.74369474 C11.3734414,8.8163643 11.3734414,8.88903386 11.3966054,8.98602489 L11.3966054,9.01019895 C11.4430747,9.49456442 11.5125668,9.9305818 11.4662387,10.3181036 C11.4430747,10.4876168 11.3501361,10.5602864 11.2805028,10.632956 C11.2573388,10.65713 11.2573388,10.65713 11.2341748,10.6813041 L11.2108695,10.9961564 C10.7932108,11.0446519 10.3754109,11.0931474 9.95775223,11.189991 C8.17073248,11.6016869 6.59261264,12.5462438 5.36251819,13.9026441 L5.13045423,13.7329835 L5.08398492,13.7329835 C5.03765688,13.7329835 4.99118759,13.7573049 4.94485952,13.7573049 C4.8752262,13.7573049 4.80559288,13.7329835 4.73595957,13.6846354 C4.43426229,13.4666267 4.13256498,13.1517744 3.80756242,12.7884266 C3.76123435,12.7400785 3.71476507,12.6674089 3.64513175,12.6189134 C3.5523344,12.4978957 3.45953706,12.4009047 3.34343445,12.279887 C3.32027042,12.255713 3.27380113,12.2313915 3.22747308,12.1830434 C3.20416781,12.158722 3.18100379,12.158722 3.18100379,12.1345479 C3.04173715,12.0133828 2.85614247,11.9407133 2.67040654,11.9407133 C2.46150658,11.9407133 2.25274787,12.0377043 2.13664526,12.2072175 C1.90458128,12.5220698 1.9742146,13.0064352 2.29907592,13.2971135 C2.32238119,13.2971135 2.32238119,13.3212876 2.34554521,13.3212876 C2.39187326,13.3454616 2.41517853,13.3939571 2.46150658,13.4181312 C2.60077322,13.5151222 2.71687583,13.5877917 2.85614247,13.6604613 C2.92577579,13.6846354 2.9954091,13.7329835 3.06490118,13.781479 C3.48270108,14.0479832 3.83086767,14.2658445 4.1092597,14.5323487 C4.22536233,14.6533663 4.22536233,14.7745314 4.22536233,14.8955491 L4.22536233,14.9440446 L4.45742629,15.1620533 C4.41095701,15.2347228 4.36462897,15.2830709 4.34146493,15.3557405 C4.06928766,15.8045819 3.83821236,16.2725857 3.64541423,16.7540031 L4.96844728,18.4576843 C5.14740352,17.7983517 5.40941123,17.1614243 5.75701282,16.5668016 L8.51875783,19.1341155 C8.77412706,19.3519768 8.7972911,19.7638201 8.58839114,20.0301769 C8.51875783,20.1270205 8.42596047,20.1996901 8.30999911,20.2240116 L6.71521251,20.7071978 L7.50759165,21.7273724 C7.78457123,22.0904253 8.19982875,22.2905983 8.63358921,22.2905983 L15.4306768,22.2780691 C15.8642961,22.2780691 16.2753163,22.0653669 16.5524371,21.7148431 L17.2963695,20.737268 L15.6668369,20.2481856 C15.3419755,20.151342 15.1562396,19.8121682 15.2258729,19.4731419 C15.249037,19.3762983 15.2955063,19.2794547 15.3651396,19.2067851 L18.1733538,16.5668016 C18.5151645,17.1544964 18.7870593,17.8151556 18.9743489,18.5325649 L20.3237946,16.7596044 C20.1059962,16.2291019 19.8446947,15.7196779 19.5425737,15.2347228 L19.5425737,15.2347228 Z" id="wheel" fill="#326DE6" fill-rule="nonzero"></path>
        </g>
    </g>
</svg>