<?xml version="1.0" encoding="UTF-8"?>
<svg width="24px" height="24px" viewBox="0 0 24 24" version="1.1" xmlns="http://www.w3.org/2000/svg" xmlns:xlink="http://www.w3.org/1999/xlink">
    <title>secrets</title>
    <g id="secrets" stroke="none" stroke-width="1" fill="none" fill-rule="evenodd">
        <rect id="BG" fill-opacity="0" fill="#FFFFFF" x="0" y="0" width="24" height="24"></rect>
        <g id="cloud-code-white" transform="translate(2.000000, 0.000000)" fill="#858585" fill-rule="nonzero">
            <polygon id="Path" points="3.79414062 3.42890625 7.20585937 0 10.6167188 3.42890625 7.20585937 6.85867188"></polygon>
            <polygon id="Path" points="0 7.24367187 3.41085937 3.81476562 6.82257812 7.24367187 3.41085937 10.6725781"></polygon>
            <polygon id="Path" points="3.795 11.0584375 7.20585937 7.62953125 10.6167187 11.0584375 7.20585937 14.4882031"></polygon>
            <polygon id="Path" points="11.3832812 3.42890625 14.7941406 0 18.2058594 3.42890625 14.7941406 6.85867188"></polygon>
            <polygon id="Path" points="15.1774219 7.24367188 18.5891406 3.81476563 22 7.24367188 18.5891406 10.6734375"></polygon>
            <polygon id="Path" points="11.3832812 11.0584375 14.7941406 7.62953125 18.205 11.0584375 14.7941406 14.4882031"></polygon>
        </g>
        <g id="Group" transform="translate(-0.000000, 16.000000)" fill="#898989" fill-rule="nonzero">
            <path d="M13.5,-1.0658141e-15 L13.5,8.02358491 L10.8254717,8.02358491 C10.7551336,8.02358491 10.6981132,7.96656457 10.6981132,7.89622642 L10.6981132,7.13207547 C10.6981132,7.06173732 10.7551336,7.00471698 10.8254717,7.00471698 L12.4810132,7.0047 L12.4810132,1.0188 L10.8254717,1.01886792 C10.7551336,1.01886792 10.6981132,0.961847586 10.6981132,0.891509434 L10.6981132,0.127358491 C10.6981132,0.0570203384 10.7551336,-1.0658141e-15 10.8254717,-1.0658141e-15 L13.5,-1.0658141e-15 Z" id="Combined-Shape-path"></path>
            <path d="M2.90864317,-1.0658141e-15 C2.97898132,-1.0658141e-15 3.03600166,0.0570203384 3.03600166,0.127358491 L3.03600166,0.891509434 C3.03600166,0.961847586 2.97898132,1.01886792 2.90864317,1.01886792 L1.0188,1.0188 L1.0188,7.0047 L2.89740566,7.00471698 C2.96774381,7.00471698 3.02476415,7.06173732 3.02476415,7.13207547 L3.02476415,7.89622642 C3.02476415,7.96656457 2.96774381,8.02358491 2.89740566,8.02358491 L-1.14575016e-14,8.02358491 L-1.14575016e-14,-1.0658141e-15 L2.90864317,-1.0658141e-15 Z" id="Combined-Shape-path"></path>
            <polygon id="Combined-Shape-path" points="10.4132992 2.61084906 10.4132992 3.5937382 10.4543531 3.61025735 11.3657509 3.28813402 11.5545991 3.84152539 10.6349905 4.15538915 10.6103581 4.22146573 11.242589 5.07220172 10.7663631 5.41910378 10.1505538 4.56836779 10.0930783 4.56836779 9.47726892 5.41910378 9.0010431 5.07220172 9.62506323 4.22146573 9.60864156 4.15538915 8.68903302 3.84152539 8.87788121 3.28813402 9.78106824 3.61025735 9.83033298 3.5937382 9.83033298 2.61084906"></polygon>
            <polygon id="Combined-Shape-path" points="3.50728496 2.61084906 3.50728496 3.58400663 3.54833892 3.60036222 4.45973672 3.28142822 4.64858491 3.82934047 3.72897632 4.14009668 3.70434395 4.20551904 4.33657485 5.04783189 3.86034898 5.39129927 3.24453965 4.54898641 3.18706411 4.54898641 2.5712548 5.39129927 2.09502893 5.04783189 2.71904903 4.20551904 2.70262745 4.14009668 1.78301887 3.82934047 1.97186706 3.28142822 2.87505406 3.60036222 2.92431881 3.58400663 2.92431881 2.61084906"></polygon>
            <polygon id="Combined-Shape-path" points="6.94596421 2.61084906 6.94596421 3.58400663 6.98701817 3.60036222 7.89841596 3.28142822 8.08726415 3.82934047 7.16765557 4.14009668 7.1430232 4.20551904 7.7752541 5.04783189 7.29902822 5.39129927 6.6832189 4.54898641 6.62574336 4.54898641 6.00993404 5.39129927 5.53370817 5.04783189 6.15772828 4.20551904 6.1413067 4.14009668 5.22169811 3.82934047 5.41054631 3.28142822 6.31373331 3.60036222 6.36299806 3.58400663 6.36299806 2.61084906"></polygon>
        </g>
    </g>
</svg>