<?xml version="1.0" encoding="UTF-8"?>
<svg width="40px" height="40px" viewBox="0 0 40 40" version="1.1" xmlns="http://www.w3.org/2000/svg" xmlns:xlink="http://www.w3.org/1999/xlink">
    <title>Slack</title>
    <g id="Slack" stroke="none" stroke-width="1" fill="none" fill-rule="evenodd">
        <g id="Slack_Mark" transform="translate(8.000000, 8.000000)" fill-rule="nonzero">
            <g id="Group" transform="translate(0.000000, 12.580645)" fill="#E01E5A">
                <path d="M5.10967742,2.55483871 C5.10967742,3.92903226 3.98709677,5.0516129 2.61290323,5.0516129 C1.23870968,5.0516129 0.116129032,3.92903226 0.116129032,2.55483871 C0.116129032,1.18064516 1.23870968,0.0580645161 2.61290323,0.0580645161 L5.10967742,0.0580645161 L5.10967742,2.55483871 Z" id="Path"></path>
                <path d="M6.36774194,2.55483871 C6.36774194,1.18064516 7.49032258,0.0580645161 8.86451613,0.0580645161 C10.2387097,0.0580645161 11.3612903,1.18064516 11.3612903,2.55483871 L11.3612903,8.80645161 C11.3612903,10.1806452 10.2387097,11.3032258 8.86451613,11.3032258 C7.49032258,11.3032258 6.36774194,10.1806452 6.36774194,8.80645161 L6.36774194,2.55483871 Z" id="Path"></path>
            </g>
            <g id="Group" fill="#36C5F0">
                <path d="M8.86451613,5.10967742 C7.49032258,5.10967742 6.36774194,3.98709677 6.36774194,2.61290323 C6.36774194,1.23870968 7.49032258,0.116129032 8.86451613,0.116129032 C10.2387097,0.116129032 11.3612903,1.23870968 11.3612903,2.61290323 L11.3612903,5.10967742 L8.86451613,5.10967742 Z" id="Path"></path>
                <path d="M8.86451613,6.36774194 C10.2387097,6.36774194 11.3612903,7.49032258 11.3612903,8.86451613 C11.3612903,10.2387097 10.2387097,11.3612903 8.86451613,11.3612903 L2.61290323,11.3612903 C1.23870968,11.3612903 0.116129032,10.2387097 0.116129032,8.86451613 C0.116129032,7.49032258 1.23870968,6.36774194 2.61290323,6.36774194 L8.86451613,6.36774194 Z" id="Path"></path>
            </g>
            <g id="Group" transform="translate(12.580645, 0.000000)" fill="#2EB67D">
                <path d="M6.30967742,8.86451613 C6.30967742,7.49032258 7.43225806,6.36774194 8.80645161,6.36774194 C10.1806452,6.36774194 11.3032258,7.49032258 11.3032258,8.86451613 C11.3032258,10.2387097 10.1806452,11.3612903 8.80645161,11.3612903 L6.30967742,11.3612903 L6.30967742,8.86451613 Z" id="Path"></path>
                <path d="M5.0516129,8.86451613 C5.0516129,10.2387097 3.92903226,11.3612903 2.55483871,11.3612903 C1.18064516,11.3612903 0.0580645161,10.2387097 0.0580645161,8.86451613 L0.0580645161,2.61290323 C0.0580645161,1.23870968 1.18064516,0.116129032 2.55483871,0.116129032 C3.92903226,0.116129032 5.0516129,1.23870968 5.0516129,2.61290323 L5.0516129,8.86451613 Z" id="Path"></path>
            </g>
            <g id="Group" transform="translate(12.580645, 12.580645)" fill="#ECB22E">
                <path d="M2.55483871,6.30967742 C3.92903226,6.30967742 5.0516129,7.43225806 5.0516129,8.80645161 C5.0516129,10.1806452 3.92903226,11.3032258 2.55483871,11.3032258 C1.18064516,11.3032258 0.0580645161,10.1806452 0.0580645161,8.80645161 L0.0580645161,6.30967742 L2.55483871,6.30967742 Z" id="Path"></path>
                <path d="M2.55483871,5.0516129 C1.18064516,5.0516129 0.0580645161,3.92903226 0.0580645161,2.55483871 C0.0580645161,1.18064516 1.18064516,0.0580645161 2.55483871,0.0580645161 L8.80645161,0.0580645161 C10.1806452,0.0580645161 11.3032258,1.18064516 11.3032258,2.55483871 C11.3032258,3.92903226 10.1806452,5.0516129 8.80645161,5.0516129 L2.55483871,5.0516129 Z" id="Path"></path>
            </g>
        </g>
    </g>
</svg>