<svg width="16" height="16" viewBox="0 0 16 16" fill="none" xmlns="http://www.w3.org/2000/svg">
    <path
        d="M5.79287 9.00001L3.14642 6.35356L3.85353 5.64645L6.85353 8.64645C7.04879 8.84172 7.04879 9.1583 6.85353 9.35356L3.85353 12.3536L3.14642 11.6465L5.79287 9.00001Z"
        fill="#C5C5C5"
    />
    <path d="M12 11H8V12H12V11Z" fill="#C5C5C5" />
    <path
        fillRule="evenodd"
        clipRule="evenodd"
        d="M1 2C1 1.44772 1.44772 1 2 1H14C14.5523 1 15 1.44772 15 2V14C15 14.5523 14.5523 15 14 15H2C1.44772 15 1 14.5523 1 14V2ZM14 4H2V14H14V4Z"
        fill="#C5C5C5"
    />
</svg>
