<svg width="16" height="16" viewBox="0 0 16 16" fill="none" xmlns="http://www.w3.org/2000/svg">
<path fill-rule="evenodd" clip-rule="evenodd" d="M11.778 7.1016L10.9267 6.79827L11.312 5.98693C11.3727 5.85893 11.346 5.7076 11.2467 5.60827L10.4013 4.7616C10.3013 4.66227 10.15 4.6356 10.022 4.69627L9.21267 5.08093L8.90733 4.2216C8.86 4.08827 8.734 3.9996 8.59333 3.9996H7.40733C7.266 3.9996 7.14 4.08827 7.09333 4.2216L6.788 5.08093L5.964 4.6896C5.836 4.62827 5.68467 4.65493 5.58533 4.75427L4.74733 5.59293C4.64733 5.69227 4.62133 5.84427 4.68133 5.97093L5.07333 6.79693L4.222 7.10027C4.08867 7.14693 4 7.27293 4 7.41427V8.60693C4 8.7476 4.08867 8.8736 4.22133 8.92027L5.07267 9.2236L4.686 10.0376C4.62533 10.1649 4.65133 10.3169 4.75067 10.4163L5.59467 11.2616C5.69467 11.3609 5.846 11.3876 5.974 11.3269L6.78733 10.9403L7.08467 11.7776C7.132 11.9116 7.258 11.9996 7.39867 11.9996H8.6C8.74067 11.9996 8.86667 11.9116 8.914 11.7783L9.212 10.9409L10.0127 11.3216C10.14 11.3836 10.292 11.3563 10.3913 11.2563L11.2413 10.4056C11.3413 10.3056 11.3673 10.1543 11.3067 10.0263L10.926 9.22427L11.778 8.92093C11.9113 8.87427 12 8.74827 12 8.6076V7.41493C12 7.27427 11.9113 7.14827 11.778 7.1016ZM8 10C9.10457 10 10 9.10457 10 8C10 6.89543 9.10457 6 8 6C6.89543 6 6 6.89543 6 8C6 9.10457 6.89543 10 8 10Z" fill="#C5C5C5"/>
<path fill-rule="evenodd" clip-rule="evenodd" d="M13 3H3L3 13H13V3ZM3 2C2.44772 2 2 2.44772 2 3V13C2 13.5523 2.44772 14 3 14H13C13.5523 14 14 13.5523 14 13V3C14 2.44772 13.5523 2 13 2H3Z" fill="#C5C5C5"/>
</svg>
