<svg width="16" height="16" viewBox="0 0 16 16" fill="none" xmlns="http://www.w3.org/2000/svg">
<path fill="#C5C5C5" fill-rule="evenodd" clip-rule="evenodd" d="M5 3C4.44772 3 4 3.44772 4 4V6C4 6.55228 4.44772 7 5 7H7V8H3V10H1C0.447723 10 0 10.4477 0 11V13C0 13.5523 0.447723 14 1 14H6C6.55228 14 7 13.5523 7 13V11C7 10.4477 6.55228 10 6 10H4V9H11V10H9C8.44772 10 8 10.4477 8 11V13C8 13.5523 8.44772 14 9 14H14C14.5523 14 15 13.5523 15 13V11C15 10.4477 14.5523 10 14 10H12V8H8V7H10C10.5523 7 11 6.55228 11 6V4C11 3.44772 10.5523 3 10 3H5ZM10 4H5V6H10V4ZM14 11H9V13H14V11ZM1 11H6V13H1V11Z"/>
</svg>
