<svg xmlns="http://www.w3.org/2000/svg" width="16" height="16" viewBox="0 0 16 16">
  <path fill="#C3C3C3" fill-rule="evenodd" d="M14.7905,4.9209 L14.3725,5.2419 L13.7325,4.4079 L14.1295,4.1039 C14.3835,3.9289 14.7245,3.9669 14.8905,4.1859 C15.0555,4.4029 15.0005,4.7399 14.7905,4.9209 L14.7905,4.9209 Z M7.9885,10.1449 L7.3485,9.3109 L12.9395,5.0179 L13.5795,5.8509 L7.9885,10.1449 Z M7.1925,10.7499 L6.5995,10.8099 L6.3505,10.4849 L6.5605,9.9269 L7.1925,10.7499 Z M12.0025,9.0199 C12.0025,10.6779 12.0015,12.3369 11.9975,13.9959 L0.9995,13.9959 L0.9995,4.9969 L11.3255,4.9969 L5.8455,9.2049 C5.7715,9.2609 5.7155,9.3369 5.6825,9.4239 L4.9905,11.2519 C4.9285,11.4139 4.9555,11.5959 5.0615,11.7329 C5.1565,11.8569 5.3035,11.9289 5.4575,11.9289 C5.4745,11.9289 5.4915,11.9279 5.5085,11.9259 L7.4435,11.7289 C7.5365,11.7199 7.6235,11.6849 7.6975,11.6289 L12.0015,8.3229 L12.0025,9.0199 Z M0.9995,1.9999 L11.9965,1.9999 L11.9985,3.9969 L0.9995,3.9969 L0.9995,1.9999 Z M15.6865,3.5819 C15.1945,2.9329 14.2625,2.7989 13.5415,3.2949 L12.9985,3.7129 L12.9965,1.4999 C12.9965,1.2239 12.7725,0.9999 12.4965,0.9999 L0.4995,0.9999 C0.2235,0.9999 -0.0005,1.2239 -0.0005,1.4999 L-0.0005,14.4959 C-0.0005,14.7729 0.2235,14.9959 0.4995,14.9959 L12.4965,14.9959 C12.7725,14.9959 12.9965,14.7729 12.9965,14.4979 C13.0005,12.6709 13.0025,10.8449 13.0025,9.0189 L13.0025,9.0189 L13.0015,7.5549 L15.4195,5.6979 C16.0575,5.1529 16.1745,4.2239 15.6865,3.5819 L15.6865,3.5819 Z"/>
</svg>
