<svg xmlns="http://www.w3.org/2000/svg" xmlns:xlink="http://www.w3.org/1999/xlink" width="16" height="16" viewBox="0 0 16 16">
  <defs>
    <clipPath id="clip-path">
      <rect id="Rectangle_398" data-name="Rectangle 398" width="16" height="16"/>
    </clipPath>
  </defs>
  <g id="Light_open_HRTT" data-name="Light open HRTT" clip-path="url(#clip-path)">
    <g id="Group_3531" data-name="Group 3531" transform="translate(-392.538 -207.516)">
      <g id="Group_3528" data-name="Group 3528" transform="translate(393 208.516)">
        <path id="Path_1616" data-name="Path 1616" d="M20.941,12.822l3.373-1.475,3.349,1.34L24.3,14.255Z" transform="translate(-16.768 -11.347)" fill="none" stroke="#424242" stroke-linecap="round" stroke-linejoin="round" stroke-width="0.7"/>
        <path id="Path_1625" data-name="Path 1625" d="M0,0V1.331" transform="translate(4.173 1.475)" fill="none" stroke="#424242" stroke-linecap="round" stroke-width="0.7"/>
        <path id="Path_1624" data-name="Path 1624" d="M0,0V1.238" transform="translate(7.534 2.956)" fill="none" stroke="#424242" stroke-linecap="round" stroke-width="0.7"/>
        <line id="Line_102" data-name="Line 102" y2="1.509" transform="translate(10.895 1.475)" fill="#a99978" stroke="#424242" stroke-linecap="round" stroke-linejoin="round" stroke-width="0.7"/>
        <path id="Path_1617" data-name="Path 1617" d="M7.916,25.132l3.476-1.475L14.844,25l-3.465,1.568Z" transform="translate(-7.916 -19.592)" fill="none" stroke="#424242" stroke-linecap="round" stroke-linejoin="round" stroke-width="0.7"/>
        <path id="Path_1618" data-name="Path 1618" d="M7.916,28.124v4.858l1.834.844" transform="translate(-7.916 -22.584)" fill="none" stroke="#424242" stroke-linecap="round" stroke-linejoin="round" stroke-width="0.7"/>
        <path id="Path_1619" data-name="Path 1619" d="M20.941,34.177,24.35,32.7l3.386,1.34-3.4,1.568Z" transform="translate(-16.805 -25.65)" fill="none" stroke="#424242" stroke-linecap="round" stroke-linejoin="round" stroke-width="0.7"/>
        <path id="Path_1620" data-name="Path 1620" d="M20.941,37.169v3.558l3.464,1.481V38.65" transform="translate(-16.805 -28.642)" fill="none" stroke="#424242" stroke-linecap="round" stroke-linejoin="round" stroke-width="0.7"/>
        <path id="Path_1621" data-name="Path 1621" d="M34.9,37.169v3.558l-3.464,1.481" transform="translate(-23.964 -28.642)" fill="none" stroke="#424242" stroke-linecap="round" stroke-linejoin="round" stroke-width="0.7"/>
        <path id="Path_1622" data-name="Path 1622" d="M33.974,25.123l3.476-1.475,3.452,1.34-3.465,1.568Z" transform="translate(-25.832 -19.586)" fill="none" stroke="#424242" stroke-linecap="round" stroke-linejoin="round" stroke-width="0.7"/>
        <path id="Path_1623" data-name="Path 1623" d="M51.054,28.115v4.861l-1.924.844" transform="translate(-35.983 -22.578)" fill="none" stroke="#424242" stroke-linecap="round" stroke-linejoin="round" stroke-width="0.7"/>
      </g>
    </g>
  </g>
</svg>
