<svg width="26" height="32" viewBox="0 0 26 32" fill="none" xmlns="http://www.w3.org/2000/svg">
<path fill-rule="evenodd" clip-rule="evenodd" d="M24.2309 21.8692C22.2877 24.8466 18.2424 25.7212 15.1957 23.8223C12.1486 21.9234 11.2536 17.9707 13.1967 14.9929C15.1399 12.0151 19.1852 11.1405 22.2319 13.0394C25.279 14.9383 26.174 18.8915 24.2309 21.8692Z" stroke="#909090" stroke-width="1.3" stroke-linecap="round"/>
<path d="M21.8751 20.4446L21.875 20.4447C20.7622 22.1895 18.4442 22.7021 16.698 21.5893C14.952 20.4766 14.4394 18.1612 15.5524 16.417C16.6658 14.6724 18.9839 14.1596 20.73 15.2723C22.4756 16.3849 22.9882 18.7004 21.8751 20.4446Z" stroke="#909090" stroke-width="1.3" stroke-linecap="round"/>
<path d="M13.5888 28.8141L13.5792 28.84L13.5716 28.8665C13.4626 29.2436 13.4838 29.9918 14.1138 30.4795L14.5729 29.8863L14.1138 30.4795C14.415 30.7125 14.8456 30.8171 15.247 30.7639C15.6974 30.7042 16.1652 30.4363 16.4062 29.8821C16.4594 29.7597 16.6168 29.3342 16.8094 28.8139C16.8714 28.6463 16.937 28.4689 17.004 28.2887C17.2891 27.5214 17.6141 26.6575 17.8493 26.0889L18.2238 25.1839L17.2524 25.0584C17.1878 25.05 17.0929 25.0427 17.011 25.0363C16.9825 25.0341 16.9555 25.032 16.9319 25.0301C16.8188 25.0206 16.7 25.0086 16.5822 24.9893C16.316 24.9457 16.1762 24.8828 16.13 24.8439L15.3144 24.1578L14.944 25.1573L13.5888 28.8141Z" stroke="#909090" stroke-width="1.5"/>
<path fill-rule="evenodd" clip-rule="evenodd" d="M11.7429 2.16329C12.5514 1.71692 13.5359 1.71105 14.3498 2.14776L18.2304 4.22999L13.6089 6.72053L8.48956 3.95958L11.7429 2.16329ZM15.0183 7.48065L19.6434 4.98817L22.9933 6.78564C23.8601 7.25075 24.3996 8.14545 24.3996 9.11793V13.0814L23.6781 13.498C24.8817 14.6557 25.5939 16.1716 25.7473 17.7511V9.11793C25.7473 7.65922 24.9381 6.31716 23.6379 5.6195L14.9944 0.981616C13.7735 0.326556 12.2968 0.335354 11.0841 1.00491L2.73312 5.61574C1.45685 6.32041 0.666504 7.64941 0.666504 9.09086V18.3759C0.666504 19.8299 1.4706 21.1685 2.76435 21.8681L11.5048 26.5945C12.5699 27.1704 13.8311 27.2394 14.9417 26.8049L15.6082 24.9426L14.7948 25.4039C13.9793 25.8664 12.9781 25.8764 12.1533 25.4304L8.49903 23.4544V18.164L11.6042 19.7711C11.6202 19.7793 11.6361 19.7875 11.6521 19.7955C11.5409 19.2771 11.4909 18.7462 11.5046 18.2139L8.49903 16.6584V12.5552C8.49903 11.5914 9.03824 10.7033 9.90792 10.2346L13.6086 8.24031L17.3056 10.2342C17.8375 10.5211 18.2457 10.9649 18.4825 11.4869C18.9767 11.4759 19.4741 11.5144 19.9664 11.6043C19.6972 10.543 18.9841 9.61951 17.9728 9.07413L15.0183 7.48065ZM7.12776 15.9487V12.5552C7.12776 11.1095 7.93657 9.77733 9.24108 9.07433L12.1992 7.48019L7.097 4.72845L3.39197 6.77411C2.54112 7.24389 2.01422 8.1299 2.01422 9.09086V13.3023L7.12776 15.9487ZM2.01422 14.8079L7.12776 17.4543V22.7129L3.41279 20.704C2.55029 20.2376 2.01422 19.3452 2.01422 18.3759V14.8079Z" fill="#909090"/>
</svg>
