<svg xmlns="http://www.w3.org/2000/svg" width="17" height="16" viewBox="0 0 17 16">
    <path
        fill="#424242"
        fillRule="evenodd"
        clipRule="evenodd"
        d="M14.8892 9.99997H15.8892C15.8892 6.14097 12.7492 2.99997 8.88916 2.99997C5.02916 2.99997 1.88916 6.14097 1.88916 9.99997H2.88916C2.88916 6.69097 5.58016 3.99997 8.88916 3.99997C12.1982 3.99997 14.8892 6.69097 14.8892 9.99997ZM6.89016 9.99707C6.89016 8.89407 7.78716 7.99707 8.89016 7.99707C9.99316 7.99707 10.8902 8.89407 10.8902 9.99707C10.8902 11.1001 9.99316 11.9971 8.89016 11.9971C7.78716 11.9971 6.89016 11.1001 6.89016 9.99707ZM5.89016 9.99707C5.89016 11.6511 7.23616 12.9971 8.89016 12.9971C10.5442 12.9971 11.8902 11.6511 11.8902 9.99707C11.8902 8.34307 10.5442 6.99707 8.89016 6.99707C7.23616 6.99707 5.89016 8.34307 5.89016 9.99707Z"
    />
</svg>